M48
; DRILL file {KiCad 9.0.0} date 2025-03-25T22:48:29+0200
; FORMAT={-:-/ absolute / inch / decimal}
; #@! TF.CreationDate,2025-03-25T22:48:29+02:00
; #@! TF.GenerationSoftware,Kicad,Pcbnew,9.0.0
; #@! TF.FileFunction,Plated,1,2,PTH
FMAT,2
INCH
; #@! TA.AperFunction,Plated,PTH,ComponentDrill
T1C0.0079
; #@! TA.AperFunction,Plated,PTH,ComponentDrill
T2C0.0236
; #@! TA.AperFunction,Plated,PTH,ComponentDrill
T3C0.0295
; #@! TA.AperFunction,Plated,PTH,ComponentDrill
T4C0.0394
%
G90
G05
T1
X2.0807Y-2.8256
X2.0807Y-2.8689
X2.0807Y-2.9654
X2.0807Y-3.0087
X2.0807Y-3.1051
X2.0807Y-3.1484
X2.0807Y-3.2449
X2.0807Y-3.2882
T3
X1.4567Y-2.5413
X1.5354Y-2.5413
T4
X1.1476Y-1.5827
X1.1476Y-1.6827
X1.1476Y-1.7827
X1.1476Y-1.8827
X1.1476Y-1.9827
X1.1476Y-2.0827
X1.1476Y-2.1827
X1.1476Y-2.2827
X1.1476Y-2.3827
X1.1476Y-2.4827
X1.1476Y-2.5827
X1.1476Y-2.6827
X1.1476Y-2.7827
X1.1476Y-2.8827
X1.1476Y-2.9827
X1.1476Y-3.0827
X1.2476Y-1.5827
X1.2476Y-1.6827
X1.2476Y-1.7827
X1.2476Y-1.8827
X1.2476Y-1.9827
X1.2476Y-2.0827
X1.2476Y-2.1827
X1.2476Y-2.2827
X1.2476Y-2.3827
X1.2476Y-2.4827
X1.2476Y-2.5827
X1.2476Y-2.6827
X1.2476Y-2.7827
X1.2476Y-2.8827
X1.2476Y-2.9827
X1.2476Y-3.0827
T2
G00X2.0374Y-2.4474
M15
G01X2.0374Y-2.4907
M16
G05
G00X2.0374Y-2.6187
M15
G01X2.0374Y-2.6502
M16
G05
G00X2.3776Y-2.4474
M15
G01X2.3776Y-2.4907
M16
G05
G00X2.3776Y-2.6187
M15
G01X2.3776Y-2.6502
M16
G05
M30
