%TF.GenerationSoftware,KiCad,Pcbnew,9.0.0*%
%TF.CreationDate,2025-03-25T22:48:29+02:00*%
%TF.ProjectId,EEE3088F Power Board,45454533-3038-4384-9620-506f77657220,rev?*%
%TF.SameCoordinates,Original*%
%TF.FileFunction,Copper,L1,Top*%
%TF.FilePolarity,Positive*%
%FSLAX46Y46*%
G04 Gerber Fmt 4.6, Leading zero omitted, Abs format (unit mm)*
G04 Created by KiCad (PCBNEW 9.0.0) date 2025-03-25 22:48:29*
%MOMM*%
%LPD*%
G01*
G04 APERTURE LIST*
G04 Aperture macros list*
%AMRoundRect*
0 Rectangle with rounded corners*
0 $1 Rounding radius*
0 $2 $3 $4 $5 $6 $7 $8 $9 X,Y pos of 4 corners*
0 Add a 4 corners polygon primitive as box body*
4,1,4,$2,$3,$4,$5,$6,$7,$8,$9,$2,$3,0*
0 Add four circle primitives for the rounded corners*
1,1,$1+$1,$2,$3*
1,1,$1+$1,$4,$5*
1,1,$1+$1,$6,$7*
1,1,$1+$1,$8,$9*
0 Add four rect primitives between the rounded corners*
20,1,$1+$1,$2,$3,$4,$5,0*
20,1,$1+$1,$4,$5,$6,$7,0*
20,1,$1+$1,$6,$7,$8,$9,0*
20,1,$1+$1,$8,$9,$2,$3,0*%
%AMFreePoly0*
4,1,37,0.478536,1.278536,0.480000,1.275000,0.480000,-1.275000,0.478536,-1.278536,0.475000,-1.280000,-0.475000,-1.280000,-0.478536,-1.278536,-0.480000,-1.275000,-0.480000,1.100000,-0.478536,1.103536,-0.475000,1.105000,-0.466273,1.105000,-0.448826,1.106938,-0.431331,1.110826,-0.413692,1.116706,-0.405996,1.119592,-0.398236,1.123472,-0.398031,1.123569,-0.389494,1.127363,-0.382906,1.132069,
-0.382650,1.132240,-0.374967,1.137041,-0.361254,1.148796,-0.354545,1.154545,-0.342796,1.168254,-0.337041,1.174967,-0.327365,1.190450,-0.319592,1.205996,-0.316706,1.213692,-0.310826,1.231331,-0.306938,1.248826,-0.305000,1.266273,-0.305000,1.275000,-0.303536,1.278536,-0.300000,1.280000,0.475000,1.280000,0.478536,1.278536,0.478536,1.278536,$1*%
%AMFreePoly1*
4,1,23,0.500000,-0.750000,0.000000,-0.750000,0.000000,-0.745722,-0.065263,-0.745722,-0.191342,-0.711940,-0.304381,-0.646677,-0.396677,-0.554381,-0.461940,-0.441342,-0.495722,-0.315263,-0.495722,-0.250000,-0.500000,-0.250000,-0.500000,0.250000,-0.495722,0.250000,-0.495722,0.315263,-0.461940,0.441342,-0.396677,0.554381,-0.304381,0.646677,-0.191342,0.711940,-0.065263,0.745722,0.000000,0.745722,
0.000000,0.750000,0.500000,0.750000,0.500000,-0.750000,0.500000,-0.750000,$1*%
%AMFreePoly2*
4,1,23,0.000000,0.745722,0.065263,0.745722,0.191342,0.711940,0.304381,0.646677,0.396677,0.554381,0.461940,0.441342,0.495722,0.315263,0.495722,0.250000,0.500000,0.250000,0.500000,-0.250000,0.495722,-0.250000,0.495722,-0.315263,0.461940,-0.441342,0.396677,-0.554381,0.304381,-0.646677,0.191342,-0.711940,0.065263,-0.745722,0.000000,-0.745722,0.000000,-0.750000,-0.500000,-0.750000,
-0.500000,0.750000,0.000000,0.750000,0.000000,0.745722,0.000000,0.745722,$1*%
G04 Aperture macros list end*
%TA.AperFunction,SMDPad,CuDef*%
%ADD10RoundRect,0.375000X-0.625000X-0.375000X0.625000X-0.375000X0.625000X0.375000X-0.625000X0.375000X0*%
%TD*%
%TA.AperFunction,SMDPad,CuDef*%
%ADD11RoundRect,0.500000X-0.500000X-1.400000X0.500000X-1.400000X0.500000X1.400000X-0.500000X1.400000X0*%
%TD*%
%TA.AperFunction,SMDPad,CuDef*%
%ADD12RoundRect,0.087500X-0.487500X-0.087500X0.487500X-0.087500X0.487500X0.087500X-0.487500X0.087500X0*%
%TD*%
%TA.AperFunction,SMDPad,CuDef*%
%ADD13RoundRect,0.050000X-0.675000X-0.050000X0.675000X-0.050000X0.675000X0.050000X-0.675000X0.050000X0*%
%TD*%
%TA.AperFunction,SMDPad,CuDef*%
%ADD14RoundRect,0.062500X-0.162500X-0.062500X0.162500X-0.062500X0.162500X0.062500X-0.162500X0.062500X0*%
%TD*%
%TA.AperFunction,SMDPad,CuDef*%
%ADD15R,0.500000X0.650000*%
%TD*%
%TA.AperFunction,SMDPad,CuDef*%
%ADD16R,0.500000X0.250000*%
%TD*%
%TA.AperFunction,SMDPad,CuDef*%
%ADD17FreePoly0,0.000000*%
%TD*%
%TA.AperFunction,SMDPad,CuDef*%
%ADD18RoundRect,0.150000X-0.687500X-0.150000X0.687500X-0.150000X0.687500X0.150000X-0.687500X0.150000X0*%
%TD*%
%TA.AperFunction,HeatsinkPad*%
%ADD19R,2.100000X3.300000*%
%TD*%
%TA.AperFunction,SMDPad,CuDef*%
%ADD20RoundRect,0.035000X-0.335000X-0.105000X0.335000X-0.105000X0.335000X0.105000X-0.335000X0.105000X0*%
%TD*%
%TA.AperFunction,SMDPad,CuDef*%
%ADD21R,0.900000X1.600000*%
%TD*%
%TA.AperFunction,ComponentPad*%
%ADD22C,0.400000*%
%TD*%
%TA.AperFunction,SMDPad,CuDef*%
%ADD23R,1.970000X0.600000*%
%TD*%
%TA.AperFunction,SMDPad,CuDef*%
%ADD24R,2.413000X3.302000*%
%TD*%
%TA.AperFunction,SMDPad,CuDef*%
%ADD25RoundRect,0.150000X-0.825000X-0.150000X0.825000X-0.150000X0.825000X0.150000X-0.825000X0.150000X0*%
%TD*%
%TA.AperFunction,HeatsinkPad*%
%ADD26R,2.290000X3.000000*%
%TD*%
%TA.AperFunction,SMDPad,CuDef*%
%ADD27RoundRect,0.125000X-0.537500X-0.125000X0.537500X-0.125000X0.537500X0.125000X-0.537500X0.125000X0*%
%TD*%
%TA.AperFunction,SMDPad,CuDef*%
%ADD28C,2.000000*%
%TD*%
%TA.AperFunction,SMDPad,CuDef*%
%ADD29RoundRect,0.250000X-0.375000X-1.000000X0.375000X-1.000000X0.375000X1.000000X-0.375000X1.000000X0*%
%TD*%
%TA.AperFunction,SMDPad,CuDef*%
%ADD30RoundRect,0.237500X-0.250000X-0.237500X0.250000X-0.237500X0.250000X0.237500X-0.250000X0.237500X0*%
%TD*%
%TA.AperFunction,SMDPad,CuDef*%
%ADD31RoundRect,0.250000X-0.400000X-0.625000X0.400000X-0.625000X0.400000X0.625000X-0.400000X0.625000X0*%
%TD*%
%TA.AperFunction,SMDPad,CuDef*%
%ADD32RoundRect,0.150000X-0.587500X-0.150000X0.587500X-0.150000X0.587500X0.150000X-0.587500X0.150000X0*%
%TD*%
%TA.AperFunction,SMDPad,CuDef*%
%ADD33RoundRect,0.250000X-0.925000X-1.500000X0.925000X-1.500000X0.925000X1.500000X-0.925000X1.500000X0*%
%TD*%
%TA.AperFunction,SMDPad,CuDef*%
%ADD34RoundRect,0.110000X-0.440000X-1.590000X0.440000X-1.590000X0.440000X1.590000X-0.440000X1.590000X0*%
%TD*%
%TA.AperFunction,SMDPad,CuDef*%
%ADD35FreePoly1,0.000000*%
%TD*%
%TA.AperFunction,SMDPad,CuDef*%
%ADD36FreePoly2,0.000000*%
%TD*%
%TA.AperFunction,ComponentPad*%
%ADD37RoundRect,0.250000X-0.350000X-0.625000X0.350000X-0.625000X0.350000X0.625000X-0.350000X0.625000X0*%
%TD*%
%TA.AperFunction,ComponentPad*%
%ADD38O,1.200000X1.750000*%
%TD*%
%TA.AperFunction,SMDPad,CuDef*%
%ADD39R,0.600000X1.240000*%
%TD*%
%TA.AperFunction,SMDPad,CuDef*%
%ADD40R,0.300000X1.240000*%
%TD*%
%TA.AperFunction,HeatsinkPad*%
%ADD41O,1.000000X2.100000*%
%TD*%
%TA.AperFunction,HeatsinkPad*%
%ADD42O,1.000000X1.800000*%
%TD*%
%TA.AperFunction,ComponentPad*%
%ADD43R,1.700000X1.700000*%
%TD*%
%TA.AperFunction,ComponentPad*%
%ADD44O,1.700000X1.700000*%
%TD*%
%TA.AperFunction,SMDPad,CuDef*%
%ADD45RoundRect,0.250000X-0.325000X-0.450000X0.325000X-0.450000X0.325000X0.450000X-0.325000X0.450000X0*%
%TD*%
%TA.AperFunction,SMDPad,CuDef*%
%ADD46RoundRect,0.237500X-0.287500X-0.237500X0.287500X-0.237500X0.287500X0.237500X-0.287500X0.237500X0*%
%TD*%
%TA.AperFunction,SMDPad,CuDef*%
%ADD47R,1.270000X1.470000*%
%TD*%
%TA.AperFunction,SMDPad,CuDef*%
%ADD48RoundRect,0.237500X-0.300000X-0.237500X0.300000X-0.237500X0.300000X0.237500X-0.300000X0.237500X0*%
%TD*%
%TA.AperFunction,SMDPad,CuDef*%
%ADD49RoundRect,0.250000X-1.500000X-0.550000X1.500000X-0.550000X1.500000X0.550000X-1.500000X0.550000X0*%
%TD*%
%TA.AperFunction,SMDPad,CuDef*%
%ADD50RoundRect,0.250000X-0.412500X-0.650000X0.412500X-0.650000X0.412500X0.650000X-0.412500X0.650000X0*%
%TD*%
G04 APERTURE END LIST*
D10*
%TO.P,U_P2,1,GND*%
%TO.N,GND*%
X67200000Y-72445000D03*
%TO.P,U_P2,2,VO*%
%TO.N,+3V3*%
X67200000Y-74745000D03*
D11*
X73500000Y-74745000D03*
D10*
%TO.P,U_P2,3,VI*%
%TO.N,Net-(JP_P3-A)*%
X67200000Y-77045000D03*
%TD*%
D12*
%TO.P,U_P1,1,GND*%
%TO.N,GND*%
X74580000Y-61690000D03*
D13*
%TO.P,U_P1,2,SW*%
%TO.N,Net-(U_P1-SW)*%
X74730000Y-62240000D03*
D12*
%TO.P,U_P1,3,VOUT*%
%TO.N,+5V*%
X74580000Y-62790000D03*
D14*
%TO.P,U_P1,4,FB*%
%TO.N,Net-(U_P1-FB)*%
X76180000Y-62990000D03*
%TO.P,U_P1,5,EN*%
%TO.N,Net-(JP_P1-A)*%
X76180000Y-62490000D03*
%TO.P,U_P1,6,MODE*%
%TO.N,Net-(JP_P2-A)*%
X76180000Y-61990000D03*
%TO.P,U_P1,7,VIN*%
%TO.N,Net-(JP_P1-A)*%
X76180000Y-61490000D03*
%TD*%
D15*
%TO.P,U10,1_2,VIN1*%
%TO.N,Net-(JPI4-A)*%
X74115000Y-56900000D03*
D16*
%TO.P,U10,3,EN1*%
%TO.N,/CTRL_EXT_LOAD1*%
X74115000Y-57500000D03*
%TO.P,U10,4,VBIAS*%
%TO.N,Net-(JPI6-A)*%
X74115000Y-57900000D03*
%TO.P,U10,5,EN2*%
%TO.N,/CTRL_EXT_LOAD2*%
X74115000Y-58300000D03*
D15*
%TO.P,U10,6_7,VIN2*%
%TO.N,Net-(JPI5-A)*%
X74115000Y-58900000D03*
%TO.P,U10,13_14,VOUT1*%
%TO.N,/EXT_LOAD1_OUT*%
X75815000Y-56900000D03*
D16*
%TO.P,U10,12,SS1*%
%TO.N,Net-(U10-SS1)*%
X75815000Y-57500000D03*
%TO.P,U10,11,GND*%
%TO.N,GND*%
X75815000Y-57900000D03*
%TO.P,U10,10,SS2*%
%TO.N,Net-(U10-SS2)*%
X75815000Y-58300000D03*
D15*
%TO.P,U10,8_9,VOUT2*%
%TO.N,/EXT_LOAD2_OUT*%
X75815000Y-58900000D03*
D17*
%TO.P,U10,15,EXP*%
%TO.N,unconnected-(U10-EXP-Pad15)*%
X74965000Y-57900000D03*
%TD*%
D18*
%TO.P,U9,1,VDD*%
%TO.N,Net-(U9-VDD)*%
X35632500Y-79725000D03*
%TO.P,U9,2,CFG2*%
%TO.N,unconnected-(U9-CFG2-Pad2)*%
X35632500Y-80725000D03*
%TO.P,U9,3,CFG3*%
%TO.N,unconnected-(U9-CFG3-Pad3)*%
X35632500Y-81725000D03*
%TO.P,U9,4,DP*%
%TO.N,/D+*%
X35632500Y-82725000D03*
%TO.P,U9,5,DM*%
%TO.N,/D-*%
X35632500Y-83725000D03*
%TO.P,U9,6,CC2*%
%TO.N,/CC2*%
X40907500Y-83725000D03*
%TO.P,U9,7,CC1*%
%TO.N,/CC1*%
X40907500Y-82725000D03*
%TO.P,U9,8,VBUS*%
%TO.N,Net-(U9-VBUS)*%
X40907500Y-81725000D03*
%TO.P,U9,9,CFG1*%
%TO.N,Net-(U9-CFG1)*%
X40907500Y-80725000D03*
%TO.P,U9,10,PG*%
%TO.N,unconnected-(U9-PG-Pad10)*%
X40907500Y-79725000D03*
D19*
%TO.P,U9,11,GND*%
%TO.N,GND*%
X38270000Y-81725000D03*
%TD*%
D20*
%TO.P,U8,1,VM*%
%TO.N,/Battery*%
X51865000Y-82220000D03*
%TO.P,U8,2,OUT1*%
%TO.N,/MOTOR1_A_OUT*%
X51865000Y-82720000D03*
%TO.P,U8,3,OUT2*%
%TO.N,/MOTOR1_B_OUT*%
X51865000Y-83220000D03*
%TO.P,U8,4,GND*%
%TO.N,GND*%
X51865000Y-83720000D03*
%TO.P,U8,5,IN2*%
%TO.N,/MOTOR1_CTRL2*%
X53835000Y-83720000D03*
%TO.P,U8,6,IN1*%
%TO.N,/MOTOR1_CTRL1*%
X53835000Y-83220000D03*
%TO.P,U8,7,~{SLEEP}*%
%TO.N,/3V3_M*%
X53835000Y-82720000D03*
%TO.P,U8,8,VCC*%
X53835000Y-82220000D03*
D21*
%TO.P,U8,9,GND*%
%TO.N,GND*%
X52850000Y-82970000D03*
D22*
%TO.P,U8,9_1*%
%TO.N,N/C*%
X52850000Y-82420000D03*
%TO.P,U8,9_2*%
X52850000Y-83520000D03*
%TD*%
D20*
%TO.P,U6,1,VM*%
%TO.N,/Battery*%
X51865000Y-78670000D03*
%TO.P,U6,2,OUT1*%
%TO.N,/MOTOR3_A_OUT*%
X51865000Y-79170000D03*
%TO.P,U6,3,OUT2*%
%TO.N,/MOTOR3_B_OUT*%
X51865000Y-79670000D03*
%TO.P,U6,4,GND*%
%TO.N,GND*%
X51865000Y-80170000D03*
%TO.P,U6,5,IN2*%
%TO.N,/MOTOR3_CTRL2*%
X53835000Y-80170000D03*
%TO.P,U6,6,IN1*%
%TO.N,/MOTOR3_CTRL1*%
X53835000Y-79670000D03*
%TO.P,U6,7,~{SLEEP}*%
%TO.N,/3V3_M*%
X53835000Y-79170000D03*
%TO.P,U6,8,VCC*%
X53835000Y-78670000D03*
D21*
%TO.P,U6,9,GND*%
%TO.N,GND*%
X52850000Y-79420000D03*
D22*
%TO.P,U6,9_1*%
%TO.N,N/C*%
X52850000Y-78870000D03*
%TO.P,U6,9_2*%
X52850000Y-79970000D03*
%TD*%
D20*
%TO.P,U5,1,VM*%
%TO.N,/Battery*%
X51865000Y-75120000D03*
%TO.P,U5,2,OUT1*%
%TO.N,/MOTOR4_A_OUT*%
X51865000Y-75620000D03*
%TO.P,U5,3,OUT2*%
%TO.N,/MOTOR4_B_OUT*%
X51865000Y-76120000D03*
%TO.P,U5,4,GND*%
%TO.N,GND*%
X51865000Y-76620000D03*
%TO.P,U5,5,IN2*%
%TO.N,/MOTOR4_CTRL2*%
X53835000Y-76620000D03*
%TO.P,U5,6,IN1*%
%TO.N,/MOTOR4_CTRL1*%
X53835000Y-76120000D03*
%TO.P,U5,7,~{SLEEP}*%
%TO.N,/3V3_M*%
X53835000Y-75620000D03*
%TO.P,U5,8,VCC*%
X53835000Y-75120000D03*
D21*
%TO.P,U5,9,GND*%
%TO.N,GND*%
X52850000Y-75870000D03*
D22*
%TO.P,U5,9_1*%
%TO.N,N/C*%
X52850000Y-75320000D03*
%TO.P,U5,9_2*%
X52850000Y-76420000D03*
%TD*%
D20*
%TO.P,U4,1,VM*%
%TO.N,/Battery*%
X51865000Y-71570000D03*
%TO.P,U4,2,OUT1*%
%TO.N,/MOTOR2_A_OUT*%
X51865000Y-72070000D03*
%TO.P,U4,3,OUT2*%
%TO.N,/MOTOR2_B_OUT*%
X51865000Y-72570000D03*
%TO.P,U4,4,GND*%
%TO.N,GND*%
X51865000Y-73070000D03*
%TO.P,U4,5,IN2*%
%TO.N,/MOTOR2_CTRL2*%
X53835000Y-73070000D03*
%TO.P,U4,6,IN1*%
%TO.N,/MOTOR2_CTRL1*%
X53835000Y-72570000D03*
%TO.P,U4,7,~{SLEEP}*%
%TO.N,/3V3_M*%
X53835000Y-72070000D03*
%TO.P,U4,8,VCC*%
X53835000Y-71570000D03*
D21*
%TO.P,U4,9,GND*%
%TO.N,GND*%
X52850000Y-72320000D03*
D22*
%TO.P,U4,9_1*%
%TO.N,N/C*%
X52850000Y-71770000D03*
%TO.P,U4,9_2*%
X52850000Y-72870000D03*
%TD*%
D23*
%TO.P,U3,1,TEMP*%
%TO.N,GND*%
X36250000Y-73145000D03*
%TO.P,U3,2,PROG*%
%TO.N,Net-(U3-PROG)*%
X36250000Y-74415000D03*
%TO.P,U3,3,GND*%
%TO.N,GND*%
X36250000Y-75685000D03*
%TO.P,U3,4,V_{CC}*%
%TO.N,Net-(D2-A)*%
X36250000Y-76955000D03*
%TO.P,U3,5,BAT*%
%TO.N,/Battery*%
X41200000Y-76955000D03*
%TO.P,U3,6,~{STDBY}*%
%TO.N,Net-(U3-~{STDBY})*%
X41200000Y-75685000D03*
%TO.P,U3,7,~{CHRG}*%
%TO.N,Net-(U3-~{CHRG})*%
X41200000Y-74415000D03*
%TO.P,U3,8,CE*%
%TO.N,Net-(D2-A)*%
X41200000Y-73145000D03*
D24*
%TO.P,U3,9,EPAD*%
%TO.N,unconnected-(U3-EPAD-Pad9)*%
X38725000Y-75050000D03*
%TD*%
D25*
%TO.P,U2,1,BOOT*%
%TO.N,Net-(U2-BOOT)*%
X67175000Y-80315000D03*
%TO.P,U2,2,NC*%
%TO.N,unconnected-(U2-NC-Pad2)*%
X67175000Y-81585000D03*
%TO.P,U2,3,NC*%
%TO.N,unconnected-(U2-NC-Pad3)*%
X67175000Y-82855000D03*
%TO.P,U2,4,VSENSE*%
%TO.N,Net-(U2-VSENSE)*%
X67175000Y-84125000D03*
%TO.P,U2,5,EN*%
%TO.N,unconnected-(U2-EN-Pad5)*%
X72125000Y-84125000D03*
%TO.P,U2,6,GND*%
%TO.N,GND*%
X72125000Y-82855000D03*
%TO.P,U2,7,VIN*%
%TO.N,/HV*%
X72125000Y-81585000D03*
%TO.P,U2,8,PH*%
%TO.N,Net-(D1-K)*%
X72125000Y-80315000D03*
D26*
%TO.P,U2,9,GNDPAD*%
%TO.N,GND*%
X69650000Y-82220000D03*
%TD*%
D27*
%TO.P,U1,1,IN+*%
%TO.N,/Battery*%
X43412500Y-67675000D03*
%TO.P,U1,2,IN-*%
%TO.N,/Batt+*%
X43412500Y-68325000D03*
%TO.P,U1,3,GND*%
%TO.N,<NO NET>*%
X43412500Y-68975000D03*
%TO.P,U1,4,VS*%
%TO.N,Net-(JPI2-B)*%
X43412500Y-69625000D03*
%TO.P,U1,5,SCL*%
%TO.N,/I2C1_SCL*%
X45687500Y-69625000D03*
%TO.P,U1,6,SDA*%
%TO.N,/I2C1_SDA*%
X45687500Y-68975000D03*
%TO.P,U1,7,A0*%
%TO.N,<NO NET>*%
X45687500Y-68325000D03*
%TO.P,U1,8,A1*%
%TO.N,/I2C1_SCL*%
X45687500Y-67675000D03*
%TD*%
D28*
%TO.P,TP_P6,1,1*%
%TO.N,+3V3*%
X48200000Y-52050000D03*
%TD*%
%TO.P,TP_P5,1,1*%
%TO.N,GND*%
X48200000Y-48000000D03*
%TD*%
%TO.P,TP_P4,1,1*%
%TO.N,Net-(U_P1-FB)*%
X48200000Y-43950000D03*
%TD*%
%TO.P,TP_P3,1,1*%
%TO.N,+5V*%
X48200000Y-39900000D03*
%TD*%
%TO.P,TP_P2,1,1*%
%TO.N,Net-(U_P1-SW)*%
X44150000Y-60150000D03*
%TD*%
%TO.P,TP_P1,1,1*%
%TO.N,Net-(JP_P1-A)*%
X44150000Y-56100000D03*
%TD*%
%TO.P,TP21,1,1*%
%TO.N,Net-(JPI6-A)*%
X44150000Y-52050000D03*
%TD*%
%TO.P,TP19,1,1*%
%TO.N,/EXT_LOAD1_OUT*%
X44150000Y-48000000D03*
%TD*%
%TO.P,TP18,1,1*%
%TO.N,/EXT_LOAD2_OUT*%
X44150000Y-43950000D03*
%TD*%
%TO.P,TP17,1,1*%
%TO.N,Net-(U2-VSENSE)*%
X44150000Y-39900000D03*
%TD*%
%TO.P,TP15,1,1*%
%TO.N,/Battery*%
X40100000Y-60150000D03*
%TD*%
%TO.P,TP14,1,1*%
%TO.N,/FAST_CHARGE_CTRL*%
X40100000Y-56100000D03*
%TD*%
%TO.P,TP13,1,1*%
%TO.N,Net-(Q1-G)*%
X40100000Y-52050000D03*
%TD*%
%TO.P,TP12,1,1*%
%TO.N,Net-(Q1-D)*%
X40100000Y-48000000D03*
%TD*%
%TO.P,TP11,1,1*%
%TO.N,GND*%
X40100000Y-43950000D03*
%TD*%
%TO.P,TP10,1,1*%
%TO.N,Net-(U3-PROG)*%
X40100000Y-39900000D03*
%TD*%
%TO.P,TP9,1,1*%
%TO.N,Net-(U9-CFG1)*%
X36050000Y-60150000D03*
%TD*%
%TO.P,TP8,1,1*%
%TO.N,GND*%
X36050000Y-56100000D03*
%TD*%
%TO.P,TP7,1,1*%
%TO.N,Net-(U9-VDD)*%
X36050000Y-52050000D03*
%TD*%
%TO.P,TP6,1,1*%
%TO.N,/HV*%
X36050000Y-48000000D03*
%TD*%
D29*
%TO.P,SW2,1,1*%
%TO.N,/Battery*%
X64940000Y-62740000D03*
%TO.P,SW2,2,2*%
%TO.N,/Switch-*%
X67440000Y-62740000D03*
%TO.P,SW2,3,3*%
%TO.N,GND*%
X69940000Y-62740000D03*
%TD*%
D30*
%TO.P,R_Pfb2,1*%
%TO.N,Net-(U_P1-FB)*%
X64537500Y-54190000D03*
%TO.P,R_Pfb2,2*%
%TO.N,GND*%
X66362500Y-54190000D03*
%TD*%
%TO.P,R_Pfb1,1*%
%TO.N,+5V*%
X64537500Y-51680000D03*
%TO.P,R_Pfb1,2*%
%TO.N,Net-(U_P1-FB)*%
X66362500Y-51680000D03*
%TD*%
%TO.P,R_P2,1*%
%TO.N,+3V3*%
X64537500Y-49170000D03*
%TO.P,R_P2,2*%
%TO.N,Net-(D6-A)*%
X66362500Y-49170000D03*
%TD*%
%TO.P,R_P1,1*%
%TO.N,+5V*%
X64537500Y-46660000D03*
%TO.P,R_P1,2*%
%TO.N,Net-(D5-A)*%
X66362500Y-46660000D03*
%TD*%
D31*
%TO.P,R_Ishunt1,1*%
%TO.N,/Battery*%
X28250000Y-85620000D03*
%TO.P,R_Ishunt1,2*%
%TO.N,/Batt+*%
X31350000Y-85620000D03*
%TD*%
D30*
%TO.P,R_I2,1*%
%TO.N,Net-(JPI1-B)*%
X64537500Y-44150000D03*
%TO.P,R_I2,2*%
%TO.N,/I2C1_SCL*%
X66362500Y-44150000D03*
%TD*%
%TO.P,R_I1,1*%
%TO.N,Net-(JPI1-B)*%
X64537500Y-41640000D03*
%TO.P,R_I1,2*%
%TO.N,/I2C1_SDA*%
X66362500Y-41640000D03*
%TD*%
%TO.P,R_C_dd1,1*%
%TO.N,/HV*%
X64537500Y-39130000D03*
%TO.P,R_C_dd1,2*%
%TO.N,Net-(U9-VDD)*%
X66362500Y-39130000D03*
%TD*%
%TO.P,R_C_cfg1,1*%
%TO.N,Net-(U9-CFG1)*%
X60187500Y-59210000D03*
%TO.P,R_C_cfg1,2*%
%TO.N,GND*%
X62012500Y-59210000D03*
%TD*%
%TO.P,R_C_bus1,1*%
%TO.N,/HV*%
X60187500Y-56700000D03*
%TO.P,R_C_bus1,2*%
%TO.N,Net-(U9-VBUS)*%
X62012500Y-56700000D03*
%TD*%
%TO.P,R_B_slow1,1*%
%TO.N,Net-(U3-PROG)*%
X60187500Y-54190000D03*
%TO.P,R_B_slow1,2*%
%TO.N,GND*%
X62012500Y-54190000D03*
%TD*%
%TO.P,R_B_pd1,1*%
%TO.N,Net-(Q1-G)*%
X60187500Y-51680000D03*
%TO.P,R_B_pd1,2*%
%TO.N,GND*%
X62012500Y-51680000D03*
%TD*%
%TO.P,R_B_LED2,1*%
%TO.N,Net-(D3-K)*%
X60187500Y-44150000D03*
%TO.P,R_B_LED2,2*%
%TO.N,Net-(U3-~{CHRG})*%
X62012500Y-44150000D03*
%TD*%
%TO.P,R_B_LED1,1*%
%TO.N,Net-(D2-K)*%
X60187500Y-41640000D03*
%TO.P,R_B_LED1,2*%
%TO.N,Net-(U3-~{STDBY})*%
X62012500Y-41640000D03*
%TD*%
%TO.P,R_B_fast1,1*%
%TO.N,Net-(U3-PROG)*%
X60187500Y-49170000D03*
%TO.P,R_B_fast1,2*%
%TO.N,Net-(Q1-D)*%
X62012500Y-49170000D03*
%TD*%
%TO.P,R_B_b1,1*%
%TO.N,/FAST_CHARGE_CTRL*%
X60187500Y-46660000D03*
%TO.P,R_B_b1,2*%
%TO.N,Net-(Q1-G)*%
X62012500Y-46660000D03*
%TD*%
%TO.P,R20,1*%
%TO.N,/5V_Buck_Out*%
X60187500Y-39130000D03*
%TO.P,R20,2*%
%TO.N,Net-(D2-A)*%
X62012500Y-39130000D03*
%TD*%
%TO.P,R19,1*%
%TO.N,/5V_Buck_Out*%
X55837500Y-59210000D03*
%TO.P,R19,2*%
%TO.N,Net-(D2-A)*%
X57662500Y-59210000D03*
%TD*%
%TO.P,R2,1*%
%TO.N,Net-(U2-VSENSE)*%
X55837500Y-56700000D03*
%TO.P,R2,2*%
%TO.N,GND*%
X57662500Y-56700000D03*
%TD*%
%TO.P,R1,1*%
%TO.N,/5V_Buck_Out*%
X55837500Y-54190000D03*
%TO.P,R1,2*%
%TO.N,Net-(U2-VSENSE)*%
X57662500Y-54190000D03*
%TD*%
D32*
%TO.P,Q1,1,G*%
%TO.N,Net-(Q1-G)*%
X69132500Y-57075000D03*
%TO.P,Q1,2,S*%
%TO.N,GND*%
X69132500Y-58975000D03*
%TO.P,Q1,3,D*%
%TO.N,Net-(Q1-D)*%
X71007500Y-58025000D03*
%TD*%
D33*
%TO.P,L3,1,1*%
%TO.N,Net-(JP_P1-A)*%
X56925000Y-82815000D03*
%TO.P,L3,2,2*%
%TO.N,Net-(U_P1-SW)*%
X62975000Y-82815000D03*
%TD*%
D34*
%TO.P,L1,1*%
%TO.N,Net-(D1-K)*%
X44280000Y-74600000D03*
%TO.P,L1,2*%
%TO.N,/5V_Buck_Out*%
X47280000Y-74600000D03*
%TD*%
D35*
%TO.P,JP_P3,1,A*%
%TO.N,Net-(JP_P3-A)*%
X73500000Y-53850000D03*
D36*
%TO.P,JP_P3,2,B*%
%TO.N,+5V*%
X74800000Y-53850000D03*
%TD*%
D35*
%TO.P,JP_P2,1,A*%
%TO.N,Net-(JP_P2-A)*%
X73500000Y-50300000D03*
D36*
%TO.P,JP_P2,2,B*%
%TO.N,Net-(JP_P1-A)*%
X74800000Y-50300000D03*
%TD*%
D35*
%TO.P,JP_P1,1,A*%
%TO.N,Net-(JP_P1-A)*%
X73500000Y-46750000D03*
D36*
%TO.P,JP_P1,2,B*%
%TO.N,/Switch-*%
X74800000Y-46750000D03*
%TD*%
D35*
%TO.P,JP_M_3V3,1,A*%
%TO.N,/3V3_M*%
X73500000Y-43200000D03*
D36*
%TO.P,JP_M_3V3,2,B*%
%TO.N,+3V3*%
X74800000Y-43200000D03*
%TD*%
D35*
%TO.P,JPI6,1,A*%
%TO.N,Net-(JPI6-A)*%
X73500000Y-39650000D03*
D36*
%TO.P,JPI6,2,B*%
%TO.N,+3V3*%
X74800000Y-39650000D03*
%TD*%
D35*
%TO.P,JPI5,1,A*%
%TO.N,Net-(JPI5-A)*%
X69150000Y-53850000D03*
D36*
%TO.P,JPI5,2,B*%
%TO.N,+5V*%
X70450000Y-53850000D03*
%TD*%
D35*
%TO.P,JPI4,1,A*%
%TO.N,Net-(JPI4-A)*%
X69150000Y-50300000D03*
D36*
%TO.P,JPI4,2,B*%
%TO.N,+5V*%
X70450000Y-50300000D03*
%TD*%
D35*
%TO.P,JPI3,1,A*%
%TO.N,/Batt+*%
X69150000Y-46750000D03*
D36*
%TO.P,JPI3,2,B*%
%TO.N,/Battery*%
X70450000Y-46750000D03*
%TD*%
D35*
%TO.P,JPI2,1,A*%
%TO.N,+3.3V*%
X69150000Y-43200000D03*
D36*
%TO.P,JPI2,2,B*%
%TO.N,Net-(JPI2-B)*%
X70450000Y-43200000D03*
%TD*%
D35*
%TO.P,JPI1,1,A*%
%TO.N,+3.3V*%
X69150000Y-39650000D03*
D36*
%TO.P,JPI1,2,B*%
%TO.N,Net-(JPI1-B)*%
X70450000Y-39650000D03*
%TD*%
D37*
%TO.P,J3,1,Pin_1*%
%TO.N,/Batt+*%
X37000000Y-64550000D03*
D38*
%TO.P,J3,2,Pin_2*%
%TO.N,Net-(J3-Pin_2)*%
X39000000Y-64550000D03*
%TD*%
D39*
%TO.P,J2,A1,GND*%
%TO.N,GND*%
X52870000Y-62115000D03*
%TO.P,J2,A4,VBUS*%
%TO.N,/HV*%
X53670000Y-62115000D03*
D40*
%TO.P,J2,A5,CC1*%
%TO.N,/CC1*%
X54820000Y-62115000D03*
%TO.P,J2,A6,D+*%
%TO.N,/D+*%
X55820000Y-62115000D03*
%TO.P,J2,A7,D-*%
%TO.N,/D-*%
X56320000Y-62115000D03*
%TO.P,J2,A8,SBU1*%
%TO.N,unconnected-(J2-SBU1-PadA8)*%
X57320000Y-62115000D03*
D39*
%TO.P,J2,A9,VBUS*%
%TO.N,/HV*%
X58470000Y-62115000D03*
%TO.P,J2,A12,GND*%
%TO.N,GND*%
X59270000Y-62115000D03*
%TO.P,J2,B1,GND*%
X59270000Y-62115000D03*
%TO.P,J2,B4,VBUS*%
%TO.N,/HV*%
X58470000Y-62115000D03*
D40*
%TO.P,J2,B5,CC2*%
%TO.N,/CC2*%
X57820000Y-62115000D03*
%TO.P,J2,B6,D+*%
%TO.N,/D+*%
X56820000Y-62115000D03*
%TO.P,J2,B7,D-*%
%TO.N,/D-*%
X55320000Y-62115000D03*
%TO.P,J2,B8,SBU2*%
%TO.N,unconnected-(J2-SBU2-PadB8)*%
X54320000Y-62115000D03*
D39*
%TO.P,J2,B9,VBUS*%
%TO.N,/HV*%
X53670000Y-62115000D03*
%TO.P,J2,B12,GND*%
%TO.N,GND*%
X52870000Y-62115000D03*
D41*
%TO.P,J2,S1,SHIELD*%
X51750000Y-62715000D03*
D42*
X51750000Y-66915000D03*
D41*
X60390000Y-62715000D03*
D42*
X60390000Y-66915000D03*
%TD*%
D43*
%TO.P,J1,1,Pin_1*%
%TO.N,/MOTOR2_B_OUT*%
X29150000Y-40200000D03*
D44*
%TO.P,J1,2,Pin_2*%
%TO.N,/MOTOR2_A_OUT*%
X31690000Y-40200000D03*
%TO.P,J1,3,Pin_3*%
%TO.N,/MOTOR4_A_OUT*%
X29150000Y-42740000D03*
%TO.P,J1,4,Pin_4*%
%TO.N,/MOTOR2_CTRL1*%
X31690000Y-42740000D03*
%TO.P,J1,5,Pin_5*%
%TO.N,/MOTOR4_B_OUT_*%
X29150000Y-45280000D03*
%TO.P,J1,6,Pin_6*%
%TO.N,/MOTOR2_CTRL2*%
X31690000Y-45280000D03*
%TO.P,J1,7,Pin_7*%
%TO.N,/CTRL_EXT_LOAD2*%
X29150000Y-47820000D03*
%TO.P,J1,8,Pin_8*%
%TO.N,/MOTOR4_CTRL1*%
X31690000Y-47820000D03*
%TO.P,J1,9,Pin_9*%
%TO.N,unconnected-(J1-Pin_9-Pad9)*%
X29150000Y-50360000D03*
%TO.P,J1,10,Pin_10*%
%TO.N,/MOTOR4_CTRL2*%
X31690000Y-50360000D03*
%TO.P,J1,11,Pin_11*%
%TO.N,/EXT_LOAD2_OUT*%
X29150000Y-52900000D03*
%TO.P,J1,12,Pin_12*%
%TO.N,unconnected-(J1-Pin_12-Pad12)*%
X31690000Y-52900000D03*
%TO.P,J1,13,Pin_13*%
%TO.N,/FAST_CHARGE_CTRL*%
X29150000Y-55440000D03*
%TO.P,J1,14,Pin_14*%
%TO.N,/Battery*%
X31690000Y-55440000D03*
%TO.P,J1,15,Pin_15*%
%TO.N,unconnected-(J1-Pin_15-Pad15)*%
X29150000Y-57980000D03*
%TO.P,J1,16,Pin_16*%
%TO.N,/I2C1_SCL*%
X31690000Y-57980000D03*
%TO.P,J1,17,Pin_17*%
%TO.N,/I2C1_SDA*%
X29150000Y-60520000D03*
%TO.P,J1,18,Pin_18*%
%TO.N,+3V3*%
X31690000Y-60520000D03*
%TO.P,J1,19,Pin_19*%
%TO.N,GND*%
X29150000Y-63060000D03*
%TO.P,J1,20,Pin_20*%
%TO.N,+5V*%
X31690000Y-63060000D03*
%TO.P,J1,21,Pin_21*%
%TO.N,/EXT_LOAD1_OUT*%
X29150000Y-65600000D03*
%TO.P,J1,22,Pin_22*%
%TO.N,/HV*%
X31690000Y-65600000D03*
%TO.P,J1,23,Pin_23*%
%TO.N,GND*%
X29150000Y-68140000D03*
%TO.P,J1,24,Pin_24*%
%TO.N,/MOTOR3_CTRL1*%
X31690000Y-68140000D03*
%TO.P,J1,25,Pin_25*%
%TO.N,/CTRL_EXT_LOAD1*%
X29150000Y-70680000D03*
%TO.P,J1,26,Pin_26*%
%TO.N,/MOTOR3_CTRL2*%
X31690000Y-70680000D03*
%TO.P,J1,27,Pin_27*%
%TO.N,/MOTOR3_A_OUT*%
X29150000Y-73220000D03*
%TO.P,J1,28,Pin_28*%
%TO.N,/MOTOR1_CTRL1*%
X31690000Y-73220000D03*
%TO.P,J1,29,Pin_29*%
%TO.N,/MOTOR3_B_OUT*%
X29150000Y-75760000D03*
%TO.P,J1,30,Pin_30*%
%TO.N,/MOTOR1_CTRL2*%
X31690000Y-75760000D03*
%TO.P,J1,31,Pin_31*%
%TO.N,/MOTOR1_B_OUT*%
X29150000Y-78300000D03*
%TO.P,J1,32,Pin_32*%
%TO.N,/MOTOR1_A_OUT*%
X31690000Y-78300000D03*
%TD*%
D45*
%TO.P,D6,1,K*%
%TO.N,GND*%
X43910000Y-85875000D03*
%TO.P,D6,2,A*%
%TO.N,Net-(D6-A)*%
X45960000Y-85875000D03*
%TD*%
%TO.P,D5,1,K*%
%TO.N,GND*%
X43910000Y-82835000D03*
%TO.P,D5,2,A*%
%TO.N,Net-(D5-A)*%
X45960000Y-82835000D03*
%TD*%
%TO.P,D3,1,K*%
%TO.N,Net-(D3-K)*%
X43910000Y-79795000D03*
%TO.P,D3,2,A*%
%TO.N,Net-(D2-A)*%
X45960000Y-79795000D03*
%TD*%
D46*
%TO.P,D2,1,K*%
%TO.N,Net-(D2-K)*%
X51570000Y-86040000D03*
%TO.P,D2,2,A*%
%TO.N,Net-(D2-A)*%
X53320000Y-86040000D03*
%TD*%
D47*
%TO.P,D1,A*%
%TO.N,N/C*%
X43110000Y-64226600D03*
%TO.P,D1,C*%
X47410000Y-64226600D03*
%TD*%
D48*
%TO.P,C_P(out)3,1*%
%TO.N,GND*%
X55887500Y-51680000D03*
%TO.P,C_P(out)3,2*%
%TO.N,+5V*%
X57612500Y-51680000D03*
%TD*%
%TO.P,C_P(out)2,1*%
%TO.N,GND*%
X55887500Y-49170000D03*
%TO.P,C_P(out)2,2*%
%TO.N,+5V*%
X57612500Y-49170000D03*
%TD*%
%TO.P,C_P(out)1,1*%
%TO.N,GND*%
X55887500Y-46660000D03*
%TO.P,C_P(out)1,2*%
%TO.N,+5V*%
X57612500Y-46660000D03*
%TD*%
%TO.P,C_P(in)3,1*%
%TO.N,GND*%
X55887500Y-44150000D03*
%TO.P,C_P(in)3,2*%
%TO.N,Net-(JP_P1-A)*%
X57612500Y-44150000D03*
%TD*%
%TO.P,C_P(in)2,1*%
%TO.N,GND*%
X55887500Y-41640000D03*
%TO.P,C_P(in)2,2*%
%TO.N,+3V3*%
X57612500Y-41640000D03*
%TD*%
%TO.P,C_P(in)1,1*%
%TO.N,GND*%
X55887500Y-39130000D03*
%TO.P,C_P(in)1,2*%
%TO.N,Net-(JP_P3-A)*%
X57612500Y-39130000D03*
%TD*%
%TO.P,C_I(in)1,1*%
%TO.N,<NO NET>*%
X51537500Y-59210000D03*
%TO.P,C_I(in)1,2*%
%TO.N,Net-(JPI2-B)*%
X53262500Y-59210000D03*
%TD*%
%TO.P,C_C_dd1,1*%
%TO.N,Net-(U9-VDD)*%
X51537500Y-56700000D03*
%TO.P,C_C_dd1,2*%
%TO.N,GND*%
X53262500Y-56700000D03*
%TD*%
%TO.P,C_B2,1*%
%TO.N,/Battery*%
X51537500Y-54190000D03*
%TO.P,C_B2,2*%
%TO.N,GND*%
X53262500Y-54190000D03*
%TD*%
%TO.P,C_B1,1*%
%TO.N,Net-(D2-A)*%
X51537500Y-51680000D03*
%TO.P,C_B1,2*%
%TO.N,GND*%
X53262500Y-51680000D03*
%TD*%
%TO.P,C25,1*%
%TO.N,Net-(JPI4-A)*%
X51537500Y-49170000D03*
%TO.P,C25,2*%
%TO.N,GND*%
X53262500Y-49170000D03*
%TD*%
%TO.P,C17,1*%
%TO.N,GND*%
X51537500Y-46660000D03*
%TO.P,C17,2*%
%TO.N,Net-(U10-SS2)*%
X53262500Y-46660000D03*
%TD*%
%TO.P,C16,1*%
%TO.N,GND*%
X51537500Y-44150000D03*
%TO.P,C16,2*%
%TO.N,Net-(U10-SS1)*%
X53262500Y-44150000D03*
%TD*%
%TO.P,C15,1*%
%TO.N,Net-(JPI5-A)*%
X51537500Y-41640000D03*
%TO.P,C15,2*%
%TO.N,GND*%
X53262500Y-41640000D03*
%TD*%
D49*
%TO.P,C3,1*%
%TO.N,/5V_Buck_Out*%
X57500000Y-74620000D03*
%TO.P,C3,2*%
%TO.N,GND*%
X62900000Y-74620000D03*
%TD*%
D48*
%TO.P,C2,1*%
%TO.N,Net-(U2-BOOT)*%
X51537500Y-39130000D03*
%TO.P,C2,2*%
%TO.N,Net-(D1-K)*%
X53262500Y-39130000D03*
%TD*%
D50*
%TO.P,C1,1*%
%TO.N,/HV*%
X28267500Y-82300000D03*
%TO.P,C1,2*%
%TO.N,GND*%
X31392500Y-82300000D03*
%TD*%
D28*
%TO.P,Batt-1,1,1*%
%TO.N,Net-(J3-Pin_2)*%
X36050000Y-43950000D03*
%TD*%
%TO.P,Batt+1,1,1*%
%TO.N,/Batt+*%
X36050000Y-39900000D03*
%TD*%
M02*
