%TF.GenerationSoftware,KiCad,Pcbnew,9.0.0*%
%TF.CreationDate,2025-03-28T03:41:13+02:00*%
%TF.ProjectId,Power_Board_3088F,506f7765-725f-4426-9f61-72645f333038,V0*%
%TF.SameCoordinates,Original*%
%TF.FileFunction,Legend,Bot*%
%TF.FilePolarity,Positive*%
%FSLAX46Y46*%
G04 Gerber Fmt 4.6, Leading zero omitted, Abs format (unit mm)*
G04 Created by KiCad (PCBNEW 9.0.0) date 2025-03-28 03:41:13*
%MOMM*%
%LPD*%
G01*
G04 APERTURE LIST*
G04 Aperture macros list*
%AMRoundRect*
0 Rectangle with rounded corners*
0 $1 Rounding radius*
0 $2 $3 $4 $5 $6 $7 $8 $9 X,Y pos of 4 corners*
0 Add a 4 corners polygon primitive as box body*
4,1,4,$2,$3,$4,$5,$6,$7,$8,$9,$2,$3,0*
0 Add four circle primitives for the rounded corners*
1,1,$1+$1,$2,$3*
1,1,$1+$1,$4,$5*
1,1,$1+$1,$6,$7*
1,1,$1+$1,$8,$9*
0 Add four rect primitives between the rounded corners*
20,1,$1+$1,$2,$3,$4,$5,0*
20,1,$1+$1,$4,$5,$6,$7,0*
20,1,$1+$1,$6,$7,$8,$9,0*
20,1,$1+$1,$8,$9,$2,$3,0*%
G04 Aperture macros list end*
%ADD10O,1.000000X2.100000*%
%ADD11O,1.000000X1.800000*%
%ADD12C,3.000000*%
%ADD13RoundRect,0.250000X0.350000X0.625000X-0.350000X0.625000X-0.350000X-0.625000X0.350000X-0.625000X0*%
%ADD14O,1.200000X1.750000*%
%ADD15R,1.700000X1.700000*%
%ADD16O,1.700000X1.700000*%
%ADD17C,3.200000*%
G04 APERTURE END LIST*
%LPC*%
D10*
%TO.C,U4*%
X141220000Y-96651500D03*
X132580000Y-96651500D03*
D11*
X141220000Y-100831500D03*
X132580000Y-100831500D03*
%TD*%
D12*
%TO.C,SW1*%
X104800000Y-91800000D03*
X100000000Y-91800000D03*
X95200000Y-91800000D03*
X93350000Y-101000000D03*
X106650000Y-101000000D03*
%TD*%
D13*
%TO.C,J3*%
X96500000Y-74450000D03*
D14*
X94500000Y-74450000D03*
%TD*%
D15*
%TO.C,J1*%
X100950000Y-31375000D03*
D16*
X100950000Y-28835000D03*
X103490000Y-31375000D03*
X103490000Y-28835000D03*
X106030000Y-31375000D03*
X106030000Y-28835000D03*
X108570000Y-31375000D03*
X108570000Y-28835000D03*
X111110000Y-31375000D03*
X111110000Y-28835000D03*
X113650000Y-31375000D03*
X113650000Y-28835000D03*
X116190000Y-31375000D03*
X116190000Y-28835000D03*
X118730000Y-31375000D03*
X118730000Y-28835000D03*
X121270000Y-31375000D03*
X121270000Y-28835000D03*
X123810000Y-31375000D03*
X123810000Y-28835000D03*
X126350000Y-31375000D03*
X126350000Y-28835000D03*
X128890000Y-31375000D03*
X128890000Y-28835000D03*
X131430000Y-31375000D03*
X131430000Y-28835000D03*
X133970000Y-31375000D03*
X133970000Y-28835000D03*
X136510000Y-31375000D03*
X136510000Y-28835000D03*
X139050000Y-31375000D03*
X139050000Y-28835000D03*
%TD*%
D17*
%TO.C,H1*%
X120000000Y-76300000D03*
%TD*%
%LPD*%
M02*
