%TF.GenerationSoftware,KiCad,Pcbnew,9.0.0*%
%TF.CreationDate,2025-03-28T03:41:13+02:00*%
%TF.ProjectId,Power_Board_3088F,506f7765-725f-4426-9f61-72645f333038,V0*%
%TF.SameCoordinates,Original*%
%TF.FileFunction,Profile,NP*%
%FSLAX46Y46*%
G04 Gerber Fmt 4.6, Leading zero omitted, Abs format (unit mm)*
G04 Created by KiCad (PCBNEW 9.0.0) date 2025-03-28 03:41:13*
%MOMM*%
%LPD*%
G01*
G04 APERTURE LIST*
%TA.AperFunction,Profile*%
%ADD10C,0.050000*%
%TD*%
%TA.AperFunction,Profile*%
%ADD11C,0.000000*%
%TD*%
G04 APERTURE END LIST*
D10*
X145000000Y-104000000D02*
X95000000Y-104000000D01*
X150000000Y-29000000D02*
X150000000Y-99000000D01*
X145000000Y-24000000D02*
X95000000Y-24000000D01*
X95000000Y-24000000D02*
X145000000Y-24000000D01*
X90000000Y-99000000D02*
X90000000Y-29000000D01*
X90000000Y-24000000D02*
X150000000Y-24000000D01*
X150000000Y-104000000D01*
X90000000Y-104000000D01*
X90000000Y-24000000D01*
D11*
%TA.AperFunction,Profile*%
%TO.C,U4*%
G36*
X134124372Y-96851239D02*
G01*
X134197847Y-96893660D01*
X134257840Y-96953653D01*
X134300261Y-97027128D01*
X134322220Y-97109079D01*
X134322220Y-97193921D01*
X134300261Y-97275872D01*
X134257840Y-97349347D01*
X134197847Y-97409340D01*
X134124372Y-97451761D01*
X134042421Y-97473720D01*
X133957579Y-97473720D01*
X133875628Y-97451761D01*
X133802153Y-97409340D01*
X133742160Y-97349347D01*
X133699739Y-97275872D01*
X133677780Y-97193921D01*
X133677780Y-97109079D01*
X133699739Y-97027128D01*
X133742160Y-96953653D01*
X133802153Y-96893660D01*
X133875628Y-96851239D01*
X133957579Y-96829280D01*
X134042421Y-96829280D01*
X134124372Y-96851239D01*
G37*
%TD.AperFunction*%
%TA.AperFunction,Profile*%
G36*
X139914372Y-96851239D02*
G01*
X139987847Y-96893660D01*
X140047840Y-96953653D01*
X140090261Y-97027128D01*
X140112220Y-97109079D01*
X140112220Y-97193921D01*
X140090261Y-97275872D01*
X140047840Y-97349347D01*
X139987847Y-97409340D01*
X139914372Y-97451761D01*
X139832421Y-97473720D01*
X139747579Y-97473720D01*
X139665628Y-97451761D01*
X139592153Y-97409340D01*
X139532160Y-97349347D01*
X139489739Y-97275872D01*
X139467780Y-97193921D01*
X139467780Y-97109079D01*
X139489739Y-97027128D01*
X139532160Y-96953653D01*
X139592153Y-96893660D01*
X139665628Y-96851239D01*
X139747579Y-96829280D01*
X139832421Y-96829280D01*
X139914372Y-96851239D01*
G37*
%TD.AperFunction*%
%TD*%
M02*
