%TF.GenerationSoftware,KiCad,Pcbnew,9.0.0*%
%TF.CreationDate,2025-03-28T03:41:13+02:00*%
%TF.ProjectId,Power_Board_3088F,506f7765-725f-4426-9f61-72645f333038,V0*%
%TF.SameCoordinates,Original*%
%TF.FileFunction,Copper,L1,Top*%
%TF.FilePolarity,Positive*%
%FSLAX46Y46*%
G04 Gerber Fmt 4.6, Leading zero omitted, Abs format (unit mm)*
G04 Created by KiCad (PCBNEW 9.0.0) date 2025-03-28 03:41:13*
%MOMM*%
%LPD*%
G01*
G04 APERTURE LIST*
G04 Aperture macros list*
%AMRoundRect*
0 Rectangle with rounded corners*
0 $1 Rounding radius*
0 $2 $3 $4 $5 $6 $7 $8 $9 X,Y pos of 4 corners*
0 Add a 4 corners polygon primitive as box body*
4,1,4,$2,$3,$4,$5,$6,$7,$8,$9,$2,$3,0*
0 Add four circle primitives for the rounded corners*
1,1,$1+$1,$2,$3*
1,1,$1+$1,$4,$5*
1,1,$1+$1,$6,$7*
1,1,$1+$1,$8,$9*
0 Add four rect primitives between the rounded corners*
20,1,$1+$1,$2,$3,$4,$5,0*
20,1,$1+$1,$4,$5,$6,$7,0*
20,1,$1+$1,$6,$7,$8,$9,0*
20,1,$1+$1,$8,$9,$2,$3,0*%
%AMFreePoly0*
4,1,37,0.478536,1.278536,0.480000,1.275000,0.480000,-1.275000,0.478536,-1.278536,0.475000,-1.280000,-0.475000,-1.280000,-0.478536,-1.278536,-0.480000,-1.275000,-0.480000,1.100000,-0.478536,1.103536,-0.475000,1.105000,-0.466273,1.105000,-0.448826,1.106938,-0.431331,1.110826,-0.413692,1.116706,-0.405996,1.119592,-0.398236,1.123472,-0.398031,1.123569,-0.389494,1.127363,-0.382906,1.132069,
-0.382650,1.132240,-0.374967,1.137041,-0.361254,1.148796,-0.354545,1.154545,-0.342796,1.168254,-0.337041,1.174967,-0.327365,1.190450,-0.319592,1.205996,-0.316706,1.213692,-0.310826,1.231331,-0.306938,1.248826,-0.305000,1.266273,-0.305000,1.275000,-0.303536,1.278536,-0.300000,1.280000,0.475000,1.280000,0.478536,1.278536,0.478536,1.278536,$1*%
%AMFreePoly1*
4,1,23,0.500000,-0.750000,0.000000,-0.750000,0.000000,-0.745722,-0.065263,-0.745722,-0.191342,-0.711940,-0.304381,-0.646677,-0.396677,-0.554381,-0.461940,-0.441342,-0.495722,-0.315263,-0.495722,-0.250000,-0.500000,-0.250000,-0.500000,0.250000,-0.495722,0.250000,-0.495722,0.315263,-0.461940,0.441342,-0.396677,0.554381,-0.304381,0.646677,-0.191342,0.711940,-0.065263,0.745722,0.000000,0.745722,
0.000000,0.750000,0.500000,0.750000,0.500000,-0.750000,0.500000,-0.750000,$1*%
%AMFreePoly2*
4,1,23,0.000000,0.745722,0.065263,0.745722,0.191342,0.711940,0.304381,0.646677,0.396677,0.554381,0.461940,0.441342,0.495722,0.315263,0.495722,0.250000,0.500000,0.250000,0.500000,-0.250000,0.495722,-0.250000,0.495722,-0.315263,0.461940,-0.441342,0.396677,-0.554381,0.304381,-0.646677,0.191342,-0.711940,0.065263,-0.745722,0.000000,-0.745722,0.000000,-0.750000,-0.500000,-0.750000,
-0.500000,0.750000,0.000000,0.750000,0.000000,0.745722,0.000000,0.745722,$1*%
G04 Aperture macros list end*
%TA.AperFunction,SMDPad,CuDef*%
%ADD10R,2.000000X2.000000*%
%TD*%
%TA.AperFunction,ComponentPad*%
%ADD11O,1.000000X2.100000*%
%TD*%
%TA.AperFunction,ComponentPad*%
%ADD12O,1.000000X1.800000*%
%TD*%
%TA.AperFunction,SMDPad,CuDef*%
%ADD13R,0.600000X1.240000*%
%TD*%
%TA.AperFunction,SMDPad,CuDef*%
%ADD14R,0.300000X1.240000*%
%TD*%
%TA.AperFunction,SMDPad,CuDef*%
%ADD15R,0.500000X0.650000*%
%TD*%
%TA.AperFunction,SMDPad,CuDef*%
%ADD16R,0.500000X0.250000*%
%TD*%
%TA.AperFunction,SMDPad,CuDef*%
%ADD17FreePoly0,0.000000*%
%TD*%
%TA.AperFunction,ComponentPad*%
%ADD18C,3.000000*%
%TD*%
%TA.AperFunction,SMDPad,CuDef*%
%ADD19R,3.302000X2.200000*%
%TD*%
%TA.AperFunction,SMDPad,CuDef*%
%ADD20R,0.600000X1.970000*%
%TD*%
%TA.AperFunction,SMDPad,CuDef*%
%ADD21RoundRect,0.237500X-0.237500X0.250000X-0.237500X-0.250000X0.237500X-0.250000X0.237500X0.250000X0*%
%TD*%
%TA.AperFunction,SMDPad,CuDef*%
%ADD22C,2.000000*%
%TD*%
%TA.AperFunction,SMDPad,CuDef*%
%ADD23RoundRect,0.237500X-0.250000X-0.237500X0.250000X-0.237500X0.250000X0.237500X-0.250000X0.237500X0*%
%TD*%
%TA.AperFunction,SMDPad,CuDef*%
%ADD24RoundRect,0.150000X0.825000X0.150000X-0.825000X0.150000X-0.825000X-0.150000X0.825000X-0.150000X0*%
%TD*%
%TA.AperFunction,HeatsinkPad*%
%ADD25R,2.290000X3.000000*%
%TD*%
%TA.AperFunction,SMDPad,CuDef*%
%ADD26RoundRect,0.237500X0.237500X-0.250000X0.237500X0.250000X-0.237500X0.250000X-0.237500X-0.250000X0*%
%TD*%
%TA.AperFunction,SMDPad,CuDef*%
%ADD27RoundRect,0.250000X0.625000X-0.400000X0.625000X0.400000X-0.625000X0.400000X-0.625000X-0.400000X0*%
%TD*%
%TA.AperFunction,SMDPad,CuDef*%
%ADD28FreePoly1,270.000000*%
%TD*%
%TA.AperFunction,SMDPad,CuDef*%
%ADD29FreePoly2,270.000000*%
%TD*%
%TA.AperFunction,SMDPad,CuDef*%
%ADD30RoundRect,0.110000X0.440000X1.590000X-0.440000X1.590000X-0.440000X-1.590000X0.440000X-1.590000X0*%
%TD*%
%TA.AperFunction,SMDPad,CuDef*%
%ADD31FreePoly1,90.000000*%
%TD*%
%TA.AperFunction,SMDPad,CuDef*%
%ADD32FreePoly2,90.000000*%
%TD*%
%TA.AperFunction,SMDPad,CuDef*%
%ADD33RoundRect,0.237500X0.300000X0.237500X-0.300000X0.237500X-0.300000X-0.237500X0.300000X-0.237500X0*%
%TD*%
%TA.AperFunction,SMDPad,CuDef*%
%ADD34RoundRect,0.035000X-0.335000X-0.105000X0.335000X-0.105000X0.335000X0.105000X-0.335000X0.105000X0*%
%TD*%
%TA.AperFunction,SMDPad,CuDef*%
%ADD35R,0.900000X1.600000*%
%TD*%
%TA.AperFunction,SMDPad,CuDef*%
%ADD36FreePoly1,180.000000*%
%TD*%
%TA.AperFunction,SMDPad,CuDef*%
%ADD37FreePoly2,180.000000*%
%TD*%
%TA.AperFunction,SMDPad,CuDef*%
%ADD38RoundRect,0.250000X0.650000X-0.412500X0.650000X0.412500X-0.650000X0.412500X-0.650000X-0.412500X0*%
%TD*%
%TA.AperFunction,ComponentPad*%
%ADD39RoundRect,0.250000X0.350000X0.625000X-0.350000X0.625000X-0.350000X-0.625000X0.350000X-0.625000X0*%
%TD*%
%TA.AperFunction,ComponentPad*%
%ADD40O,1.200000X1.750000*%
%TD*%
%TA.AperFunction,SMDPad,CuDef*%
%ADD41RoundRect,0.150000X0.150000X-0.587500X0.150000X0.587500X-0.150000X0.587500X-0.150000X-0.587500X0*%
%TD*%
%TA.AperFunction,SMDPad,CuDef*%
%ADD42RoundRect,0.375000X-0.625000X-0.375000X0.625000X-0.375000X0.625000X0.375000X-0.625000X0.375000X0*%
%TD*%
%TA.AperFunction,SMDPad,CuDef*%
%ADD43RoundRect,0.500000X-0.500000X-1.400000X0.500000X-1.400000X0.500000X1.400000X-0.500000X1.400000X0*%
%TD*%
%TA.AperFunction,SMDPad,CuDef*%
%ADD44FreePoly1,0.000000*%
%TD*%
%TA.AperFunction,SMDPad,CuDef*%
%ADD45FreePoly2,0.000000*%
%TD*%
%TA.AperFunction,SMDPad,CuDef*%
%ADD46RoundRect,0.150000X0.150000X-0.687500X0.150000X0.687500X-0.150000X0.687500X-0.150000X-0.687500X0*%
%TD*%
%TA.AperFunction,HeatsinkPad*%
%ADD47R,3.300000X2.100000*%
%TD*%
%TA.AperFunction,SMDPad,CuDef*%
%ADD48RoundRect,0.237500X-0.237500X0.300000X-0.237500X-0.300000X0.237500X-0.300000X0.237500X0.300000X0*%
%TD*%
%TA.AperFunction,SMDPad,CuDef*%
%ADD49RoundRect,0.250000X-1.500000X-0.550000X1.500000X-0.550000X1.500000X0.550000X-1.500000X0.550000X0*%
%TD*%
%TA.AperFunction,SMDPad,CuDef*%
%ADD50RoundRect,0.237500X0.250000X0.237500X-0.250000X0.237500X-0.250000X-0.237500X0.250000X-0.237500X0*%
%TD*%
%TA.AperFunction,ComponentPad*%
%ADD51R,1.700000X1.700000*%
%TD*%
%TA.AperFunction,ComponentPad*%
%ADD52O,1.700000X1.700000*%
%TD*%
%TA.AperFunction,SMDPad,CuDef*%
%ADD53RoundRect,0.250000X-1.500000X0.925000X-1.500000X-0.925000X1.500000X-0.925000X1.500000X0.925000X0*%
%TD*%
%TA.AperFunction,SMDPad,CuDef*%
%ADD54RoundRect,0.237500X0.287500X0.237500X-0.287500X0.237500X-0.287500X-0.237500X0.287500X-0.237500X0*%
%TD*%
%TA.AperFunction,SMDPad,CuDef*%
%ADD55RoundRect,0.237500X0.237500X-0.300000X0.237500X0.300000X-0.237500X0.300000X-0.237500X-0.300000X0*%
%TD*%
%TA.AperFunction,SMDPad,CuDef*%
%ADD56RoundRect,0.125000X0.537500X0.125000X-0.537500X0.125000X-0.537500X-0.125000X0.537500X-0.125000X0*%
%TD*%
%TA.AperFunction,SMDPad,CuDef*%
%ADD57RoundRect,0.087500X-0.487500X-0.087500X0.487500X-0.087500X0.487500X0.087500X-0.487500X0.087500X0*%
%TD*%
%TA.AperFunction,SMDPad,CuDef*%
%ADD58RoundRect,0.050000X-0.675000X-0.050000X0.675000X-0.050000X0.675000X0.050000X-0.675000X0.050000X0*%
%TD*%
%TA.AperFunction,SMDPad,CuDef*%
%ADD59RoundRect,0.062500X-0.162500X-0.062500X0.162500X-0.062500X0.162500X0.062500X-0.162500X0.062500X0*%
%TD*%
%TA.AperFunction,SMDPad,CuDef*%
%ADD60RoundRect,0.035000X0.335000X0.105000X-0.335000X0.105000X-0.335000X-0.105000X0.335000X-0.105000X0*%
%TD*%
%TA.AperFunction,SMDPad,CuDef*%
%ADD61RoundRect,0.237500X-0.300000X-0.237500X0.300000X-0.237500X0.300000X0.237500X-0.300000X0.237500X0*%
%TD*%
%TA.AperFunction,SMDPad,CuDef*%
%ADD62RoundRect,0.237500X0.237500X-0.287500X0.237500X0.287500X-0.237500X0.287500X-0.237500X-0.287500X0*%
%TD*%
%TA.AperFunction,SMDPad,CuDef*%
%ADD63RoundRect,0.237500X-0.287500X-0.237500X0.287500X-0.237500X0.287500X0.237500X-0.287500X0.237500X0*%
%TD*%
%TA.AperFunction,ViaPad*%
%ADD64C,0.600000*%
%TD*%
%TA.AperFunction,Conductor*%
%ADD65C,0.600000*%
%TD*%
%TA.AperFunction,Conductor*%
%ADD66C,0.300000*%
%TD*%
%TA.AperFunction,Conductor*%
%ADD67C,0.500000*%
%TD*%
%TA.AperFunction,Conductor*%
%ADD68C,0.250000*%
%TD*%
%TA.AperFunction,Conductor*%
%ADD69C,0.200000*%
%TD*%
%TA.AperFunction,Conductor*%
%ADD70C,0.150000*%
%TD*%
%TA.AperFunction,Conductor*%
%ADD71C,0.400000*%
%TD*%
G04 APERTURE END LIST*
D10*
%TO.P,D7,2,A*%
%TO.N,GND*%
X118150000Y-100700000D03*
%TO.P,D7,1,K*%
%TO.N,Net-(D7-K)*%
X122550000Y-100700000D03*
%TD*%
D11*
%TO.P,U4,2,SHELL*%
%TO.N,GND*%
X141220000Y-96651500D03*
%TO.P,U4,1,SHELL*%
X132580000Y-96651500D03*
D12*
%TO.P,U4,3,SHELL*%
X141220000Y-100831500D03*
%TO.P,U4,4,SHELL*%
X132580000Y-100831500D03*
D13*
%TO.P,U4,A1B12,GND*%
X133700000Y-96031500D03*
%TO.P,U4,A4B9,VBUS*%
%TO.N,Net-(Vbus_9-B)*%
X134500000Y-96031500D03*
D14*
%TO.P,U4,A5,CC1*%
%TO.N,/CC1*%
X135650000Y-96031500D03*
%TO.P,U4,A6,DP1*%
%TO.N,/D+*%
X136650000Y-96031500D03*
%TO.P,U4,A7,DN1*%
%TO.N,/D-*%
X137150000Y-96031500D03*
%TO.P,U4,A8,SBU1*%
%TO.N,unconnected-(U4-SBU1-PadA8)*%
X138150000Y-96031500D03*
D13*
%TO.P,U4,B1A12,GND*%
%TO.N,GND*%
X140100000Y-96031500D03*
%TO.P,U4,B4A9,VBUS*%
%TO.N,Net-(Vbus_9-B)*%
X139300000Y-96031500D03*
D14*
%TO.P,U4,B5,CC2*%
%TO.N,/CC2*%
X138650000Y-96031500D03*
%TO.P,U4,B6,DP2*%
%TO.N,/D+*%
X137650000Y-96031500D03*
%TO.P,U4,B7,DN2*%
%TO.N,/D-*%
X136150000Y-96031500D03*
%TO.P,U4,B8,SBU2*%
%TO.N,unconnected-(U4-SBU2-PadB8)*%
X135150000Y-96031500D03*
%TD*%
D15*
%TO.P,U7,1_2,VIN1*%
%TO.N,Net-(J_L2-A)*%
X125650000Y-45500000D03*
D16*
%TO.P,U7,3,EN1*%
%TO.N,/CTRL_EXT_LOAD1*%
X125650000Y-46100000D03*
%TO.P,U7,4,VBIAS*%
%TO.N,Net-(J_L3-A)*%
X125650000Y-46500000D03*
%TO.P,U7,5,EN2*%
%TO.N,/CTRL_EXT_LOAD2*%
X125650000Y-46900000D03*
D15*
%TO.P,U7,6_7,VIN2*%
%TO.N,Net-(L3-A)*%
X125650000Y-47500000D03*
%TO.P,U7,8_9,VOUT2*%
%TO.N,/EXT_LOAD2_OUT*%
X127350000Y-47500000D03*
D16*
%TO.P,U7,10,SS2*%
%TO.N,Net-(U7-SS2)*%
X127350000Y-46900000D03*
%TO.P,U7,11,GND*%
%TO.N,GND*%
X127350000Y-46500000D03*
%TO.P,U7,12,SS1*%
%TO.N,Net-(U7-SS1)*%
X127350000Y-46100000D03*
D15*
%TO.P,U7,13_14,VOUT1*%
%TO.N,/EXT_LOAD1_OUT*%
X127350000Y-45500000D03*
D17*
%TO.P,U7,15,EXP*%
%TO.N,GND*%
X126500000Y-46500000D03*
%TD*%
D18*
%TO.P,SW1,1,1*%
%TO.N,/Battery*%
X104800000Y-91800000D03*
%TO.P,SW1,2,2*%
%TO.N,/Switch-*%
X100000000Y-91800000D03*
%TO.P,SW1,3,3*%
%TO.N,GND*%
X95200000Y-91800000D03*
%TO.P,SW1,4,4*%
%TO.N,unconnected-(SW1-Pad4)*%
X93350000Y-101000000D03*
%TO.P,SW1,5,5*%
%TO.N,unconnected-(SW1-Pad5)*%
X106650000Y-101000000D03*
%TD*%
D19*
%TO.P,U6,9,EPAD*%
%TO.N,Net-(JP_B_ena1-B)*%
X138440000Y-67667500D03*
D20*
%TO.P,U6,1,TEMP*%
%TO.N,GND*%
X136535000Y-70142500D03*
%TO.P,U6,2,PROG*%
%TO.N,Net-(JP_Bprog1-A)*%
X137805000Y-70142500D03*
%TO.P,U6,3,GND*%
%TO.N,GND*%
X139075000Y-70142500D03*
%TO.P,U6,4,V_{CC}*%
%TO.N,Net-(D4-A)*%
X140345000Y-70142500D03*
%TO.P,U6,5,BAT*%
%TO.N,Net-(JP_BBatt1-A)*%
X140345000Y-65192500D03*
%TO.P,U6,6,~{STDBY}*%
%TO.N,Net-(U6-~{STDBY})*%
X139075000Y-65192500D03*
%TO.P,U6,7,~{CHRG}*%
%TO.N,Net-(U6-~{CHRG})*%
X137805000Y-65192500D03*
%TO.P,U6,8,CE*%
%TO.N,Net-(D4-A)*%
X136535000Y-65192500D03*
%TD*%
D21*
%TO.P,R_I1,2*%
%TO.N,/I2C1_SDA*%
X94950000Y-86312500D03*
%TO.P,R_I1,1*%
%TO.N,Net-(J_I2-B)*%
X94950000Y-84487500D03*
%TD*%
D22*
%TO.P,TP21,1,1*%
%TO.N,Net-(JP_L1-A)*%
X122550000Y-41700000D03*
%TD*%
D23*
%TO.P,R_I2,1*%
%TO.N,Net-(J_I2-B)*%
X97087500Y-82000000D03*
%TO.P,R_I2,2*%
%TO.N,/I2C1_SCL*%
X98912500Y-82000000D03*
%TD*%
%TO.P,R_P2,1*%
%TO.N,+3.3V*%
X104175000Y-76500000D03*
%TO.P,R_P2,2*%
%TO.N,Net-(3V3-A)*%
X106000000Y-76500000D03*
%TD*%
D24*
%TO.P,U5,1,BOOT*%
%TO.N,Net-(U5-BOOT)*%
X124060000Y-94330000D03*
%TO.P,U5,2,NC*%
%TO.N,unconnected-(U5-NC-Pad2)*%
X124060000Y-93060000D03*
%TO.P,U5,3,NC*%
%TO.N,unconnected-(U5-NC-Pad3)*%
X124060000Y-91790000D03*
%TO.P,U5,4,VSENSE*%
%TO.N,Net-(U5-VSENSE)*%
X124060000Y-90520000D03*
%TO.P,U5,5,EN*%
%TO.N,unconnected-(U5-EN-Pad5)*%
X119110000Y-90520000D03*
%TO.P,U5,6,GND*%
%TO.N,GND*%
X119110000Y-91790000D03*
%TO.P,U5,7,VIN*%
%TO.N,Net-(Bin1-A)*%
X119110000Y-93060000D03*
%TO.P,U5,8,PH*%
%TO.N,Net-(D7-K)*%
X119110000Y-94330000D03*
D25*
%TO.P,U5,9,GNDPAD*%
%TO.N,GND*%
X121585000Y-92425000D03*
%TD*%
D26*
%TO.P,R22,1*%
%TO.N,/5V_Buck_Out*%
X147410000Y-71632500D03*
%TO.P,R22,2*%
%TO.N,Net-(D4-A)*%
X147410000Y-69807500D03*
%TD*%
%TO.P,R_B6,1*%
%TO.N,/FAST_CHARGE_CTRL*%
X142560000Y-83345000D03*
%TO.P,R_B6,2*%
%TO.N,Net-(Q2-G)*%
X142560000Y-81520000D03*
%TD*%
D27*
%TO.P,R_SH1,1*%
%TO.N,/Battery*%
X103500000Y-87050000D03*
%TO.P,R_SH1,2*%
%TO.N,+BATT*%
X103500000Y-83950000D03*
%TD*%
D28*
%TO.P,J_I2,1,A*%
%TO.N,+3.3V*%
X94500000Y-80850000D03*
D29*
%TO.P,J_I2,2,B*%
%TO.N,Net-(J_I2-B)*%
X94500000Y-82150000D03*
%TD*%
D30*
%TO.P,LB1,1*%
%TO.N,Net-(D7-K)*%
X112400000Y-91600000D03*
%TO.P,LB1,2*%
%TO.N,Net-(JP_B2-B)*%
X109400000Y-91600000D03*
%TD*%
D22*
%TO.P,B+1,1,1*%
%TO.N,+BATT*%
X94000000Y-62000000D03*
%TD*%
D31*
%TO.P,M_VM1,1,A*%
%TO.N,/Battery*%
X141610000Y-41990000D03*
D32*
%TO.P,M_VM1,2,B*%
%TO.N,/Battery_VM*%
X141610000Y-40690000D03*
%TD*%
D33*
%TO.P,C_B2,1*%
%TO.N,Net-(U5-BOOT)*%
X124017500Y-97175000D03*
%TO.P,C_B2,2*%
%TO.N,Net-(D7-K)*%
X122292500Y-97175000D03*
%TD*%
D22*
%TO.P,TP_B1,1,1*%
%TO.N,/FAST_CHARGE_CTRL*%
X146100000Y-81600000D03*
%TD*%
D34*
%TO.P,U14,1,VM*%
%TO.N,/Battery_VM*%
X97415000Y-36050000D03*
%TO.P,U14,2,OUT1*%
%TO.N,/MOTOR2_A_OUT*%
X97415000Y-36550000D03*
%TO.P,U14,3,OUT2*%
%TO.N,/MOTOR2_B_OUT*%
X97415000Y-37050000D03*
%TO.P,U14,4,GND*%
%TO.N,GND*%
X97415000Y-37550000D03*
%TO.P,U14,5,IN2*%
%TO.N,/MOTOR2_CTRL2*%
X99385000Y-37550000D03*
%TO.P,U14,6,IN1*%
%TO.N,/MOTOR2_CTRL1*%
X99385000Y-37050000D03*
%TO.P,U14,7,~{SLEEP}*%
%TO.N,/3V3_M*%
X99385000Y-36550000D03*
%TO.P,U14,8,VCC*%
X99385000Y-36050000D03*
D35*
%TO.P,U14,9,EXP*%
%TO.N,GND*%
X98400000Y-36800000D03*
%TD*%
D31*
%TO.P,L3,1,A*%
%TO.N,Net-(L3-A)*%
X118500000Y-49150000D03*
D32*
%TO.P,L3,2,B*%
%TO.N,+5V*%
X118500000Y-47850000D03*
%TD*%
D36*
%TO.P,JP_B2,1,A*%
%TO.N,/5V_Buck_Out*%
X121805000Y-82175000D03*
D37*
%TO.P,JP_B2,2,B*%
%TO.N,Net-(JP_B2-B)*%
X120505000Y-82175000D03*
%TD*%
D21*
%TO.P,R_B4,1*%
%TO.N,Net-(D8-K)*%
X137440000Y-57667500D03*
%TO.P,R_B4,2*%
%TO.N,Net-(U6-~{CHRG})*%
X137440000Y-59492500D03*
%TD*%
D38*
%TO.P,C_B1,1*%
%TO.N,Net-(Bin1-A)*%
X116300000Y-93262500D03*
%TO.P,C_B1,2*%
%TO.N,GND*%
X116300000Y-90137500D03*
%TD*%
D22*
%TO.P,GND1,1,1*%
%TO.N,GND*%
X142990000Y-92220000D03*
%TD*%
D33*
%TO.P,C_I(in)1,1*%
%TO.N,<NO NET>*%
X102862500Y-82000000D03*
%TO.P,C_I(in)1,2*%
%TO.N,Net-(J_I1-B)*%
X101137500Y-82000000D03*
%TD*%
D39*
%TO.P,J3,1,Pin_1*%
%TO.N,+BATT*%
X96500000Y-74450000D03*
D40*
%TO.P,J3,2,Pin_2*%
%TO.N,GND*%
X94500000Y-74450000D03*
%TD*%
D22*
%TO.P,MA2,1,1*%
%TO.N,/MOTOR2_A_OUT*%
X95000000Y-31300000D03*
%TD*%
D41*
%TO.P,Q2,1,G*%
%TO.N,Net-(Q2-G)*%
X137117500Y-75447500D03*
%TO.P,Q2,2,S*%
%TO.N,GND*%
X139017500Y-75447500D03*
%TO.P,Q2,3,D*%
%TO.N,Net-(Q2-D)*%
X138067500Y-73572500D03*
%TD*%
D23*
%TO.P,R_Bslow2,1*%
%TO.N,Net-(JP_Bprog1-A)*%
X131877500Y-76790000D03*
%TO.P,R_Bslow2,2*%
%TO.N,GND*%
X133702500Y-76790000D03*
%TD*%
%TO.P,R_Pfb1,1*%
%TO.N,+5V*%
X104707500Y-57610000D03*
%TO.P,R_Pfb1,2*%
%TO.N,Net-(U_P1-FB)*%
X106532500Y-57610000D03*
%TD*%
D21*
%TO.P,R_C2,1*%
%TO.N,+9V*%
X146890000Y-93880000D03*
%TO.P,R_C2,2*%
%TO.N,Net-(U9-VDD)*%
X146890000Y-95705000D03*
%TD*%
D42*
%TO.P,U_P2,1,GND*%
%TO.N,GND*%
X104500000Y-69390000D03*
%TO.P,U_P2,2,VO*%
%TO.N,+3.3V*%
X104500000Y-71690000D03*
D43*
X110800000Y-71690000D03*
D42*
%TO.P,U_P2,3,VI*%
%TO.N,Net-(P4-A)*%
X104500000Y-73990000D03*
%TD*%
D23*
%TO.P,R_B1,1*%
%TO.N,Net-(JP_B2-B)*%
X120330000Y-87175000D03*
%TO.P,R_B1,2*%
%TO.N,Net-(U5-VSENSE)*%
X122155000Y-87175000D03*
%TD*%
D31*
%TO.P,Vbus_9,1,A*%
%TO.N,+9V*%
X129900000Y-97950000D03*
D32*
%TO.P,Vbus_9,2,B*%
%TO.N,Net-(Vbus_9-B)*%
X129900000Y-96650000D03*
%TD*%
D44*
%TO.P,JP_B_ena1,1,A*%
%TO.N,GND*%
X131550000Y-63400000D03*
D45*
%TO.P,JP_B_ena1,2,B*%
%TO.N,Net-(JP_B_ena1-B)*%
X132850000Y-63400000D03*
%TD*%
D26*
%TO.P,R_C1,1*%
%TO.N,+9V*%
X146890000Y-91617500D03*
%TO.P,R_C1,2*%
%TO.N,Net-(U9-VBUS)*%
X146890000Y-89792500D03*
%TD*%
D22*
%TO.P,GND0,1,1*%
%TO.N,GND*%
X118000000Y-97000000D03*
%TD*%
D46*
%TO.P,U9,1,VDD*%
%TO.N,Net-(U9-VDD)*%
X133370000Y-93399000D03*
%TO.P,U9,2,CFG2*%
%TO.N,unconnected-(U9-CFG2-Pad2)*%
X134370000Y-93399000D03*
%TO.P,U9,3,CFG3*%
%TO.N,unconnected-(U9-CFG3-Pad3)*%
X135370000Y-93399000D03*
%TO.P,U9,4,DP*%
%TO.N,/D+*%
X136370000Y-93399000D03*
%TO.P,U9,5,DM*%
%TO.N,/D-*%
X137370000Y-93399000D03*
%TO.P,U9,6,CC2*%
%TO.N,/CC2*%
X137370000Y-88124000D03*
%TO.P,U9,7,CC1*%
%TO.N,/CC1*%
X136370000Y-88124000D03*
%TO.P,U9,8,VBUS*%
%TO.N,Net-(U9-VBUS)*%
X135370000Y-88124000D03*
%TO.P,U9,9,CFG1*%
%TO.N,Net-(U9-CFG1)*%
X134370000Y-88124000D03*
%TO.P,U9,10,PG*%
%TO.N,unconnected-(U9-PG-Pad10)*%
X133370000Y-88124000D03*
D47*
%TO.P,U9,11,GND*%
%TO.N,GND*%
X135370000Y-90761500D03*
%TD*%
D48*
%TO.P,C_P5,1*%
%TO.N,GND*%
X100500000Y-68500000D03*
%TO.P,C_P5,2*%
%TO.N,Net-(P4-A)*%
X100500000Y-70225000D03*
%TD*%
D22*
%TO.P,PB1,1,1*%
%TO.N,Net-(U_P1-FB)*%
X102000000Y-61390000D03*
%TD*%
D31*
%TO.P,P4,1,A*%
%TO.N,Net-(P4-A)*%
X101000000Y-73650000D03*
D32*
%TO.P,P4,2,B*%
%TO.N,+5V*%
X101000000Y-72350000D03*
%TD*%
D49*
%TO.P,C_B4,1*%
%TO.N,Net-(JP_B2-B)*%
X111150000Y-85270000D03*
%TO.P,C_B4,2*%
%TO.N,GND*%
X116550000Y-85270000D03*
%TD*%
D50*
%TO.P,R_P1,1*%
%TO.N,+5V*%
X114002500Y-62970000D03*
%TO.P,R_P1,2*%
%TO.N,Net-(5V0-A)*%
X112177500Y-62970000D03*
%TD*%
D51*
%TO.P,J1,1,Pin_1*%
%TO.N,/MOTOR2_B_OUT*%
X100950000Y-31375000D03*
D52*
%TO.P,J1,2,Pin_2*%
%TO.N,/MOTOR2_A_OUT*%
X100950000Y-28835000D03*
%TO.P,J1,3,Pin_3*%
%TO.N,/MOTOR4_A_OUT*%
X103490000Y-31375000D03*
%TO.P,J1,4,Pin_4*%
%TO.N,/MOTOR2_CTRL1*%
X103490000Y-28835000D03*
%TO.P,J1,5,Pin_5*%
%TO.N,/MOTOR4_B_OUT*%
X106030000Y-31375000D03*
%TO.P,J1,6,Pin_6*%
%TO.N,/MOTOR2_CTRL2*%
X106030000Y-28835000D03*
%TO.P,J1,7,Pin_7*%
%TO.N,/CTRL_EXT_LOAD2*%
X108570000Y-31375000D03*
%TO.P,J1,8,Pin_8*%
%TO.N,/MOTOR4_CTRL1*%
X108570000Y-28835000D03*
%TO.P,J1,9,Pin_9*%
%TO.N,unconnected-(J1-Pin_9-Pad9)*%
X111110000Y-31375000D03*
%TO.P,J1,10,Pin_10*%
%TO.N,/MOTOR4_CTRL2*%
X111110000Y-28835000D03*
%TO.P,J1,11,Pin_11*%
%TO.N,/EXT_LOAD2_OUT*%
X113650000Y-31375000D03*
%TO.P,J1,12,Pin_12*%
%TO.N,unconnected-(J1-Pin_12-Pad12)*%
X113650000Y-28835000D03*
%TO.P,J1,13,Pin_13*%
%TO.N,/FAST_CHARGE_CTRL*%
X116190000Y-31375000D03*
%TO.P,J1,14,Pin_14*%
%TO.N,+BATT*%
X116190000Y-28835000D03*
%TO.P,J1,15,Pin_15*%
%TO.N,unconnected-(J1-Pin_15-Pad15)*%
X118730000Y-31375000D03*
%TO.P,J1,16,Pin_16*%
%TO.N,/I2C1_SCL*%
X118730000Y-28835000D03*
%TO.P,J1,17,Pin_17*%
%TO.N,/I2C1_SDA*%
X121270000Y-31375000D03*
%TO.P,J1,18,Pin_18*%
%TO.N,+3.3V*%
X121270000Y-28835000D03*
%TO.P,J1,19,Pin_19*%
%TO.N,GND*%
X123810000Y-31375000D03*
%TO.P,J1,20,Pin_20*%
%TO.N,+5V*%
X123810000Y-28835000D03*
%TO.P,J1,21,Pin_21*%
%TO.N,/EXT_LOAD1_OUT*%
X126350000Y-31375000D03*
%TO.P,J1,22,Pin_22*%
%TO.N,+9V*%
X126350000Y-28835000D03*
%TO.P,J1,23,Pin_23*%
%TO.N,GND*%
X128890000Y-31375000D03*
%TO.P,J1,24,Pin_24*%
%TO.N,/MOTOR3_CTRL1*%
X128890000Y-28835000D03*
%TO.P,J1,25,Pin_25*%
%TO.N,/CTRL_EXT_LOAD1*%
X131430000Y-31375000D03*
%TO.P,J1,26,Pin_26*%
%TO.N,/MOTOR3_CTRL2*%
X131430000Y-28835000D03*
%TO.P,J1,27,Pin_27*%
%TO.N,/MOTOR3_A_OUT*%
X133970000Y-31375000D03*
%TO.P,J1,28,Pin_28*%
%TO.N,/MOTOR1_CTRL1*%
X133970000Y-28835000D03*
%TO.P,J1,29,Pin_29*%
%TO.N,/MOTOR3_B_OUT*%
X136510000Y-31375000D03*
%TO.P,J1,30,Pin_30*%
%TO.N,/MOTOR1_CTRL2*%
X136510000Y-28835000D03*
%TO.P,J1,31,Pin_31*%
%TO.N,/MOTOR1_B_OUT*%
X139050000Y-31375000D03*
%TO.P,J1,32,Pin_32*%
%TO.N,/MOTOR1_A_OUT*%
X139050000Y-28835000D03*
%TD*%
D48*
%TO.P,C_P4,1*%
%TO.N,GND*%
X115500000Y-58137500D03*
%TO.P,C_P4,2*%
%TO.N,+5V*%
X115500000Y-59862500D03*
%TD*%
%TO.P,C_B5,1*%
%TO.N,Net-(JP_BBatt1-A)*%
X142440000Y-65667500D03*
%TO.P,C_B5,2*%
%TO.N,GND*%
X142440000Y-67392500D03*
%TD*%
D22*
%TO.P,T_L1,1,1*%
%TO.N,/EXT_LOAD1_OUT*%
X131050000Y-41500000D03*
%TD*%
%TO.P,VDD1,1,1*%
%TO.N,Net-(U9-VDD)*%
X144700000Y-99400000D03*
%TD*%
%TO.P,B_prog2,1,1*%
%TO.N,GND*%
X133690000Y-80790000D03*
%TD*%
%TO.P,T_3V3,1,1*%
%TO.N,+3.3V*%
X101500000Y-77000000D03*
%TD*%
D34*
%TO.P,U16,1,VM*%
%TO.N,/Battery_VM*%
X104415000Y-36050000D03*
%TO.P,U16,2,OUT1*%
%TO.N,/MOTOR4_A_OUT*%
X104415000Y-36550000D03*
%TO.P,U16,3,OUT2*%
%TO.N,/MOTOR4_B_OUT*%
X104415000Y-37050000D03*
%TO.P,U16,4,GND*%
%TO.N,GND*%
X104415000Y-37550000D03*
%TO.P,U16,5,IN2*%
%TO.N,/MOTOR4_CTRL2*%
X106385000Y-37550000D03*
%TO.P,U16,6,IN1*%
%TO.N,/MOTOR4_CTRL1*%
X106385000Y-37050000D03*
%TO.P,U16,7,~{SLEEP}*%
%TO.N,/3V3_M*%
X106385000Y-36550000D03*
%TO.P,U16,8,VCC*%
X106385000Y-36050000D03*
D35*
%TO.P,U16,9,EXP*%
%TO.N,GND*%
X105400000Y-36800000D03*
%TD*%
D53*
%TO.P,L_P3,1,1*%
%TO.N,Net-(P1-A)*%
X99870000Y-50425000D03*
%TO.P,L_P3,2,2*%
%TO.N,Net-(U_P1-SW)*%
X99870000Y-56475000D03*
%TD*%
D28*
%TO.P,P1,1,A*%
%TO.N,Net-(P1-A)*%
X110800000Y-53050000D03*
D29*
%TO.P,P1,2,B*%
%TO.N,Net-(P1-B)*%
X110800000Y-54350000D03*
%TD*%
D54*
%TO.P,3V3,1,K*%
%TO.N,GND*%
X109375000Y-76500000D03*
%TO.P,3V3,2,A*%
%TO.N,Net-(3V3-A)*%
X107625000Y-76500000D03*
%TD*%
D22*
%TO.P,PA2,1,1*%
%TO.N,Net-(U_P1-SW)*%
X97000000Y-43500000D03*
%TD*%
D44*
%TO.P,J_L3,1,A*%
%TO.N,Net-(J_L3-A)*%
X125850000Y-41750000D03*
D45*
%TO.P,J_L3,2,B*%
%TO.N,+3.3V*%
X127150000Y-41750000D03*
%TD*%
D28*
%TO.P,Bin1,1,A*%
%TO.N,Net-(Bin1-A)*%
X114300000Y-99200000D03*
D29*
%TO.P,Bin1,2,B*%
%TO.N,+9V*%
X114300000Y-100500000D03*
%TD*%
D21*
%TO.P,R_Pfb2,1*%
%TO.N,Net-(U_P1-FB)*%
X108740000Y-57590000D03*
%TO.P,R_Pfb2,2*%
%TO.N,GND*%
X108740000Y-59415000D03*
%TD*%
D28*
%TO.P,J_L2,1,A*%
%TO.N,Net-(J_L2-A)*%
X118500000Y-44350000D03*
D29*
%TO.P,J_L2,2,B*%
%TO.N,+5V*%
X118500000Y-45650000D03*
%TD*%
D31*
%TO.P,P2,1,A*%
%TO.N,Net-(P2-A)*%
X108000000Y-52450000D03*
D32*
%TO.P,P2,2,B*%
%TO.N,Net-(P1-A)*%
X108000000Y-51150000D03*
%TD*%
D50*
%TO.P,R_C3,1*%
%TO.N,Net-(U9-CFG1)*%
X134282500Y-85761500D03*
%TO.P,R_C3,2*%
%TO.N,GND*%
X132457500Y-85761500D03*
%TD*%
D23*
%TO.P,R_B7,1*%
%TO.N,Net-(Q2-G)*%
X137147500Y-78090000D03*
%TO.P,R_B7,2*%
%TO.N,GND*%
X138972500Y-78090000D03*
%TD*%
D22*
%TO.P,PA1,1,1*%
%TO.N,Net-(P1-A)*%
X103000000Y-43500000D03*
%TD*%
%TO.P,B_D3,1,1*%
%TO.N,Net-(Q2-D)*%
X141850000Y-73610000D03*
%TD*%
D55*
%TO.P,C_L1,1*%
%TO.N,Net-(L3-A)*%
X122250000Y-49750000D03*
%TO.P,C_L1,2*%
%TO.N,GND*%
X122250000Y-48025000D03*
%TD*%
D56*
%TO.P,U2,1,IN+*%
%TO.N,/Battery*%
X100575000Y-85730000D03*
%TO.P,U2,2,IN-*%
%TO.N,+BATT*%
X100575000Y-85080000D03*
%TO.P,U2,3,GND*%
%TO.N,<NO NET>*%
X100575000Y-84430000D03*
%TO.P,U2,4,VS*%
%TO.N,Net-(J_I1-B)*%
X100575000Y-83780000D03*
%TO.P,U2,5,SCL*%
%TO.N,/I2C1_SCL*%
X98300000Y-83780000D03*
%TO.P,U2,6,SDA*%
%TO.N,/I2C1_SDA*%
X98300000Y-84430000D03*
%TO.P,U2,7,A0*%
%TO.N,<NO NET>*%
X98300000Y-85080000D03*
%TO.P,U2,8,A1*%
%TO.N,/I2C1_SCL*%
X98300000Y-85730000D03*
%TD*%
D48*
%TO.P,C_P2,1*%
%TO.N,GND*%
X111500000Y-58187500D03*
%TO.P,C_P2,2*%
%TO.N,+5V*%
X111500000Y-59912500D03*
%TD*%
D57*
%TO.P,U_P1,1,GND*%
%TO.N,GND*%
X104910000Y-54570000D03*
D58*
%TO.P,U_P1,2,SW*%
%TO.N,Net-(U_P1-SW)*%
X105060000Y-55120000D03*
D57*
%TO.P,U_P1,3,VOUT*%
%TO.N,+5V*%
X104910000Y-55670000D03*
D59*
%TO.P,U_P1,4,FB*%
%TO.N,Net-(U_P1-FB)*%
X106510000Y-55870000D03*
%TO.P,U_P1,5,EN*%
%TO.N,Net-(P1-B)*%
X106510000Y-55370000D03*
%TO.P,U_P1,6,MODE*%
%TO.N,Net-(P2-A)*%
X106510000Y-54870000D03*
%TO.P,U_P1,7,VIN*%
%TO.N,Net-(P1-A)*%
X106510000Y-54370000D03*
%TD*%
D26*
%TO.P,R21,1*%
%TO.N,/5V_Buck_Out*%
X144440000Y-71580000D03*
%TO.P,R21,2*%
%TO.N,Net-(D4-A)*%
X144440000Y-69755000D03*
%TD*%
D44*
%TO.P,J_I1,1,A*%
%TO.N,+3.3V*%
X95350000Y-78500000D03*
D45*
%TO.P,J_I1,2,B*%
%TO.N,Net-(J_I1-B)*%
X96650000Y-78500000D03*
%TD*%
D48*
%TO.P,C_L2,1*%
%TO.N,Net-(J_L2-A)*%
X122250000Y-44387500D03*
%TO.P,C_L2,2*%
%TO.N,GND*%
X122250000Y-46112500D03*
%TD*%
D60*
%TO.P,U15,1,VM*%
%TO.N,/Battery_VM*%
X138475000Y-37310000D03*
%TO.P,U15,2,OUT1*%
%TO.N,/MOTOR1_A_OUT*%
X138475000Y-36810000D03*
%TO.P,U15,3,OUT2*%
%TO.N,/MOTOR1_B_OUT*%
X138475000Y-36310000D03*
%TO.P,U15,4,GND*%
%TO.N,GND*%
X138475000Y-35810000D03*
%TO.P,U15,5,IN2*%
%TO.N,/MOTOR1_CTRL2*%
X136505000Y-35810000D03*
%TO.P,U15,6,IN1*%
%TO.N,/MOTOR1_CTRL1*%
X136505000Y-36310000D03*
%TO.P,U15,7,~{SLEEP}*%
%TO.N,/3V3_M*%
X136505000Y-36810000D03*
%TO.P,U15,8,VCC*%
X136505000Y-37310000D03*
D35*
%TO.P,U15,9,EXP*%
%TO.N,GND*%
X137490000Y-36560000D03*
%TD*%
D36*
%TO.P,P3,1,A*%
%TO.N,Net-(P1-A)*%
X100150000Y-46500000D03*
D37*
%TO.P,P3,2,B*%
%TO.N,/Switch-*%
X98850000Y-46500000D03*
%TD*%
D61*
%TO.P,C_P6,1*%
%TO.N,GND*%
X108147500Y-66780000D03*
%TO.P,C_P6,2*%
%TO.N,+3.3V*%
X109872500Y-66780000D03*
%TD*%
D22*
%TO.P,BS1,1,1*%
%TO.N,Net-(U5-VSENSE)*%
X127470000Y-90560000D03*
%TD*%
%TO.P,PB2,1,1*%
%TO.N,GND*%
X105500000Y-61540000D03*
%TD*%
%TO.P,T_L2,1,1*%
%TO.N,/EXT_LOAD2_OUT*%
X127450000Y-51300000D03*
%TD*%
%TO.P,B_prog1,1,1*%
%TO.N,Net-(JP_Bprog1-A)*%
X126420000Y-80680000D03*
%TD*%
D48*
%TO.P,C_L4,1*%
%TO.N,GND*%
X133050000Y-47137500D03*
%TO.P,C_L4,2*%
%TO.N,Net-(U7-SS2)*%
X133050000Y-48862500D03*
%TD*%
D55*
%TO.P,C_P1,1*%
%TO.N,GND*%
X104500000Y-51362500D03*
%TO.P,C_P1,2*%
%TO.N,Net-(P1-A)*%
X104500000Y-49637500D03*
%TD*%
D62*
%TO.P,D4,1,K*%
%TO.N,Net-(D4-K)*%
X140430000Y-55452500D03*
%TO.P,D4,2,A*%
%TO.N,Net-(D4-A)*%
X140430000Y-53702500D03*
%TD*%
D48*
%TO.P,C_P3,1*%
%TO.N,GND*%
X113500000Y-58137500D03*
%TO.P,C_P3,2*%
%TO.N,+5V*%
X113500000Y-59862500D03*
%TD*%
D55*
%TO.P,C_C1,1*%
%TO.N,Net-(U9-VDD)*%
X131370000Y-92624000D03*
%TO.P,C_C1,2*%
%TO.N,GND*%
X131370000Y-90899000D03*
%TD*%
D26*
%TO.P,R_B2,1*%
%TO.N,Net-(U5-VSENSE)*%
X124155000Y-88087500D03*
%TO.P,R_B2,2*%
%TO.N,GND*%
X124155000Y-86262500D03*
%TD*%
D22*
%TO.P,MB2,1,1*%
%TO.N,/MOTOR2_B_OUT*%
X99400000Y-39700000D03*
%TD*%
D60*
%TO.P,U17,1,VM*%
%TO.N,/Battery_VM*%
X132125000Y-37410000D03*
%TO.P,U17,2,OUT1*%
%TO.N,/MOTOR3_A_OUT*%
X132125000Y-36910000D03*
%TO.P,U17,3,OUT2*%
%TO.N,/MOTOR3_B_OUT*%
X132125000Y-36410000D03*
%TO.P,U17,4,GND*%
%TO.N,GND*%
X132125000Y-35910000D03*
%TO.P,U17,5,IN2*%
%TO.N,/MOTOR3_CTRL2*%
X130155000Y-35910000D03*
%TO.P,U17,6,IN1*%
%TO.N,/MOTOR3_CTRL1*%
X130155000Y-36410000D03*
%TO.P,U17,7,~{SLEEP}*%
%TO.N,/3V3_M*%
X130155000Y-36910000D03*
%TO.P,U17,8,VCC*%
X130155000Y-37410000D03*
D35*
%TO.P,U17,9,EXP*%
%TO.N,GND*%
X131140000Y-36660000D03*
%TD*%
D22*
%TO.P,TP_5V0,1,1*%
%TO.N,+5V*%
X98500000Y-61500000D03*
%TD*%
D28*
%TO.P,M_3V3,1,A*%
%TO.N,/3V3_M*%
X136250000Y-40660000D03*
D29*
%TO.P,M_3V3,2,B*%
%TO.N,+3.3V*%
X136250000Y-41960000D03*
%TD*%
D22*
%TO.P,B_G1,1,1*%
%TO.N,Net-(Q2-G)*%
X146000000Y-75500000D03*
%TD*%
D55*
%TO.P,C_L3,1*%
%TO.N,GND*%
X131150000Y-47062500D03*
%TO.P,C_L3,2*%
%TO.N,Net-(U7-SS1)*%
X131150000Y-45337500D03*
%TD*%
D28*
%TO.P,J_I3,1,A*%
%TO.N,+BATT*%
X106097500Y-84710000D03*
D29*
%TO.P,J_I3,2,B*%
%TO.N,/Battery*%
X106097500Y-86010000D03*
%TD*%
D31*
%TO.P,JP_BBatt1,1,A*%
%TO.N,Net-(JP_BBatt1-A)*%
X145710000Y-62260000D03*
D32*
%TO.P,JP_BBatt1,2,B*%
%TO.N,/Battery*%
X145710000Y-60960000D03*
%TD*%
D28*
%TO.P,JP_Bprog1,1,A*%
%TO.N,Net-(JP_Bprog1-A)*%
X131300000Y-72050000D03*
D29*
%TO.P,JP_Bprog1,2,B*%
%TO.N,Net-(JP_Bprog1-B)*%
X131300000Y-73350000D03*
%TD*%
D48*
%TO.P,C_B3,1*%
%TO.N,Net-(D4-A)*%
X133440000Y-66805000D03*
%TO.P,C_B3,2*%
%TO.N,GND*%
X133440000Y-68530000D03*
%TD*%
D63*
%TO.P,5V0,1,K*%
%TO.N,GND*%
X108535000Y-62920000D03*
%TO.P,5V0,2,A*%
%TO.N,Net-(5V0-A)*%
X110285000Y-62920000D03*
%TD*%
D22*
%TO.P,9V1,1,1*%
%TO.N,+9V*%
X129800000Y-102100000D03*
%TD*%
%TO.P,CFG1,1,1*%
%TO.N,Net-(U9-CFG1)*%
X142930000Y-87400000D03*
%TD*%
D21*
%TO.P,R_Bfast1,1*%
%TO.N,Net-(JP_Bprog1-B)*%
X133660000Y-72917500D03*
%TO.P,R_Bfast1,2*%
%TO.N,Net-(Q2-D)*%
X133660000Y-74742500D03*
%TD*%
D62*
%TO.P,D8,1,K*%
%TO.N,Net-(D8-K)*%
X137430000Y-55452500D03*
%TO.P,D8,2,A*%
%TO.N,Net-(D4-A)*%
X137430000Y-53702500D03*
%TD*%
D22*
%TO.P,B-1,1,1*%
%TO.N,GND*%
X99500000Y-66000000D03*
%TD*%
D21*
%TO.P,R_B3,1*%
%TO.N,Net-(D4-K)*%
X140440000Y-57667500D03*
%TO.P,R_B3,2*%
%TO.N,Net-(U6-~{STDBY})*%
X140440000Y-59492500D03*
%TD*%
D64*
%TO.N,Net-(U_P1-FB)*%
X107450000Y-59050000D03*
%TO.N,GND*%
X119200000Y-35950000D03*
%TO.N,/CC1*%
X135300000Y-98050000D03*
%TO.N,<NO NET>*%
X96800000Y-85080000D03*
%TO.N,Net-(Bin1-A)*%
X114200000Y-96450000D03*
X114200000Y-94150000D03*
%TO.N,GND*%
X139200000Y-71950000D03*
%TO.N,/5V_Buck_Out*%
X123800000Y-81000000D03*
X144450000Y-73500000D03*
%TO.N,Net-(D4-A)*%
X144750000Y-64950000D03*
X143200000Y-63400000D03*
%TO.N,/3V3_M*%
X136250000Y-39250000D03*
X134100000Y-36900000D03*
%TO.N,GND*%
X105800000Y-51350000D03*
%TO.N,/3V3_M*%
X99700000Y-34850000D03*
X102350000Y-39250000D03*
X126450000Y-38100000D03*
X114400000Y-38550000D03*
X110500000Y-38499997D03*
%TO.N,GND*%
X129900000Y-47550000D03*
X126500000Y-46500000D03*
X123650000Y-46700000D03*
%TO.N,+3.3V*%
X130350000Y-43850000D03*
X128700000Y-43300000D03*
%TO.N,GND*%
X98400000Y-34950000D03*
%TO.N,/MOTOR2_A_OUT*%
X95900000Y-35350000D03*
%TO.N,GND*%
X104450000Y-38550000D03*
X138500000Y-34750000D03*
X132100000Y-34950000D03*
%TO.N,/FAST_CHARGE_CTRL*%
X148100000Y-80500000D03*
%TO.N,/CTRL_EXT_LOAD2*%
X124400000Y-47400000D03*
X118850000Y-53300000D03*
X122000000Y-53300000D03*
%TO.N,/3V3_M*%
X129000000Y-37300000D03*
%TO.N,/MOTOR1_CTRL1*%
X135400000Y-36300000D03*
%TO.N,/MOTOR3_A_OUT*%
X134070549Y-35870549D03*
%TO.N,/MOTOR4_B_OUT*%
X102609620Y-37309620D03*
%TO.N,/MOTOR4_A_OUT*%
X104200000Y-34800000D03*
X103259620Y-36700000D03*
%TO.N,/MOTOR2_B_OUT*%
X95100000Y-35350000D03*
%TO.N,/MOTOR2_A_OUT*%
X97100000Y-33650000D03*
%TO.N,/MOTOR2_CTRL2*%
X101819240Y-36150000D03*
%TO.N,/MOTOR2_CTRL1*%
X100859620Y-36159620D03*
%TO.N,/Battery_VM*%
X114000000Y-39300000D03*
X110500000Y-39300000D03*
X129600000Y-38600000D03*
X127200000Y-38600000D03*
%TO.N,GND*%
X121000000Y-93400000D03*
X122200000Y-93400000D03*
X120950000Y-91790000D03*
X115600000Y-97000000D03*
X116250000Y-91450000D03*
X124200000Y-85000000D03*
X132200000Y-88200000D03*
X105100000Y-67400000D03*
X134200000Y-90800000D03*
X106600000Y-66800000D03*
X138400000Y-76800000D03*
X93600000Y-89600000D03*
X135265750Y-90865750D03*
X97400000Y-66200000D03*
X131500000Y-96300000D03*
X92000000Y-88200000D03*
X131500000Y-65400000D03*
X133700000Y-70500000D03*
X93200000Y-76800000D03*
X143800000Y-67400000D03*
X133600000Y-100800000D03*
X135300000Y-68900000D03*
X131700000Y-68600000D03*
X140300000Y-100800000D03*
X136400000Y-90800000D03*
X92000000Y-90200000D03*
X109400000Y-77800000D03*
X112500000Y-58200000D03*
X141500000Y-90900000D03*
X122200000Y-91700000D03*
X133702500Y-78000000D03*
%TO.N,+BATT*%
X93000000Y-50000000D03*
X91934314Y-47934314D03*
%TO.N,<NO NET>*%
X101974308Y-83641807D03*
%TO.N,+3.3V*%
X114500000Y-48000000D03*
X114490380Y-50009620D03*
X99565686Y-77434314D03*
X96100000Y-77000000D03*
%TO.N,+5V*%
X112000000Y-48000000D03*
X114000000Y-46000000D03*
X93000000Y-46500000D03*
X114500000Y-26000000D03*
X94500000Y-48500000D03*
%TO.N,/CTRL_EXT_LOAD1*%
X124380793Y-45261744D03*
%TO.N,/I2C1_SCL*%
X99500000Y-81000000D03*
%TO.N,/I2C1_SDA*%
X100000000Y-82000000D03*
%TO.N,Net-(JP_B_ena1-B)*%
X134400000Y-64900000D03*
X135250000Y-67550000D03*
%TO.N,Net-(U_P1-SW)*%
X95500000Y-45500000D03*
X95500000Y-47500000D03*
%TO.N,Net-(U9-VBUS)*%
X145850000Y-89800000D03*
X144200000Y-89800000D03*
%TO.N,Net-(U_P1-FB)*%
X103500000Y-60000000D03*
%TO.N,/CC1*%
X139375000Y-94210500D03*
%TO.N,Net-(J_L3-A)*%
X123600000Y-43687500D03*
X123600000Y-45087500D03*
%TD*%
D65*
%TO.N,+9V*%
X149199000Y-89308500D02*
X149199000Y-26849000D01*
X149199000Y-26849000D02*
X147151000Y-24801000D01*
X146890000Y-91617500D02*
X149199000Y-89308500D01*
X147151000Y-24801000D02*
X128399000Y-24801000D01*
X128399000Y-24801000D02*
X126300000Y-26900000D01*
X126300000Y-26900000D02*
X126350000Y-26950000D01*
X126350000Y-26950000D02*
X126350000Y-28835000D01*
%TO.N,+BATT*%
X91934314Y-47934314D02*
X91500000Y-47500000D01*
X116190000Y-25190000D02*
X116190000Y-28835000D01*
X91500000Y-47500000D02*
X91500000Y-27850000D01*
X91500000Y-27850000D02*
X94350000Y-25000000D01*
X116000000Y-25000000D02*
X116190000Y-25190000D01*
X94350000Y-25000000D02*
X116000000Y-25000000D01*
D66*
%TO.N,Net-(U_P1-FB)*%
X107450000Y-58527500D02*
X106532500Y-57610000D01*
X107450000Y-59050000D02*
X107450000Y-58527500D01*
D67*
%TO.N,GND*%
X119235000Y-35950000D02*
X119200000Y-35950000D01*
X123810000Y-31375000D02*
X119235000Y-35950000D01*
D68*
X117955000Y-97045000D02*
X118000000Y-97000000D01*
X118150000Y-100700000D02*
X117955000Y-100505000D01*
X117955000Y-100505000D02*
X117955000Y-97045000D01*
X118000000Y-100155000D02*
X118150000Y-100305000D01*
X118150000Y-100305000D02*
X118150000Y-100700000D01*
D67*
%TO.N,Net-(D7-K)*%
X122292500Y-97175000D02*
X122292500Y-100137500D01*
X122292500Y-100137500D02*
X122550000Y-100395000D01*
X122550000Y-100395000D02*
X122550000Y-100700000D01*
D68*
%TO.N,GND*%
X115600000Y-97000000D02*
X118000000Y-97000000D01*
D69*
%TO.N,/I2C1_SCL*%
X99000000Y-81000000D02*
X98912500Y-81087500D01*
X98912500Y-81087500D02*
X98912500Y-82000000D01*
X99500000Y-81000000D02*
X99000000Y-81000000D01*
D66*
%TO.N,Net-(U_P1-FB)*%
X103500000Y-60000000D02*
X103000000Y-60000000D01*
X102000000Y-61000000D02*
X102000000Y-61390000D01*
X103000000Y-60000000D02*
X102000000Y-61000000D01*
D65*
%TO.N,Net-(JP_B_ena1-B)*%
X135400000Y-67700000D02*
X138407500Y-67700000D01*
X135250000Y-67550000D02*
X135400000Y-67700000D01*
X138407500Y-67700000D02*
X138440000Y-67667500D01*
D66*
%TO.N,GND*%
X108985000Y-59415000D02*
X108740000Y-59415000D01*
D68*
%TO.N,/CC1*%
X135650000Y-96031500D02*
X135650000Y-97700000D01*
X135650000Y-97700000D02*
X135300000Y-98050000D01*
%TO.N,/D-*%
X137650000Y-98050000D02*
X137650000Y-97450000D01*
X137646500Y-97450000D02*
X137650000Y-97450000D01*
X137150000Y-96031500D02*
X137150000Y-96953500D01*
X137150000Y-96953500D02*
X137646500Y-97450000D01*
X136150000Y-96031500D02*
X136150000Y-98200000D01*
X137174000Y-96055500D02*
X137150000Y-96031500D01*
X137326000Y-98374000D02*
X137650000Y-98050000D01*
X136150000Y-98200000D02*
X136324000Y-98374000D01*
X136324000Y-98374000D02*
X137326000Y-98374000D01*
D66*
%TO.N,/CC1*%
X139400000Y-91450000D02*
X138021000Y-90071000D01*
X138021000Y-90071000D02*
X138021000Y-87224822D01*
X139375000Y-94210500D02*
X139400000Y-94185500D01*
X139400000Y-94185500D02*
X139400000Y-91450000D01*
%TO.N,/CC2*%
X138650000Y-91500000D02*
X138650000Y-96031500D01*
D68*
%TO.N,/D-*%
X137150000Y-96031500D02*
X137150000Y-93619000D01*
X137150000Y-93619000D02*
X137370000Y-93399000D01*
%TO.N,/D+*%
X136370000Y-93399000D02*
X136650000Y-93679000D01*
X136650000Y-93679000D02*
X136650000Y-96031500D01*
X137650000Y-96031500D02*
X137650000Y-94633822D01*
X137650000Y-94633822D02*
X137996000Y-94287822D01*
X137996000Y-94287822D02*
X137996000Y-92446000D01*
X137996000Y-92446000D02*
X137785500Y-92235500D01*
X136696001Y-92235500D02*
X136370000Y-92561501D01*
X137785500Y-92235500D02*
X136696001Y-92235500D01*
X136370000Y-92561501D02*
X136370000Y-93399000D01*
D66*
%TO.N,/CC2*%
X137370000Y-88124000D02*
X137370000Y-90220000D01*
X137370000Y-90220000D02*
X138650000Y-91500000D01*
D67*
%TO.N,Net-(Vbus_9-B)*%
X139300000Y-96031500D02*
X139300000Y-95009500D01*
X130494884Y-96650000D02*
X129900000Y-96650000D01*
X142171000Y-95707583D02*
X142171000Y-97595417D01*
X139349000Y-94960500D02*
X141423917Y-94960500D01*
X141423917Y-94960500D02*
X142171000Y-95707583D01*
X139300000Y-95009500D02*
X139349000Y-94960500D01*
X142171000Y-97595417D02*
X140816417Y-98950000D01*
X140816417Y-98950000D02*
X132794884Y-98950000D01*
X132794884Y-98950000D02*
X130494884Y-96650000D01*
D66*
%TO.N,<NO NET>*%
X98300000Y-85080000D02*
X96800000Y-85080000D01*
D69*
%TO.N,/I2C1_SCL*%
X98300000Y-83780000D02*
X97070000Y-83780000D01*
X97070000Y-83780000D02*
X96200000Y-84650000D01*
X96200000Y-84650000D02*
X96200000Y-85680000D01*
X96200000Y-85680000D02*
X98250000Y-85680000D01*
X98250000Y-85680000D02*
X98300000Y-85730000D01*
D68*
%TO.N,/I2C1_SDA*%
X94950000Y-86312500D02*
X96299500Y-86312500D01*
D66*
%TO.N,Net-(J_I2-B)*%
X96000000Y-83437500D02*
X96000000Y-83087500D01*
D68*
%TO.N,/I2C1_SDA*%
X96306000Y-86306000D02*
X99027774Y-86306000D01*
X96299500Y-86312500D02*
X96306000Y-86306000D01*
X99027774Y-86306000D02*
X99288500Y-86045274D01*
X99288500Y-86045274D02*
X99288500Y-84764726D01*
X99288500Y-84764726D02*
X98953774Y-84430000D01*
X98953774Y-84430000D02*
X98300000Y-84430000D01*
D66*
%TO.N,Net-(J_I2-B)*%
X94950000Y-84487500D02*
X96000000Y-83437500D01*
X96000000Y-83087500D02*
X97087500Y-82000000D01*
D67*
%TO.N,Net-(Bin1-A)*%
X114200000Y-99100000D02*
X114300000Y-99200000D01*
X116300000Y-93262500D02*
X115087500Y-93262500D01*
X115087500Y-93262500D02*
X114200000Y-94150000D01*
X114200000Y-96450000D02*
X114200000Y-99100000D01*
%TO.N,Net-(D7-K)*%
X112400000Y-91600000D02*
X112400000Y-95300000D01*
X118140000Y-95300000D02*
X119110000Y-94330000D01*
X112400000Y-95300000D02*
X118140000Y-95300000D01*
D66*
%TO.N,GND*%
X139075000Y-71825000D02*
X139200000Y-71950000D01*
X139075000Y-70142500D02*
X139075000Y-71825000D01*
%TO.N,Net-(JP_Bprog1-A)*%
X126420000Y-80680000D02*
X130310000Y-76790000D01*
X130310000Y-76790000D02*
X131877500Y-76790000D01*
D65*
%TO.N,/5V_Buck_Out*%
X122980000Y-81000000D02*
X121805000Y-82175000D01*
X144440000Y-71580000D02*
X144440000Y-73490000D01*
X144440000Y-73490000D02*
X144450000Y-73500000D01*
X123800000Y-81000000D02*
X122980000Y-81000000D01*
D66*
%TO.N,Net-(D4-A)*%
X141850000Y-61600000D02*
X141850000Y-62050000D01*
X140430000Y-53702500D02*
X141850000Y-55122500D01*
X141850000Y-55122500D02*
X141850000Y-61600000D01*
X141850000Y-62050000D02*
X143200000Y-63400000D01*
X144750000Y-64950000D02*
X147410000Y-67610000D01*
X147410000Y-67610000D02*
X147410000Y-69807500D01*
X137430000Y-53702500D02*
X136000000Y-55132500D01*
X136000000Y-55132500D02*
X136000000Y-64657500D01*
X136000000Y-64657500D02*
X136535000Y-65192500D01*
%TO.N,/3V3_M*%
X136250000Y-40660000D02*
X136250000Y-39250000D01*
%TO.N,GND*%
X105787500Y-51362500D02*
X105800000Y-51350000D01*
X104500000Y-51362500D02*
X105787500Y-51362500D01*
%TO.N,Net-(P1-A)*%
X108000000Y-51150000D02*
X107900000Y-51150000D01*
X107900000Y-51150000D02*
X106387500Y-49637500D01*
X106387500Y-49637500D02*
X104500000Y-49637500D01*
X108000000Y-51150000D02*
X108900000Y-51150000D01*
X108900000Y-51150000D02*
X110800000Y-53050000D01*
X108000000Y-51150000D02*
X107245000Y-51150000D01*
X107245000Y-51150000D02*
X106510000Y-51885000D01*
X106510000Y-51885000D02*
X106510000Y-54370000D01*
%TO.N,GND*%
X104910000Y-54570000D02*
X104500000Y-54160000D01*
X104500000Y-54160000D02*
X104500000Y-51362500D01*
X108535000Y-62920000D02*
X108535000Y-66392500D01*
X108535000Y-66392500D02*
X108147500Y-66780000D01*
X105500000Y-61540000D02*
X106880000Y-62920000D01*
X106880000Y-62920000D02*
X108535000Y-62920000D01*
%TO.N,/3V3_M*%
X126450000Y-38100000D02*
X126000000Y-38550000D01*
X110350003Y-38499997D02*
X108400000Y-40450000D01*
X126000000Y-38550000D02*
X114400000Y-38550000D01*
X103550000Y-40450000D02*
X102350000Y-39250000D01*
X110500000Y-38499997D02*
X110350003Y-38499997D01*
X108400000Y-40450000D02*
X103550000Y-40450000D01*
X99385000Y-36050000D02*
X99385000Y-36350000D01*
X99700000Y-34850000D02*
X99385000Y-35165000D01*
X99385000Y-35165000D02*
X99385000Y-36350000D01*
D70*
%TO.N,GND*%
X127350000Y-46500000D02*
X126500000Y-46500000D01*
D66*
X123062500Y-46112500D02*
X123650000Y-46700000D01*
X122250000Y-46112500D02*
X123062500Y-46112500D01*
X122250000Y-46112500D02*
X122250000Y-48025000D01*
D68*
%TO.N,+3.3V*%
X127150000Y-41750000D02*
X128700000Y-43300000D01*
X130350000Y-43850000D02*
X134360000Y-43850000D01*
X134360000Y-43850000D02*
X135500000Y-42710000D01*
D66*
%TO.N,/CTRL_EXT_LOAD2*%
X118850000Y-53300000D02*
X122000000Y-53300000D01*
D70*
%TO.N,/CTRL_EXT_LOAD1*%
X124380793Y-45261744D02*
X124380795Y-45261746D01*
X125100000Y-46100000D02*
X125650000Y-46100000D01*
X124380795Y-45261746D02*
X124380795Y-45380795D01*
X124380795Y-45380795D02*
X125100000Y-46100000D01*
D71*
%TO.N,Net-(U7-SS1)*%
X128662500Y-45337500D02*
X128001000Y-45999000D01*
X128001000Y-45999000D02*
X128001000Y-46024000D01*
D70*
%TO.N,GND*%
X127350000Y-46500000D02*
X128650000Y-46500000D01*
X128650000Y-46500000D02*
X129212500Y-47062500D01*
X129212500Y-47062500D02*
X131150000Y-47062500D01*
%TO.N,Net-(U7-SS1)*%
X127350000Y-46100000D02*
X127900000Y-46100000D01*
D66*
%TO.N,GND*%
X98400000Y-36800000D02*
X98400000Y-34950000D01*
X98400000Y-36800000D02*
X98400000Y-37536000D01*
X98400000Y-37536000D02*
X98414000Y-37550000D01*
X97415000Y-37550000D02*
X98414000Y-37550000D01*
%TO.N,/MOTOR2_A_OUT*%
X95900000Y-35550000D02*
X95900000Y-35350000D01*
X96900000Y-36550000D02*
X95900000Y-35550000D01*
%TO.N,/MOTOR2_B_OUT*%
X96354745Y-37050000D02*
X96300000Y-37050000D01*
X96300000Y-37050000D02*
X95100000Y-35850000D01*
X95100000Y-35350000D02*
X95100000Y-35850000D01*
%TO.N,/Battery_VM*%
X97415000Y-36050000D02*
X97415000Y-35165000D01*
X96850000Y-34600000D02*
X94400000Y-34600000D01*
X97415000Y-35165000D02*
X96850000Y-34600000D01*
X94400000Y-34600000D02*
X94050000Y-34950000D01*
X94050000Y-34950000D02*
X94050000Y-39750000D01*
X94050000Y-39750000D02*
X95900000Y-41600000D01*
X95900000Y-41600000D02*
X101000000Y-41600000D01*
X101000000Y-41600000D02*
X101400000Y-41200000D01*
%TO.N,/MOTOR2_A_OUT*%
X96900000Y-36550000D02*
X97415000Y-36550000D01*
X97100000Y-33650000D02*
X97100000Y-31300000D01*
%TO.N,GND*%
X104415000Y-38515000D02*
X104450000Y-38550000D01*
X104415000Y-37550000D02*
X104415000Y-38515000D01*
X104415000Y-37550000D02*
X105150000Y-37550000D01*
X105150000Y-37550000D02*
X105400000Y-37300000D01*
X105400000Y-37300000D02*
X105400000Y-36800000D01*
X138475000Y-34775000D02*
X138500000Y-34750000D01*
X138475000Y-35810000D02*
X138475000Y-34775000D01*
X138475000Y-35810000D02*
X137890000Y-35810000D01*
X137890000Y-35810000D02*
X137490000Y-36210000D01*
X137490000Y-36210000D02*
X137490000Y-36560000D01*
X132125000Y-34975000D02*
X132100000Y-34950000D01*
X132125000Y-35910000D02*
X132125000Y-34975000D01*
X132140000Y-35910000D02*
X132150000Y-35900000D01*
X131140000Y-36408142D02*
X131140000Y-36660000D01*
X132125000Y-35910000D02*
X132140000Y-35910000D01*
X132150000Y-35900000D02*
X131648142Y-35900000D01*
X131648142Y-35900000D02*
X131140000Y-36408142D01*
D68*
%TO.N,Net-(P1-B)*%
X109780000Y-55370000D02*
X110800000Y-54350000D01*
X106510000Y-55370000D02*
X109780000Y-55370000D01*
%TO.N,Net-(P2-A)*%
X107630000Y-54870000D02*
X108000000Y-54500000D01*
X108000000Y-54500000D02*
X108000000Y-52450000D01*
X106510000Y-54870000D02*
X107630000Y-54870000D01*
D66*
%TO.N,/MOTOR2_A_OUT*%
X95000000Y-31300000D02*
X97100000Y-31300000D01*
%TO.N,/MOTOR2_B_OUT*%
X99400000Y-39700000D02*
X97985787Y-39700000D01*
X97985787Y-39700000D02*
X96354745Y-38068958D01*
X96354745Y-38068958D02*
X96354745Y-37050000D01*
%TO.N,/MOTOR2_A_OUT*%
X97100000Y-31300000D02*
X97100000Y-28900000D01*
X97100000Y-28900000D02*
X97165000Y-28835000D01*
X97165000Y-28835000D02*
X100950000Y-28835000D01*
D67*
%TO.N,+5V*%
X114500000Y-26000000D02*
X95000000Y-26000000D01*
X92600000Y-46100000D02*
X93000000Y-46500000D01*
X95000000Y-26000000D02*
X92600000Y-28400000D01*
X92600000Y-28400000D02*
X92600000Y-46100000D01*
D66*
%TO.N,/Battery_VM*%
X101400000Y-37600000D02*
X101400000Y-41200000D01*
X104415000Y-36050000D02*
X102950000Y-36050000D01*
X102950000Y-36050000D02*
X101400000Y-37600000D01*
X108600000Y-41200000D02*
X110500000Y-39300000D01*
X101400000Y-41200000D02*
X108600000Y-41200000D01*
%TO.N,/FAST_CHARGE_CTRL*%
X147200000Y-80500000D02*
X146100000Y-81600000D01*
X148100000Y-80500000D02*
X147200000Y-80500000D01*
%TO.N,/CTRL_EXT_LOAD2*%
X124400000Y-47400000D02*
X124874000Y-46926000D01*
X124874000Y-46926000D02*
X125049000Y-46926000D01*
%TO.N,/MOTOR3_CTRL2*%
X130155000Y-35910000D02*
X130155000Y-30110000D01*
X130155000Y-30110000D02*
X131430000Y-28835000D01*
%TO.N,/MOTOR3_CTRL1*%
X129160000Y-36410000D02*
X127689000Y-34939000D01*
X127689000Y-34939000D02*
X127689000Y-30036000D01*
X127689000Y-30036000D02*
X128890000Y-28835000D01*
%TO.N,/3V3_M*%
X129000000Y-37300000D02*
X130045000Y-37300000D01*
X130045000Y-37300000D02*
X130155000Y-37410000D01*
%TO.N,/MOTOR3_CTRL1*%
X130155000Y-36410000D02*
X129160000Y-36410000D01*
%TO.N,/3V3_M*%
X130155000Y-36910000D02*
X130155000Y-37410000D01*
X136505000Y-37310000D02*
X134510000Y-37310000D01*
X134510000Y-37310000D02*
X134100000Y-36900000D01*
%TO.N,/MOTOR1_CTRL2*%
X136505000Y-35810000D02*
X136505000Y-33225378D01*
X137711000Y-32019378D02*
X137711000Y-30036000D01*
X136505000Y-33225378D02*
X137711000Y-32019378D01*
X137711000Y-30036000D02*
X136510000Y-28835000D01*
%TO.N,/3V3_M*%
X136505000Y-36810000D02*
X136505000Y-37310000D01*
%TO.N,/MOTOR1_CTRL1*%
X135410000Y-36310000D02*
X135400000Y-36300000D01*
X136505000Y-36310000D02*
X135410000Y-36310000D01*
%TO.N,/MOTOR1_B_OUT*%
X138475000Y-36310000D02*
X139390000Y-36310000D01*
X139390000Y-36310000D02*
X139700000Y-36000000D01*
X139700000Y-32025000D02*
X139050000Y-31375000D01*
X139700000Y-36000000D02*
X139700000Y-32025000D01*
%TO.N,/MOTOR1_A_OUT*%
X138475000Y-36810000D02*
X139890000Y-36810000D01*
X139890000Y-36810000D02*
X140251000Y-36449000D01*
X140251000Y-30036000D02*
X139050000Y-28835000D01*
X140251000Y-36449000D02*
X140251000Y-30036000D01*
%TO.N,/MOTOR3_A_OUT*%
X133031098Y-36910000D02*
X134070549Y-35870549D01*
X132125000Y-36910000D02*
X133031098Y-36910000D01*
%TO.N,/MOTOR3_B_OUT*%
X132125000Y-36410000D02*
X132611858Y-36410000D01*
X136510000Y-32511858D02*
X136510000Y-31375000D01*
X132611858Y-36410000D02*
X136510000Y-32511858D01*
%TO.N,/MOTOR4_CTRL2*%
X106385000Y-37550000D02*
X107150000Y-37550000D01*
X107150000Y-37550000D02*
X109909000Y-34791000D01*
X109909000Y-34791000D02*
X109909000Y-30036000D01*
X109909000Y-30036000D02*
X111110000Y-28835000D01*
%TO.N,/MOTOR4_CTRL1*%
X106385000Y-37050000D02*
X106871858Y-37050000D01*
X106871858Y-37050000D02*
X107369000Y-36552858D01*
X107369000Y-36552858D02*
X107369000Y-30036000D01*
X107369000Y-30036000D02*
X108570000Y-28835000D01*
%TO.N,/MOTOR4_B_OUT*%
X102651000Y-37351000D02*
X102609620Y-37309620D01*
X104415000Y-37050000D02*
X103928142Y-37050000D01*
X102989966Y-37351000D02*
X102651000Y-37351000D01*
X103928142Y-37050000D02*
X103627142Y-37351000D01*
X103627142Y-37351000D02*
X102989966Y-37351000D01*
%TO.N,/MOTOR4_A_OUT*%
X103409620Y-36550000D02*
X103259620Y-36700000D01*
X104415000Y-36550000D02*
X103409620Y-36550000D01*
X104200000Y-34800000D02*
X104200000Y-34500000D01*
X104200000Y-34500000D02*
X103490000Y-33790000D01*
X103490000Y-33790000D02*
X103490000Y-31375000D01*
%TO.N,/MOTOR2_B_OUT*%
X97415000Y-37050000D02*
X96354745Y-37050000D01*
%TO.N,/MOTOR2_CTRL2*%
X100419240Y-37550000D02*
X101819240Y-36150000D01*
X99385000Y-37550000D02*
X100419240Y-37550000D01*
%TO.N,/MOTOR2_CTRL1*%
X99969240Y-37050000D02*
X100859620Y-36159620D01*
X99385000Y-37050000D02*
X99969240Y-37050000D01*
%TO.N,/3V3_M*%
X99385000Y-36350000D02*
X99385000Y-36550000D01*
X106385000Y-36050000D02*
X106385000Y-35833000D01*
X106385000Y-35833000D02*
X106052000Y-35500000D01*
X106052000Y-35500000D02*
X100600000Y-35500000D01*
X100600000Y-35500000D02*
X100050000Y-36050000D01*
X100050000Y-36050000D02*
X99385000Y-36050000D01*
X106385000Y-36050000D02*
X106385000Y-36550000D01*
%TO.N,/Battery_VM*%
X129600000Y-38600000D02*
X132100000Y-38600000D01*
X132125000Y-37410000D02*
X132125000Y-38575000D01*
X132125000Y-38575000D02*
X132100000Y-38600000D01*
X138475000Y-37310000D02*
X141610000Y-40445000D01*
X141610000Y-40445000D02*
X141610000Y-40690000D01*
X126500000Y-39300000D02*
X127200000Y-38600000D01*
X114000000Y-39300000D02*
X126500000Y-39300000D01*
X132100000Y-38600000D02*
X137402000Y-38600000D01*
X137402000Y-38600000D02*
X138475000Y-37527000D01*
X138475000Y-37527000D02*
X138475000Y-37310000D01*
D71*
%TO.N,GND*%
X105100000Y-67400000D02*
X105000000Y-67400000D01*
X105000000Y-67400000D02*
X104500000Y-67900000D01*
X104500000Y-67900000D02*
X104500000Y-69390000D01*
D68*
%TO.N,+3.3V*%
X96100000Y-77000000D02*
X95681000Y-77419000D01*
X95681000Y-77419000D02*
X95676000Y-77419000D01*
X95676000Y-77419000D02*
X95350000Y-77745000D01*
X95350000Y-77745000D02*
X95350000Y-78500000D01*
D66*
%TO.N,GND*%
X133702500Y-78000000D02*
X133702500Y-80777500D01*
X133702500Y-80777500D02*
X133690000Y-80790000D01*
X133702500Y-76790000D02*
X133702500Y-78000000D01*
D67*
X133200000Y-96031500D02*
X132580000Y-96651500D01*
D70*
X131150000Y-47062500D02*
X132975000Y-47062500D01*
D71*
X100500000Y-67000000D02*
X99500000Y-66000000D01*
D67*
X124155000Y-86262500D02*
X124155000Y-85045000D01*
X131370000Y-90899000D02*
X135232500Y-90899000D01*
D71*
X108127500Y-66800000D02*
X108147500Y-66780000D01*
D67*
X135265750Y-90865750D02*
X135370000Y-90761500D01*
D66*
X141220000Y-100831500D02*
X140331500Y-100831500D01*
D67*
X135232500Y-90899000D02*
X135265750Y-90865750D01*
X140100000Y-96031500D02*
X140600000Y-96031500D01*
D71*
X99500000Y-66000000D02*
X97600000Y-66000000D01*
X94500000Y-74450000D02*
X94500000Y-75500000D01*
D67*
X116550000Y-89887500D02*
X116300000Y-90137500D01*
X140600000Y-96031500D02*
X141220000Y-96651500D01*
D66*
X140331500Y-100831500D02*
X140300000Y-100800000D01*
D67*
X124155000Y-85045000D02*
X124200000Y-85000000D01*
X133700000Y-96031500D02*
X133200000Y-96031500D01*
D66*
X142820000Y-92220000D02*
X141500000Y-90900000D01*
D71*
X100500000Y-68500000D02*
X100500000Y-67000000D01*
D70*
X132975000Y-47062500D02*
X133050000Y-47137500D01*
D67*
X142440000Y-67392500D02*
X143792500Y-67392500D01*
X121580000Y-92420000D02*
X121585000Y-92425000D01*
X116550000Y-85270000D02*
X116550000Y-89887500D01*
D71*
X109400000Y-76525000D02*
X109375000Y-76500000D01*
D66*
X139017500Y-78045000D02*
X138972500Y-78090000D01*
D71*
X106600000Y-66800000D02*
X108127500Y-66800000D01*
D67*
X131851500Y-96651500D02*
X131500000Y-96300000D01*
X118000000Y-100000000D02*
X118000000Y-100195000D01*
D71*
X97600000Y-66000000D02*
X97400000Y-66200000D01*
D67*
X143792500Y-67392500D02*
X143800000Y-67400000D01*
D66*
X139017500Y-75447500D02*
X139017500Y-78045000D01*
D71*
X94500000Y-75500000D02*
X93200000Y-76800000D01*
D66*
X142990000Y-92220000D02*
X142820000Y-92220000D01*
D71*
X109400000Y-77800000D02*
X109400000Y-76525000D01*
D67*
X118000000Y-100195000D02*
X118005000Y-100200000D01*
D66*
X133568500Y-100831500D02*
X133600000Y-100800000D01*
D67*
X132580000Y-96651500D02*
X131851500Y-96651500D01*
D66*
X132580000Y-100831500D02*
X133568500Y-100831500D01*
X142990000Y-92220000D02*
X142990000Y-92190000D01*
%TO.N,Net-(3V3-A)*%
X106000000Y-76500000D02*
X107625000Y-76500000D01*
D68*
%TO.N,Net-(5V0-A)*%
X112127500Y-62920000D02*
X112177500Y-62970000D01*
X110285000Y-62920000D02*
X112127500Y-62920000D01*
D65*
%TO.N,+BATT*%
X103607500Y-83760000D02*
X103500000Y-83867500D01*
X105187500Y-83800000D02*
X105000000Y-83800000D01*
X94000000Y-62500000D02*
X94000000Y-62000000D01*
X96500000Y-74450000D02*
X96500000Y-75500000D01*
X96500000Y-75500000D02*
X100000000Y-79000000D01*
X106000000Y-79000000D02*
X106000000Y-81450000D01*
D68*
X102550000Y-83950000D02*
X103500000Y-83950000D01*
D65*
X103500000Y-83867500D02*
X103500000Y-83950000D01*
X94000000Y-62000000D02*
X93000000Y-61000000D01*
X96500000Y-74450000D02*
X96500000Y-64500000D01*
X105000000Y-83800000D02*
X104960000Y-83760000D01*
X100000000Y-79000000D02*
X106000000Y-79000000D01*
D68*
X100575000Y-85080000D02*
X101420000Y-85080000D01*
D65*
X106097500Y-84710000D02*
X105187500Y-83800000D01*
X104960000Y-83760000D02*
X103607500Y-83760000D01*
D68*
X101420000Y-85080000D02*
X102550000Y-83950000D01*
D65*
X96500000Y-64500000D02*
X94000000Y-62000000D01*
X106000000Y-81450000D02*
X103500000Y-83950000D01*
X93000000Y-61000000D02*
X93000000Y-51000000D01*
X93000000Y-51000000D02*
X93000000Y-50000000D01*
D71*
%TO.N,Net-(U7-SS1)*%
X131150000Y-45337500D02*
X128662500Y-45337500D01*
D70*
%TO.N,Net-(U7-SS2)*%
X127350000Y-46900000D02*
X127900000Y-46900000D01*
X127900000Y-46900000D02*
X129862500Y-48862500D01*
X129862500Y-48862500D02*
X133050000Y-48862500D01*
D66*
%TO.N,Net-(D4-A)*%
X137430000Y-53702500D02*
X140430000Y-53702500D01*
D67*
X133440000Y-66805000D02*
X134922500Y-66805000D01*
X134922500Y-66805000D02*
X136535000Y-65192500D01*
D65*
X144440000Y-69755000D02*
X140732500Y-69755000D01*
X147357500Y-69755000D02*
X147410000Y-69807500D01*
X140732500Y-69755000D02*
X140345000Y-70142500D01*
X144440000Y-69755000D02*
X147357500Y-69755000D01*
D67*
%TO.N,Net-(JP_B2-B)*%
X109400000Y-87020000D02*
X111150000Y-85270000D01*
X120330000Y-82350000D02*
X120505000Y-82175000D01*
X120330000Y-87175000D02*
X120330000Y-82350000D01*
X119680000Y-83000000D02*
X120505000Y-82175000D01*
X109400000Y-91600000D02*
X109400000Y-87020000D01*
X113420000Y-83000000D02*
X119680000Y-83000000D01*
X111150000Y-85270000D02*
X113420000Y-83000000D01*
%TO.N,Net-(JP_BBatt1-A)*%
X141965000Y-65192500D02*
X142440000Y-65667500D01*
D65*
X145710000Y-62397500D02*
X142440000Y-65667500D01*
D67*
X140345000Y-65192500D02*
X141965000Y-65192500D01*
D65*
X145710000Y-62260000D02*
X145710000Y-62397500D01*
D66*
%TO.N,Net-(U5-BOOT)*%
X124017500Y-97175000D02*
X124017500Y-94372500D01*
X124017500Y-94372500D02*
X124060000Y-94330000D01*
D67*
%TO.N,Net-(D7-K)*%
X119110000Y-94330000D02*
X120230000Y-94330000D01*
X122292500Y-96392500D02*
X122292500Y-97175000D01*
X122292500Y-100187500D02*
X122305000Y-100200000D01*
X120230000Y-94330000D02*
X122292500Y-96392500D01*
%TO.N,Net-(U9-VDD)*%
X142417524Y-84835500D02*
X145100000Y-87517976D01*
X145100000Y-94300000D02*
X146505000Y-95705000D01*
X130400000Y-91654000D02*
X130400000Y-84800000D01*
X131370000Y-92624000D02*
X130400000Y-91654000D01*
X146890000Y-97210000D02*
X144700000Y-99400000D01*
X136000000Y-84000000D02*
X136835500Y-84835500D01*
X136835500Y-84835500D02*
X142417524Y-84835500D01*
X146890000Y-95705000D02*
X146890000Y-97210000D01*
X131370000Y-92624000D02*
X131370000Y-92770000D01*
X131999000Y-93399000D02*
X133370000Y-93399000D01*
X145100000Y-87517976D02*
X145100000Y-94300000D01*
X130400000Y-84800000D02*
X131200000Y-84000000D01*
X131370000Y-92770000D02*
X131999000Y-93399000D01*
X146505000Y-95705000D02*
X146890000Y-95705000D01*
X131200000Y-84000000D02*
X136000000Y-84000000D01*
D69*
%TO.N,<NO NET>*%
X101237499Y-84430000D02*
X102000000Y-83667499D01*
X102000000Y-82862500D02*
X102862500Y-82000000D01*
X100575000Y-84430000D02*
X101237499Y-84430000D01*
X102000000Y-83667499D02*
X102000000Y-82862500D01*
D66*
%TO.N,+3.3V*%
X114500000Y-50019240D02*
X114490380Y-50009620D01*
X109872500Y-70762500D02*
X110800000Y-71690000D01*
X102000000Y-76500000D02*
X101500000Y-77000000D01*
X135500000Y-42710000D02*
X136250000Y-41960000D01*
D68*
X99565686Y-77434314D02*
X101065686Y-77434314D01*
D66*
X121270000Y-28835000D02*
X119931000Y-30174000D01*
X119931000Y-31872471D02*
X113000000Y-38803471D01*
D68*
X101065686Y-77434314D02*
X101500000Y-77000000D01*
X95350000Y-80000000D02*
X95350000Y-78500000D01*
D66*
X135500000Y-49000000D02*
X135500000Y-42710000D01*
D68*
X94500000Y-80850000D02*
X95350000Y-80000000D01*
D66*
X114500000Y-52000000D02*
X114500000Y-50019240D01*
X102000000Y-77500000D02*
X101500000Y-77000000D01*
X110800000Y-71690000D02*
X121000000Y-61490000D01*
X114500000Y-52000000D02*
X118044000Y-55544000D01*
X113000000Y-38803471D02*
X113000000Y-46500000D01*
X113000000Y-46500000D02*
X114500000Y-48000000D01*
X121000000Y-61490000D02*
X121000000Y-59500000D01*
X118044000Y-55544000D02*
X121000000Y-58500000D01*
X119931000Y-30174000D02*
X119931000Y-31872471D01*
X125000000Y-59500000D02*
X135500000Y-49000000D01*
X121000000Y-59500000D02*
X121000000Y-58500000D01*
X121000000Y-59500000D02*
X125000000Y-59500000D01*
D67*
%TO.N,+5V*%
X113500000Y-59862500D02*
X115500000Y-59862500D01*
X102390000Y-57610000D02*
X104707500Y-57610000D01*
X102241000Y-65241000D02*
X102241000Y-71559000D01*
X112000000Y-48000000D02*
X112000000Y-51500000D01*
X104707500Y-57610000D02*
X104707500Y-55872500D01*
D68*
X114002500Y-62970000D02*
X114002500Y-60365000D01*
D67*
X114350000Y-45650000D02*
X114000000Y-46000000D01*
X98500000Y-61500000D02*
X94500000Y-57500000D01*
X98500000Y-61500000D02*
X102241000Y-65241000D01*
X115500000Y-59862500D02*
X117500000Y-57862500D01*
X111059000Y-60353500D02*
X111500000Y-59912500D01*
X118500000Y-47850000D02*
X118500000Y-45650000D01*
X118500000Y-45650000D02*
X114350000Y-45650000D01*
X104707500Y-57610000D02*
X107451000Y-60353500D01*
X113450000Y-59912500D02*
X113500000Y-59862500D01*
X111500000Y-59912500D02*
X113450000Y-59912500D01*
X112000000Y-51500000D02*
X117500000Y-57000000D01*
X94500000Y-57500000D02*
X94500000Y-48500000D01*
X117500000Y-57862500D02*
X117500000Y-57000000D01*
X102241000Y-71559000D02*
X101300000Y-72500000D01*
D68*
X114002500Y-60365000D02*
X113500000Y-59862500D01*
D67*
X98500000Y-61500000D02*
X102390000Y-57610000D01*
X107451000Y-60353500D02*
X111059000Y-60353500D01*
D66*
%TO.N,Net-(D4-K)*%
X140430000Y-55452500D02*
X140430000Y-57657500D01*
X140430000Y-57657500D02*
X140440000Y-57667500D01*
%TO.N,Net-(D8-K)*%
X137430000Y-55452500D02*
X137430000Y-57657500D01*
X137430000Y-57657500D02*
X137440000Y-57667500D01*
%TO.N,/EXT_LOAD2_OUT*%
X116700000Y-51300000D02*
X111500000Y-46100000D01*
X111500000Y-46100000D02*
X111500000Y-33525000D01*
X127450000Y-51300000D02*
X116700000Y-51300000D01*
X111500000Y-33525000D02*
X113650000Y-31375000D01*
X127350000Y-51200000D02*
X127450000Y-51300000D01*
X127350000Y-47500000D02*
X127350000Y-51200000D01*
D67*
%TO.N,/FAST_CHARGE_CTRL*%
X146100000Y-81600000D02*
X144305000Y-81600000D01*
X144305000Y-81600000D02*
X142560000Y-83345000D01*
D69*
%TO.N,/I2C1_SCL*%
X98300000Y-83780000D02*
X98912500Y-83167500D01*
X98300000Y-85730000D02*
X97681582Y-85730000D01*
X98912500Y-82000000D02*
X99000000Y-82000000D01*
X98912500Y-83167500D02*
X98912500Y-82000000D01*
D68*
%TO.N,/I2C1_SDA*%
X98300000Y-84430000D02*
X98962499Y-84430000D01*
X99500000Y-82703490D02*
X100000000Y-82203490D01*
X98962499Y-84430000D02*
X99500000Y-83892499D01*
X100000000Y-82203490D02*
X100000000Y-82000000D01*
X99500000Y-83892499D02*
X99500000Y-82703490D01*
D65*
%TO.N,+9V*%
X129800000Y-102100000D02*
X129800000Y-98050000D01*
X149199000Y-96100000D02*
X149110000Y-96100000D01*
X130800000Y-103100000D02*
X145900000Y-103100000D01*
X128989000Y-102911000D02*
X129800000Y-102100000D01*
X129800000Y-102100000D02*
X130800000Y-103100000D01*
X116711000Y-102911000D02*
X128989000Y-102911000D01*
X149199000Y-99801000D02*
X149199000Y-96100000D01*
X129800000Y-98050000D02*
X129900000Y-97950000D01*
X149110000Y-96100000D02*
X146890000Y-93880000D01*
X146890000Y-91617500D02*
X146890000Y-93880000D01*
X145900000Y-103100000D02*
X149199000Y-99801000D01*
X114300000Y-100500000D02*
X116711000Y-102911000D01*
D66*
%TO.N,/EXT_LOAD1_OUT*%
X127500000Y-45500000D02*
X131050000Y-41950000D01*
X127350000Y-45500000D02*
X127500000Y-45500000D01*
X131050000Y-41950000D02*
X131050000Y-41500000D01*
X126350000Y-36800000D02*
X126350000Y-31375000D01*
X131050000Y-41500000D02*
X126350000Y-36800000D01*
D70*
%TO.N,/CTRL_EXT_LOAD2*%
X125650000Y-46900000D02*
X125100000Y-46900000D01*
X125100000Y-46900000D02*
X125000000Y-47000000D01*
D66*
%TO.N,/Battery*%
X103417500Y-87050000D02*
X103500000Y-87050000D01*
D65*
X141610000Y-41990000D02*
X145710000Y-46090000D01*
X104800000Y-91800000D02*
X103800000Y-91800000D01*
D66*
X103227500Y-86860000D02*
X103417500Y-87050000D01*
D65*
X103607500Y-86860000D02*
X105247500Y-86860000D01*
X108200000Y-84000000D02*
X108200000Y-85500000D01*
X115300000Y-71552900D02*
X115300000Y-80500000D01*
X111700000Y-80500000D02*
X108200000Y-84000000D01*
D68*
X102180000Y-85730000D02*
X103500000Y-87050000D01*
D65*
X103785034Y-87227534D02*
X103607500Y-87050000D01*
X103500000Y-86967500D02*
X103607500Y-86860000D01*
X145710000Y-46090000D02*
X145710000Y-60960000D01*
X108200000Y-85500000D02*
X107690000Y-86010000D01*
X107690000Y-86010000D02*
X106097500Y-86010000D01*
X141610000Y-41990000D02*
X141610000Y-45242900D01*
X105247500Y-86860000D02*
X106097500Y-86010000D01*
X115300000Y-80500000D02*
X111700000Y-80500000D01*
X141610000Y-45242900D02*
X115300000Y-71552900D01*
X103800000Y-91800000D02*
X103785034Y-91785034D01*
X103607500Y-87050000D02*
X103500000Y-87050000D01*
D68*
X100575000Y-85730000D02*
X102180000Y-85730000D01*
D65*
X103785034Y-91785034D02*
X103785034Y-87227534D01*
X103500000Y-87050000D02*
X103500000Y-86967500D01*
%TO.N,/5V_Buck_Out*%
X144440000Y-71580000D02*
X147357500Y-71580000D01*
X147357500Y-71580000D02*
X147410000Y-71632500D01*
D67*
%TO.N,Net-(JP_Bprog1-A)*%
X137805000Y-71059500D02*
X137805000Y-70142500D01*
D66*
X131877500Y-76790000D02*
X131877500Y-76777500D01*
D67*
X137275691Y-71588809D02*
X137805000Y-71059500D01*
X131300000Y-72050000D02*
X130705116Y-72050000D01*
X130094000Y-72661116D02*
X130094000Y-75006500D01*
X131300000Y-72050000D02*
X131761191Y-71588809D01*
X130094000Y-75006500D02*
X131877500Y-76790000D01*
X131761191Y-71588809D02*
X137275691Y-71588809D01*
X130705116Y-72050000D02*
X130094000Y-72661116D01*
%TO.N,Net-(JP_Bprog1-B)*%
X131300000Y-73350000D02*
X133227500Y-73350000D01*
X133227500Y-73350000D02*
X133660000Y-72917500D01*
D66*
X131412500Y-72917500D02*
X131130000Y-73200000D01*
D65*
%TO.N,Net-(JP_B_ena1-B)*%
X132850000Y-63400000D02*
X132900000Y-63400000D01*
X132900000Y-63400000D02*
X134400000Y-64900000D01*
D67*
%TO.N,Net-(Vbus_9-B)*%
X129900000Y-96650000D02*
X131589500Y-94960500D01*
X134500000Y-95009500D02*
X134500000Y-96031500D01*
X131589500Y-94960500D02*
X134451000Y-94960500D01*
X134451000Y-94960500D02*
X134500000Y-95009500D01*
%TO.N,Net-(Bin1-A)*%
X119110000Y-93060000D02*
X116502500Y-93060000D01*
X116502500Y-93060000D02*
X116300000Y-93262500D01*
D66*
%TO.N,Net-(J_I1-B)*%
X101137500Y-81462500D02*
X101137500Y-82000000D01*
D69*
X101137500Y-83217500D02*
X101137500Y-82000000D01*
D66*
X98175000Y-78500000D02*
X101137500Y-81462500D01*
D69*
X100575000Y-83780000D02*
X101137500Y-83217500D01*
D66*
X96650000Y-78500000D02*
X98175000Y-78500000D01*
D71*
%TO.N,Net-(L3-A)*%
X121650000Y-49150000D02*
X122250000Y-49750000D01*
X123359000Y-49750000D02*
X125609000Y-47500000D01*
X122250000Y-49750000D02*
X123359000Y-49750000D01*
X118500000Y-49150000D02*
X121650000Y-49150000D01*
D65*
%TO.N,/Switch-*%
X91500000Y-84812933D02*
X91500000Y-49500000D01*
X94500000Y-46500000D02*
X98850000Y-46500000D01*
X100000000Y-91800000D02*
X98487067Y-91800000D01*
X98487067Y-91800000D02*
X91500000Y-84812933D01*
X91500000Y-49500000D02*
X94500000Y-46500000D01*
D66*
%TO.N,Net-(U_P1-SW)*%
X99870000Y-56475000D02*
X102265000Y-56475000D01*
X95500000Y-52105000D02*
X99870000Y-56475000D01*
X97000000Y-44000000D02*
X95500000Y-45500000D01*
X99845000Y-56500000D02*
X99870000Y-56475000D01*
X95500000Y-47500000D02*
X95500000Y-52105000D01*
D68*
X105060000Y-55120000D02*
X103620000Y-55120000D01*
D66*
X102265000Y-56475000D02*
X103620000Y-55120000D01*
X97000000Y-43500000D02*
X97000000Y-44000000D01*
%TO.N,Net-(Q2-G)*%
X140577500Y-81520000D02*
X137147500Y-78090000D01*
X137117500Y-75447500D02*
X137117500Y-78060000D01*
X137117500Y-78060000D02*
X137147500Y-78090000D01*
X142560000Y-81520000D02*
X140577500Y-81520000D01*
D67*
X146000000Y-75600000D02*
X142560000Y-79040000D01*
X146000000Y-75500000D02*
X146000000Y-75600000D01*
X142560000Y-79040000D02*
X142560000Y-81520000D01*
D66*
%TO.N,Net-(Q2-D)*%
X141812500Y-73572500D02*
X141850000Y-73610000D01*
X138067500Y-73572500D02*
X134830000Y-73572500D01*
X138067500Y-73572500D02*
X141812500Y-73572500D01*
X134830000Y-73572500D02*
X133660000Y-74742500D01*
D67*
%TO.N,Net-(U5-VSENSE)*%
X127470000Y-90560000D02*
X124100000Y-90560000D01*
X122155000Y-87255000D02*
X122987500Y-88087500D01*
X124100000Y-90560000D02*
X124060000Y-90520000D01*
X122987500Y-88087500D02*
X124155000Y-88087500D01*
X124155000Y-90425000D02*
X124060000Y-90520000D01*
X124155000Y-88087500D02*
X124155000Y-90425000D01*
X122155000Y-87175000D02*
X122155000Y-87255000D01*
D65*
%TO.N,Net-(U6-~{STDBY})*%
X139075000Y-65192500D02*
X139075000Y-63525000D01*
X139075000Y-63525000D02*
X140440000Y-62160000D01*
X140440000Y-62160000D02*
X140440000Y-59492500D01*
%TO.N,Net-(U6-~{CHRG})*%
X137800000Y-63500000D02*
X137440000Y-63140000D01*
X137440000Y-63140000D02*
X137440000Y-59492500D01*
X137800000Y-65187500D02*
X137800000Y-63500000D01*
X137805000Y-65192500D02*
X137800000Y-65187500D01*
D66*
%TO.N,Net-(U9-VBUS)*%
X145850000Y-89800000D02*
X146882500Y-89800000D01*
X143399000Y-89800000D02*
X144200000Y-89800000D01*
X135370000Y-88124000D02*
X135370000Y-86830000D01*
X146882500Y-89800000D02*
X146890000Y-89792500D01*
X135370000Y-86830000D02*
X135765500Y-86434500D01*
X135765500Y-86434500D02*
X140033500Y-86434500D01*
X140033500Y-86434500D02*
X143399000Y-89800000D01*
D67*
%TO.N,Net-(U9-CFG1)*%
X134370000Y-85849000D02*
X134282500Y-85761500D01*
D66*
X141291500Y-85761500D02*
X134282500Y-85761500D01*
X142930000Y-87400000D02*
X141291500Y-85761500D01*
D67*
X134370000Y-88124000D02*
X134370000Y-85849000D01*
D66*
%TO.N,Net-(U_P1-FB)*%
X106532500Y-57610000D02*
X108720000Y-57610000D01*
X108720000Y-57610000D02*
X108740000Y-57590000D01*
X106532500Y-57610000D02*
X106532500Y-55892500D01*
X106532500Y-55892500D02*
X106510000Y-55870000D01*
%TO.N,/CC1*%
X137731678Y-86935500D02*
X136721001Y-86935500D01*
X138021000Y-87224822D02*
X137731678Y-86935500D01*
X136370000Y-87286501D02*
X136370000Y-88124000D01*
X136721001Y-86935500D02*
X136370000Y-87286501D01*
D71*
%TO.N,Net-(J_L2-A)*%
X122250000Y-44387500D02*
X124496500Y-44387500D01*
X122212500Y-44350000D02*
X122250000Y-44387500D01*
X124496500Y-44387500D02*
X125609000Y-45500000D01*
X118500000Y-44350000D02*
X122212500Y-44350000D01*
D65*
%TO.N,Net-(P1-A)*%
X103712500Y-50425000D02*
X104500000Y-49637500D01*
D66*
X103000000Y-43500000D02*
X103000000Y-47295000D01*
D65*
X100150000Y-50145000D02*
X99870000Y-50425000D01*
D66*
X99870000Y-49130000D02*
X99870000Y-50425000D01*
D65*
X100150000Y-46500000D02*
X100150000Y-50145000D01*
X99870000Y-50425000D02*
X103712500Y-50425000D01*
D66*
X103000000Y-47295000D02*
X99870000Y-50425000D01*
D67*
%TO.N,Net-(P4-A)*%
X104160000Y-73650000D02*
X104500000Y-73990000D01*
X101000000Y-73650000D02*
X100405116Y-73650000D01*
X99725000Y-71000000D02*
X100500000Y-70225000D01*
X101000000Y-73650000D02*
X104160000Y-73650000D01*
X99725000Y-72969884D02*
X99725000Y-71000000D01*
X100405116Y-73650000D02*
X99725000Y-72969884D01*
D68*
%TO.N,Net-(J_I2-B)*%
X94500000Y-82150000D02*
X96937500Y-82150000D01*
X96937500Y-82150000D02*
X97087500Y-82000000D01*
D70*
%TO.N,Net-(J_L3-A)*%
X125650000Y-46500000D02*
X125000000Y-46500000D01*
X123600000Y-43687500D02*
X123912500Y-43687500D01*
X125000000Y-46500000D02*
X124685412Y-46500000D01*
X124685412Y-46500000D02*
X123600000Y-45414588D01*
X123600000Y-45414588D02*
X123600000Y-45087500D01*
X123912500Y-43687500D02*
X125850000Y-41750000D01*
%TD*%
%TA.AperFunction,Conductor*%
%TO.N,GND*%
G36*
X131787539Y-62619685D02*
G01*
X131833294Y-62672489D01*
X131844500Y-62724000D01*
X131844500Y-64150002D01*
X131849644Y-64221940D01*
X131878338Y-64319660D01*
X131890181Y-64359992D01*
X131967969Y-64481032D01*
X131967971Y-64481034D01*
X131969711Y-64483042D01*
X131970817Y-64485464D01*
X131972763Y-64488492D01*
X131972327Y-64488771D01*
X131998737Y-64546597D01*
X132000000Y-64564247D01*
X132000000Y-64800000D01*
X132476000Y-64800000D01*
X132543039Y-64819685D01*
X132588794Y-64872489D01*
X132600000Y-64924000D01*
X132600000Y-66040857D01*
X132581539Y-66105953D01*
X132529095Y-66190977D01*
X132529092Y-66190984D01*
X132474826Y-66354747D01*
X132474826Y-66354748D01*
X132474825Y-66354748D01*
X132464500Y-66455815D01*
X132464500Y-67154169D01*
X132464501Y-67154187D01*
X132474825Y-67255252D01*
X132511109Y-67364749D01*
X132529092Y-67419016D01*
X132581539Y-67504046D01*
X132600000Y-67569142D01*
X132600000Y-67800000D01*
X132933634Y-67800000D01*
X132972637Y-67806293D01*
X133052247Y-67832674D01*
X133153323Y-67843000D01*
X133726676Y-67842999D01*
X133726684Y-67842998D01*
X133726687Y-67842998D01*
X133782030Y-67837344D01*
X133827753Y-67832674D01*
X133907363Y-67806293D01*
X133946366Y-67800000D01*
X134404245Y-67800000D01*
X134471284Y-67819685D01*
X134517039Y-67872489D01*
X134518780Y-67876486D01*
X134540606Y-67929179D01*
X134540607Y-67929181D01*
X134540609Y-67929185D01*
X134628210Y-68060288D01*
X134628213Y-68060292D01*
X134889707Y-68321786D01*
X134889711Y-68321789D01*
X135020814Y-68409390D01*
X135020827Y-68409397D01*
X135166498Y-68469735D01*
X135166503Y-68469737D01*
X135321153Y-68500499D01*
X135321156Y-68500500D01*
X135321158Y-68500500D01*
X135478842Y-68500500D01*
X135876000Y-68500500D01*
X135943039Y-68520185D01*
X135988794Y-68572989D01*
X136000000Y-68624500D01*
X136000000Y-69200000D01*
X136494334Y-69200000D01*
X136537323Y-69210975D01*
X136538360Y-69208196D01*
X136546666Y-69211294D01*
X136546669Y-69211296D01*
X136681517Y-69261591D01*
X136741127Y-69268000D01*
X136876002Y-69267999D01*
X136943039Y-69287683D01*
X136988794Y-69340487D01*
X137000000Y-69391999D01*
X137000000Y-70714309D01*
X136980315Y-70781348D01*
X136927511Y-70827103D01*
X136876000Y-70838309D01*
X131687267Y-70838309D01*
X131658433Y-70844043D01*
X131658434Y-70844044D01*
X131542284Y-70867148D01*
X131542274Y-70867151D01*
X131462272Y-70900288D01*
X131462273Y-70900289D01*
X131405696Y-70923724D01*
X131323563Y-70978604D01*
X131282776Y-71005856D01*
X131282772Y-71005859D01*
X131280451Y-71008181D01*
X131278935Y-71009008D01*
X131278066Y-71009722D01*
X131277930Y-71009557D01*
X131253523Y-71022884D01*
X131227705Y-71039477D01*
X131221504Y-71040368D01*
X131219128Y-71041666D01*
X131192770Y-71044500D01*
X131117533Y-71044500D01*
X131050494Y-71024815D01*
X131004739Y-70972011D01*
X130993567Y-70923383D01*
X130802951Y-62726883D01*
X130821071Y-62659404D01*
X130872797Y-62612434D01*
X130926917Y-62600000D01*
X131720500Y-62600000D01*
X131787539Y-62619685D01*
G37*
%TD.AperFunction*%
%TD*%
%TA.AperFunction,Conductor*%
%TO.N,GND*%
G36*
X91610252Y-86784054D02*
G01*
X91613239Y-86786584D01*
X96157655Y-90762948D01*
X96195145Y-90821908D01*
X96200000Y-90856268D01*
X96200000Y-94076000D01*
X96180315Y-94143039D01*
X96127511Y-94188794D01*
X96076000Y-94200000D01*
X91724000Y-94200000D01*
X91656961Y-94180315D01*
X91611206Y-94127511D01*
X91600000Y-94076000D01*
X91600000Y-94000009D01*
X91514105Y-90821908D01*
X91407656Y-86883276D01*
X91425522Y-86815730D01*
X91477071Y-86768565D01*
X91545936Y-86756757D01*
X91610252Y-86784054D01*
G37*
%TD.AperFunction*%
%TD*%
%TA.AperFunction,Conductor*%
%TO.N,+3.3V*%
G36*
X110743039Y-66019685D02*
G01*
X110788794Y-66072489D01*
X110800000Y-66124000D01*
X110800000Y-69200000D01*
X111876000Y-69200000D01*
X111943039Y-69219685D01*
X111988794Y-69272489D01*
X112000000Y-69324000D01*
X112000000Y-75476000D01*
X111980315Y-75543039D01*
X111927511Y-75588794D01*
X111876000Y-75600000D01*
X110027397Y-75600000D01*
X109983718Y-75590315D01*
X109983371Y-75591364D01*
X109976517Y-75589093D01*
X109976516Y-75589092D01*
X109812753Y-75534826D01*
X109812751Y-75534825D01*
X109711678Y-75524500D01*
X109038330Y-75524500D01*
X109038312Y-75524501D01*
X108937247Y-75534825D01*
X108842254Y-75566303D01*
X108773484Y-75589092D01*
X108773481Y-75589093D01*
X108766630Y-75591364D01*
X108766282Y-75590315D01*
X108722603Y-75600000D01*
X108277397Y-75600000D01*
X108233718Y-75590315D01*
X108233371Y-75591364D01*
X108226517Y-75589093D01*
X108226516Y-75589092D01*
X108062753Y-75534826D01*
X108062751Y-75534825D01*
X107961678Y-75524500D01*
X107288330Y-75524500D01*
X107288312Y-75524501D01*
X107187247Y-75534825D01*
X107092254Y-75566303D01*
X107023484Y-75589092D01*
X107023481Y-75589093D01*
X107016630Y-75591364D01*
X107016282Y-75590315D01*
X106972603Y-75600000D01*
X106614897Y-75600000D01*
X106571218Y-75590315D01*
X106570871Y-75591364D01*
X106564017Y-75589093D01*
X106564016Y-75589092D01*
X106400253Y-75534826D01*
X106400251Y-75534825D01*
X106299178Y-75524500D01*
X105700830Y-75524500D01*
X105700812Y-75524501D01*
X105599747Y-75534825D01*
X105504754Y-75566303D01*
X105435984Y-75589092D01*
X105435981Y-75589093D01*
X105429130Y-75591364D01*
X105428590Y-75589735D01*
X105426766Y-75590012D01*
X105417498Y-75595694D01*
X105385103Y-75600000D01*
X105000000Y-75600000D01*
X105000000Y-78075500D01*
X104980315Y-78142539D01*
X104927511Y-78188294D01*
X104876000Y-78199500D01*
X100382940Y-78199500D01*
X100315901Y-78179815D01*
X100295259Y-78163181D01*
X100036319Y-77904241D01*
X100002834Y-77842918D01*
X100000000Y-77816560D01*
X100000000Y-75324000D01*
X100019685Y-75256961D01*
X100072489Y-75211206D01*
X100124000Y-75200000D01*
X103589730Y-75200000D01*
X103619656Y-75203665D01*
X103756106Y-75237599D01*
X103756107Y-75237599D01*
X103756111Y-75237600D01*
X103798877Y-75240500D01*
X105201122Y-75240499D01*
X105243889Y-75237600D01*
X105380344Y-75203665D01*
X105410270Y-75200000D01*
X105800000Y-75200000D01*
X105800000Y-74966343D01*
X105819685Y-74899304D01*
X105827342Y-74888669D01*
X105867030Y-74839296D01*
X105951641Y-74668693D01*
X105997600Y-74483889D01*
X106000500Y-74441123D01*
X106000499Y-73538878D01*
X105997600Y-73496111D01*
X105951641Y-73311307D01*
X105867030Y-73140704D01*
X105867028Y-73140702D01*
X105867027Y-73140699D01*
X105829401Y-73093890D01*
X105829390Y-73093877D01*
X105800000Y-73057314D01*
X105800000Y-73000000D01*
X105750892Y-72996222D01*
X105747722Y-72992278D01*
X105599296Y-72872970D01*
X105599295Y-72872969D01*
X105599292Y-72872967D01*
X105428697Y-72788360D01*
X105243892Y-72742400D01*
X105222506Y-72740950D01*
X105201123Y-72739500D01*
X105201120Y-72739500D01*
X103798877Y-72739500D01*
X103798874Y-72739501D01*
X103756113Y-72742399D01*
X103756112Y-72742399D01*
X103617987Y-72776750D01*
X103571307Y-72788359D01*
X103571305Y-72788359D01*
X103571304Y-72788360D01*
X103531702Y-72808000D01*
X103515392Y-72811167D01*
X103502317Y-72818216D01*
X103467100Y-72820545D01*
X103314490Y-72808806D01*
X103249158Y-72784038D01*
X103207587Y-72727880D01*
X103200000Y-72685171D01*
X103200000Y-70724000D01*
X103219685Y-70656961D01*
X103272489Y-70611206D01*
X103324000Y-70600000D01*
X103589730Y-70600000D01*
X103619656Y-70603665D01*
X103756106Y-70637599D01*
X103756107Y-70637599D01*
X103756111Y-70637600D01*
X103798877Y-70640500D01*
X105201122Y-70640499D01*
X105243889Y-70637600D01*
X105380344Y-70603665D01*
X105410270Y-70600000D01*
X109010000Y-70600000D01*
X109010000Y-67546492D01*
X109028461Y-67481395D01*
X109030337Y-67478352D01*
X109030340Y-67478350D01*
X109120908Y-67331516D01*
X109175174Y-67167753D01*
X109185500Y-67066677D01*
X109185499Y-66493324D01*
X109184912Y-66487579D01*
X109186125Y-66462754D01*
X109184902Y-66462634D01*
X109185500Y-66456564D01*
X109185500Y-66124000D01*
X109205185Y-66056961D01*
X109257989Y-66011206D01*
X109309500Y-66000000D01*
X110676000Y-66000000D01*
X110743039Y-66019685D01*
G37*
%TD.AperFunction*%
%TD*%
%TA.AperFunction,Conductor*%
%TO.N,GND*%
G36*
X116343039Y-57219685D02*
G01*
X116388794Y-57272489D01*
X116400000Y-57324000D01*
X116400000Y-57849769D01*
X116380315Y-57916808D01*
X116363681Y-57937450D01*
X115512949Y-58788181D01*
X115451626Y-58821666D01*
X115425269Y-58824500D01*
X115213331Y-58824500D01*
X115213312Y-58824501D01*
X115112247Y-58834825D01*
X114948484Y-58889092D01*
X114948481Y-58889093D01*
X114798604Y-58981539D01*
X114733507Y-59000000D01*
X114266493Y-59000000D01*
X114201396Y-58981539D01*
X114051518Y-58889093D01*
X114051513Y-58889091D01*
X114038639Y-58884825D01*
X113887753Y-58834826D01*
X113887751Y-58834825D01*
X113786678Y-58824500D01*
X113213330Y-58824500D01*
X113213312Y-58824501D01*
X113112247Y-58834825D01*
X112948484Y-58889092D01*
X112948481Y-58889093D01*
X112798604Y-58981539D01*
X112733507Y-59000000D01*
X112185431Y-59000000D01*
X112120335Y-58981539D01*
X112051522Y-58939095D01*
X112051517Y-58939093D01*
X112051516Y-58939092D01*
X111887753Y-58884826D01*
X111887751Y-58884825D01*
X111786678Y-58874500D01*
X111213330Y-58874500D01*
X111213312Y-58874501D01*
X111112247Y-58884825D01*
X110948484Y-58939092D01*
X110948477Y-58939095D01*
X110879665Y-58981539D01*
X110814569Y-59000000D01*
X110200000Y-59000000D01*
X110200000Y-59479000D01*
X110180315Y-59546039D01*
X110127511Y-59591794D01*
X110076000Y-59603000D01*
X108272974Y-59603000D01*
X108205935Y-59583315D01*
X108160180Y-59530511D01*
X108150236Y-59461353D01*
X108158413Y-59431548D01*
X108219735Y-59283501D01*
X108219737Y-59283497D01*
X108250500Y-59128842D01*
X108250500Y-58971158D01*
X108250500Y-58971155D01*
X108250499Y-58971153D01*
X108233327Y-58884825D01*
X108219737Y-58816503D01*
X108182914Y-58727605D01*
X108175446Y-58658139D01*
X108206721Y-58595659D01*
X108266810Y-58560007D01*
X108336478Y-58562448D01*
X108352247Y-58567674D01*
X108453323Y-58578000D01*
X109026676Y-58577999D01*
X109026684Y-58577998D01*
X109026687Y-58577998D01*
X109082030Y-58572344D01*
X109127753Y-58567674D01*
X109291516Y-58513408D01*
X109291518Y-58513406D01*
X109298370Y-58511136D01*
X109298717Y-58512184D01*
X109342397Y-58502500D01*
X109800000Y-58502500D01*
X109800000Y-57324000D01*
X109819685Y-57256961D01*
X109872489Y-57211206D01*
X109924000Y-57200000D01*
X116276000Y-57200000D01*
X116343039Y-57219685D01*
G37*
%TD.AperFunction*%
%TD*%
%TA.AperFunction,Conductor*%
%TO.N,GND*%
G36*
X139736295Y-74423768D02*
G01*
X139785304Y-74473567D01*
X139800000Y-74532122D01*
X139800000Y-78876000D01*
X139780315Y-78943039D01*
X139727511Y-78988794D01*
X139676000Y-79000000D01*
X139028808Y-79000000D01*
X138961769Y-78980315D01*
X138941127Y-78963681D01*
X138171818Y-78194372D01*
X138138333Y-78133049D01*
X138135499Y-78106691D01*
X138135499Y-77803330D01*
X138135498Y-77803313D01*
X138125174Y-77702247D01*
X138125173Y-77702244D01*
X138068636Y-77531628D01*
X138070312Y-77531072D01*
X138061256Y-77490040D01*
X138066611Y-74934239D01*
X138086436Y-74867242D01*
X138139336Y-74821598D01*
X138190611Y-74810500D01*
X138283186Y-74810500D01*
X138283194Y-74810500D01*
X138320069Y-74807598D01*
X138320071Y-74807597D01*
X138320073Y-74807597D01*
X138361691Y-74795505D01*
X138477898Y-74761744D01*
X138619365Y-74678081D01*
X138735581Y-74561865D01*
X138760119Y-74520373D01*
X138811182Y-74472693D01*
X138858983Y-74459747D01*
X139668146Y-74408371D01*
X139736295Y-74423768D01*
G37*
%TD.AperFunction*%
%TD*%
%TA.AperFunction,Conductor*%
%TO.N,GND*%
G36*
X117543039Y-89219685D02*
G01*
X117588794Y-89272489D01*
X117600000Y-89324000D01*
X117600000Y-91200000D01*
X117869367Y-91200000D01*
X117932487Y-91217267D01*
X118024602Y-91271744D01*
X118066224Y-91283836D01*
X118182426Y-91317597D01*
X118182429Y-91317597D01*
X118182431Y-91317598D01*
X118219306Y-91320500D01*
X118219314Y-91320500D01*
X120000686Y-91320500D01*
X120000694Y-91320500D01*
X120037569Y-91317598D01*
X120037571Y-91317597D01*
X120037573Y-91317597D01*
X120079191Y-91305505D01*
X120195398Y-91271744D01*
X120287512Y-91217267D01*
X120350633Y-91200000D01*
X120600000Y-91200000D01*
X120600000Y-91124000D01*
X120619685Y-91056961D01*
X120672489Y-91011206D01*
X120724000Y-91000000D01*
X122476000Y-91000000D01*
X122543039Y-91019685D01*
X122588794Y-91072489D01*
X122600000Y-91124000D01*
X122600000Y-91476419D01*
X122595077Y-91511012D01*
X122587403Y-91537427D01*
X122587401Y-91537436D01*
X122584500Y-91574298D01*
X122584500Y-92005701D01*
X122587401Y-92042567D01*
X122587402Y-92042569D01*
X122595076Y-92068982D01*
X122600000Y-92103578D01*
X122600000Y-92746419D01*
X122595077Y-92781012D01*
X122587403Y-92807427D01*
X122587401Y-92807436D01*
X122584500Y-92844298D01*
X122584500Y-93275701D01*
X122587401Y-93312567D01*
X122587402Y-93312569D01*
X122595076Y-93338982D01*
X122600000Y-93373578D01*
X122600000Y-93676000D01*
X122580315Y-93743039D01*
X122527511Y-93788794D01*
X122476000Y-93800000D01*
X120812731Y-93800000D01*
X120790967Y-93793609D01*
X120768358Y-93791789D01*
X120754799Y-93782989D01*
X120745692Y-93780315D01*
X120737534Y-93774597D01*
X120730923Y-93769555D01*
X120708416Y-93747048D01*
X120651888Y-93709278D01*
X120648803Y-93706925D01*
X120630320Y-93681768D01*
X120610304Y-93657818D01*
X120609346Y-93653221D01*
X120607435Y-93650619D01*
X120606846Y-93641213D01*
X120600000Y-93608328D01*
X120600000Y-92200000D01*
X117360943Y-92200000D01*
X117295847Y-92181539D01*
X117269340Y-92165189D01*
X117269335Y-92165187D01*
X117269334Y-92165186D01*
X117102797Y-92110001D01*
X117102795Y-92110000D01*
X117000010Y-92099500D01*
X115599998Y-92099500D01*
X115599981Y-92099501D01*
X115497203Y-92110000D01*
X115497200Y-92110001D01*
X115363004Y-92154470D01*
X115293176Y-92156872D01*
X115233134Y-92121140D01*
X115201941Y-92058620D01*
X115200000Y-92036764D01*
X115200000Y-89324000D01*
X115219685Y-89256961D01*
X115272489Y-89211206D01*
X115324000Y-89200000D01*
X117476000Y-89200000D01*
X117543039Y-89219685D01*
G37*
%TD.AperFunction*%
%TD*%
%TA.AperFunction,Conductor*%
%TO.N,GND*%
G36*
X133333475Y-85019685D02*
G01*
X133379230Y-85072489D01*
X133389174Y-85141647D01*
X133371975Y-85189096D01*
X133359093Y-85209980D01*
X133359092Y-85209984D01*
X133304826Y-85373747D01*
X133304826Y-85373748D01*
X133304825Y-85373748D01*
X133294500Y-85474815D01*
X133294500Y-86048169D01*
X133294501Y-86048187D01*
X133304825Y-86149252D01*
X133313745Y-86176169D01*
X133343769Y-86266776D01*
X133359092Y-86313015D01*
X133362146Y-86319564D01*
X133359387Y-86320850D01*
X133360481Y-86324843D01*
X133369850Y-86340041D01*
X133374204Y-86374958D01*
X133374218Y-86375010D01*
X133374217Y-86375063D01*
X133372281Y-86478324D01*
X133351343Y-86544983D01*
X133297691Y-86589740D01*
X133248303Y-86600000D01*
X132600000Y-86600000D01*
X132600000Y-87221291D01*
X132595076Y-87255886D01*
X132572402Y-87333926D01*
X132572401Y-87333932D01*
X132569500Y-87370798D01*
X132569500Y-88877201D01*
X132572401Y-88914067D01*
X132572402Y-88914070D01*
X132595076Y-88992111D01*
X132600000Y-89026707D01*
X132600000Y-89600000D01*
X136595500Y-89600000D01*
X136662539Y-89619685D01*
X136708294Y-89672489D01*
X136719500Y-89724000D01*
X136719500Y-90284069D01*
X136719500Y-90284071D01*
X136719499Y-90284071D01*
X136744497Y-90409738D01*
X136744499Y-90409744D01*
X136793535Y-90528127D01*
X136864723Y-90634669D01*
X136963682Y-90733628D01*
X136997166Y-90794949D01*
X137000000Y-90821308D01*
X137000000Y-91486000D01*
X136980315Y-91553039D01*
X136927511Y-91598794D01*
X136876000Y-91610000D01*
X136634390Y-91610000D01*
X136573972Y-91622018D01*
X136536260Y-91629519D01*
X136513551Y-91634036D01*
X136513549Y-91634037D01*
X136480208Y-91647847D01*
X136399720Y-91681184D01*
X136399706Y-91681192D01*
X136297273Y-91749638D01*
X136297265Y-91749644D01*
X136283229Y-91763681D01*
X136221906Y-91797166D01*
X136195548Y-91800000D01*
X133427342Y-91800000D01*
X133360303Y-91780315D01*
X133332864Y-91756310D01*
X133200000Y-91600000D01*
X133199999Y-91600000D01*
X131788038Y-91600000D01*
X131762075Y-91597252D01*
X131757757Y-91596327D01*
X131757753Y-91596326D01*
X131757748Y-91596325D01*
X131757746Y-91596325D01*
X131656686Y-91586000D01*
X131656677Y-91586000D01*
X131444729Y-91586000D01*
X131415288Y-91577355D01*
X131385302Y-91570832D01*
X131380286Y-91567077D01*
X131377690Y-91566315D01*
X131357048Y-91549681D01*
X131186819Y-91379451D01*
X131153334Y-91318128D01*
X131150500Y-91291770D01*
X131150500Y-90324000D01*
X131170185Y-90256961D01*
X131222989Y-90211206D01*
X131274500Y-90200000D01*
X131800000Y-90200000D01*
X131800000Y-85124000D01*
X131819685Y-85056961D01*
X131872489Y-85011206D01*
X131924000Y-85000000D01*
X133266436Y-85000000D01*
X133333475Y-85019685D01*
G37*
%TD.AperFunction*%
%TD*%
%TA.AperFunction,Conductor*%
%TO.N,GND*%
G36*
X131546020Y-35806469D02*
G01*
X131568907Y-35808422D01*
X131578912Y-35816127D01*
X131591026Y-35819685D01*
X131606064Y-35837040D01*
X131624262Y-35851056D01*
X131628512Y-35862946D01*
X131636781Y-35872489D01*
X131640049Y-35895219D01*
X131647781Y-35916848D01*
X131644927Y-35929149D01*
X131646725Y-35941647D01*
X131637183Y-35962539D01*
X131631995Y-35984911D01*
X131619641Y-36000950D01*
X131617700Y-36005203D01*
X131613336Y-36009138D01*
X131610460Y-36012873D01*
X131599280Y-36023750D01*
X131594596Y-36025935D01*
X131510935Y-36109596D01*
X131510838Y-36109803D01*
X131506105Y-36114409D01*
X131491142Y-36126839D01*
X131387500Y-36199999D01*
X131387500Y-37076000D01*
X131367815Y-37143039D01*
X131315011Y-37188794D01*
X131263500Y-37200000D01*
X130974000Y-37200000D01*
X130906961Y-37180315D01*
X130861206Y-37127511D01*
X130850000Y-37076000D01*
X130850000Y-35924000D01*
X130869685Y-35856961D01*
X130922489Y-35811206D01*
X130974000Y-35800000D01*
X131523987Y-35800000D01*
X131546020Y-35806469D01*
G37*
%TD.AperFunction*%
%TD*%
%TA.AperFunction,Conductor*%
%TO.N,GND*%
G36*
X137984013Y-35652055D02*
G01*
X137991203Y-35650815D01*
X138017087Y-35661767D01*
X138044052Y-35669685D01*
X138048828Y-35675197D01*
X138055549Y-35678041D01*
X138071404Y-35701251D01*
X138089807Y-35722489D01*
X138090845Y-35729710D01*
X138094961Y-35735735D01*
X138095750Y-35763827D01*
X138099751Y-35791647D01*
X138096719Y-35798284D01*
X138096925Y-35805577D01*
X138082401Y-35829636D01*
X138070726Y-35855203D01*
X138063824Y-35860412D01*
X138060818Y-35865393D01*
X138031675Y-35885302D01*
X138030582Y-35885838D01*
X137944596Y-35925935D01*
X137940405Y-35930125D01*
X137925793Y-35937302D01*
X137871131Y-35950000D01*
X137850000Y-35950000D01*
X137850000Y-36005555D01*
X137838382Y-36057959D01*
X137810932Y-36116826D01*
X137810931Y-36116827D01*
X137804500Y-36165683D01*
X137804500Y-36454316D01*
X137810931Y-36503172D01*
X137810932Y-36503174D01*
X137812995Y-36507598D01*
X137823486Y-36576675D01*
X137812995Y-36612402D01*
X137810932Y-36616825D01*
X137810931Y-36616827D01*
X137804500Y-36665683D01*
X137804500Y-36954314D01*
X137805224Y-36959813D01*
X137794459Y-37028848D01*
X137748080Y-37081105D01*
X137682285Y-37100000D01*
X137324000Y-37100000D01*
X137256961Y-37080315D01*
X137211206Y-37027511D01*
X137200000Y-36976000D01*
X137200000Y-35774000D01*
X137219685Y-35706961D01*
X137272489Y-35661206D01*
X137324000Y-35650000D01*
X137977013Y-35650000D01*
X137984013Y-35652055D01*
G37*
%TD.AperFunction*%
%TD*%
%TA.AperFunction,Conductor*%
%TO.N,GND*%
G36*
X105643039Y-36319685D02*
G01*
X105688794Y-36372489D01*
X105700000Y-36424000D01*
X105700000Y-37529700D01*
X105680315Y-37596739D01*
X105627511Y-37642494D01*
X105579756Y-37653643D01*
X104999787Y-37671218D01*
X104932182Y-37653573D01*
X104884849Y-37602179D01*
X104872815Y-37533354D01*
X104899901Y-37468948D01*
X104927094Y-37444203D01*
X104934994Y-37438919D01*
X104945404Y-37434065D01*
X104951769Y-37427699D01*
X104961894Y-37420928D01*
X104984075Y-37413972D01*
X105004473Y-37402834D01*
X105027481Y-37400360D01*
X105028563Y-37400021D01*
X105029147Y-37400181D01*
X105030831Y-37400000D01*
X105150000Y-37400000D01*
X105150000Y-36424000D01*
X105169685Y-36356961D01*
X105222489Y-36311206D01*
X105274000Y-36300000D01*
X105576000Y-36300000D01*
X105643039Y-36319685D01*
G37*
%TD.AperFunction*%
%TD*%
%TA.AperFunction,Conductor*%
%TO.N,GND*%
G36*
X98643039Y-36269685D02*
G01*
X98688794Y-36322489D01*
X98700000Y-36374000D01*
X98700000Y-37529700D01*
X98680315Y-37596739D01*
X98627511Y-37642494D01*
X98579756Y-37653643D01*
X97999787Y-37671218D01*
X97932182Y-37653573D01*
X97884849Y-37602179D01*
X97872815Y-37533354D01*
X97899901Y-37468948D01*
X97914834Y-37453557D01*
X97927923Y-37442216D01*
X97945404Y-37434065D01*
X97997754Y-37381714D01*
X98001093Y-37378822D01*
X98029001Y-37366078D01*
X98040868Y-37359598D01*
X98049999Y-37350000D01*
X98050000Y-37350000D01*
X98050000Y-37332999D01*
X98061618Y-37280594D01*
X98079068Y-37243173D01*
X98085500Y-37194316D01*
X98085500Y-36905684D01*
X98079068Y-36856827D01*
X98077008Y-36852410D01*
X98066512Y-36783336D01*
X98077007Y-36747590D01*
X98079068Y-36743173D01*
X98085500Y-36694316D01*
X98085500Y-36405684D01*
X98085500Y-36405680D01*
X98083460Y-36390183D01*
X98094227Y-36321148D01*
X98140608Y-36268893D01*
X98206399Y-36250000D01*
X98576000Y-36250000D01*
X98643039Y-36269685D01*
G37*
%TD.AperFunction*%
%TD*%
%TA.AperFunction,Conductor*%
%TO.N,GND*%
G36*
X130013440Y-46057685D02*
G01*
X130052007Y-46097012D01*
X130300000Y-46500000D01*
X133329936Y-46596188D01*
X133396316Y-46617990D01*
X133440372Y-46672219D01*
X133450000Y-46720126D01*
X133450000Y-47576000D01*
X133430315Y-47643039D01*
X133377511Y-47688794D01*
X133326000Y-47700000D01*
X132700000Y-47700000D01*
X131931737Y-48228181D01*
X131865341Y-48249940D01*
X131861487Y-48250000D01*
X130115242Y-48250000D01*
X130048203Y-48230315D01*
X130027561Y-48213681D01*
X128502449Y-46688569D01*
X128501410Y-46686666D01*
X128499543Y-46685564D01*
X128484742Y-46656141D01*
X128468964Y-46627246D01*
X128469118Y-46625083D01*
X128468144Y-46623146D01*
X128471599Y-46590396D01*
X128473948Y-46557554D01*
X128475318Y-46555140D01*
X128475475Y-46553662D01*
X128480099Y-46546726D01*
X128493424Y-46523273D01*
X128497656Y-46517999D01*
X128545114Y-46470542D01*
X128591685Y-46400841D01*
X128595066Y-46396630D01*
X128596850Y-46395385D01*
X128604081Y-46386574D01*
X128916339Y-46074316D01*
X128977661Y-46040834D01*
X129004019Y-46038000D01*
X129946401Y-46038000D01*
X130013440Y-46057685D01*
G37*
%TD.AperFunction*%
%TD*%
M02*
