%TF.GenerationSoftware,KiCad,Pcbnew,9.0.0*%
%TF.CreationDate,2025-03-28T03:41:13+02:00*%
%TF.ProjectId,Power_Board_3088F,506f7765-725f-4426-9f61-72645f333038,V0*%
%TF.SameCoordinates,Original*%
%TF.FileFunction,Legend,Top*%
%TF.FilePolarity,Positive*%
%FSLAX46Y46*%
G04 Gerber Fmt 4.6, Leading zero omitted, Abs format (unit mm)*
G04 Created by KiCad (PCBNEW 9.0.0) date 2025-03-28 03:41:13*
%MOMM*%
%LPD*%
G01*
G04 APERTURE LIST*
G04 Aperture macros list*
%AMRoundRect*
0 Rectangle with rounded corners*
0 $1 Rounding radius*
0 $2 $3 $4 $5 $6 $7 $8 $9 X,Y pos of 4 corners*
0 Add a 4 corners polygon primitive as box body*
4,1,4,$2,$3,$4,$5,$6,$7,$8,$9,$2,$3,0*
0 Add four circle primitives for the rounded corners*
1,1,$1+$1,$2,$3*
1,1,$1+$1,$4,$5*
1,1,$1+$1,$6,$7*
1,1,$1+$1,$8,$9*
0 Add four rect primitives between the rounded corners*
20,1,$1+$1,$2,$3,$4,$5,0*
20,1,$1+$1,$4,$5,$6,$7,0*
20,1,$1+$1,$6,$7,$8,$9,0*
20,1,$1+$1,$8,$9,$2,$3,0*%
%AMFreePoly0*
4,1,23,0.500000,-0.750000,0.000000,-0.750000,0.000000,-0.745722,-0.065263,-0.745722,-0.191342,-0.711940,-0.304381,-0.646677,-0.396677,-0.554381,-0.461940,-0.441342,-0.495722,-0.315263,-0.495722,-0.250000,-0.500000,-0.250000,-0.500000,0.250000,-0.495722,0.250000,-0.495722,0.315263,-0.461940,0.441342,-0.396677,0.554381,-0.304381,0.646677,-0.191342,0.711940,-0.065263,0.745722,0.000000,0.745722,
0.000000,0.750000,0.500000,0.750000,0.500000,-0.750000,0.500000,-0.750000,$1*%
%AMFreePoly1*
4,1,23,0.000000,0.745722,0.065263,0.745722,0.191342,0.711940,0.304381,0.646677,0.396677,0.554381,0.461940,0.441342,0.495722,0.315263,0.495722,0.250000,0.500000,0.250000,0.500000,-0.250000,0.495722,-0.250000,0.495722,-0.315263,0.461940,-0.441342,0.396677,-0.554381,0.304381,-0.646677,0.191342,-0.711940,0.065263,-0.745722,0.000000,-0.745722,0.000000,-0.750000,-0.500000,-0.750000,
-0.500000,0.750000,0.000000,0.750000,0.000000,0.745722,0.000000,0.745722,$1*%
G04 Aperture macros list end*
%ADD10C,0.200000*%
%ADD11C,0.150000*%
%ADD12C,0.000000*%
%ADD13C,0.152500*%
%ADD14C,0.254000*%
%ADD15C,0.127000*%
%ADD16C,0.120000*%
%ADD17C,0.010000*%
%ADD18R,2.000000X2.000000*%
%ADD19O,1.000000X2.100000*%
%ADD20O,1.000000X1.800000*%
%ADD21R,0.600000X1.240000*%
%ADD22R,0.300000X1.240000*%
%ADD23C,3.000000*%
%ADD24RoundRect,0.102000X1.651000X-1.100000X1.651000X1.100000X-1.651000X1.100000X-1.651000X-1.100000X0*%
%ADD25RoundRect,0.102000X0.300000X-0.985000X0.300000X0.985000X-0.300000X0.985000X-0.300000X-0.985000X0*%
%ADD26RoundRect,0.237500X-0.237500X0.250000X-0.237500X-0.250000X0.237500X-0.250000X0.237500X0.250000X0*%
%ADD27C,2.000000*%
%ADD28RoundRect,0.237500X-0.250000X-0.237500X0.250000X-0.237500X0.250000X0.237500X-0.250000X0.237500X0*%
%ADD29RoundRect,0.150000X0.825000X0.150000X-0.825000X0.150000X-0.825000X-0.150000X0.825000X-0.150000X0*%
%ADD30R,2.290000X3.000000*%
%ADD31RoundRect,0.237500X0.237500X-0.250000X0.237500X0.250000X-0.237500X0.250000X-0.237500X-0.250000X0*%
%ADD32RoundRect,0.250000X0.625000X-0.400000X0.625000X0.400000X-0.625000X0.400000X-0.625000X-0.400000X0*%
%ADD33FreePoly0,270.000000*%
%ADD34FreePoly1,270.000000*%
%ADD35RoundRect,0.110000X0.440000X1.590000X-0.440000X1.590000X-0.440000X-1.590000X0.440000X-1.590000X0*%
%ADD36FreePoly0,90.000000*%
%ADD37FreePoly1,90.000000*%
%ADD38RoundRect,0.237500X0.300000X0.237500X-0.300000X0.237500X-0.300000X-0.237500X0.300000X-0.237500X0*%
%ADD39RoundRect,0.060500X-0.411500X-0.181500X0.411500X-0.181500X0.411500X0.181500X-0.411500X0.181500X0*%
%ADD40RoundRect,0.102000X-0.450000X-0.800000X0.450000X-0.800000X0.450000X0.800000X-0.450000X0.800000X0*%
%ADD41FreePoly0,180.000000*%
%ADD42FreePoly1,180.000000*%
%ADD43RoundRect,0.250000X0.650000X-0.412500X0.650000X0.412500X-0.650000X0.412500X-0.650000X-0.412500X0*%
%ADD44RoundRect,0.250000X0.350000X0.625000X-0.350000X0.625000X-0.350000X-0.625000X0.350000X-0.625000X0*%
%ADD45O,1.200000X1.750000*%
%ADD46RoundRect,0.150000X0.150000X-0.587500X0.150000X0.587500X-0.150000X0.587500X-0.150000X-0.587500X0*%
%ADD47RoundRect,0.375000X-0.625000X-0.375000X0.625000X-0.375000X0.625000X0.375000X-0.625000X0.375000X0*%
%ADD48RoundRect,0.500000X-0.500000X-1.400000X0.500000X-1.400000X0.500000X1.400000X-0.500000X1.400000X0*%
%ADD49FreePoly0,0.000000*%
%ADD50FreePoly1,0.000000*%
%ADD51RoundRect,0.150000X0.150000X-0.687500X0.150000X0.687500X-0.150000X0.687500X-0.150000X-0.687500X0*%
%ADD52R,3.300000X2.100000*%
%ADD53RoundRect,0.237500X-0.237500X0.300000X-0.237500X-0.300000X0.237500X-0.300000X0.237500X0.300000X0*%
%ADD54RoundRect,0.250000X-1.500000X-0.550000X1.500000X-0.550000X1.500000X0.550000X-1.500000X0.550000X0*%
%ADD55RoundRect,0.237500X0.250000X0.237500X-0.250000X0.237500X-0.250000X-0.237500X0.250000X-0.237500X0*%
%ADD56R,1.700000X1.700000*%
%ADD57O,1.700000X1.700000*%
%ADD58C,3.200000*%
%ADD59RoundRect,0.250000X-1.500000X0.925000X-1.500000X-0.925000X1.500000X-0.925000X1.500000X0.925000X0*%
%ADD60RoundRect,0.237500X0.287500X0.237500X-0.287500X0.237500X-0.287500X-0.237500X0.287500X-0.237500X0*%
%ADD61RoundRect,0.237500X0.237500X-0.300000X0.237500X0.300000X-0.237500X0.300000X-0.237500X-0.300000X0*%
%ADD62RoundRect,0.125000X0.537500X0.125000X-0.537500X0.125000X-0.537500X-0.125000X0.537500X-0.125000X0*%
%ADD63RoundRect,0.087500X-0.487500X-0.087500X0.487500X-0.087500X0.487500X0.087500X-0.487500X0.087500X0*%
%ADD64RoundRect,0.050000X-0.675000X-0.050000X0.675000X-0.050000X0.675000X0.050000X-0.675000X0.050000X0*%
%ADD65RoundRect,0.062500X-0.162500X-0.062500X0.162500X-0.062500X0.162500X0.062500X-0.162500X0.062500X0*%
%ADD66RoundRect,0.060500X0.411500X0.181500X-0.411500X0.181500X-0.411500X-0.181500X0.411500X-0.181500X0*%
%ADD67RoundRect,0.102000X0.450000X0.800000X-0.450000X0.800000X-0.450000X-0.800000X0.450000X-0.800000X0*%
%ADD68RoundRect,0.237500X-0.300000X-0.237500X0.300000X-0.237500X0.300000X0.237500X-0.300000X0.237500X0*%
%ADD69RoundRect,0.237500X0.237500X-0.287500X0.237500X0.287500X-0.237500X0.287500X-0.237500X-0.287500X0*%
%ADD70RoundRect,0.237500X-0.287500X-0.237500X0.287500X-0.237500X0.287500X0.237500X-0.287500X0.237500X0*%
G04 APERTURE END LIST*
D10*
X145914838Y-44106517D02*
X145867219Y-44201755D01*
X145867219Y-44201755D02*
X145867219Y-44344612D01*
X145867219Y-44344612D02*
X145914838Y-44487469D01*
X145914838Y-44487469D02*
X146010076Y-44582707D01*
X146010076Y-44582707D02*
X146105314Y-44630326D01*
X146105314Y-44630326D02*
X146295790Y-44677945D01*
X146295790Y-44677945D02*
X146438647Y-44677945D01*
X146438647Y-44677945D02*
X146629123Y-44630326D01*
X146629123Y-44630326D02*
X146724361Y-44582707D01*
X146724361Y-44582707D02*
X146819600Y-44487469D01*
X146819600Y-44487469D02*
X146867219Y-44344612D01*
X146867219Y-44344612D02*
X146867219Y-44249374D01*
X146867219Y-44249374D02*
X146819600Y-44106517D01*
X146819600Y-44106517D02*
X146771980Y-44058898D01*
X146771980Y-44058898D02*
X146438647Y-44058898D01*
X146438647Y-44058898D02*
X146438647Y-44249374D01*
X146867219Y-43630326D02*
X146200552Y-43630326D01*
X146391028Y-43630326D02*
X146295790Y-43582707D01*
X146295790Y-43582707D02*
X146248171Y-43535088D01*
X146248171Y-43535088D02*
X146200552Y-43439850D01*
X146200552Y-43439850D02*
X146200552Y-43344612D01*
X146867219Y-42868421D02*
X146819600Y-42963659D01*
X146819600Y-42963659D02*
X146771980Y-43011278D01*
X146771980Y-43011278D02*
X146676742Y-43058897D01*
X146676742Y-43058897D02*
X146391028Y-43058897D01*
X146391028Y-43058897D02*
X146295790Y-43011278D01*
X146295790Y-43011278D02*
X146248171Y-42963659D01*
X146248171Y-42963659D02*
X146200552Y-42868421D01*
X146200552Y-42868421D02*
X146200552Y-42725564D01*
X146200552Y-42725564D02*
X146248171Y-42630326D01*
X146248171Y-42630326D02*
X146295790Y-42582707D01*
X146295790Y-42582707D02*
X146391028Y-42535088D01*
X146391028Y-42535088D02*
X146676742Y-42535088D01*
X146676742Y-42535088D02*
X146771980Y-42582707D01*
X146771980Y-42582707D02*
X146819600Y-42630326D01*
X146819600Y-42630326D02*
X146867219Y-42725564D01*
X146867219Y-42725564D02*
X146867219Y-42868421D01*
X146200552Y-41677945D02*
X146867219Y-41677945D01*
X146200552Y-42106516D02*
X146724361Y-42106516D01*
X146724361Y-42106516D02*
X146819600Y-42058897D01*
X146819600Y-42058897D02*
X146867219Y-41963659D01*
X146867219Y-41963659D02*
X146867219Y-41820802D01*
X146867219Y-41820802D02*
X146819600Y-41725564D01*
X146819600Y-41725564D02*
X146771980Y-41677945D01*
X146200552Y-41201754D02*
X147200552Y-41201754D01*
X146248171Y-41201754D02*
X146200552Y-41106516D01*
X146200552Y-41106516D02*
X146200552Y-40916040D01*
X146200552Y-40916040D02*
X146248171Y-40820802D01*
X146248171Y-40820802D02*
X146295790Y-40773183D01*
X146295790Y-40773183D02*
X146391028Y-40725564D01*
X146391028Y-40725564D02*
X146676742Y-40725564D01*
X146676742Y-40725564D02*
X146771980Y-40773183D01*
X146771980Y-40773183D02*
X146819600Y-40820802D01*
X146819600Y-40820802D02*
X146867219Y-40916040D01*
X146867219Y-40916040D02*
X146867219Y-41106516D01*
X146867219Y-41106516D02*
X146819600Y-41201754D01*
X146867219Y-39011278D02*
X146867219Y-39582706D01*
X146867219Y-39296992D02*
X145867219Y-39296992D01*
X145867219Y-39296992D02*
X146010076Y-39392230D01*
X146010076Y-39392230D02*
X146105314Y-39487468D01*
X146105314Y-39487468D02*
X146152933Y-39582706D01*
X145962457Y-38630325D02*
X145914838Y-38582706D01*
X145914838Y-38582706D02*
X145867219Y-38487468D01*
X145867219Y-38487468D02*
X145867219Y-38249373D01*
X145867219Y-38249373D02*
X145914838Y-38154135D01*
X145914838Y-38154135D02*
X145962457Y-38106516D01*
X145962457Y-38106516D02*
X146057695Y-38058897D01*
X146057695Y-38058897D02*
X146152933Y-38058897D01*
X146152933Y-38058897D02*
X146295790Y-38106516D01*
X146295790Y-38106516D02*
X146867219Y-38677944D01*
X146867219Y-38677944D02*
X146867219Y-38058897D01*
X143610809Y-36304136D02*
X143610809Y-36075564D01*
X143610809Y-36075564D02*
X143667952Y-35961279D01*
X143667952Y-35961279D02*
X143782238Y-35846993D01*
X143782238Y-35846993D02*
X144010809Y-35789850D01*
X144010809Y-35789850D02*
X144410809Y-35789850D01*
X144410809Y-35789850D02*
X144639381Y-35846993D01*
X144639381Y-35846993D02*
X144753667Y-35961279D01*
X144753667Y-35961279D02*
X144810809Y-36075564D01*
X144810809Y-36075564D02*
X144810809Y-36304136D01*
X144810809Y-36304136D02*
X144753667Y-36418422D01*
X144753667Y-36418422D02*
X144639381Y-36532707D01*
X144639381Y-36532707D02*
X144410809Y-36589850D01*
X144410809Y-36589850D02*
X144010809Y-36589850D01*
X144010809Y-36589850D02*
X143782238Y-36532707D01*
X143782238Y-36532707D02*
X143667952Y-36418422D01*
X143667952Y-36418422D02*
X143610809Y-36304136D01*
X144753667Y-35332707D02*
X144810809Y-35161279D01*
X144810809Y-35161279D02*
X144810809Y-34875564D01*
X144810809Y-34875564D02*
X144753667Y-34761279D01*
X144753667Y-34761279D02*
X144696524Y-34704136D01*
X144696524Y-34704136D02*
X144582238Y-34646993D01*
X144582238Y-34646993D02*
X144467952Y-34646993D01*
X144467952Y-34646993D02*
X144353667Y-34704136D01*
X144353667Y-34704136D02*
X144296524Y-34761279D01*
X144296524Y-34761279D02*
X144239381Y-34875564D01*
X144239381Y-34875564D02*
X144182238Y-35104136D01*
X144182238Y-35104136D02*
X144125095Y-35218421D01*
X144125095Y-35218421D02*
X144067952Y-35275564D01*
X144067952Y-35275564D02*
X143953667Y-35332707D01*
X143953667Y-35332707D02*
X143839381Y-35332707D01*
X143839381Y-35332707D02*
X143725095Y-35275564D01*
X143725095Y-35275564D02*
X143667952Y-35218421D01*
X143667952Y-35218421D02*
X143610809Y-35104136D01*
X143610809Y-35104136D02*
X143610809Y-34818421D01*
X143610809Y-34818421D02*
X143667952Y-34646993D01*
X144810809Y-33561279D02*
X144810809Y-34132707D01*
X144810809Y-34132707D02*
X143610809Y-34132707D01*
X143610809Y-33332707D02*
X143610809Y-32646993D01*
X144810809Y-32989850D02*
X143610809Y-32989850D01*
X144467952Y-32304135D02*
X144467952Y-31732707D01*
X144810809Y-32418421D02*
X143610809Y-32018421D01*
X143610809Y-32018421D02*
X144810809Y-31618421D01*
X144810809Y-31218421D02*
X143610809Y-31218421D01*
X143610809Y-31218421D02*
X144467952Y-30818421D01*
X144467952Y-30818421D02*
X143610809Y-30418421D01*
X143610809Y-30418421D02*
X144810809Y-30418421D01*
X143610809Y-29618421D02*
X143610809Y-29504135D01*
X143610809Y-29504135D02*
X143667952Y-29389849D01*
X143667952Y-29389849D02*
X143725095Y-29332707D01*
X143725095Y-29332707D02*
X143839381Y-29275564D01*
X143839381Y-29275564D02*
X144067952Y-29218421D01*
X144067952Y-29218421D02*
X144353667Y-29218421D01*
X144353667Y-29218421D02*
X144582238Y-29275564D01*
X144582238Y-29275564D02*
X144696524Y-29332707D01*
X144696524Y-29332707D02*
X144753667Y-29389849D01*
X144753667Y-29389849D02*
X144810809Y-29504135D01*
X144810809Y-29504135D02*
X144810809Y-29618421D01*
X144810809Y-29618421D02*
X144753667Y-29732707D01*
X144753667Y-29732707D02*
X144696524Y-29789849D01*
X144696524Y-29789849D02*
X144582238Y-29846992D01*
X144582238Y-29846992D02*
X144353667Y-29904135D01*
X144353667Y-29904135D02*
X144067952Y-29904135D01*
X144067952Y-29904135D02*
X143839381Y-29846992D01*
X143839381Y-29846992D02*
X143725095Y-29789849D01*
X143725095Y-29789849D02*
X143667952Y-29732707D01*
X143667952Y-29732707D02*
X143610809Y-29618421D01*
X143610809Y-28475564D02*
X143610809Y-28361278D01*
X143610809Y-28361278D02*
X143667952Y-28246992D01*
X143667952Y-28246992D02*
X143725095Y-28189850D01*
X143725095Y-28189850D02*
X143839381Y-28132707D01*
X143839381Y-28132707D02*
X144067952Y-28075564D01*
X144067952Y-28075564D02*
X144353667Y-28075564D01*
X144353667Y-28075564D02*
X144582238Y-28132707D01*
X144582238Y-28132707D02*
X144696524Y-28189850D01*
X144696524Y-28189850D02*
X144753667Y-28246992D01*
X144753667Y-28246992D02*
X144810809Y-28361278D01*
X144810809Y-28361278D02*
X144810809Y-28475564D01*
X144810809Y-28475564D02*
X144753667Y-28589850D01*
X144753667Y-28589850D02*
X144696524Y-28646992D01*
X144696524Y-28646992D02*
X144582238Y-28704135D01*
X144582238Y-28704135D02*
X144353667Y-28761278D01*
X144353667Y-28761278D02*
X144067952Y-28761278D01*
X144067952Y-28761278D02*
X143839381Y-28704135D01*
X143839381Y-28704135D02*
X143725095Y-28646992D01*
X143725095Y-28646992D02*
X143667952Y-28589850D01*
X143667952Y-28589850D02*
X143610809Y-28475564D01*
X144810809Y-26932707D02*
X144810809Y-27618421D01*
X144810809Y-27275564D02*
X143610809Y-27275564D01*
X143610809Y-27275564D02*
X143782238Y-27389850D01*
X143782238Y-27389850D02*
X143896524Y-27504135D01*
X143896524Y-27504135D02*
X143953667Y-27618421D01*
X145542742Y-36189850D02*
X146399885Y-36189850D01*
X146399885Y-36189850D02*
X146571314Y-36246993D01*
X146571314Y-36246993D02*
X146685600Y-36361279D01*
X146685600Y-36361279D02*
X146742742Y-36532707D01*
X146742742Y-36532707D02*
X146742742Y-36646993D01*
X146742742Y-35618421D02*
X145542742Y-35618421D01*
X145542742Y-35618421D02*
X146742742Y-34932707D01*
X146742742Y-34932707D02*
X145542742Y-34932707D01*
X146685600Y-34418421D02*
X146742742Y-34246993D01*
X146742742Y-34246993D02*
X146742742Y-33961278D01*
X146742742Y-33961278D02*
X146685600Y-33846993D01*
X146685600Y-33846993D02*
X146628457Y-33789850D01*
X146628457Y-33789850D02*
X146514171Y-33732707D01*
X146514171Y-33732707D02*
X146399885Y-33732707D01*
X146399885Y-33732707D02*
X146285600Y-33789850D01*
X146285600Y-33789850D02*
X146228457Y-33846993D01*
X146228457Y-33846993D02*
X146171314Y-33961278D01*
X146171314Y-33961278D02*
X146114171Y-34189850D01*
X146114171Y-34189850D02*
X146057028Y-34304135D01*
X146057028Y-34304135D02*
X145999885Y-34361278D01*
X145999885Y-34361278D02*
X145885600Y-34418421D01*
X145885600Y-34418421D02*
X145771314Y-34418421D01*
X145771314Y-34418421D02*
X145657028Y-34361278D01*
X145657028Y-34361278D02*
X145599885Y-34304135D01*
X145599885Y-34304135D02*
X145542742Y-34189850D01*
X145542742Y-34189850D02*
X145542742Y-33904135D01*
X145542742Y-33904135D02*
X145599885Y-33732707D01*
X145599885Y-32589850D02*
X145542742Y-32704136D01*
X145542742Y-32704136D02*
X145542742Y-32875564D01*
X145542742Y-32875564D02*
X145599885Y-33046993D01*
X145599885Y-33046993D02*
X145714171Y-33161278D01*
X145714171Y-33161278D02*
X145828457Y-33218421D01*
X145828457Y-33218421D02*
X146057028Y-33275564D01*
X146057028Y-33275564D02*
X146228457Y-33275564D01*
X146228457Y-33275564D02*
X146457028Y-33218421D01*
X146457028Y-33218421D02*
X146571314Y-33161278D01*
X146571314Y-33161278D02*
X146685600Y-33046993D01*
X146685600Y-33046993D02*
X146742742Y-32875564D01*
X146742742Y-32875564D02*
X146742742Y-32761278D01*
X146742742Y-32761278D02*
X146685600Y-32589850D01*
X146685600Y-32589850D02*
X146628457Y-32532707D01*
X146628457Y-32532707D02*
X146228457Y-32532707D01*
X146228457Y-32532707D02*
X146228457Y-32761278D01*
X146742742Y-31446993D02*
X146742742Y-32018421D01*
X146742742Y-32018421D02*
X145542742Y-32018421D01*
X146114171Y-31046992D02*
X146114171Y-30646992D01*
X146742742Y-30475564D02*
X146742742Y-31046992D01*
X146742742Y-31046992D02*
X145542742Y-31046992D01*
X145542742Y-31046992D02*
X145542742Y-30475564D01*
X145542742Y-29732707D02*
X145542742Y-29618421D01*
X145542742Y-29618421D02*
X145599885Y-29504135D01*
X145599885Y-29504135D02*
X145657028Y-29446993D01*
X145657028Y-29446993D02*
X145771314Y-29389850D01*
X145771314Y-29389850D02*
X145999885Y-29332707D01*
X145999885Y-29332707D02*
X146285600Y-29332707D01*
X146285600Y-29332707D02*
X146514171Y-29389850D01*
X146514171Y-29389850D02*
X146628457Y-29446993D01*
X146628457Y-29446993D02*
X146685600Y-29504135D01*
X146685600Y-29504135D02*
X146742742Y-29618421D01*
X146742742Y-29618421D02*
X146742742Y-29732707D01*
X146742742Y-29732707D02*
X146685600Y-29846993D01*
X146685600Y-29846993D02*
X146628457Y-29904135D01*
X146628457Y-29904135D02*
X146514171Y-29961278D01*
X146514171Y-29961278D02*
X146285600Y-30018421D01*
X146285600Y-30018421D02*
X145999885Y-30018421D01*
X145999885Y-30018421D02*
X145771314Y-29961278D01*
X145771314Y-29961278D02*
X145657028Y-29904135D01*
X145657028Y-29904135D02*
X145599885Y-29846993D01*
X145599885Y-29846993D02*
X145542742Y-29732707D01*
X145542742Y-28589850D02*
X145542742Y-28475564D01*
X145542742Y-28475564D02*
X145599885Y-28361278D01*
X145599885Y-28361278D02*
X145657028Y-28304136D01*
X145657028Y-28304136D02*
X145771314Y-28246993D01*
X145771314Y-28246993D02*
X145999885Y-28189850D01*
X145999885Y-28189850D02*
X146285600Y-28189850D01*
X146285600Y-28189850D02*
X146514171Y-28246993D01*
X146514171Y-28246993D02*
X146628457Y-28304136D01*
X146628457Y-28304136D02*
X146685600Y-28361278D01*
X146685600Y-28361278D02*
X146742742Y-28475564D01*
X146742742Y-28475564D02*
X146742742Y-28589850D01*
X146742742Y-28589850D02*
X146685600Y-28704136D01*
X146685600Y-28704136D02*
X146628457Y-28761278D01*
X146628457Y-28761278D02*
X146514171Y-28818421D01*
X146514171Y-28818421D02*
X146285600Y-28875564D01*
X146285600Y-28875564D02*
X145999885Y-28875564D01*
X145999885Y-28875564D02*
X145771314Y-28818421D01*
X145771314Y-28818421D02*
X145657028Y-28761278D01*
X145657028Y-28761278D02*
X145599885Y-28704136D01*
X145599885Y-28704136D02*
X145542742Y-28589850D01*
X145542742Y-27789850D02*
X145542742Y-26989850D01*
X145542742Y-26989850D02*
X146742742Y-27504136D01*
X109324435Y-101506028D02*
X109610149Y-101506028D01*
X109610149Y-101506028D02*
X109753006Y-101577457D01*
X109753006Y-101577457D02*
X109895863Y-101720314D01*
X109895863Y-101720314D02*
X109967292Y-102006028D01*
X109967292Y-102006028D02*
X109967292Y-102506028D01*
X109967292Y-102506028D02*
X109895863Y-102791742D01*
X109895863Y-102791742D02*
X109753006Y-102934600D01*
X109753006Y-102934600D02*
X109610149Y-103006028D01*
X109610149Y-103006028D02*
X109324435Y-103006028D01*
X109324435Y-103006028D02*
X109181578Y-102934600D01*
X109181578Y-102934600D02*
X109038720Y-102791742D01*
X109038720Y-102791742D02*
X108967292Y-102506028D01*
X108967292Y-102506028D02*
X108967292Y-102006028D01*
X108967292Y-102006028D02*
X109038720Y-101720314D01*
X109038720Y-101720314D02*
X109181578Y-101577457D01*
X109181578Y-101577457D02*
X109324435Y-101506028D01*
X110610149Y-103006028D02*
X110610149Y-101506028D01*
X110610149Y-101506028D02*
X111467292Y-103006028D01*
X111467292Y-103006028D02*
X111467292Y-101506028D01*
X107767292Y-80692742D02*
X107767292Y-79492742D01*
X109195864Y-80635600D02*
X109367293Y-80692742D01*
X109367293Y-80692742D02*
X109653007Y-80692742D01*
X109653007Y-80692742D02*
X109767293Y-80635600D01*
X109767293Y-80635600D02*
X109824435Y-80578457D01*
X109824435Y-80578457D02*
X109881578Y-80464171D01*
X109881578Y-80464171D02*
X109881578Y-80349885D01*
X109881578Y-80349885D02*
X109824435Y-80235600D01*
X109824435Y-80235600D02*
X109767293Y-80178457D01*
X109767293Y-80178457D02*
X109653007Y-80121314D01*
X109653007Y-80121314D02*
X109424435Y-80064171D01*
X109424435Y-80064171D02*
X109310150Y-80007028D01*
X109310150Y-80007028D02*
X109253007Y-79949885D01*
X109253007Y-79949885D02*
X109195864Y-79835600D01*
X109195864Y-79835600D02*
X109195864Y-79721314D01*
X109195864Y-79721314D02*
X109253007Y-79607028D01*
X109253007Y-79607028D02*
X109310150Y-79549885D01*
X109310150Y-79549885D02*
X109424435Y-79492742D01*
X109424435Y-79492742D02*
X109710150Y-79492742D01*
X109710150Y-79492742D02*
X109881578Y-79549885D01*
X110853007Y-80635600D02*
X110738721Y-80692742D01*
X110738721Y-80692742D02*
X110510150Y-80692742D01*
X110510150Y-80692742D02*
X110395864Y-80635600D01*
X110395864Y-80635600D02*
X110338721Y-80521314D01*
X110338721Y-80521314D02*
X110338721Y-80064171D01*
X110338721Y-80064171D02*
X110395864Y-79949885D01*
X110395864Y-79949885D02*
X110510150Y-79892742D01*
X110510150Y-79892742D02*
X110738721Y-79892742D01*
X110738721Y-79892742D02*
X110853007Y-79949885D01*
X110853007Y-79949885D02*
X110910150Y-80064171D01*
X110910150Y-80064171D02*
X110910150Y-80178457D01*
X110910150Y-80178457D02*
X110338721Y-80292742D01*
X111424435Y-79892742D02*
X111424435Y-80692742D01*
X111424435Y-80007028D02*
X111481578Y-79949885D01*
X111481578Y-79949885D02*
X111595863Y-79892742D01*
X111595863Y-79892742D02*
X111767292Y-79892742D01*
X111767292Y-79892742D02*
X111881578Y-79949885D01*
X111881578Y-79949885D02*
X111938721Y-80064171D01*
X111938721Y-80064171D02*
X111938721Y-80692742D01*
X112453006Y-80635600D02*
X112567292Y-80692742D01*
X112567292Y-80692742D02*
X112795863Y-80692742D01*
X112795863Y-80692742D02*
X112910149Y-80635600D01*
X112910149Y-80635600D02*
X112967292Y-80521314D01*
X112967292Y-80521314D02*
X112967292Y-80464171D01*
X112967292Y-80464171D02*
X112910149Y-80349885D01*
X112910149Y-80349885D02*
X112795863Y-80292742D01*
X112795863Y-80292742D02*
X112624435Y-80292742D01*
X112624435Y-80292742D02*
X112510149Y-80235600D01*
X112510149Y-80235600D02*
X112453006Y-80121314D01*
X112453006Y-80121314D02*
X112453006Y-80064171D01*
X112453006Y-80064171D02*
X112510149Y-79949885D01*
X112510149Y-79949885D02*
X112624435Y-79892742D01*
X112624435Y-79892742D02*
X112795863Y-79892742D01*
X112795863Y-79892742D02*
X112910149Y-79949885D01*
X113653006Y-80692742D02*
X113538721Y-80635600D01*
X113538721Y-80635600D02*
X113481578Y-80578457D01*
X113481578Y-80578457D02*
X113424435Y-80464171D01*
X113424435Y-80464171D02*
X113424435Y-80121314D01*
X113424435Y-80121314D02*
X113481578Y-80007028D01*
X113481578Y-80007028D02*
X113538721Y-79949885D01*
X113538721Y-79949885D02*
X113653006Y-79892742D01*
X113653006Y-79892742D02*
X113824435Y-79892742D01*
X113824435Y-79892742D02*
X113938721Y-79949885D01*
X113938721Y-79949885D02*
X113995864Y-80007028D01*
X113995864Y-80007028D02*
X114053006Y-80121314D01*
X114053006Y-80121314D02*
X114053006Y-80464171D01*
X114053006Y-80464171D02*
X113995864Y-80578457D01*
X113995864Y-80578457D02*
X113938721Y-80635600D01*
X113938721Y-80635600D02*
X113824435Y-80692742D01*
X113824435Y-80692742D02*
X113653006Y-80692742D01*
X114567292Y-80692742D02*
X114567292Y-79892742D01*
X114567292Y-80121314D02*
X114624435Y-80007028D01*
X114624435Y-80007028D02*
X114681578Y-79949885D01*
X114681578Y-79949885D02*
X114795863Y-79892742D01*
X114795863Y-79892742D02*
X114910149Y-79892742D01*
X100819673Y-35167219D02*
X100819673Y-34167219D01*
X100819673Y-34167219D02*
X101153006Y-34881504D01*
X101153006Y-34881504D02*
X101486339Y-34167219D01*
X101486339Y-34167219D02*
X101486339Y-35167219D01*
X101914911Y-34262457D02*
X101962530Y-34214838D01*
X101962530Y-34214838D02*
X102057768Y-34167219D01*
X102057768Y-34167219D02*
X102295863Y-34167219D01*
X102295863Y-34167219D02*
X102391101Y-34214838D01*
X102391101Y-34214838D02*
X102438720Y-34262457D01*
X102438720Y-34262457D02*
X102486339Y-34357695D01*
X102486339Y-34357695D02*
X102486339Y-34452933D01*
X102486339Y-34452933D02*
X102438720Y-34595790D01*
X102438720Y-34595790D02*
X101867292Y-35167219D01*
X101867292Y-35167219D02*
X102486339Y-35167219D01*
X108119673Y-35717219D02*
X108119673Y-34717219D01*
X108119673Y-34717219D02*
X108453006Y-35431504D01*
X108453006Y-35431504D02*
X108786339Y-34717219D01*
X108786339Y-34717219D02*
X108786339Y-35717219D01*
X109691101Y-35050552D02*
X109691101Y-35717219D01*
X109453006Y-34669600D02*
X109214911Y-35383885D01*
X109214911Y-35383885D02*
X109833958Y-35383885D01*
X127019673Y-35367219D02*
X127019673Y-34367219D01*
X127019673Y-34367219D02*
X127353006Y-35081504D01*
X127353006Y-35081504D02*
X127686339Y-34367219D01*
X127686339Y-34367219D02*
X127686339Y-35367219D01*
X128067292Y-34367219D02*
X128686339Y-34367219D01*
X128686339Y-34367219D02*
X128353006Y-34748171D01*
X128353006Y-34748171D02*
X128495863Y-34748171D01*
X128495863Y-34748171D02*
X128591101Y-34795790D01*
X128591101Y-34795790D02*
X128638720Y-34843409D01*
X128638720Y-34843409D02*
X128686339Y-34938647D01*
X128686339Y-34938647D02*
X128686339Y-35176742D01*
X128686339Y-35176742D02*
X128638720Y-35271980D01*
X128638720Y-35271980D02*
X128591101Y-35319600D01*
X128591101Y-35319600D02*
X128495863Y-35367219D01*
X128495863Y-35367219D02*
X128210149Y-35367219D01*
X128210149Y-35367219D02*
X128114911Y-35319600D01*
X128114911Y-35319600D02*
X128067292Y-35271980D01*
X141269673Y-35867219D02*
X141269673Y-34867219D01*
X141269673Y-34867219D02*
X141603006Y-35581504D01*
X141603006Y-35581504D02*
X141936339Y-34867219D01*
X141936339Y-34867219D02*
X141936339Y-35867219D01*
X142936339Y-35867219D02*
X142364911Y-35867219D01*
X142650625Y-35867219D02*
X142650625Y-34867219D01*
X142650625Y-34867219D02*
X142555387Y-35010076D01*
X142555387Y-35010076D02*
X142460149Y-35105314D01*
X142460149Y-35105314D02*
X142364911Y-35152933D01*
X131138720Y-51742742D02*
X130567292Y-51742742D01*
X130567292Y-51742742D02*
X130567292Y-50542742D01*
X131710149Y-51742742D02*
X131595864Y-51685600D01*
X131595864Y-51685600D02*
X131538721Y-51628457D01*
X131538721Y-51628457D02*
X131481578Y-51514171D01*
X131481578Y-51514171D02*
X131481578Y-51171314D01*
X131481578Y-51171314D02*
X131538721Y-51057028D01*
X131538721Y-51057028D02*
X131595864Y-50999885D01*
X131595864Y-50999885D02*
X131710149Y-50942742D01*
X131710149Y-50942742D02*
X131881578Y-50942742D01*
X131881578Y-50942742D02*
X131995864Y-50999885D01*
X131995864Y-50999885D02*
X132053007Y-51057028D01*
X132053007Y-51057028D02*
X132110149Y-51171314D01*
X132110149Y-51171314D02*
X132110149Y-51514171D01*
X132110149Y-51514171D02*
X132053007Y-51628457D01*
X132053007Y-51628457D02*
X131995864Y-51685600D01*
X131995864Y-51685600D02*
X131881578Y-51742742D01*
X131881578Y-51742742D02*
X131710149Y-51742742D01*
X133138721Y-51742742D02*
X133138721Y-51114171D01*
X133138721Y-51114171D02*
X133081578Y-50999885D01*
X133081578Y-50999885D02*
X132967292Y-50942742D01*
X132967292Y-50942742D02*
X132738721Y-50942742D01*
X132738721Y-50942742D02*
X132624435Y-50999885D01*
X133138721Y-51685600D02*
X133024435Y-51742742D01*
X133024435Y-51742742D02*
X132738721Y-51742742D01*
X132738721Y-51742742D02*
X132624435Y-51685600D01*
X132624435Y-51685600D02*
X132567292Y-51571314D01*
X132567292Y-51571314D02*
X132567292Y-51457028D01*
X132567292Y-51457028D02*
X132624435Y-51342742D01*
X132624435Y-51342742D02*
X132738721Y-51285600D01*
X132738721Y-51285600D02*
X133024435Y-51285600D01*
X133024435Y-51285600D02*
X133138721Y-51228457D01*
X134224435Y-51742742D02*
X134224435Y-50542742D01*
X134224435Y-51685600D02*
X134110149Y-51742742D01*
X134110149Y-51742742D02*
X133881577Y-51742742D01*
X133881577Y-51742742D02*
X133767292Y-51685600D01*
X133767292Y-51685600D02*
X133710149Y-51628457D01*
X133710149Y-51628457D02*
X133653006Y-51514171D01*
X133653006Y-51514171D02*
X133653006Y-51171314D01*
X133653006Y-51171314D02*
X133710149Y-51057028D01*
X133710149Y-51057028D02*
X133767292Y-50999885D01*
X133767292Y-50999885D02*
X133881577Y-50942742D01*
X133881577Y-50942742D02*
X134110149Y-50942742D01*
X134110149Y-50942742D02*
X134224435Y-50999885D01*
X114017292Y-55564171D02*
X114188720Y-55621314D01*
X114188720Y-55621314D02*
X114245863Y-55678457D01*
X114245863Y-55678457D02*
X114303006Y-55792742D01*
X114303006Y-55792742D02*
X114303006Y-55964171D01*
X114303006Y-55964171D02*
X114245863Y-56078457D01*
X114245863Y-56078457D02*
X114188720Y-56135600D01*
X114188720Y-56135600D02*
X114074435Y-56192742D01*
X114074435Y-56192742D02*
X113617292Y-56192742D01*
X113617292Y-56192742D02*
X113617292Y-54992742D01*
X113617292Y-54992742D02*
X114017292Y-54992742D01*
X114017292Y-54992742D02*
X114131578Y-55049885D01*
X114131578Y-55049885D02*
X114188720Y-55107028D01*
X114188720Y-55107028D02*
X114245863Y-55221314D01*
X114245863Y-55221314D02*
X114245863Y-55335600D01*
X114245863Y-55335600D02*
X114188720Y-55449885D01*
X114188720Y-55449885D02*
X114131578Y-55507028D01*
X114131578Y-55507028D02*
X114017292Y-55564171D01*
X114017292Y-55564171D02*
X113617292Y-55564171D01*
X114988720Y-56192742D02*
X114874435Y-56135600D01*
X114874435Y-56135600D02*
X114817292Y-56078457D01*
X114817292Y-56078457D02*
X114760149Y-55964171D01*
X114760149Y-55964171D02*
X114760149Y-55621314D01*
X114760149Y-55621314D02*
X114817292Y-55507028D01*
X114817292Y-55507028D02*
X114874435Y-55449885D01*
X114874435Y-55449885D02*
X114988720Y-55392742D01*
X114988720Y-55392742D02*
X115160149Y-55392742D01*
X115160149Y-55392742D02*
X115274435Y-55449885D01*
X115274435Y-55449885D02*
X115331578Y-55507028D01*
X115331578Y-55507028D02*
X115388720Y-55621314D01*
X115388720Y-55621314D02*
X115388720Y-55964171D01*
X115388720Y-55964171D02*
X115331578Y-56078457D01*
X115331578Y-56078457D02*
X115274435Y-56135600D01*
X115274435Y-56135600D02*
X115160149Y-56192742D01*
X115160149Y-56192742D02*
X114988720Y-56192742D01*
X116074434Y-56192742D02*
X115960149Y-56135600D01*
X115960149Y-56135600D02*
X115903006Y-56078457D01*
X115903006Y-56078457D02*
X115845863Y-55964171D01*
X115845863Y-55964171D02*
X115845863Y-55621314D01*
X115845863Y-55621314D02*
X115903006Y-55507028D01*
X115903006Y-55507028D02*
X115960149Y-55449885D01*
X115960149Y-55449885D02*
X116074434Y-55392742D01*
X116074434Y-55392742D02*
X116245863Y-55392742D01*
X116245863Y-55392742D02*
X116360149Y-55449885D01*
X116360149Y-55449885D02*
X116417292Y-55507028D01*
X116417292Y-55507028D02*
X116474434Y-55621314D01*
X116474434Y-55621314D02*
X116474434Y-55964171D01*
X116474434Y-55964171D02*
X116417292Y-56078457D01*
X116417292Y-56078457D02*
X116360149Y-56135600D01*
X116360149Y-56135600D02*
X116245863Y-56192742D01*
X116245863Y-56192742D02*
X116074434Y-56192742D01*
X116931577Y-56135600D02*
X117045863Y-56192742D01*
X117045863Y-56192742D02*
X117274434Y-56192742D01*
X117274434Y-56192742D02*
X117388720Y-56135600D01*
X117388720Y-56135600D02*
X117445863Y-56021314D01*
X117445863Y-56021314D02*
X117445863Y-55964171D01*
X117445863Y-55964171D02*
X117388720Y-55849885D01*
X117388720Y-55849885D02*
X117274434Y-55792742D01*
X117274434Y-55792742D02*
X117103006Y-55792742D01*
X117103006Y-55792742D02*
X116988720Y-55735600D01*
X116988720Y-55735600D02*
X116931577Y-55621314D01*
X116931577Y-55621314D02*
X116931577Y-55564171D01*
X116931577Y-55564171D02*
X116988720Y-55449885D01*
X116988720Y-55449885D02*
X117103006Y-55392742D01*
X117103006Y-55392742D02*
X117274434Y-55392742D01*
X117274434Y-55392742D02*
X117388720Y-55449885D01*
X117788720Y-55392742D02*
X118245863Y-55392742D01*
X117960149Y-54992742D02*
X117960149Y-56021314D01*
X117960149Y-56021314D02*
X118017292Y-56135600D01*
X118017292Y-56135600D02*
X118131577Y-56192742D01*
X118131577Y-56192742D02*
X118245863Y-56192742D01*
X113538720Y-74492742D02*
X112967292Y-74492742D01*
X112967292Y-74492742D02*
X112967292Y-73292742D01*
X113938721Y-74492742D02*
X113938721Y-73292742D01*
X113938721Y-73292742D02*
X114224435Y-73292742D01*
X114224435Y-73292742D02*
X114395864Y-73349885D01*
X114395864Y-73349885D02*
X114510149Y-73464171D01*
X114510149Y-73464171D02*
X114567292Y-73578457D01*
X114567292Y-73578457D02*
X114624435Y-73807028D01*
X114624435Y-73807028D02*
X114624435Y-73978457D01*
X114624435Y-73978457D02*
X114567292Y-74207028D01*
X114567292Y-74207028D02*
X114510149Y-74321314D01*
X114510149Y-74321314D02*
X114395864Y-74435600D01*
X114395864Y-74435600D02*
X114224435Y-74492742D01*
X114224435Y-74492742D02*
X113938721Y-74492742D01*
X115367292Y-73292742D02*
X115595864Y-73292742D01*
X115595864Y-73292742D02*
X115710149Y-73349885D01*
X115710149Y-73349885D02*
X115824435Y-73464171D01*
X115824435Y-73464171D02*
X115881578Y-73692742D01*
X115881578Y-73692742D02*
X115881578Y-74092742D01*
X115881578Y-74092742D02*
X115824435Y-74321314D01*
X115824435Y-74321314D02*
X115710149Y-74435600D01*
X115710149Y-74435600D02*
X115595864Y-74492742D01*
X115595864Y-74492742D02*
X115367292Y-74492742D01*
X115367292Y-74492742D02*
X115253007Y-74435600D01*
X115253007Y-74435600D02*
X115138721Y-74321314D01*
X115138721Y-74321314D02*
X115081578Y-74092742D01*
X115081578Y-74092742D02*
X115081578Y-73692742D01*
X115081578Y-73692742D02*
X115138721Y-73464171D01*
X115138721Y-73464171D02*
X115253007Y-73349885D01*
X115253007Y-73349885D02*
X115367292Y-73292742D01*
X123607143Y-64432238D02*
X123778571Y-64489381D01*
X123778571Y-64489381D02*
X123835714Y-64546524D01*
X123835714Y-64546524D02*
X123892857Y-64660809D01*
X123892857Y-64660809D02*
X123892857Y-64832238D01*
X123892857Y-64832238D02*
X123835714Y-64946524D01*
X123835714Y-64946524D02*
X123778571Y-65003667D01*
X123778571Y-65003667D02*
X123664286Y-65060809D01*
X123664286Y-65060809D02*
X123207143Y-65060809D01*
X123207143Y-65060809D02*
X123207143Y-63860809D01*
X123207143Y-63860809D02*
X123607143Y-63860809D01*
X123607143Y-63860809D02*
X123721429Y-63917952D01*
X123721429Y-63917952D02*
X123778571Y-63975095D01*
X123778571Y-63975095D02*
X123835714Y-64089381D01*
X123835714Y-64089381D02*
X123835714Y-64203667D01*
X123835714Y-64203667D02*
X123778571Y-64317952D01*
X123778571Y-64317952D02*
X123721429Y-64375095D01*
X123721429Y-64375095D02*
X123607143Y-64432238D01*
X123607143Y-64432238D02*
X123207143Y-64432238D01*
X124921429Y-65060809D02*
X124921429Y-64432238D01*
X124921429Y-64432238D02*
X124864286Y-64317952D01*
X124864286Y-64317952D02*
X124750000Y-64260809D01*
X124750000Y-64260809D02*
X124521429Y-64260809D01*
X124521429Y-64260809D02*
X124407143Y-64317952D01*
X124921429Y-65003667D02*
X124807143Y-65060809D01*
X124807143Y-65060809D02*
X124521429Y-65060809D01*
X124521429Y-65060809D02*
X124407143Y-65003667D01*
X124407143Y-65003667D02*
X124350000Y-64889381D01*
X124350000Y-64889381D02*
X124350000Y-64775095D01*
X124350000Y-64775095D02*
X124407143Y-64660809D01*
X124407143Y-64660809D02*
X124521429Y-64603667D01*
X124521429Y-64603667D02*
X124807143Y-64603667D01*
X124807143Y-64603667D02*
X124921429Y-64546524D01*
X125321428Y-64260809D02*
X125778571Y-64260809D01*
X125492857Y-63860809D02*
X125492857Y-64889381D01*
X125492857Y-64889381D02*
X125550000Y-65003667D01*
X125550000Y-65003667D02*
X125664285Y-65060809D01*
X125664285Y-65060809D02*
X125778571Y-65060809D01*
X126007142Y-64260809D02*
X126464285Y-64260809D01*
X126178571Y-63860809D02*
X126178571Y-64889381D01*
X126178571Y-64889381D02*
X126235714Y-65003667D01*
X126235714Y-65003667D02*
X126349999Y-65060809D01*
X126349999Y-65060809D02*
X126464285Y-65060809D01*
X127321428Y-65003667D02*
X127207142Y-65060809D01*
X127207142Y-65060809D02*
X126978571Y-65060809D01*
X126978571Y-65060809D02*
X126864285Y-65003667D01*
X126864285Y-65003667D02*
X126807142Y-64889381D01*
X126807142Y-64889381D02*
X126807142Y-64432238D01*
X126807142Y-64432238D02*
X126864285Y-64317952D01*
X126864285Y-64317952D02*
X126978571Y-64260809D01*
X126978571Y-64260809D02*
X127207142Y-64260809D01*
X127207142Y-64260809D02*
X127321428Y-64317952D01*
X127321428Y-64317952D02*
X127378571Y-64432238D01*
X127378571Y-64432238D02*
X127378571Y-64546524D01*
X127378571Y-64546524D02*
X126807142Y-64660809D01*
X127892856Y-65060809D02*
X127892856Y-64260809D01*
X127892856Y-64489381D02*
X127949999Y-64375095D01*
X127949999Y-64375095D02*
X128007142Y-64317952D01*
X128007142Y-64317952D02*
X128121427Y-64260809D01*
X128121427Y-64260809D02*
X128235713Y-64260809D01*
X128521427Y-64260809D02*
X128807141Y-65060809D01*
X129092856Y-64260809D02*
X128807141Y-65060809D01*
X128807141Y-65060809D02*
X128692856Y-65346524D01*
X128692856Y-65346524D02*
X128635713Y-65403667D01*
X128635713Y-65403667D02*
X128521427Y-65460809D01*
X123550000Y-66878457D02*
X123492857Y-66935600D01*
X123492857Y-66935600D02*
X123321429Y-66992742D01*
X123321429Y-66992742D02*
X123207143Y-66992742D01*
X123207143Y-66992742D02*
X123035714Y-66935600D01*
X123035714Y-66935600D02*
X122921429Y-66821314D01*
X122921429Y-66821314D02*
X122864286Y-66707028D01*
X122864286Y-66707028D02*
X122807143Y-66478457D01*
X122807143Y-66478457D02*
X122807143Y-66307028D01*
X122807143Y-66307028D02*
X122864286Y-66078457D01*
X122864286Y-66078457D02*
X122921429Y-65964171D01*
X122921429Y-65964171D02*
X123035714Y-65849885D01*
X123035714Y-65849885D02*
X123207143Y-65792742D01*
X123207143Y-65792742D02*
X123321429Y-65792742D01*
X123321429Y-65792742D02*
X123492857Y-65849885D01*
X123492857Y-65849885D02*
X123550000Y-65907028D01*
X124064286Y-66992742D02*
X124064286Y-65792742D01*
X124578572Y-66992742D02*
X124578572Y-66364171D01*
X124578572Y-66364171D02*
X124521429Y-66249885D01*
X124521429Y-66249885D02*
X124407143Y-66192742D01*
X124407143Y-66192742D02*
X124235714Y-66192742D01*
X124235714Y-66192742D02*
X124121429Y-66249885D01*
X124121429Y-66249885D02*
X124064286Y-66307028D01*
X125664286Y-66992742D02*
X125664286Y-66364171D01*
X125664286Y-66364171D02*
X125607143Y-66249885D01*
X125607143Y-66249885D02*
X125492857Y-66192742D01*
X125492857Y-66192742D02*
X125264286Y-66192742D01*
X125264286Y-66192742D02*
X125150000Y-66249885D01*
X125664286Y-66935600D02*
X125550000Y-66992742D01*
X125550000Y-66992742D02*
X125264286Y-66992742D01*
X125264286Y-66992742D02*
X125150000Y-66935600D01*
X125150000Y-66935600D02*
X125092857Y-66821314D01*
X125092857Y-66821314D02*
X125092857Y-66707028D01*
X125092857Y-66707028D02*
X125150000Y-66592742D01*
X125150000Y-66592742D02*
X125264286Y-66535600D01*
X125264286Y-66535600D02*
X125550000Y-66535600D01*
X125550000Y-66535600D02*
X125664286Y-66478457D01*
X126235714Y-66992742D02*
X126235714Y-66192742D01*
X126235714Y-66421314D02*
X126292857Y-66307028D01*
X126292857Y-66307028D02*
X126350000Y-66249885D01*
X126350000Y-66249885D02*
X126464285Y-66192742D01*
X126464285Y-66192742D02*
X126578571Y-66192742D01*
X127492857Y-66192742D02*
X127492857Y-67164171D01*
X127492857Y-67164171D02*
X127435714Y-67278457D01*
X127435714Y-67278457D02*
X127378571Y-67335600D01*
X127378571Y-67335600D02*
X127264285Y-67392742D01*
X127264285Y-67392742D02*
X127092857Y-67392742D01*
X127092857Y-67392742D02*
X126978571Y-67335600D01*
X127492857Y-66935600D02*
X127378571Y-66992742D01*
X127378571Y-66992742D02*
X127149999Y-66992742D01*
X127149999Y-66992742D02*
X127035714Y-66935600D01*
X127035714Y-66935600D02*
X126978571Y-66878457D01*
X126978571Y-66878457D02*
X126921428Y-66764171D01*
X126921428Y-66764171D02*
X126921428Y-66421314D01*
X126921428Y-66421314D02*
X126978571Y-66307028D01*
X126978571Y-66307028D02*
X127035714Y-66249885D01*
X127035714Y-66249885D02*
X127149999Y-66192742D01*
X127149999Y-66192742D02*
X127378571Y-66192742D01*
X127378571Y-66192742D02*
X127492857Y-66249885D01*
X128064285Y-66992742D02*
X128064285Y-66192742D01*
X128064285Y-65792742D02*
X128007142Y-65849885D01*
X128007142Y-65849885D02*
X128064285Y-65907028D01*
X128064285Y-65907028D02*
X128121428Y-65849885D01*
X128121428Y-65849885D02*
X128064285Y-65792742D01*
X128064285Y-65792742D02*
X128064285Y-65907028D01*
X128635714Y-66192742D02*
X128635714Y-66992742D01*
X128635714Y-66307028D02*
X128692857Y-66249885D01*
X128692857Y-66249885D02*
X128807142Y-66192742D01*
X128807142Y-66192742D02*
X128978571Y-66192742D01*
X128978571Y-66192742D02*
X129092857Y-66249885D01*
X129092857Y-66249885D02*
X129150000Y-66364171D01*
X129150000Y-66364171D02*
X129150000Y-66992742D01*
X130235714Y-66192742D02*
X130235714Y-67164171D01*
X130235714Y-67164171D02*
X130178571Y-67278457D01*
X130178571Y-67278457D02*
X130121428Y-67335600D01*
X130121428Y-67335600D02*
X130007142Y-67392742D01*
X130007142Y-67392742D02*
X129835714Y-67392742D01*
X129835714Y-67392742D02*
X129721428Y-67335600D01*
X130235714Y-66935600D02*
X130121428Y-66992742D01*
X130121428Y-66992742D02*
X129892856Y-66992742D01*
X129892856Y-66992742D02*
X129778571Y-66935600D01*
X129778571Y-66935600D02*
X129721428Y-66878457D01*
X129721428Y-66878457D02*
X129664285Y-66764171D01*
X129664285Y-66764171D02*
X129664285Y-66421314D01*
X129664285Y-66421314D02*
X129721428Y-66307028D01*
X129721428Y-66307028D02*
X129778571Y-66249885D01*
X129778571Y-66249885D02*
X129892856Y-66192742D01*
X129892856Y-66192742D02*
X130121428Y-66192742D01*
X130121428Y-66192742D02*
X130235714Y-66249885D01*
D11*
X124261905Y-101104819D02*
X124261905Y-100104819D01*
X124261905Y-100104819D02*
X124500000Y-100104819D01*
X124500000Y-100104819D02*
X124642857Y-100152438D01*
X124642857Y-100152438D02*
X124738095Y-100247676D01*
X124738095Y-100247676D02*
X124785714Y-100342914D01*
X124785714Y-100342914D02*
X124833333Y-100533390D01*
X124833333Y-100533390D02*
X124833333Y-100676247D01*
X124833333Y-100676247D02*
X124785714Y-100866723D01*
X124785714Y-100866723D02*
X124738095Y-100961961D01*
X124738095Y-100961961D02*
X124642857Y-101057200D01*
X124642857Y-101057200D02*
X124500000Y-101104819D01*
X124500000Y-101104819D02*
X124261905Y-101104819D01*
X125166667Y-100104819D02*
X125833333Y-100104819D01*
X125833333Y-100104819D02*
X125404762Y-101104819D01*
X95464285Y-88367319D02*
X95130952Y-87891128D01*
X94892857Y-88367319D02*
X94892857Y-87367319D01*
X94892857Y-87367319D02*
X95273809Y-87367319D01*
X95273809Y-87367319D02*
X95369047Y-87414938D01*
X95369047Y-87414938D02*
X95416666Y-87462557D01*
X95416666Y-87462557D02*
X95464285Y-87557795D01*
X95464285Y-87557795D02*
X95464285Y-87700652D01*
X95464285Y-87700652D02*
X95416666Y-87795890D01*
X95416666Y-87795890D02*
X95369047Y-87843509D01*
X95369047Y-87843509D02*
X95273809Y-87891128D01*
X95273809Y-87891128D02*
X94892857Y-87891128D01*
X95654762Y-88462557D02*
X96416666Y-88462557D01*
X96654762Y-88367319D02*
X96654762Y-87367319D01*
X97654761Y-88367319D02*
X97083333Y-88367319D01*
X97369047Y-88367319D02*
X97369047Y-87367319D01*
X97369047Y-87367319D02*
X97273809Y-87510176D01*
X97273809Y-87510176D02*
X97178571Y-87605414D01*
X97178571Y-87605414D02*
X97083333Y-87653033D01*
X120661905Y-38754819D02*
X121233333Y-38754819D01*
X120947619Y-39754819D02*
X120947619Y-38754819D01*
X121566667Y-39754819D02*
X121566667Y-38754819D01*
X121566667Y-38754819D02*
X121947619Y-38754819D01*
X121947619Y-38754819D02*
X122042857Y-38802438D01*
X122042857Y-38802438D02*
X122090476Y-38850057D01*
X122090476Y-38850057D02*
X122138095Y-38945295D01*
X122138095Y-38945295D02*
X122138095Y-39088152D01*
X122138095Y-39088152D02*
X122090476Y-39183390D01*
X122090476Y-39183390D02*
X122042857Y-39231009D01*
X122042857Y-39231009D02*
X121947619Y-39278628D01*
X121947619Y-39278628D02*
X121566667Y-39278628D01*
X122519048Y-38850057D02*
X122566667Y-38802438D01*
X122566667Y-38802438D02*
X122661905Y-38754819D01*
X122661905Y-38754819D02*
X122900000Y-38754819D01*
X122900000Y-38754819D02*
X122995238Y-38802438D01*
X122995238Y-38802438D02*
X123042857Y-38850057D01*
X123042857Y-38850057D02*
X123090476Y-38945295D01*
X123090476Y-38945295D02*
X123090476Y-39040533D01*
X123090476Y-39040533D02*
X123042857Y-39183390D01*
X123042857Y-39183390D02*
X122471429Y-39754819D01*
X122471429Y-39754819D02*
X123090476Y-39754819D01*
X124042857Y-39754819D02*
X123471429Y-39754819D01*
X123757143Y-39754819D02*
X123757143Y-38754819D01*
X123757143Y-38754819D02*
X123661905Y-38897676D01*
X123661905Y-38897676D02*
X123566667Y-38992914D01*
X123566667Y-38992914D02*
X123471429Y-39040533D01*
X96464285Y-80954819D02*
X96130952Y-80478628D01*
X95892857Y-80954819D02*
X95892857Y-79954819D01*
X95892857Y-79954819D02*
X96273809Y-79954819D01*
X96273809Y-79954819D02*
X96369047Y-80002438D01*
X96369047Y-80002438D02*
X96416666Y-80050057D01*
X96416666Y-80050057D02*
X96464285Y-80145295D01*
X96464285Y-80145295D02*
X96464285Y-80288152D01*
X96464285Y-80288152D02*
X96416666Y-80383390D01*
X96416666Y-80383390D02*
X96369047Y-80431009D01*
X96369047Y-80431009D02*
X96273809Y-80478628D01*
X96273809Y-80478628D02*
X95892857Y-80478628D01*
X96654762Y-81050057D02*
X97416666Y-81050057D01*
X97654762Y-80954819D02*
X97654762Y-79954819D01*
X98083333Y-80050057D02*
X98130952Y-80002438D01*
X98130952Y-80002438D02*
X98226190Y-79954819D01*
X98226190Y-79954819D02*
X98464285Y-79954819D01*
X98464285Y-79954819D02*
X98559523Y-80002438D01*
X98559523Y-80002438D02*
X98607142Y-80050057D01*
X98607142Y-80050057D02*
X98654761Y-80145295D01*
X98654761Y-80145295D02*
X98654761Y-80240533D01*
X98654761Y-80240533D02*
X98607142Y-80383390D01*
X98607142Y-80383390D02*
X98035714Y-80954819D01*
X98035714Y-80954819D02*
X98654761Y-80954819D01*
X146434819Y-71362857D02*
X145958628Y-71696190D01*
X146434819Y-71934285D02*
X145434819Y-71934285D01*
X145434819Y-71934285D02*
X145434819Y-71553333D01*
X145434819Y-71553333D02*
X145482438Y-71458095D01*
X145482438Y-71458095D02*
X145530057Y-71410476D01*
X145530057Y-71410476D02*
X145625295Y-71362857D01*
X145625295Y-71362857D02*
X145768152Y-71362857D01*
X145768152Y-71362857D02*
X145863390Y-71410476D01*
X145863390Y-71410476D02*
X145911009Y-71458095D01*
X145911009Y-71458095D02*
X145958628Y-71553333D01*
X145958628Y-71553333D02*
X145958628Y-71934285D01*
X145530057Y-70981904D02*
X145482438Y-70934285D01*
X145482438Y-70934285D02*
X145434819Y-70839047D01*
X145434819Y-70839047D02*
X145434819Y-70600952D01*
X145434819Y-70600952D02*
X145482438Y-70505714D01*
X145482438Y-70505714D02*
X145530057Y-70458095D01*
X145530057Y-70458095D02*
X145625295Y-70410476D01*
X145625295Y-70410476D02*
X145720533Y-70410476D01*
X145720533Y-70410476D02*
X145863390Y-70458095D01*
X145863390Y-70458095D02*
X146434819Y-71029523D01*
X146434819Y-71029523D02*
X146434819Y-70410476D01*
X145530057Y-70029523D02*
X145482438Y-69981904D01*
X145482438Y-69981904D02*
X145434819Y-69886666D01*
X145434819Y-69886666D02*
X145434819Y-69648571D01*
X145434819Y-69648571D02*
X145482438Y-69553333D01*
X145482438Y-69553333D02*
X145530057Y-69505714D01*
X145530057Y-69505714D02*
X145625295Y-69458095D01*
X145625295Y-69458095D02*
X145720533Y-69458095D01*
X145720533Y-69458095D02*
X145863390Y-69505714D01*
X145863390Y-69505714D02*
X146434819Y-70077142D01*
X146434819Y-70077142D02*
X146434819Y-69458095D01*
X141354819Y-83447619D02*
X140878628Y-83780952D01*
X141354819Y-84019047D02*
X140354819Y-84019047D01*
X140354819Y-84019047D02*
X140354819Y-83638095D01*
X140354819Y-83638095D02*
X140402438Y-83542857D01*
X140402438Y-83542857D02*
X140450057Y-83495238D01*
X140450057Y-83495238D02*
X140545295Y-83447619D01*
X140545295Y-83447619D02*
X140688152Y-83447619D01*
X140688152Y-83447619D02*
X140783390Y-83495238D01*
X140783390Y-83495238D02*
X140831009Y-83542857D01*
X140831009Y-83542857D02*
X140878628Y-83638095D01*
X140878628Y-83638095D02*
X140878628Y-84019047D01*
X141450057Y-83257143D02*
X141450057Y-82495238D01*
X140831009Y-81923809D02*
X140878628Y-81780952D01*
X140878628Y-81780952D02*
X140926247Y-81733333D01*
X140926247Y-81733333D02*
X141021485Y-81685714D01*
X141021485Y-81685714D02*
X141164342Y-81685714D01*
X141164342Y-81685714D02*
X141259580Y-81733333D01*
X141259580Y-81733333D02*
X141307200Y-81780952D01*
X141307200Y-81780952D02*
X141354819Y-81876190D01*
X141354819Y-81876190D02*
X141354819Y-82257142D01*
X141354819Y-82257142D02*
X140354819Y-82257142D01*
X140354819Y-82257142D02*
X140354819Y-81923809D01*
X140354819Y-81923809D02*
X140402438Y-81828571D01*
X140402438Y-81828571D02*
X140450057Y-81780952D01*
X140450057Y-81780952D02*
X140545295Y-81733333D01*
X140545295Y-81733333D02*
X140640533Y-81733333D01*
X140640533Y-81733333D02*
X140735771Y-81780952D01*
X140735771Y-81780952D02*
X140783390Y-81828571D01*
X140783390Y-81828571D02*
X140831009Y-81923809D01*
X140831009Y-81923809D02*
X140831009Y-82257142D01*
X140354819Y-80828571D02*
X140354819Y-81019047D01*
X140354819Y-81019047D02*
X140402438Y-81114285D01*
X140402438Y-81114285D02*
X140450057Y-81161904D01*
X140450057Y-81161904D02*
X140592914Y-81257142D01*
X140592914Y-81257142D02*
X140783390Y-81304761D01*
X140783390Y-81304761D02*
X141164342Y-81304761D01*
X141164342Y-81304761D02*
X141259580Y-81257142D01*
X141259580Y-81257142D02*
X141307200Y-81209523D01*
X141307200Y-81209523D02*
X141354819Y-81114285D01*
X141354819Y-81114285D02*
X141354819Y-80923809D01*
X141354819Y-80923809D02*
X141307200Y-80828571D01*
X141307200Y-80828571D02*
X141259580Y-80780952D01*
X141259580Y-80780952D02*
X141164342Y-80733333D01*
X141164342Y-80733333D02*
X140926247Y-80733333D01*
X140926247Y-80733333D02*
X140831009Y-80780952D01*
X140831009Y-80780952D02*
X140783390Y-80828571D01*
X140783390Y-80828571D02*
X140735771Y-80923809D01*
X140735771Y-80923809D02*
X140735771Y-81114285D01*
X140735771Y-81114285D02*
X140783390Y-81209523D01*
X140783390Y-81209523D02*
X140831009Y-81257142D01*
X140831009Y-81257142D02*
X140926247Y-81304761D01*
X101702380Y-89454819D02*
X101369047Y-88978628D01*
X101130952Y-89454819D02*
X101130952Y-88454819D01*
X101130952Y-88454819D02*
X101511904Y-88454819D01*
X101511904Y-88454819D02*
X101607142Y-88502438D01*
X101607142Y-88502438D02*
X101654761Y-88550057D01*
X101654761Y-88550057D02*
X101702380Y-88645295D01*
X101702380Y-88645295D02*
X101702380Y-88788152D01*
X101702380Y-88788152D02*
X101654761Y-88883390D01*
X101654761Y-88883390D02*
X101607142Y-88931009D01*
X101607142Y-88931009D02*
X101511904Y-88978628D01*
X101511904Y-88978628D02*
X101130952Y-88978628D01*
X101892857Y-89550057D02*
X102654761Y-89550057D01*
X102845238Y-89407200D02*
X102988095Y-89454819D01*
X102988095Y-89454819D02*
X103226190Y-89454819D01*
X103226190Y-89454819D02*
X103321428Y-89407200D01*
X103321428Y-89407200D02*
X103369047Y-89359580D01*
X103369047Y-89359580D02*
X103416666Y-89264342D01*
X103416666Y-89264342D02*
X103416666Y-89169104D01*
X103416666Y-89169104D02*
X103369047Y-89073866D01*
X103369047Y-89073866D02*
X103321428Y-89026247D01*
X103321428Y-89026247D02*
X103226190Y-88978628D01*
X103226190Y-88978628D02*
X103035714Y-88931009D01*
X103035714Y-88931009D02*
X102940476Y-88883390D01*
X102940476Y-88883390D02*
X102892857Y-88835771D01*
X102892857Y-88835771D02*
X102845238Y-88740533D01*
X102845238Y-88740533D02*
X102845238Y-88645295D01*
X102845238Y-88645295D02*
X102892857Y-88550057D01*
X102892857Y-88550057D02*
X102940476Y-88502438D01*
X102940476Y-88502438D02*
X103035714Y-88454819D01*
X103035714Y-88454819D02*
X103273809Y-88454819D01*
X103273809Y-88454819D02*
X103416666Y-88502438D01*
X103845238Y-89454819D02*
X103845238Y-88454819D01*
X103845238Y-88931009D02*
X104416666Y-88931009D01*
X104416666Y-89454819D02*
X104416666Y-88454819D01*
X105416666Y-89454819D02*
X104845238Y-89454819D01*
X105130952Y-89454819D02*
X105130952Y-88454819D01*
X105130952Y-88454819D02*
X105035714Y-88597676D01*
X105035714Y-88597676D02*
X104940476Y-88692914D01*
X104940476Y-88692914D02*
X104845238Y-88740533D01*
X91597619Y-83454819D02*
X91597619Y-84169104D01*
X91597619Y-84169104D02*
X91550000Y-84311961D01*
X91550000Y-84311961D02*
X91454762Y-84407200D01*
X91454762Y-84407200D02*
X91311905Y-84454819D01*
X91311905Y-84454819D02*
X91216667Y-84454819D01*
X91835715Y-84550057D02*
X92597619Y-84550057D01*
X92835715Y-84454819D02*
X92835715Y-83454819D01*
X93264286Y-83550057D02*
X93311905Y-83502438D01*
X93311905Y-83502438D02*
X93407143Y-83454819D01*
X93407143Y-83454819D02*
X93645238Y-83454819D01*
X93645238Y-83454819D02*
X93740476Y-83502438D01*
X93740476Y-83502438D02*
X93788095Y-83550057D01*
X93788095Y-83550057D02*
X93835714Y-83645295D01*
X93835714Y-83645295D02*
X93835714Y-83740533D01*
X93835714Y-83740533D02*
X93788095Y-83883390D01*
X93788095Y-83883390D02*
X93216667Y-84454819D01*
X93216667Y-84454819D02*
X93835714Y-84454819D01*
X92776190Y-64131009D02*
X92919047Y-64178628D01*
X92919047Y-64178628D02*
X92966666Y-64226247D01*
X92966666Y-64226247D02*
X93014285Y-64321485D01*
X93014285Y-64321485D02*
X93014285Y-64464342D01*
X93014285Y-64464342D02*
X92966666Y-64559580D01*
X92966666Y-64559580D02*
X92919047Y-64607200D01*
X92919047Y-64607200D02*
X92823809Y-64654819D01*
X92823809Y-64654819D02*
X92442857Y-64654819D01*
X92442857Y-64654819D02*
X92442857Y-63654819D01*
X92442857Y-63654819D02*
X92776190Y-63654819D01*
X92776190Y-63654819D02*
X92871428Y-63702438D01*
X92871428Y-63702438D02*
X92919047Y-63750057D01*
X92919047Y-63750057D02*
X92966666Y-63845295D01*
X92966666Y-63845295D02*
X92966666Y-63940533D01*
X92966666Y-63940533D02*
X92919047Y-64035771D01*
X92919047Y-64035771D02*
X92871428Y-64083390D01*
X92871428Y-64083390D02*
X92776190Y-64131009D01*
X92776190Y-64131009D02*
X92442857Y-64131009D01*
X93442857Y-64273866D02*
X94204762Y-64273866D01*
X93823809Y-64654819D02*
X93823809Y-63892914D01*
X95204761Y-64654819D02*
X94633333Y-64654819D01*
X94919047Y-64654819D02*
X94919047Y-63654819D01*
X94919047Y-63654819D02*
X94823809Y-63797676D01*
X94823809Y-63797676D02*
X94728571Y-63892914D01*
X94728571Y-63892914D02*
X94633333Y-63940533D01*
X139909524Y-44354819D02*
X139909524Y-43354819D01*
X139909524Y-43354819D02*
X140242857Y-44069104D01*
X140242857Y-44069104D02*
X140576190Y-43354819D01*
X140576190Y-43354819D02*
X140576190Y-44354819D01*
X140814286Y-44450057D02*
X141576190Y-44450057D01*
X141671429Y-43354819D02*
X142004762Y-44354819D01*
X142004762Y-44354819D02*
X142338095Y-43354819D01*
X142671429Y-44354819D02*
X142671429Y-43354819D01*
X142671429Y-43354819D02*
X143004762Y-44069104D01*
X143004762Y-44069104D02*
X143338095Y-43354819D01*
X143338095Y-43354819D02*
X143338095Y-44354819D01*
X144338095Y-44354819D02*
X143766667Y-44354819D01*
X144052381Y-44354819D02*
X144052381Y-43354819D01*
X144052381Y-43354819D02*
X143957143Y-43497676D01*
X143957143Y-43497676D02*
X143861905Y-43592914D01*
X143861905Y-43592914D02*
X143766667Y-43640533D01*
X145157143Y-83454819D02*
X145728571Y-83454819D01*
X145442857Y-84454819D02*
X145442857Y-83454819D01*
X146061905Y-84454819D02*
X146061905Y-83454819D01*
X146061905Y-83454819D02*
X146442857Y-83454819D01*
X146442857Y-83454819D02*
X146538095Y-83502438D01*
X146538095Y-83502438D02*
X146585714Y-83550057D01*
X146585714Y-83550057D02*
X146633333Y-83645295D01*
X146633333Y-83645295D02*
X146633333Y-83788152D01*
X146633333Y-83788152D02*
X146585714Y-83883390D01*
X146585714Y-83883390D02*
X146538095Y-83931009D01*
X146538095Y-83931009D02*
X146442857Y-83978628D01*
X146442857Y-83978628D02*
X146061905Y-83978628D01*
X146823810Y-84550057D02*
X147585714Y-84550057D01*
X148157143Y-83931009D02*
X148300000Y-83978628D01*
X148300000Y-83978628D02*
X148347619Y-84026247D01*
X148347619Y-84026247D02*
X148395238Y-84121485D01*
X148395238Y-84121485D02*
X148395238Y-84264342D01*
X148395238Y-84264342D02*
X148347619Y-84359580D01*
X148347619Y-84359580D02*
X148300000Y-84407200D01*
X148300000Y-84407200D02*
X148204762Y-84454819D01*
X148204762Y-84454819D02*
X147823810Y-84454819D01*
X147823810Y-84454819D02*
X147823810Y-83454819D01*
X147823810Y-83454819D02*
X148157143Y-83454819D01*
X148157143Y-83454819D02*
X148252381Y-83502438D01*
X148252381Y-83502438D02*
X148300000Y-83550057D01*
X148300000Y-83550057D02*
X148347619Y-83645295D01*
X148347619Y-83645295D02*
X148347619Y-83740533D01*
X148347619Y-83740533D02*
X148300000Y-83835771D01*
X148300000Y-83835771D02*
X148252381Y-83883390D01*
X148252381Y-83883390D02*
X148157143Y-83931009D01*
X148157143Y-83931009D02*
X147823810Y-83931009D01*
X149347619Y-84454819D02*
X148776191Y-84454819D01*
X149061905Y-84454819D02*
X149061905Y-83454819D01*
X149061905Y-83454819D02*
X148966667Y-83597676D01*
X148966667Y-83597676D02*
X148871429Y-83692914D01*
X148871429Y-83692914D02*
X148776191Y-83740533D01*
X119440714Y-83629819D02*
X119440714Y-84344104D01*
X119440714Y-84344104D02*
X119393095Y-84486961D01*
X119393095Y-84486961D02*
X119297857Y-84582200D01*
X119297857Y-84582200D02*
X119155000Y-84629819D01*
X119155000Y-84629819D02*
X119059762Y-84629819D01*
X119916905Y-84629819D02*
X119916905Y-83629819D01*
X119916905Y-83629819D02*
X120297857Y-83629819D01*
X120297857Y-83629819D02*
X120393095Y-83677438D01*
X120393095Y-83677438D02*
X120440714Y-83725057D01*
X120440714Y-83725057D02*
X120488333Y-83820295D01*
X120488333Y-83820295D02*
X120488333Y-83963152D01*
X120488333Y-83963152D02*
X120440714Y-84058390D01*
X120440714Y-84058390D02*
X120393095Y-84106009D01*
X120393095Y-84106009D02*
X120297857Y-84153628D01*
X120297857Y-84153628D02*
X119916905Y-84153628D01*
X120678810Y-84725057D02*
X121440714Y-84725057D01*
X122012143Y-84106009D02*
X122155000Y-84153628D01*
X122155000Y-84153628D02*
X122202619Y-84201247D01*
X122202619Y-84201247D02*
X122250238Y-84296485D01*
X122250238Y-84296485D02*
X122250238Y-84439342D01*
X122250238Y-84439342D02*
X122202619Y-84534580D01*
X122202619Y-84534580D02*
X122155000Y-84582200D01*
X122155000Y-84582200D02*
X122059762Y-84629819D01*
X122059762Y-84629819D02*
X121678810Y-84629819D01*
X121678810Y-84629819D02*
X121678810Y-83629819D01*
X121678810Y-83629819D02*
X122012143Y-83629819D01*
X122012143Y-83629819D02*
X122107381Y-83677438D01*
X122107381Y-83677438D02*
X122155000Y-83725057D01*
X122155000Y-83725057D02*
X122202619Y-83820295D01*
X122202619Y-83820295D02*
X122202619Y-83915533D01*
X122202619Y-83915533D02*
X122155000Y-84010771D01*
X122155000Y-84010771D02*
X122107381Y-84058390D01*
X122107381Y-84058390D02*
X122012143Y-84106009D01*
X122012143Y-84106009D02*
X121678810Y-84106009D01*
X122631191Y-83725057D02*
X122678810Y-83677438D01*
X122678810Y-83677438D02*
X122774048Y-83629819D01*
X122774048Y-83629819D02*
X123012143Y-83629819D01*
X123012143Y-83629819D02*
X123107381Y-83677438D01*
X123107381Y-83677438D02*
X123155000Y-83725057D01*
X123155000Y-83725057D02*
X123202619Y-83820295D01*
X123202619Y-83820295D02*
X123202619Y-83915533D01*
X123202619Y-83915533D02*
X123155000Y-84058390D01*
X123155000Y-84058390D02*
X122583572Y-84629819D01*
X122583572Y-84629819D02*
X123202619Y-84629819D01*
X140161904Y-89402438D02*
X140066666Y-89354819D01*
X140066666Y-89354819D02*
X139923809Y-89354819D01*
X139923809Y-89354819D02*
X139780952Y-89402438D01*
X139780952Y-89402438D02*
X139685714Y-89497676D01*
X139685714Y-89497676D02*
X139638095Y-89592914D01*
X139638095Y-89592914D02*
X139590476Y-89783390D01*
X139590476Y-89783390D02*
X139590476Y-89926247D01*
X139590476Y-89926247D02*
X139638095Y-90116723D01*
X139638095Y-90116723D02*
X139685714Y-90211961D01*
X139685714Y-90211961D02*
X139780952Y-90307200D01*
X139780952Y-90307200D02*
X139923809Y-90354819D01*
X139923809Y-90354819D02*
X140019047Y-90354819D01*
X140019047Y-90354819D02*
X140161904Y-90307200D01*
X140161904Y-90307200D02*
X140209523Y-90259580D01*
X140209523Y-90259580D02*
X140209523Y-89926247D01*
X140209523Y-89926247D02*
X140019047Y-89926247D01*
X140638095Y-90354819D02*
X140638095Y-89354819D01*
X140638095Y-89354819D02*
X141209523Y-90354819D01*
X141209523Y-90354819D02*
X141209523Y-89354819D01*
X141685714Y-90354819D02*
X141685714Y-89354819D01*
X141685714Y-89354819D02*
X141923809Y-89354819D01*
X141923809Y-89354819D02*
X142066666Y-89402438D01*
X142066666Y-89402438D02*
X142161904Y-89497676D01*
X142161904Y-89497676D02*
X142209523Y-89592914D01*
X142209523Y-89592914D02*
X142257142Y-89783390D01*
X142257142Y-89783390D02*
X142257142Y-89926247D01*
X142257142Y-89926247D02*
X142209523Y-90116723D01*
X142209523Y-90116723D02*
X142161904Y-90211961D01*
X142161904Y-90211961D02*
X142066666Y-90307200D01*
X142066666Y-90307200D02*
X141923809Y-90354819D01*
X141923809Y-90354819D02*
X141685714Y-90354819D01*
X143209523Y-90354819D02*
X142638095Y-90354819D01*
X142923809Y-90354819D02*
X142923809Y-89354819D01*
X142923809Y-89354819D02*
X142828571Y-89497676D01*
X142828571Y-89497676D02*
X142733333Y-89592914D01*
X142733333Y-89592914D02*
X142638095Y-89640533D01*
X100494642Y-80609580D02*
X100447023Y-80657200D01*
X100447023Y-80657200D02*
X100304166Y-80704819D01*
X100304166Y-80704819D02*
X100208928Y-80704819D01*
X100208928Y-80704819D02*
X100066071Y-80657200D01*
X100066071Y-80657200D02*
X99970833Y-80561961D01*
X99970833Y-80561961D02*
X99923214Y-80466723D01*
X99923214Y-80466723D02*
X99875595Y-80276247D01*
X99875595Y-80276247D02*
X99875595Y-80133390D01*
X99875595Y-80133390D02*
X99923214Y-79942914D01*
X99923214Y-79942914D02*
X99970833Y-79847676D01*
X99970833Y-79847676D02*
X100066071Y-79752438D01*
X100066071Y-79752438D02*
X100208928Y-79704819D01*
X100208928Y-79704819D02*
X100304166Y-79704819D01*
X100304166Y-79704819D02*
X100447023Y-79752438D01*
X100447023Y-79752438D02*
X100494642Y-79800057D01*
X100685119Y-80800057D02*
X101447023Y-80800057D01*
X101685119Y-80704819D02*
X101685119Y-79704819D01*
X102447023Y-81085771D02*
X102399404Y-81038152D01*
X102399404Y-81038152D02*
X102304166Y-80895295D01*
X102304166Y-80895295D02*
X102256547Y-80800057D01*
X102256547Y-80800057D02*
X102208928Y-80657200D01*
X102208928Y-80657200D02*
X102161309Y-80419104D01*
X102161309Y-80419104D02*
X102161309Y-80228628D01*
X102161309Y-80228628D02*
X102208928Y-79990533D01*
X102208928Y-79990533D02*
X102256547Y-79847676D01*
X102256547Y-79847676D02*
X102304166Y-79752438D01*
X102304166Y-79752438D02*
X102399404Y-79609580D01*
X102399404Y-79609580D02*
X102447023Y-79561961D01*
X102827976Y-80704819D02*
X102827976Y-80038152D01*
X102827976Y-79704819D02*
X102780357Y-79752438D01*
X102780357Y-79752438D02*
X102827976Y-79800057D01*
X102827976Y-79800057D02*
X102875595Y-79752438D01*
X102875595Y-79752438D02*
X102827976Y-79704819D01*
X102827976Y-79704819D02*
X102827976Y-79800057D01*
X103304166Y-80038152D02*
X103304166Y-80704819D01*
X103304166Y-80133390D02*
X103351785Y-80085771D01*
X103351785Y-80085771D02*
X103447023Y-80038152D01*
X103447023Y-80038152D02*
X103589880Y-80038152D01*
X103589880Y-80038152D02*
X103685118Y-80085771D01*
X103685118Y-80085771D02*
X103732737Y-80181009D01*
X103732737Y-80181009D02*
X103732737Y-80704819D01*
X104113690Y-81085771D02*
X104161309Y-81038152D01*
X104161309Y-81038152D02*
X104256547Y-80895295D01*
X104256547Y-80895295D02*
X104304166Y-80800057D01*
X104304166Y-80800057D02*
X104351785Y-80657200D01*
X104351785Y-80657200D02*
X104399404Y-80419104D01*
X104399404Y-80419104D02*
X104399404Y-80228628D01*
X104399404Y-80228628D02*
X104351785Y-79990533D01*
X104351785Y-79990533D02*
X104304166Y-79847676D01*
X104304166Y-79847676D02*
X104256547Y-79752438D01*
X104256547Y-79752438D02*
X104161309Y-79609580D01*
X104161309Y-79609580D02*
X104113690Y-79561961D01*
X105399404Y-80704819D02*
X104827976Y-80704819D01*
X105113690Y-80704819D02*
X105113690Y-79704819D01*
X105113690Y-79704819D02*
X105018452Y-79847676D01*
X105018452Y-79847676D02*
X104923214Y-79942914D01*
X104923214Y-79942914D02*
X104827976Y-79990533D01*
X93761905Y-29454819D02*
X93761905Y-28454819D01*
X93761905Y-28454819D02*
X94095238Y-29169104D01*
X94095238Y-29169104D02*
X94428571Y-28454819D01*
X94428571Y-28454819D02*
X94428571Y-29454819D01*
X94857143Y-29169104D02*
X95333333Y-29169104D01*
X94761905Y-29454819D02*
X95095238Y-28454819D01*
X95095238Y-28454819D02*
X95428571Y-29454819D01*
X95714286Y-28550057D02*
X95761905Y-28502438D01*
X95761905Y-28502438D02*
X95857143Y-28454819D01*
X95857143Y-28454819D02*
X96095238Y-28454819D01*
X96095238Y-28454819D02*
X96190476Y-28502438D01*
X96190476Y-28502438D02*
X96238095Y-28550057D01*
X96238095Y-28550057D02*
X96285714Y-28645295D01*
X96285714Y-28645295D02*
X96285714Y-28740533D01*
X96285714Y-28740533D02*
X96238095Y-28883390D01*
X96238095Y-28883390D02*
X95666667Y-29454819D01*
X95666667Y-29454819D02*
X96285714Y-29454819D01*
X129579523Y-79054819D02*
X129246190Y-78578628D01*
X129008095Y-79054819D02*
X129008095Y-78054819D01*
X129008095Y-78054819D02*
X129389047Y-78054819D01*
X129389047Y-78054819D02*
X129484285Y-78102438D01*
X129484285Y-78102438D02*
X129531904Y-78150057D01*
X129531904Y-78150057D02*
X129579523Y-78245295D01*
X129579523Y-78245295D02*
X129579523Y-78388152D01*
X129579523Y-78388152D02*
X129531904Y-78483390D01*
X129531904Y-78483390D02*
X129484285Y-78531009D01*
X129484285Y-78531009D02*
X129389047Y-78578628D01*
X129389047Y-78578628D02*
X129008095Y-78578628D01*
X129770000Y-79150057D02*
X130531904Y-79150057D01*
X131103333Y-78531009D02*
X131246190Y-78578628D01*
X131246190Y-78578628D02*
X131293809Y-78626247D01*
X131293809Y-78626247D02*
X131341428Y-78721485D01*
X131341428Y-78721485D02*
X131341428Y-78864342D01*
X131341428Y-78864342D02*
X131293809Y-78959580D01*
X131293809Y-78959580D02*
X131246190Y-79007200D01*
X131246190Y-79007200D02*
X131150952Y-79054819D01*
X131150952Y-79054819D02*
X130770000Y-79054819D01*
X130770000Y-79054819D02*
X130770000Y-78054819D01*
X130770000Y-78054819D02*
X131103333Y-78054819D01*
X131103333Y-78054819D02*
X131198571Y-78102438D01*
X131198571Y-78102438D02*
X131246190Y-78150057D01*
X131246190Y-78150057D02*
X131293809Y-78245295D01*
X131293809Y-78245295D02*
X131293809Y-78340533D01*
X131293809Y-78340533D02*
X131246190Y-78435771D01*
X131246190Y-78435771D02*
X131198571Y-78483390D01*
X131198571Y-78483390D02*
X131103333Y-78531009D01*
X131103333Y-78531009D02*
X130770000Y-78531009D01*
X131722381Y-79007200D02*
X131817619Y-79054819D01*
X131817619Y-79054819D02*
X132008095Y-79054819D01*
X132008095Y-79054819D02*
X132103333Y-79007200D01*
X132103333Y-79007200D02*
X132150952Y-78911961D01*
X132150952Y-78911961D02*
X132150952Y-78864342D01*
X132150952Y-78864342D02*
X132103333Y-78769104D01*
X132103333Y-78769104D02*
X132008095Y-78721485D01*
X132008095Y-78721485D02*
X131865238Y-78721485D01*
X131865238Y-78721485D02*
X131770000Y-78673866D01*
X131770000Y-78673866D02*
X131722381Y-78578628D01*
X131722381Y-78578628D02*
X131722381Y-78531009D01*
X131722381Y-78531009D02*
X131770000Y-78435771D01*
X131770000Y-78435771D02*
X131865238Y-78388152D01*
X131865238Y-78388152D02*
X132008095Y-78388152D01*
X132008095Y-78388152D02*
X132103333Y-78435771D01*
X132722381Y-79054819D02*
X132627143Y-79007200D01*
X132627143Y-79007200D02*
X132579524Y-78911961D01*
X132579524Y-78911961D02*
X132579524Y-78054819D01*
X133246191Y-79054819D02*
X133150953Y-79007200D01*
X133150953Y-79007200D02*
X133103334Y-78959580D01*
X133103334Y-78959580D02*
X133055715Y-78864342D01*
X133055715Y-78864342D02*
X133055715Y-78578628D01*
X133055715Y-78578628D02*
X133103334Y-78483390D01*
X133103334Y-78483390D02*
X133150953Y-78435771D01*
X133150953Y-78435771D02*
X133246191Y-78388152D01*
X133246191Y-78388152D02*
X133389048Y-78388152D01*
X133389048Y-78388152D02*
X133484286Y-78435771D01*
X133484286Y-78435771D02*
X133531905Y-78483390D01*
X133531905Y-78483390D02*
X133579524Y-78578628D01*
X133579524Y-78578628D02*
X133579524Y-78864342D01*
X133579524Y-78864342D02*
X133531905Y-78959580D01*
X133531905Y-78959580D02*
X133484286Y-79007200D01*
X133484286Y-79007200D02*
X133389048Y-79054819D01*
X133389048Y-79054819D02*
X133246191Y-79054819D01*
X133912858Y-78388152D02*
X134103334Y-79054819D01*
X134103334Y-79054819D02*
X134293810Y-78578628D01*
X134293810Y-78578628D02*
X134484286Y-79054819D01*
X134484286Y-79054819D02*
X134674762Y-78388152D01*
X135008096Y-78150057D02*
X135055715Y-78102438D01*
X135055715Y-78102438D02*
X135150953Y-78054819D01*
X135150953Y-78054819D02*
X135389048Y-78054819D01*
X135389048Y-78054819D02*
X135484286Y-78102438D01*
X135484286Y-78102438D02*
X135531905Y-78150057D01*
X135531905Y-78150057D02*
X135579524Y-78245295D01*
X135579524Y-78245295D02*
X135579524Y-78340533D01*
X135579524Y-78340533D02*
X135531905Y-78483390D01*
X135531905Y-78483390D02*
X134960477Y-79054819D01*
X134960477Y-79054819D02*
X135579524Y-79054819D01*
X103564285Y-59504819D02*
X103230952Y-59028628D01*
X102992857Y-59504819D02*
X102992857Y-58504819D01*
X102992857Y-58504819D02*
X103373809Y-58504819D01*
X103373809Y-58504819D02*
X103469047Y-58552438D01*
X103469047Y-58552438D02*
X103516666Y-58600057D01*
X103516666Y-58600057D02*
X103564285Y-58695295D01*
X103564285Y-58695295D02*
X103564285Y-58838152D01*
X103564285Y-58838152D02*
X103516666Y-58933390D01*
X103516666Y-58933390D02*
X103469047Y-58981009D01*
X103469047Y-58981009D02*
X103373809Y-59028628D01*
X103373809Y-59028628D02*
X102992857Y-59028628D01*
X103754762Y-59600057D02*
X104516666Y-59600057D01*
X104754762Y-59504819D02*
X104754762Y-58504819D01*
X104754762Y-58504819D02*
X105135714Y-58504819D01*
X105135714Y-58504819D02*
X105230952Y-58552438D01*
X105230952Y-58552438D02*
X105278571Y-58600057D01*
X105278571Y-58600057D02*
X105326190Y-58695295D01*
X105326190Y-58695295D02*
X105326190Y-58838152D01*
X105326190Y-58838152D02*
X105278571Y-58933390D01*
X105278571Y-58933390D02*
X105230952Y-58981009D01*
X105230952Y-58981009D02*
X105135714Y-59028628D01*
X105135714Y-59028628D02*
X104754762Y-59028628D01*
X105611905Y-58838152D02*
X105992857Y-58838152D01*
X105754762Y-59504819D02*
X105754762Y-58647676D01*
X105754762Y-58647676D02*
X105802381Y-58552438D01*
X105802381Y-58552438D02*
X105897619Y-58504819D01*
X105897619Y-58504819D02*
X105992857Y-58504819D01*
X106326191Y-59504819D02*
X106326191Y-58504819D01*
X106326191Y-58885771D02*
X106421429Y-58838152D01*
X106421429Y-58838152D02*
X106611905Y-58838152D01*
X106611905Y-58838152D02*
X106707143Y-58885771D01*
X106707143Y-58885771D02*
X106754762Y-58933390D01*
X106754762Y-58933390D02*
X106802381Y-59028628D01*
X106802381Y-59028628D02*
X106802381Y-59314342D01*
X106802381Y-59314342D02*
X106754762Y-59409580D01*
X106754762Y-59409580D02*
X106707143Y-59457200D01*
X106707143Y-59457200D02*
X106611905Y-59504819D01*
X106611905Y-59504819D02*
X106421429Y-59504819D01*
X106421429Y-59504819D02*
X106326191Y-59457200D01*
X107754762Y-59504819D02*
X107183334Y-59504819D01*
X107469048Y-59504819D02*
X107469048Y-58504819D01*
X107469048Y-58504819D02*
X107373810Y-58647676D01*
X107373810Y-58647676D02*
X107278572Y-58742914D01*
X107278572Y-58742914D02*
X107183334Y-58790533D01*
X149074819Y-95837619D02*
X148598628Y-96170952D01*
X149074819Y-96409047D02*
X148074819Y-96409047D01*
X148074819Y-96409047D02*
X148074819Y-96028095D01*
X148074819Y-96028095D02*
X148122438Y-95932857D01*
X148122438Y-95932857D02*
X148170057Y-95885238D01*
X148170057Y-95885238D02*
X148265295Y-95837619D01*
X148265295Y-95837619D02*
X148408152Y-95837619D01*
X148408152Y-95837619D02*
X148503390Y-95885238D01*
X148503390Y-95885238D02*
X148551009Y-95932857D01*
X148551009Y-95932857D02*
X148598628Y-96028095D01*
X148598628Y-96028095D02*
X148598628Y-96409047D01*
X149170057Y-95647143D02*
X149170057Y-94885238D01*
X148979580Y-94075714D02*
X149027200Y-94123333D01*
X149027200Y-94123333D02*
X149074819Y-94266190D01*
X149074819Y-94266190D02*
X149074819Y-94361428D01*
X149074819Y-94361428D02*
X149027200Y-94504285D01*
X149027200Y-94504285D02*
X148931961Y-94599523D01*
X148931961Y-94599523D02*
X148836723Y-94647142D01*
X148836723Y-94647142D02*
X148646247Y-94694761D01*
X148646247Y-94694761D02*
X148503390Y-94694761D01*
X148503390Y-94694761D02*
X148312914Y-94647142D01*
X148312914Y-94647142D02*
X148217676Y-94599523D01*
X148217676Y-94599523D02*
X148122438Y-94504285D01*
X148122438Y-94504285D02*
X148074819Y-94361428D01*
X148074819Y-94361428D02*
X148074819Y-94266190D01*
X148074819Y-94266190D02*
X148122438Y-94123333D01*
X148122438Y-94123333D02*
X148170057Y-94075714D01*
X148170057Y-93694761D02*
X148122438Y-93647142D01*
X148122438Y-93647142D02*
X148074819Y-93551904D01*
X148074819Y-93551904D02*
X148074819Y-93313809D01*
X148074819Y-93313809D02*
X148122438Y-93218571D01*
X148122438Y-93218571D02*
X148170057Y-93170952D01*
X148170057Y-93170952D02*
X148265295Y-93123333D01*
X148265295Y-93123333D02*
X148360533Y-93123333D01*
X148360533Y-93123333D02*
X148503390Y-93170952D01*
X148503390Y-93170952D02*
X149074819Y-93742380D01*
X149074819Y-93742380D02*
X149074819Y-93123333D01*
X106007143Y-71144819D02*
X106007143Y-71954342D01*
X106007143Y-71954342D02*
X106054762Y-72049580D01*
X106054762Y-72049580D02*
X106102381Y-72097200D01*
X106102381Y-72097200D02*
X106197619Y-72144819D01*
X106197619Y-72144819D02*
X106388095Y-72144819D01*
X106388095Y-72144819D02*
X106483333Y-72097200D01*
X106483333Y-72097200D02*
X106530952Y-72049580D01*
X106530952Y-72049580D02*
X106578571Y-71954342D01*
X106578571Y-71954342D02*
X106578571Y-71144819D01*
X106816667Y-72240057D02*
X107578571Y-72240057D01*
X107816667Y-72144819D02*
X107816667Y-71144819D01*
X107816667Y-71144819D02*
X108197619Y-71144819D01*
X108197619Y-71144819D02*
X108292857Y-71192438D01*
X108292857Y-71192438D02*
X108340476Y-71240057D01*
X108340476Y-71240057D02*
X108388095Y-71335295D01*
X108388095Y-71335295D02*
X108388095Y-71478152D01*
X108388095Y-71478152D02*
X108340476Y-71573390D01*
X108340476Y-71573390D02*
X108292857Y-71621009D01*
X108292857Y-71621009D02*
X108197619Y-71668628D01*
X108197619Y-71668628D02*
X107816667Y-71668628D01*
X108769048Y-71240057D02*
X108816667Y-71192438D01*
X108816667Y-71192438D02*
X108911905Y-71144819D01*
X108911905Y-71144819D02*
X109150000Y-71144819D01*
X109150000Y-71144819D02*
X109245238Y-71192438D01*
X109245238Y-71192438D02*
X109292857Y-71240057D01*
X109292857Y-71240057D02*
X109340476Y-71335295D01*
X109340476Y-71335295D02*
X109340476Y-71430533D01*
X109340476Y-71430533D02*
X109292857Y-71573390D01*
X109292857Y-71573390D02*
X108721429Y-72144819D01*
X108721429Y-72144819D02*
X109340476Y-72144819D01*
X126600000Y-94254819D02*
X126933333Y-95254819D01*
X126933333Y-95254819D02*
X127266666Y-94254819D01*
X127600000Y-95254819D02*
X127600000Y-94254819D01*
X127600000Y-94635771D02*
X127695238Y-94588152D01*
X127695238Y-94588152D02*
X127885714Y-94588152D01*
X127885714Y-94588152D02*
X127980952Y-94635771D01*
X127980952Y-94635771D02*
X128028571Y-94683390D01*
X128028571Y-94683390D02*
X128076190Y-94778628D01*
X128076190Y-94778628D02*
X128076190Y-95064342D01*
X128076190Y-95064342D02*
X128028571Y-95159580D01*
X128028571Y-95159580D02*
X127980952Y-95207200D01*
X127980952Y-95207200D02*
X127885714Y-95254819D01*
X127885714Y-95254819D02*
X127695238Y-95254819D01*
X127695238Y-95254819D02*
X127600000Y-95207200D01*
X128933333Y-94588152D02*
X128933333Y-95254819D01*
X128504762Y-94588152D02*
X128504762Y-95111961D01*
X128504762Y-95111961D02*
X128552381Y-95207200D01*
X128552381Y-95207200D02*
X128647619Y-95254819D01*
X128647619Y-95254819D02*
X128790476Y-95254819D01*
X128790476Y-95254819D02*
X128885714Y-95207200D01*
X128885714Y-95207200D02*
X128933333Y-95159580D01*
X129361905Y-95207200D02*
X129457143Y-95254819D01*
X129457143Y-95254819D02*
X129647619Y-95254819D01*
X129647619Y-95254819D02*
X129742857Y-95207200D01*
X129742857Y-95207200D02*
X129790476Y-95111961D01*
X129790476Y-95111961D02*
X129790476Y-95064342D01*
X129790476Y-95064342D02*
X129742857Y-94969104D01*
X129742857Y-94969104D02*
X129647619Y-94921485D01*
X129647619Y-94921485D02*
X129504762Y-94921485D01*
X129504762Y-94921485D02*
X129409524Y-94873866D01*
X129409524Y-94873866D02*
X129361905Y-94778628D01*
X129361905Y-94778628D02*
X129361905Y-94731009D01*
X129361905Y-94731009D02*
X129409524Y-94635771D01*
X129409524Y-94635771D02*
X129504762Y-94588152D01*
X129504762Y-94588152D02*
X129647619Y-94588152D01*
X129647619Y-94588152D02*
X129742857Y-94635771D01*
X129980953Y-95350057D02*
X130742857Y-95350057D01*
X131028572Y-95254819D02*
X131219048Y-95254819D01*
X131219048Y-95254819D02*
X131314286Y-95207200D01*
X131314286Y-95207200D02*
X131361905Y-95159580D01*
X131361905Y-95159580D02*
X131457143Y-95016723D01*
X131457143Y-95016723D02*
X131504762Y-94826247D01*
X131504762Y-94826247D02*
X131504762Y-94445295D01*
X131504762Y-94445295D02*
X131457143Y-94350057D01*
X131457143Y-94350057D02*
X131409524Y-94302438D01*
X131409524Y-94302438D02*
X131314286Y-94254819D01*
X131314286Y-94254819D02*
X131123810Y-94254819D01*
X131123810Y-94254819D02*
X131028572Y-94302438D01*
X131028572Y-94302438D02*
X130980953Y-94350057D01*
X130980953Y-94350057D02*
X130933334Y-94445295D01*
X130933334Y-94445295D02*
X130933334Y-94683390D01*
X130933334Y-94683390D02*
X130980953Y-94778628D01*
X130980953Y-94778628D02*
X131028572Y-94826247D01*
X131028572Y-94826247D02*
X131123810Y-94873866D01*
X131123810Y-94873866D02*
X131314286Y-94873866D01*
X131314286Y-94873866D02*
X131409524Y-94826247D01*
X131409524Y-94826247D02*
X131457143Y-94778628D01*
X131457143Y-94778628D02*
X131504762Y-94683390D01*
X127421428Y-60854819D02*
X127421428Y-61569104D01*
X127421428Y-61569104D02*
X127373809Y-61711961D01*
X127373809Y-61711961D02*
X127278571Y-61807200D01*
X127278571Y-61807200D02*
X127135714Y-61854819D01*
X127135714Y-61854819D02*
X127040476Y-61854819D01*
X127897619Y-61854819D02*
X127897619Y-60854819D01*
X127897619Y-60854819D02*
X128278571Y-60854819D01*
X128278571Y-60854819D02*
X128373809Y-60902438D01*
X128373809Y-60902438D02*
X128421428Y-60950057D01*
X128421428Y-60950057D02*
X128469047Y-61045295D01*
X128469047Y-61045295D02*
X128469047Y-61188152D01*
X128469047Y-61188152D02*
X128421428Y-61283390D01*
X128421428Y-61283390D02*
X128373809Y-61331009D01*
X128373809Y-61331009D02*
X128278571Y-61378628D01*
X128278571Y-61378628D02*
X127897619Y-61378628D01*
X128659524Y-61950057D02*
X129421428Y-61950057D01*
X129992857Y-61331009D02*
X130135714Y-61378628D01*
X130135714Y-61378628D02*
X130183333Y-61426247D01*
X130183333Y-61426247D02*
X130230952Y-61521485D01*
X130230952Y-61521485D02*
X130230952Y-61664342D01*
X130230952Y-61664342D02*
X130183333Y-61759580D01*
X130183333Y-61759580D02*
X130135714Y-61807200D01*
X130135714Y-61807200D02*
X130040476Y-61854819D01*
X130040476Y-61854819D02*
X129659524Y-61854819D01*
X129659524Y-61854819D02*
X129659524Y-60854819D01*
X129659524Y-60854819D02*
X129992857Y-60854819D01*
X129992857Y-60854819D02*
X130088095Y-60902438D01*
X130088095Y-60902438D02*
X130135714Y-60950057D01*
X130135714Y-60950057D02*
X130183333Y-61045295D01*
X130183333Y-61045295D02*
X130183333Y-61140533D01*
X130183333Y-61140533D02*
X130135714Y-61235771D01*
X130135714Y-61235771D02*
X130088095Y-61283390D01*
X130088095Y-61283390D02*
X129992857Y-61331009D01*
X129992857Y-61331009D02*
X129659524Y-61331009D01*
X130421429Y-61950057D02*
X131183333Y-61950057D01*
X131802381Y-61807200D02*
X131707143Y-61854819D01*
X131707143Y-61854819D02*
X131516667Y-61854819D01*
X131516667Y-61854819D02*
X131421429Y-61807200D01*
X131421429Y-61807200D02*
X131373810Y-61711961D01*
X131373810Y-61711961D02*
X131373810Y-61331009D01*
X131373810Y-61331009D02*
X131421429Y-61235771D01*
X131421429Y-61235771D02*
X131516667Y-61188152D01*
X131516667Y-61188152D02*
X131707143Y-61188152D01*
X131707143Y-61188152D02*
X131802381Y-61235771D01*
X131802381Y-61235771D02*
X131850000Y-61331009D01*
X131850000Y-61331009D02*
X131850000Y-61426247D01*
X131850000Y-61426247D02*
X131373810Y-61521485D01*
X132278572Y-61188152D02*
X132278572Y-61854819D01*
X132278572Y-61283390D02*
X132326191Y-61235771D01*
X132326191Y-61235771D02*
X132421429Y-61188152D01*
X132421429Y-61188152D02*
X132564286Y-61188152D01*
X132564286Y-61188152D02*
X132659524Y-61235771D01*
X132659524Y-61235771D02*
X132707143Y-61331009D01*
X132707143Y-61331009D02*
X132707143Y-61854819D01*
X133611905Y-61854819D02*
X133611905Y-61331009D01*
X133611905Y-61331009D02*
X133564286Y-61235771D01*
X133564286Y-61235771D02*
X133469048Y-61188152D01*
X133469048Y-61188152D02*
X133278572Y-61188152D01*
X133278572Y-61188152D02*
X133183334Y-61235771D01*
X133611905Y-61807200D02*
X133516667Y-61854819D01*
X133516667Y-61854819D02*
X133278572Y-61854819D01*
X133278572Y-61854819D02*
X133183334Y-61807200D01*
X133183334Y-61807200D02*
X133135715Y-61711961D01*
X133135715Y-61711961D02*
X133135715Y-61616723D01*
X133135715Y-61616723D02*
X133183334Y-61521485D01*
X133183334Y-61521485D02*
X133278572Y-61473866D01*
X133278572Y-61473866D02*
X133516667Y-61473866D01*
X133516667Y-61473866D02*
X133611905Y-61426247D01*
X134611905Y-61854819D02*
X134040477Y-61854819D01*
X134326191Y-61854819D02*
X134326191Y-60854819D01*
X134326191Y-60854819D02*
X134230953Y-60997676D01*
X134230953Y-60997676D02*
X134135715Y-61092914D01*
X134135715Y-61092914D02*
X134040477Y-61140533D01*
X149074819Y-91697619D02*
X148598628Y-92030952D01*
X149074819Y-92269047D02*
X148074819Y-92269047D01*
X148074819Y-92269047D02*
X148074819Y-91888095D01*
X148074819Y-91888095D02*
X148122438Y-91792857D01*
X148122438Y-91792857D02*
X148170057Y-91745238D01*
X148170057Y-91745238D02*
X148265295Y-91697619D01*
X148265295Y-91697619D02*
X148408152Y-91697619D01*
X148408152Y-91697619D02*
X148503390Y-91745238D01*
X148503390Y-91745238D02*
X148551009Y-91792857D01*
X148551009Y-91792857D02*
X148598628Y-91888095D01*
X148598628Y-91888095D02*
X148598628Y-92269047D01*
X149170057Y-91507143D02*
X149170057Y-90745238D01*
X148979580Y-89935714D02*
X149027200Y-89983333D01*
X149027200Y-89983333D02*
X149074819Y-90126190D01*
X149074819Y-90126190D02*
X149074819Y-90221428D01*
X149074819Y-90221428D02*
X149027200Y-90364285D01*
X149027200Y-90364285D02*
X148931961Y-90459523D01*
X148931961Y-90459523D02*
X148836723Y-90507142D01*
X148836723Y-90507142D02*
X148646247Y-90554761D01*
X148646247Y-90554761D02*
X148503390Y-90554761D01*
X148503390Y-90554761D02*
X148312914Y-90507142D01*
X148312914Y-90507142D02*
X148217676Y-90459523D01*
X148217676Y-90459523D02*
X148122438Y-90364285D01*
X148122438Y-90364285D02*
X148074819Y-90221428D01*
X148074819Y-90221428D02*
X148074819Y-90126190D01*
X148074819Y-90126190D02*
X148122438Y-89983333D01*
X148122438Y-89983333D02*
X148170057Y-89935714D01*
X149074819Y-88983333D02*
X149074819Y-89554761D01*
X149074819Y-89269047D02*
X148074819Y-89269047D01*
X148074819Y-89269047D02*
X148217676Y-89364285D01*
X148217676Y-89364285D02*
X148312914Y-89459523D01*
X148312914Y-89459523D02*
X148360533Y-89554761D01*
X113411904Y-94852438D02*
X113316666Y-94804819D01*
X113316666Y-94804819D02*
X113173809Y-94804819D01*
X113173809Y-94804819D02*
X113030952Y-94852438D01*
X113030952Y-94852438D02*
X112935714Y-94947676D01*
X112935714Y-94947676D02*
X112888095Y-95042914D01*
X112888095Y-95042914D02*
X112840476Y-95233390D01*
X112840476Y-95233390D02*
X112840476Y-95376247D01*
X112840476Y-95376247D02*
X112888095Y-95566723D01*
X112888095Y-95566723D02*
X112935714Y-95661961D01*
X112935714Y-95661961D02*
X113030952Y-95757200D01*
X113030952Y-95757200D02*
X113173809Y-95804819D01*
X113173809Y-95804819D02*
X113269047Y-95804819D01*
X113269047Y-95804819D02*
X113411904Y-95757200D01*
X113411904Y-95757200D02*
X113459523Y-95709580D01*
X113459523Y-95709580D02*
X113459523Y-95376247D01*
X113459523Y-95376247D02*
X113269047Y-95376247D01*
X113888095Y-95804819D02*
X113888095Y-94804819D01*
X113888095Y-94804819D02*
X114459523Y-95804819D01*
X114459523Y-95804819D02*
X114459523Y-94804819D01*
X114935714Y-95804819D02*
X114935714Y-94804819D01*
X114935714Y-94804819D02*
X115173809Y-94804819D01*
X115173809Y-94804819D02*
X115316666Y-94852438D01*
X115316666Y-94852438D02*
X115411904Y-94947676D01*
X115411904Y-94947676D02*
X115459523Y-95042914D01*
X115459523Y-95042914D02*
X115507142Y-95233390D01*
X115507142Y-95233390D02*
X115507142Y-95376247D01*
X115507142Y-95376247D02*
X115459523Y-95566723D01*
X115459523Y-95566723D02*
X115411904Y-95661961D01*
X115411904Y-95661961D02*
X115316666Y-95757200D01*
X115316666Y-95757200D02*
X115173809Y-95804819D01*
X115173809Y-95804819D02*
X114935714Y-95804819D01*
X116126190Y-94804819D02*
X116221428Y-94804819D01*
X116221428Y-94804819D02*
X116316666Y-94852438D01*
X116316666Y-94852438D02*
X116364285Y-94900057D01*
X116364285Y-94900057D02*
X116411904Y-94995295D01*
X116411904Y-94995295D02*
X116459523Y-95185771D01*
X116459523Y-95185771D02*
X116459523Y-95423866D01*
X116459523Y-95423866D02*
X116411904Y-95614342D01*
X116411904Y-95614342D02*
X116364285Y-95709580D01*
X116364285Y-95709580D02*
X116316666Y-95757200D01*
X116316666Y-95757200D02*
X116221428Y-95804819D01*
X116221428Y-95804819D02*
X116126190Y-95804819D01*
X116126190Y-95804819D02*
X116030952Y-95757200D01*
X116030952Y-95757200D02*
X115983333Y-95709580D01*
X115983333Y-95709580D02*
X115935714Y-95614342D01*
X115935714Y-95614342D02*
X115888095Y-95423866D01*
X115888095Y-95423866D02*
X115888095Y-95185771D01*
X115888095Y-95185771D02*
X115935714Y-94995295D01*
X115935714Y-94995295D02*
X115983333Y-94900057D01*
X115983333Y-94900057D02*
X116030952Y-94852438D01*
X116030952Y-94852438D02*
X116126190Y-94804819D01*
X102359580Y-70250119D02*
X102407200Y-70297738D01*
X102407200Y-70297738D02*
X102454819Y-70440595D01*
X102454819Y-70440595D02*
X102454819Y-70535833D01*
X102454819Y-70535833D02*
X102407200Y-70678690D01*
X102407200Y-70678690D02*
X102311961Y-70773928D01*
X102311961Y-70773928D02*
X102216723Y-70821547D01*
X102216723Y-70821547D02*
X102026247Y-70869166D01*
X102026247Y-70869166D02*
X101883390Y-70869166D01*
X101883390Y-70869166D02*
X101692914Y-70821547D01*
X101692914Y-70821547D02*
X101597676Y-70773928D01*
X101597676Y-70773928D02*
X101502438Y-70678690D01*
X101502438Y-70678690D02*
X101454819Y-70535833D01*
X101454819Y-70535833D02*
X101454819Y-70440595D01*
X101454819Y-70440595D02*
X101502438Y-70297738D01*
X101502438Y-70297738D02*
X101550057Y-70250119D01*
X102550057Y-70059643D02*
X102550057Y-69297738D01*
X102454819Y-69059642D02*
X101454819Y-69059642D01*
X101454819Y-69059642D02*
X101454819Y-68678690D01*
X101454819Y-68678690D02*
X101502438Y-68583452D01*
X101502438Y-68583452D02*
X101550057Y-68535833D01*
X101550057Y-68535833D02*
X101645295Y-68488214D01*
X101645295Y-68488214D02*
X101788152Y-68488214D01*
X101788152Y-68488214D02*
X101883390Y-68535833D01*
X101883390Y-68535833D02*
X101931009Y-68583452D01*
X101931009Y-68583452D02*
X101978628Y-68678690D01*
X101978628Y-68678690D02*
X101978628Y-69059642D01*
X101454819Y-67583452D02*
X101454819Y-68059642D01*
X101454819Y-68059642D02*
X101931009Y-68107261D01*
X101931009Y-68107261D02*
X101883390Y-68059642D01*
X101883390Y-68059642D02*
X101835771Y-67964404D01*
X101835771Y-67964404D02*
X101835771Y-67726309D01*
X101835771Y-67726309D02*
X101883390Y-67631071D01*
X101883390Y-67631071D02*
X101931009Y-67583452D01*
X101931009Y-67583452D02*
X102026247Y-67535833D01*
X102026247Y-67535833D02*
X102264342Y-67535833D01*
X102264342Y-67535833D02*
X102359580Y-67583452D01*
X102359580Y-67583452D02*
X102407200Y-67631071D01*
X102407200Y-67631071D02*
X102454819Y-67726309D01*
X102454819Y-67726309D02*
X102454819Y-67964404D01*
X102454819Y-67964404D02*
X102407200Y-68059642D01*
X102407200Y-68059642D02*
X102359580Y-68107261D01*
X100841905Y-64384819D02*
X100841905Y-63384819D01*
X100841905Y-63384819D02*
X101222857Y-63384819D01*
X101222857Y-63384819D02*
X101318095Y-63432438D01*
X101318095Y-63432438D02*
X101365714Y-63480057D01*
X101365714Y-63480057D02*
X101413333Y-63575295D01*
X101413333Y-63575295D02*
X101413333Y-63718152D01*
X101413333Y-63718152D02*
X101365714Y-63813390D01*
X101365714Y-63813390D02*
X101318095Y-63861009D01*
X101318095Y-63861009D02*
X101222857Y-63908628D01*
X101222857Y-63908628D02*
X100841905Y-63908628D01*
X102175238Y-63861009D02*
X102318095Y-63908628D01*
X102318095Y-63908628D02*
X102365714Y-63956247D01*
X102365714Y-63956247D02*
X102413333Y-64051485D01*
X102413333Y-64051485D02*
X102413333Y-64194342D01*
X102413333Y-64194342D02*
X102365714Y-64289580D01*
X102365714Y-64289580D02*
X102318095Y-64337200D01*
X102318095Y-64337200D02*
X102222857Y-64384819D01*
X102222857Y-64384819D02*
X101841905Y-64384819D01*
X101841905Y-64384819D02*
X101841905Y-63384819D01*
X101841905Y-63384819D02*
X102175238Y-63384819D01*
X102175238Y-63384819D02*
X102270476Y-63432438D01*
X102270476Y-63432438D02*
X102318095Y-63480057D01*
X102318095Y-63480057D02*
X102365714Y-63575295D01*
X102365714Y-63575295D02*
X102365714Y-63670533D01*
X102365714Y-63670533D02*
X102318095Y-63765771D01*
X102318095Y-63765771D02*
X102270476Y-63813390D01*
X102270476Y-63813390D02*
X102175238Y-63861009D01*
X102175238Y-63861009D02*
X101841905Y-63861009D01*
X103365714Y-64384819D02*
X102794286Y-64384819D01*
X103080000Y-64384819D02*
X103080000Y-63384819D01*
X103080000Y-63384819D02*
X102984762Y-63527676D01*
X102984762Y-63527676D02*
X102889524Y-63622914D01*
X102889524Y-63622914D02*
X102794286Y-63670533D01*
X99011905Y-75654819D02*
X99011905Y-74654819D01*
X99011905Y-74654819D02*
X99392857Y-74654819D01*
X99392857Y-74654819D02*
X99488095Y-74702438D01*
X99488095Y-74702438D02*
X99535714Y-74750057D01*
X99535714Y-74750057D02*
X99583333Y-74845295D01*
X99583333Y-74845295D02*
X99583333Y-74988152D01*
X99583333Y-74988152D02*
X99535714Y-75083390D01*
X99535714Y-75083390D02*
X99488095Y-75131009D01*
X99488095Y-75131009D02*
X99392857Y-75178628D01*
X99392857Y-75178628D02*
X99011905Y-75178628D01*
X100440476Y-74988152D02*
X100440476Y-75654819D01*
X100202381Y-74607200D02*
X99964286Y-75321485D01*
X99964286Y-75321485D02*
X100583333Y-75321485D01*
X112972380Y-65194819D02*
X112639047Y-64718628D01*
X112400952Y-65194819D02*
X112400952Y-64194819D01*
X112400952Y-64194819D02*
X112781904Y-64194819D01*
X112781904Y-64194819D02*
X112877142Y-64242438D01*
X112877142Y-64242438D02*
X112924761Y-64290057D01*
X112924761Y-64290057D02*
X112972380Y-64385295D01*
X112972380Y-64385295D02*
X112972380Y-64528152D01*
X112972380Y-64528152D02*
X112924761Y-64623390D01*
X112924761Y-64623390D02*
X112877142Y-64671009D01*
X112877142Y-64671009D02*
X112781904Y-64718628D01*
X112781904Y-64718628D02*
X112400952Y-64718628D01*
X113162857Y-65290057D02*
X113924761Y-65290057D01*
X114162857Y-65194819D02*
X114162857Y-64194819D01*
X114162857Y-64194819D02*
X114543809Y-64194819D01*
X114543809Y-64194819D02*
X114639047Y-64242438D01*
X114639047Y-64242438D02*
X114686666Y-64290057D01*
X114686666Y-64290057D02*
X114734285Y-64385295D01*
X114734285Y-64385295D02*
X114734285Y-64528152D01*
X114734285Y-64528152D02*
X114686666Y-64623390D01*
X114686666Y-64623390D02*
X114639047Y-64671009D01*
X114639047Y-64671009D02*
X114543809Y-64718628D01*
X114543809Y-64718628D02*
X114162857Y-64718628D01*
X115686666Y-65194819D02*
X115115238Y-65194819D01*
X115400952Y-65194819D02*
X115400952Y-64194819D01*
X115400952Y-64194819D02*
X115305714Y-64337676D01*
X115305714Y-64337676D02*
X115210476Y-64432914D01*
X115210476Y-64432914D02*
X115115238Y-64480533D01*
X98074819Y-30438333D02*
X98789104Y-30438333D01*
X98789104Y-30438333D02*
X98931961Y-30485952D01*
X98931961Y-30485952D02*
X99027200Y-30581190D01*
X99027200Y-30581190D02*
X99074819Y-30724047D01*
X99074819Y-30724047D02*
X99074819Y-30819285D01*
X99074819Y-29438333D02*
X99074819Y-30009761D01*
X99074819Y-29724047D02*
X98074819Y-29724047D01*
X98074819Y-29724047D02*
X98217676Y-29819285D01*
X98217676Y-29819285D02*
X98312914Y-29914523D01*
X98312914Y-29914523D02*
X98360533Y-30009761D01*
X131302381Y-38754819D02*
X131873809Y-38754819D01*
X131588095Y-39754819D02*
X131588095Y-38754819D01*
X131969048Y-39850057D02*
X132730952Y-39850057D01*
X133445238Y-39754819D02*
X132969048Y-39754819D01*
X132969048Y-39754819D02*
X132969048Y-38754819D01*
X134302381Y-39754819D02*
X133730953Y-39754819D01*
X134016667Y-39754819D02*
X134016667Y-38754819D01*
X134016667Y-38754819D02*
X133921429Y-38897676D01*
X133921429Y-38897676D02*
X133826191Y-38992914D01*
X133826191Y-38992914D02*
X133730953Y-39040533D01*
X142890476Y-96856819D02*
X143223809Y-97856819D01*
X143223809Y-97856819D02*
X143557142Y-96856819D01*
X143890476Y-97856819D02*
X143890476Y-96856819D01*
X143890476Y-96856819D02*
X144128571Y-96856819D01*
X144128571Y-96856819D02*
X144271428Y-96904438D01*
X144271428Y-96904438D02*
X144366666Y-96999676D01*
X144366666Y-96999676D02*
X144414285Y-97094914D01*
X144414285Y-97094914D02*
X144461904Y-97285390D01*
X144461904Y-97285390D02*
X144461904Y-97428247D01*
X144461904Y-97428247D02*
X144414285Y-97618723D01*
X144414285Y-97618723D02*
X144366666Y-97713961D01*
X144366666Y-97713961D02*
X144271428Y-97809200D01*
X144271428Y-97809200D02*
X144128571Y-97856819D01*
X144128571Y-97856819D02*
X143890476Y-97856819D01*
X144890476Y-97856819D02*
X144890476Y-96856819D01*
X144890476Y-96856819D02*
X145128571Y-96856819D01*
X145128571Y-96856819D02*
X145271428Y-96904438D01*
X145271428Y-96904438D02*
X145366666Y-96999676D01*
X145366666Y-96999676D02*
X145414285Y-97094914D01*
X145414285Y-97094914D02*
X145461904Y-97285390D01*
X145461904Y-97285390D02*
X145461904Y-97428247D01*
X145461904Y-97428247D02*
X145414285Y-97618723D01*
X145414285Y-97618723D02*
X145366666Y-97713961D01*
X145366666Y-97713961D02*
X145271428Y-97809200D01*
X145271428Y-97809200D02*
X145128571Y-97856819D01*
X145128571Y-97856819D02*
X144890476Y-97856819D01*
X146414285Y-97856819D02*
X145842857Y-97856819D01*
X146128571Y-97856819D02*
X146128571Y-96856819D01*
X146128571Y-96856819D02*
X146033333Y-96999676D01*
X146033333Y-96999676D02*
X145938095Y-97094914D01*
X145938095Y-97094914D02*
X145842857Y-97142533D01*
X132147618Y-82741009D02*
X132290475Y-82788628D01*
X132290475Y-82788628D02*
X132338094Y-82836247D01*
X132338094Y-82836247D02*
X132385713Y-82931485D01*
X132385713Y-82931485D02*
X132385713Y-83074342D01*
X132385713Y-83074342D02*
X132338094Y-83169580D01*
X132338094Y-83169580D02*
X132290475Y-83217200D01*
X132290475Y-83217200D02*
X132195237Y-83264819D01*
X132195237Y-83264819D02*
X131814285Y-83264819D01*
X131814285Y-83264819D02*
X131814285Y-82264819D01*
X131814285Y-82264819D02*
X132147618Y-82264819D01*
X132147618Y-82264819D02*
X132242856Y-82312438D01*
X132242856Y-82312438D02*
X132290475Y-82360057D01*
X132290475Y-82360057D02*
X132338094Y-82455295D01*
X132338094Y-82455295D02*
X132338094Y-82550533D01*
X132338094Y-82550533D02*
X132290475Y-82645771D01*
X132290475Y-82645771D02*
X132242856Y-82693390D01*
X132242856Y-82693390D02*
X132147618Y-82741009D01*
X132147618Y-82741009D02*
X131814285Y-82741009D01*
X132576190Y-83360057D02*
X133338094Y-83360057D01*
X133576190Y-82598152D02*
X133576190Y-83598152D01*
X133576190Y-82645771D02*
X133671428Y-82598152D01*
X133671428Y-82598152D02*
X133861904Y-82598152D01*
X133861904Y-82598152D02*
X133957142Y-82645771D01*
X133957142Y-82645771D02*
X134004761Y-82693390D01*
X134004761Y-82693390D02*
X134052380Y-82788628D01*
X134052380Y-82788628D02*
X134052380Y-83074342D01*
X134052380Y-83074342D02*
X134004761Y-83169580D01*
X134004761Y-83169580D02*
X133957142Y-83217200D01*
X133957142Y-83217200D02*
X133861904Y-83264819D01*
X133861904Y-83264819D02*
X133671428Y-83264819D01*
X133671428Y-83264819D02*
X133576190Y-83217200D01*
X134480952Y-83264819D02*
X134480952Y-82598152D01*
X134480952Y-82788628D02*
X134528571Y-82693390D01*
X134528571Y-82693390D02*
X134576190Y-82645771D01*
X134576190Y-82645771D02*
X134671428Y-82598152D01*
X134671428Y-82598152D02*
X134766666Y-82598152D01*
X135242857Y-83264819D02*
X135147619Y-83217200D01*
X135147619Y-83217200D02*
X135100000Y-83169580D01*
X135100000Y-83169580D02*
X135052381Y-83074342D01*
X135052381Y-83074342D02*
X135052381Y-82788628D01*
X135052381Y-82788628D02*
X135100000Y-82693390D01*
X135100000Y-82693390D02*
X135147619Y-82645771D01*
X135147619Y-82645771D02*
X135242857Y-82598152D01*
X135242857Y-82598152D02*
X135385714Y-82598152D01*
X135385714Y-82598152D02*
X135480952Y-82645771D01*
X135480952Y-82645771D02*
X135528571Y-82693390D01*
X135528571Y-82693390D02*
X135576190Y-82788628D01*
X135576190Y-82788628D02*
X135576190Y-83074342D01*
X135576190Y-83074342D02*
X135528571Y-83169580D01*
X135528571Y-83169580D02*
X135480952Y-83217200D01*
X135480952Y-83217200D02*
X135385714Y-83264819D01*
X135385714Y-83264819D02*
X135242857Y-83264819D01*
X136433333Y-82598152D02*
X136433333Y-83407676D01*
X136433333Y-83407676D02*
X136385714Y-83502914D01*
X136385714Y-83502914D02*
X136338095Y-83550533D01*
X136338095Y-83550533D02*
X136242857Y-83598152D01*
X136242857Y-83598152D02*
X136100000Y-83598152D01*
X136100000Y-83598152D02*
X136004762Y-83550533D01*
X136433333Y-83217200D02*
X136338095Y-83264819D01*
X136338095Y-83264819D02*
X136147619Y-83264819D01*
X136147619Y-83264819D02*
X136052381Y-83217200D01*
X136052381Y-83217200D02*
X136004762Y-83169580D01*
X136004762Y-83169580D02*
X135957143Y-83074342D01*
X135957143Y-83074342D02*
X135957143Y-82788628D01*
X135957143Y-82788628D02*
X136004762Y-82693390D01*
X136004762Y-82693390D02*
X136052381Y-82645771D01*
X136052381Y-82645771D02*
X136147619Y-82598152D01*
X136147619Y-82598152D02*
X136338095Y-82598152D01*
X136338095Y-82598152D02*
X136433333Y-82645771D01*
X136861905Y-82360057D02*
X136909524Y-82312438D01*
X136909524Y-82312438D02*
X137004762Y-82264819D01*
X137004762Y-82264819D02*
X137242857Y-82264819D01*
X137242857Y-82264819D02*
X137338095Y-82312438D01*
X137338095Y-82312438D02*
X137385714Y-82360057D01*
X137385714Y-82360057D02*
X137433333Y-82455295D01*
X137433333Y-82455295D02*
X137433333Y-82550533D01*
X137433333Y-82550533D02*
X137385714Y-82693390D01*
X137385714Y-82693390D02*
X136814286Y-83264819D01*
X136814286Y-83264819D02*
X137433333Y-83264819D01*
X102452381Y-78354819D02*
X103023809Y-78354819D01*
X102738095Y-79354819D02*
X102738095Y-78354819D01*
X103119048Y-79450057D02*
X103880952Y-79450057D01*
X104023810Y-78354819D02*
X104642857Y-78354819D01*
X104642857Y-78354819D02*
X104309524Y-78735771D01*
X104309524Y-78735771D02*
X104452381Y-78735771D01*
X104452381Y-78735771D02*
X104547619Y-78783390D01*
X104547619Y-78783390D02*
X104595238Y-78831009D01*
X104595238Y-78831009D02*
X104642857Y-78926247D01*
X104642857Y-78926247D02*
X104642857Y-79164342D01*
X104642857Y-79164342D02*
X104595238Y-79259580D01*
X104595238Y-79259580D02*
X104547619Y-79307200D01*
X104547619Y-79307200D02*
X104452381Y-79354819D01*
X104452381Y-79354819D02*
X104166667Y-79354819D01*
X104166667Y-79354819D02*
X104071429Y-79307200D01*
X104071429Y-79307200D02*
X104023810Y-79259580D01*
X104928572Y-78354819D02*
X105261905Y-79354819D01*
X105261905Y-79354819D02*
X105595238Y-78354819D01*
X105833334Y-78354819D02*
X106452381Y-78354819D01*
X106452381Y-78354819D02*
X106119048Y-78735771D01*
X106119048Y-78735771D02*
X106261905Y-78735771D01*
X106261905Y-78735771D02*
X106357143Y-78783390D01*
X106357143Y-78783390D02*
X106404762Y-78831009D01*
X106404762Y-78831009D02*
X106452381Y-78926247D01*
X106452381Y-78926247D02*
X106452381Y-79164342D01*
X106452381Y-79164342D02*
X106404762Y-79259580D01*
X106404762Y-79259580D02*
X106357143Y-79307200D01*
X106357143Y-79307200D02*
X106261905Y-79354819D01*
X106261905Y-79354819D02*
X105976191Y-79354819D01*
X105976191Y-79354819D02*
X105880953Y-79307200D01*
X105880953Y-79307200D02*
X105833334Y-79259580D01*
X119238095Y-72554819D02*
X119238095Y-71554819D01*
X119238095Y-72031009D02*
X119809523Y-72031009D01*
X119809523Y-72554819D02*
X119809523Y-71554819D01*
X120809523Y-72554819D02*
X120238095Y-72554819D01*
X120523809Y-72554819D02*
X120523809Y-71554819D01*
X120523809Y-71554819D02*
X120428571Y-71697676D01*
X120428571Y-71697676D02*
X120333333Y-71792914D01*
X120333333Y-71792914D02*
X120238095Y-71840533D01*
X109961905Y-51654819D02*
X109961905Y-50654819D01*
X109961905Y-50654819D02*
X110342857Y-50654819D01*
X110342857Y-50654819D02*
X110438095Y-50702438D01*
X110438095Y-50702438D02*
X110485714Y-50750057D01*
X110485714Y-50750057D02*
X110533333Y-50845295D01*
X110533333Y-50845295D02*
X110533333Y-50988152D01*
X110533333Y-50988152D02*
X110485714Y-51083390D01*
X110485714Y-51083390D02*
X110438095Y-51131009D01*
X110438095Y-51131009D02*
X110342857Y-51178628D01*
X110342857Y-51178628D02*
X109961905Y-51178628D01*
X111485714Y-51654819D02*
X110914286Y-51654819D01*
X111200000Y-51654819D02*
X111200000Y-50654819D01*
X111200000Y-50654819D02*
X111104762Y-50797676D01*
X111104762Y-50797676D02*
X111009524Y-50892914D01*
X111009524Y-50892914D02*
X110914286Y-50940533D01*
X110461905Y-76154819D02*
X111080952Y-76154819D01*
X111080952Y-76154819D02*
X110747619Y-76535771D01*
X110747619Y-76535771D02*
X110890476Y-76535771D01*
X110890476Y-76535771D02*
X110985714Y-76583390D01*
X110985714Y-76583390D02*
X111033333Y-76631009D01*
X111033333Y-76631009D02*
X111080952Y-76726247D01*
X111080952Y-76726247D02*
X111080952Y-76964342D01*
X111080952Y-76964342D02*
X111033333Y-77059580D01*
X111033333Y-77059580D02*
X110985714Y-77107200D01*
X110985714Y-77107200D02*
X110890476Y-77154819D01*
X110890476Y-77154819D02*
X110604762Y-77154819D01*
X110604762Y-77154819D02*
X110509524Y-77107200D01*
X110509524Y-77107200D02*
X110461905Y-77059580D01*
X111366667Y-76154819D02*
X111700000Y-77154819D01*
X111700000Y-77154819D02*
X112033333Y-76154819D01*
X112271429Y-76154819D02*
X112890476Y-76154819D01*
X112890476Y-76154819D02*
X112557143Y-76535771D01*
X112557143Y-76535771D02*
X112700000Y-76535771D01*
X112700000Y-76535771D02*
X112795238Y-76583390D01*
X112795238Y-76583390D02*
X112842857Y-76631009D01*
X112842857Y-76631009D02*
X112890476Y-76726247D01*
X112890476Y-76726247D02*
X112890476Y-76964342D01*
X112890476Y-76964342D02*
X112842857Y-77059580D01*
X112842857Y-77059580D02*
X112795238Y-77107200D01*
X112795238Y-77107200D02*
X112700000Y-77154819D01*
X112700000Y-77154819D02*
X112414286Y-77154819D01*
X112414286Y-77154819D02*
X112319048Y-77107200D01*
X112319048Y-77107200D02*
X112271429Y-77059580D01*
X92733333Y-43854819D02*
X92733333Y-42854819D01*
X92733333Y-42854819D02*
X93114285Y-42854819D01*
X93114285Y-42854819D02*
X93209523Y-42902438D01*
X93209523Y-42902438D02*
X93257142Y-42950057D01*
X93257142Y-42950057D02*
X93304761Y-43045295D01*
X93304761Y-43045295D02*
X93304761Y-43188152D01*
X93304761Y-43188152D02*
X93257142Y-43283390D01*
X93257142Y-43283390D02*
X93209523Y-43331009D01*
X93209523Y-43331009D02*
X93114285Y-43378628D01*
X93114285Y-43378628D02*
X92733333Y-43378628D01*
X93685714Y-43569104D02*
X94161904Y-43569104D01*
X93590476Y-43854819D02*
X93923809Y-42854819D01*
X93923809Y-42854819D02*
X94257142Y-43854819D01*
X94542857Y-42950057D02*
X94590476Y-42902438D01*
X94590476Y-42902438D02*
X94685714Y-42854819D01*
X94685714Y-42854819D02*
X94923809Y-42854819D01*
X94923809Y-42854819D02*
X95019047Y-42902438D01*
X95019047Y-42902438D02*
X95066666Y-42950057D01*
X95066666Y-42950057D02*
X95114285Y-43045295D01*
X95114285Y-43045295D02*
X95114285Y-43140533D01*
X95114285Y-43140533D02*
X95066666Y-43283390D01*
X95066666Y-43283390D02*
X94495238Y-43854819D01*
X94495238Y-43854819D02*
X95114285Y-43854819D01*
X125380952Y-39204819D02*
X125380952Y-39919104D01*
X125380952Y-39919104D02*
X125333333Y-40061961D01*
X125333333Y-40061961D02*
X125238095Y-40157200D01*
X125238095Y-40157200D02*
X125095238Y-40204819D01*
X125095238Y-40204819D02*
X125000000Y-40204819D01*
X125619048Y-40300057D02*
X126380952Y-40300057D01*
X127095238Y-40204819D02*
X126619048Y-40204819D01*
X126619048Y-40204819D02*
X126619048Y-39204819D01*
X127333334Y-39204819D02*
X127952381Y-39204819D01*
X127952381Y-39204819D02*
X127619048Y-39585771D01*
X127619048Y-39585771D02*
X127761905Y-39585771D01*
X127761905Y-39585771D02*
X127857143Y-39633390D01*
X127857143Y-39633390D02*
X127904762Y-39681009D01*
X127904762Y-39681009D02*
X127952381Y-39776247D01*
X127952381Y-39776247D02*
X127952381Y-40014342D01*
X127952381Y-40014342D02*
X127904762Y-40109580D01*
X127904762Y-40109580D02*
X127857143Y-40157200D01*
X127857143Y-40157200D02*
X127761905Y-40204819D01*
X127761905Y-40204819D02*
X127476191Y-40204819D01*
X127476191Y-40204819D02*
X127380953Y-40157200D01*
X127380953Y-40157200D02*
X127333334Y-40109580D01*
X111981009Y-100095237D02*
X112028628Y-99952380D01*
X112028628Y-99952380D02*
X112076247Y-99904761D01*
X112076247Y-99904761D02*
X112171485Y-99857142D01*
X112171485Y-99857142D02*
X112314342Y-99857142D01*
X112314342Y-99857142D02*
X112409580Y-99904761D01*
X112409580Y-99904761D02*
X112457200Y-99952380D01*
X112457200Y-99952380D02*
X112504819Y-100047618D01*
X112504819Y-100047618D02*
X112504819Y-100428570D01*
X112504819Y-100428570D02*
X111504819Y-100428570D01*
X111504819Y-100428570D02*
X111504819Y-100095237D01*
X111504819Y-100095237D02*
X111552438Y-99999999D01*
X111552438Y-99999999D02*
X111600057Y-99952380D01*
X111600057Y-99952380D02*
X111695295Y-99904761D01*
X111695295Y-99904761D02*
X111790533Y-99904761D01*
X111790533Y-99904761D02*
X111885771Y-99952380D01*
X111885771Y-99952380D02*
X111933390Y-99999999D01*
X111933390Y-99999999D02*
X111981009Y-100095237D01*
X111981009Y-100095237D02*
X111981009Y-100428570D01*
X112504819Y-99428570D02*
X111838152Y-99428570D01*
X111504819Y-99428570D02*
X111552438Y-99476189D01*
X111552438Y-99476189D02*
X111600057Y-99428570D01*
X111600057Y-99428570D02*
X111552438Y-99380951D01*
X111552438Y-99380951D02*
X111504819Y-99428570D01*
X111504819Y-99428570D02*
X111600057Y-99428570D01*
X111838152Y-98952380D02*
X112504819Y-98952380D01*
X111933390Y-98952380D02*
X111885771Y-98904761D01*
X111885771Y-98904761D02*
X111838152Y-98809523D01*
X111838152Y-98809523D02*
X111838152Y-98666666D01*
X111838152Y-98666666D02*
X111885771Y-98571428D01*
X111885771Y-98571428D02*
X111981009Y-98523809D01*
X111981009Y-98523809D02*
X112504819Y-98523809D01*
X112504819Y-97523809D02*
X112504819Y-98095237D01*
X112504819Y-97809523D02*
X111504819Y-97809523D01*
X111504819Y-97809523D02*
X111647676Y-97904761D01*
X111647676Y-97904761D02*
X111742914Y-97999999D01*
X111742914Y-97999999D02*
X111790533Y-98095237D01*
X108214285Y-56554819D02*
X107880952Y-56078628D01*
X107642857Y-56554819D02*
X107642857Y-55554819D01*
X107642857Y-55554819D02*
X108023809Y-55554819D01*
X108023809Y-55554819D02*
X108119047Y-55602438D01*
X108119047Y-55602438D02*
X108166666Y-55650057D01*
X108166666Y-55650057D02*
X108214285Y-55745295D01*
X108214285Y-55745295D02*
X108214285Y-55888152D01*
X108214285Y-55888152D02*
X108166666Y-55983390D01*
X108166666Y-55983390D02*
X108119047Y-56031009D01*
X108119047Y-56031009D02*
X108023809Y-56078628D01*
X108023809Y-56078628D02*
X107642857Y-56078628D01*
X108404762Y-56650057D02*
X109166666Y-56650057D01*
X109404762Y-56554819D02*
X109404762Y-55554819D01*
X109404762Y-55554819D02*
X109785714Y-55554819D01*
X109785714Y-55554819D02*
X109880952Y-55602438D01*
X109880952Y-55602438D02*
X109928571Y-55650057D01*
X109928571Y-55650057D02*
X109976190Y-55745295D01*
X109976190Y-55745295D02*
X109976190Y-55888152D01*
X109976190Y-55888152D02*
X109928571Y-55983390D01*
X109928571Y-55983390D02*
X109880952Y-56031009D01*
X109880952Y-56031009D02*
X109785714Y-56078628D01*
X109785714Y-56078628D02*
X109404762Y-56078628D01*
X110261905Y-55888152D02*
X110642857Y-55888152D01*
X110404762Y-56554819D02*
X110404762Y-55697676D01*
X110404762Y-55697676D02*
X110452381Y-55602438D01*
X110452381Y-55602438D02*
X110547619Y-55554819D01*
X110547619Y-55554819D02*
X110642857Y-55554819D01*
X110976191Y-56554819D02*
X110976191Y-55554819D01*
X110976191Y-55935771D02*
X111071429Y-55888152D01*
X111071429Y-55888152D02*
X111261905Y-55888152D01*
X111261905Y-55888152D02*
X111357143Y-55935771D01*
X111357143Y-55935771D02*
X111404762Y-55983390D01*
X111404762Y-55983390D02*
X111452381Y-56078628D01*
X111452381Y-56078628D02*
X111452381Y-56364342D01*
X111452381Y-56364342D02*
X111404762Y-56459580D01*
X111404762Y-56459580D02*
X111357143Y-56507200D01*
X111357143Y-56507200D02*
X111261905Y-56554819D01*
X111261905Y-56554819D02*
X111071429Y-56554819D01*
X111071429Y-56554819D02*
X110976191Y-56507200D01*
X111833334Y-55650057D02*
X111880953Y-55602438D01*
X111880953Y-55602438D02*
X111976191Y-55554819D01*
X111976191Y-55554819D02*
X112214286Y-55554819D01*
X112214286Y-55554819D02*
X112309524Y-55602438D01*
X112309524Y-55602438D02*
X112357143Y-55650057D01*
X112357143Y-55650057D02*
X112404762Y-55745295D01*
X112404762Y-55745295D02*
X112404762Y-55840533D01*
X112404762Y-55840533D02*
X112357143Y-55983390D01*
X112357143Y-55983390D02*
X111785715Y-56554819D01*
X111785715Y-56554819D02*
X112404762Y-56554819D01*
X117130952Y-41704819D02*
X117130952Y-42419104D01*
X117130952Y-42419104D02*
X117083333Y-42561961D01*
X117083333Y-42561961D02*
X116988095Y-42657200D01*
X116988095Y-42657200D02*
X116845238Y-42704819D01*
X116845238Y-42704819D02*
X116750000Y-42704819D01*
X117369048Y-42800057D02*
X118130952Y-42800057D01*
X118845238Y-42704819D02*
X118369048Y-42704819D01*
X118369048Y-42704819D02*
X118369048Y-41704819D01*
X119130953Y-41800057D02*
X119178572Y-41752438D01*
X119178572Y-41752438D02*
X119273810Y-41704819D01*
X119273810Y-41704819D02*
X119511905Y-41704819D01*
X119511905Y-41704819D02*
X119607143Y-41752438D01*
X119607143Y-41752438D02*
X119654762Y-41800057D01*
X119654762Y-41800057D02*
X119702381Y-41895295D01*
X119702381Y-41895295D02*
X119702381Y-41990533D01*
X119702381Y-41990533D02*
X119654762Y-42133390D01*
X119654762Y-42133390D02*
X119083334Y-42704819D01*
X119083334Y-42704819D02*
X119702381Y-42704819D01*
X107261905Y-49804819D02*
X107261905Y-48804819D01*
X107261905Y-48804819D02*
X107642857Y-48804819D01*
X107642857Y-48804819D02*
X107738095Y-48852438D01*
X107738095Y-48852438D02*
X107785714Y-48900057D01*
X107785714Y-48900057D02*
X107833333Y-48995295D01*
X107833333Y-48995295D02*
X107833333Y-49138152D01*
X107833333Y-49138152D02*
X107785714Y-49233390D01*
X107785714Y-49233390D02*
X107738095Y-49281009D01*
X107738095Y-49281009D02*
X107642857Y-49328628D01*
X107642857Y-49328628D02*
X107261905Y-49328628D01*
X108214286Y-48900057D02*
X108261905Y-48852438D01*
X108261905Y-48852438D02*
X108357143Y-48804819D01*
X108357143Y-48804819D02*
X108595238Y-48804819D01*
X108595238Y-48804819D02*
X108690476Y-48852438D01*
X108690476Y-48852438D02*
X108738095Y-48900057D01*
X108738095Y-48900057D02*
X108785714Y-48995295D01*
X108785714Y-48995295D02*
X108785714Y-49090533D01*
X108785714Y-49090533D02*
X108738095Y-49233390D01*
X108738095Y-49233390D02*
X108166667Y-49804819D01*
X108166667Y-49804819D02*
X108785714Y-49804819D01*
X104933333Y-43954819D02*
X104933333Y-42954819D01*
X104933333Y-42954819D02*
X105314285Y-42954819D01*
X105314285Y-42954819D02*
X105409523Y-43002438D01*
X105409523Y-43002438D02*
X105457142Y-43050057D01*
X105457142Y-43050057D02*
X105504761Y-43145295D01*
X105504761Y-43145295D02*
X105504761Y-43288152D01*
X105504761Y-43288152D02*
X105457142Y-43383390D01*
X105457142Y-43383390D02*
X105409523Y-43431009D01*
X105409523Y-43431009D02*
X105314285Y-43478628D01*
X105314285Y-43478628D02*
X104933333Y-43478628D01*
X105885714Y-43669104D02*
X106361904Y-43669104D01*
X105790476Y-43954819D02*
X106123809Y-42954819D01*
X106123809Y-42954819D02*
X106457142Y-43954819D01*
X107314285Y-43954819D02*
X106742857Y-43954819D01*
X107028571Y-43954819D02*
X107028571Y-42954819D01*
X107028571Y-42954819D02*
X106933333Y-43097676D01*
X106933333Y-43097676D02*
X106838095Y-43192914D01*
X106838095Y-43192914D02*
X106742857Y-43240533D01*
X141124285Y-75771009D02*
X141267142Y-75818628D01*
X141267142Y-75818628D02*
X141314761Y-75866247D01*
X141314761Y-75866247D02*
X141362380Y-75961485D01*
X141362380Y-75961485D02*
X141362380Y-76104342D01*
X141362380Y-76104342D02*
X141314761Y-76199580D01*
X141314761Y-76199580D02*
X141267142Y-76247200D01*
X141267142Y-76247200D02*
X141171904Y-76294819D01*
X141171904Y-76294819D02*
X140790952Y-76294819D01*
X140790952Y-76294819D02*
X140790952Y-75294819D01*
X140790952Y-75294819D02*
X141124285Y-75294819D01*
X141124285Y-75294819D02*
X141219523Y-75342438D01*
X141219523Y-75342438D02*
X141267142Y-75390057D01*
X141267142Y-75390057D02*
X141314761Y-75485295D01*
X141314761Y-75485295D02*
X141314761Y-75580533D01*
X141314761Y-75580533D02*
X141267142Y-75675771D01*
X141267142Y-75675771D02*
X141219523Y-75723390D01*
X141219523Y-75723390D02*
X141124285Y-75771009D01*
X141124285Y-75771009D02*
X140790952Y-75771009D01*
X141552857Y-76390057D02*
X142314761Y-76390057D01*
X142552857Y-76294819D02*
X142552857Y-75294819D01*
X142552857Y-75294819D02*
X142790952Y-75294819D01*
X142790952Y-75294819D02*
X142933809Y-75342438D01*
X142933809Y-75342438D02*
X143029047Y-75437676D01*
X143029047Y-75437676D02*
X143076666Y-75532914D01*
X143076666Y-75532914D02*
X143124285Y-75723390D01*
X143124285Y-75723390D02*
X143124285Y-75866247D01*
X143124285Y-75866247D02*
X143076666Y-76056723D01*
X143076666Y-76056723D02*
X143029047Y-76151961D01*
X143029047Y-76151961D02*
X142933809Y-76247200D01*
X142933809Y-76247200D02*
X142790952Y-76294819D01*
X142790952Y-76294819D02*
X142552857Y-76294819D01*
X143457619Y-75294819D02*
X144076666Y-75294819D01*
X144076666Y-75294819D02*
X143743333Y-75675771D01*
X143743333Y-75675771D02*
X143886190Y-75675771D01*
X143886190Y-75675771D02*
X143981428Y-75723390D01*
X143981428Y-75723390D02*
X144029047Y-75771009D01*
X144029047Y-75771009D02*
X144076666Y-75866247D01*
X144076666Y-75866247D02*
X144076666Y-76104342D01*
X144076666Y-76104342D02*
X144029047Y-76199580D01*
X144029047Y-76199580D02*
X143981428Y-76247200D01*
X143981428Y-76247200D02*
X143886190Y-76294819D01*
X143886190Y-76294819D02*
X143600476Y-76294819D01*
X143600476Y-76294819D02*
X143505238Y-76247200D01*
X143505238Y-76247200D02*
X143457619Y-76199580D01*
X143464819Y-71310357D02*
X142988628Y-71643690D01*
X143464819Y-71881785D02*
X142464819Y-71881785D01*
X142464819Y-71881785D02*
X142464819Y-71500833D01*
X142464819Y-71500833D02*
X142512438Y-71405595D01*
X142512438Y-71405595D02*
X142560057Y-71357976D01*
X142560057Y-71357976D02*
X142655295Y-71310357D01*
X142655295Y-71310357D02*
X142798152Y-71310357D01*
X142798152Y-71310357D02*
X142893390Y-71357976D01*
X142893390Y-71357976D02*
X142941009Y-71405595D01*
X142941009Y-71405595D02*
X142988628Y-71500833D01*
X142988628Y-71500833D02*
X142988628Y-71881785D01*
X142560057Y-70929404D02*
X142512438Y-70881785D01*
X142512438Y-70881785D02*
X142464819Y-70786547D01*
X142464819Y-70786547D02*
X142464819Y-70548452D01*
X142464819Y-70548452D02*
X142512438Y-70453214D01*
X142512438Y-70453214D02*
X142560057Y-70405595D01*
X142560057Y-70405595D02*
X142655295Y-70357976D01*
X142655295Y-70357976D02*
X142750533Y-70357976D01*
X142750533Y-70357976D02*
X142893390Y-70405595D01*
X142893390Y-70405595D02*
X143464819Y-70977023D01*
X143464819Y-70977023D02*
X143464819Y-70357976D01*
X143464819Y-69405595D02*
X143464819Y-69977023D01*
X143464819Y-69691309D02*
X142464819Y-69691309D01*
X142464819Y-69691309D02*
X142607676Y-69786547D01*
X142607676Y-69786547D02*
X142702914Y-69881785D01*
X142702914Y-69881785D02*
X142750533Y-69977023D01*
X98761905Y-48754819D02*
X98761905Y-47754819D01*
X98761905Y-47754819D02*
X99142857Y-47754819D01*
X99142857Y-47754819D02*
X99238095Y-47802438D01*
X99238095Y-47802438D02*
X99285714Y-47850057D01*
X99285714Y-47850057D02*
X99333333Y-47945295D01*
X99333333Y-47945295D02*
X99333333Y-48088152D01*
X99333333Y-48088152D02*
X99285714Y-48183390D01*
X99285714Y-48183390D02*
X99238095Y-48231009D01*
X99238095Y-48231009D02*
X99142857Y-48278628D01*
X99142857Y-48278628D02*
X98761905Y-48278628D01*
X99666667Y-47754819D02*
X100285714Y-47754819D01*
X100285714Y-47754819D02*
X99952381Y-48135771D01*
X99952381Y-48135771D02*
X100095238Y-48135771D01*
X100095238Y-48135771D02*
X100190476Y-48183390D01*
X100190476Y-48183390D02*
X100238095Y-48231009D01*
X100238095Y-48231009D02*
X100285714Y-48326247D01*
X100285714Y-48326247D02*
X100285714Y-48564342D01*
X100285714Y-48564342D02*
X100238095Y-48659580D01*
X100238095Y-48659580D02*
X100190476Y-48707200D01*
X100190476Y-48707200D02*
X100095238Y-48754819D01*
X100095238Y-48754819D02*
X99809524Y-48754819D01*
X99809524Y-48754819D02*
X99714286Y-48707200D01*
X99714286Y-48707200D02*
X99666667Y-48659580D01*
X107962380Y-65709580D02*
X107914761Y-65757200D01*
X107914761Y-65757200D02*
X107771904Y-65804819D01*
X107771904Y-65804819D02*
X107676666Y-65804819D01*
X107676666Y-65804819D02*
X107533809Y-65757200D01*
X107533809Y-65757200D02*
X107438571Y-65661961D01*
X107438571Y-65661961D02*
X107390952Y-65566723D01*
X107390952Y-65566723D02*
X107343333Y-65376247D01*
X107343333Y-65376247D02*
X107343333Y-65233390D01*
X107343333Y-65233390D02*
X107390952Y-65042914D01*
X107390952Y-65042914D02*
X107438571Y-64947676D01*
X107438571Y-64947676D02*
X107533809Y-64852438D01*
X107533809Y-64852438D02*
X107676666Y-64804819D01*
X107676666Y-64804819D02*
X107771904Y-64804819D01*
X107771904Y-64804819D02*
X107914761Y-64852438D01*
X107914761Y-64852438D02*
X107962380Y-64900057D01*
X108152857Y-65900057D02*
X108914761Y-65900057D01*
X109152857Y-65804819D02*
X109152857Y-64804819D01*
X109152857Y-64804819D02*
X109533809Y-64804819D01*
X109533809Y-64804819D02*
X109629047Y-64852438D01*
X109629047Y-64852438D02*
X109676666Y-64900057D01*
X109676666Y-64900057D02*
X109724285Y-64995295D01*
X109724285Y-64995295D02*
X109724285Y-65138152D01*
X109724285Y-65138152D02*
X109676666Y-65233390D01*
X109676666Y-65233390D02*
X109629047Y-65281009D01*
X109629047Y-65281009D02*
X109533809Y-65328628D01*
X109533809Y-65328628D02*
X109152857Y-65328628D01*
X110581428Y-64804819D02*
X110390952Y-64804819D01*
X110390952Y-64804819D02*
X110295714Y-64852438D01*
X110295714Y-64852438D02*
X110248095Y-64900057D01*
X110248095Y-64900057D02*
X110152857Y-65042914D01*
X110152857Y-65042914D02*
X110105238Y-65233390D01*
X110105238Y-65233390D02*
X110105238Y-65614342D01*
X110105238Y-65614342D02*
X110152857Y-65709580D01*
X110152857Y-65709580D02*
X110200476Y-65757200D01*
X110200476Y-65757200D02*
X110295714Y-65804819D01*
X110295714Y-65804819D02*
X110486190Y-65804819D01*
X110486190Y-65804819D02*
X110581428Y-65757200D01*
X110581428Y-65757200D02*
X110629047Y-65709580D01*
X110629047Y-65709580D02*
X110676666Y-65614342D01*
X110676666Y-65614342D02*
X110676666Y-65376247D01*
X110676666Y-65376247D02*
X110629047Y-65281009D01*
X110629047Y-65281009D02*
X110581428Y-65233390D01*
X110581428Y-65233390D02*
X110486190Y-65185771D01*
X110486190Y-65185771D02*
X110295714Y-65185771D01*
X110295714Y-65185771D02*
X110200476Y-65233390D01*
X110200476Y-65233390D02*
X110152857Y-65281009D01*
X110152857Y-65281009D02*
X110105238Y-65376247D01*
X127469047Y-88341009D02*
X127611904Y-88388628D01*
X127611904Y-88388628D02*
X127659523Y-88436247D01*
X127659523Y-88436247D02*
X127707142Y-88531485D01*
X127707142Y-88531485D02*
X127707142Y-88674342D01*
X127707142Y-88674342D02*
X127659523Y-88769580D01*
X127659523Y-88769580D02*
X127611904Y-88817200D01*
X127611904Y-88817200D02*
X127516666Y-88864819D01*
X127516666Y-88864819D02*
X127135714Y-88864819D01*
X127135714Y-88864819D02*
X127135714Y-87864819D01*
X127135714Y-87864819D02*
X127469047Y-87864819D01*
X127469047Y-87864819D02*
X127564285Y-87912438D01*
X127564285Y-87912438D02*
X127611904Y-87960057D01*
X127611904Y-87960057D02*
X127659523Y-88055295D01*
X127659523Y-88055295D02*
X127659523Y-88150533D01*
X127659523Y-88150533D02*
X127611904Y-88245771D01*
X127611904Y-88245771D02*
X127564285Y-88293390D01*
X127564285Y-88293390D02*
X127469047Y-88341009D01*
X127469047Y-88341009D02*
X127135714Y-88341009D01*
X128088095Y-88817200D02*
X128230952Y-88864819D01*
X128230952Y-88864819D02*
X128469047Y-88864819D01*
X128469047Y-88864819D02*
X128564285Y-88817200D01*
X128564285Y-88817200D02*
X128611904Y-88769580D01*
X128611904Y-88769580D02*
X128659523Y-88674342D01*
X128659523Y-88674342D02*
X128659523Y-88579104D01*
X128659523Y-88579104D02*
X128611904Y-88483866D01*
X128611904Y-88483866D02*
X128564285Y-88436247D01*
X128564285Y-88436247D02*
X128469047Y-88388628D01*
X128469047Y-88388628D02*
X128278571Y-88341009D01*
X128278571Y-88341009D02*
X128183333Y-88293390D01*
X128183333Y-88293390D02*
X128135714Y-88245771D01*
X128135714Y-88245771D02*
X128088095Y-88150533D01*
X128088095Y-88150533D02*
X128088095Y-88055295D01*
X128088095Y-88055295D02*
X128135714Y-87960057D01*
X128135714Y-87960057D02*
X128183333Y-87912438D01*
X128183333Y-87912438D02*
X128278571Y-87864819D01*
X128278571Y-87864819D02*
X128516666Y-87864819D01*
X128516666Y-87864819D02*
X128659523Y-87912438D01*
X129611904Y-88864819D02*
X129040476Y-88864819D01*
X129326190Y-88864819D02*
X129326190Y-87864819D01*
X129326190Y-87864819D02*
X129230952Y-88007676D01*
X129230952Y-88007676D02*
X129135714Y-88102914D01*
X129135714Y-88102914D02*
X129040476Y-88150533D01*
X104411905Y-64314819D02*
X104411905Y-63314819D01*
X104411905Y-63314819D02*
X104792857Y-63314819D01*
X104792857Y-63314819D02*
X104888095Y-63362438D01*
X104888095Y-63362438D02*
X104935714Y-63410057D01*
X104935714Y-63410057D02*
X104983333Y-63505295D01*
X104983333Y-63505295D02*
X104983333Y-63648152D01*
X104983333Y-63648152D02*
X104935714Y-63743390D01*
X104935714Y-63743390D02*
X104888095Y-63791009D01*
X104888095Y-63791009D02*
X104792857Y-63838628D01*
X104792857Y-63838628D02*
X104411905Y-63838628D01*
X105745238Y-63791009D02*
X105888095Y-63838628D01*
X105888095Y-63838628D02*
X105935714Y-63886247D01*
X105935714Y-63886247D02*
X105983333Y-63981485D01*
X105983333Y-63981485D02*
X105983333Y-64124342D01*
X105983333Y-64124342D02*
X105935714Y-64219580D01*
X105935714Y-64219580D02*
X105888095Y-64267200D01*
X105888095Y-64267200D02*
X105792857Y-64314819D01*
X105792857Y-64314819D02*
X105411905Y-64314819D01*
X105411905Y-64314819D02*
X105411905Y-63314819D01*
X105411905Y-63314819D02*
X105745238Y-63314819D01*
X105745238Y-63314819D02*
X105840476Y-63362438D01*
X105840476Y-63362438D02*
X105888095Y-63410057D01*
X105888095Y-63410057D02*
X105935714Y-63505295D01*
X105935714Y-63505295D02*
X105935714Y-63600533D01*
X105935714Y-63600533D02*
X105888095Y-63695771D01*
X105888095Y-63695771D02*
X105840476Y-63743390D01*
X105840476Y-63743390D02*
X105745238Y-63791009D01*
X105745238Y-63791009D02*
X105411905Y-63791009D01*
X106364286Y-63410057D02*
X106411905Y-63362438D01*
X106411905Y-63362438D02*
X106507143Y-63314819D01*
X106507143Y-63314819D02*
X106745238Y-63314819D01*
X106745238Y-63314819D02*
X106840476Y-63362438D01*
X106840476Y-63362438D02*
X106888095Y-63410057D01*
X106888095Y-63410057D02*
X106935714Y-63505295D01*
X106935714Y-63505295D02*
X106935714Y-63600533D01*
X106935714Y-63600533D02*
X106888095Y-63743390D01*
X106888095Y-63743390D02*
X106316667Y-64314819D01*
X106316667Y-64314819D02*
X106935714Y-64314819D01*
X125802381Y-53454819D02*
X126373809Y-53454819D01*
X126088095Y-54454819D02*
X126088095Y-53454819D01*
X126469048Y-54550057D02*
X127230952Y-54550057D01*
X127945238Y-54454819D02*
X127469048Y-54454819D01*
X127469048Y-54454819D02*
X127469048Y-53454819D01*
X128230953Y-53550057D02*
X128278572Y-53502438D01*
X128278572Y-53502438D02*
X128373810Y-53454819D01*
X128373810Y-53454819D02*
X128611905Y-53454819D01*
X128611905Y-53454819D02*
X128707143Y-53502438D01*
X128707143Y-53502438D02*
X128754762Y-53550057D01*
X128754762Y-53550057D02*
X128802381Y-53645295D01*
X128802381Y-53645295D02*
X128802381Y-53740533D01*
X128802381Y-53740533D02*
X128754762Y-53883390D01*
X128754762Y-53883390D02*
X128183334Y-54454819D01*
X128183334Y-54454819D02*
X128802381Y-54454819D01*
X124607618Y-82631009D02*
X124750475Y-82678628D01*
X124750475Y-82678628D02*
X124798094Y-82726247D01*
X124798094Y-82726247D02*
X124845713Y-82821485D01*
X124845713Y-82821485D02*
X124845713Y-82964342D01*
X124845713Y-82964342D02*
X124798094Y-83059580D01*
X124798094Y-83059580D02*
X124750475Y-83107200D01*
X124750475Y-83107200D02*
X124655237Y-83154819D01*
X124655237Y-83154819D02*
X124274285Y-83154819D01*
X124274285Y-83154819D02*
X124274285Y-82154819D01*
X124274285Y-82154819D02*
X124607618Y-82154819D01*
X124607618Y-82154819D02*
X124702856Y-82202438D01*
X124702856Y-82202438D02*
X124750475Y-82250057D01*
X124750475Y-82250057D02*
X124798094Y-82345295D01*
X124798094Y-82345295D02*
X124798094Y-82440533D01*
X124798094Y-82440533D02*
X124750475Y-82535771D01*
X124750475Y-82535771D02*
X124702856Y-82583390D01*
X124702856Y-82583390D02*
X124607618Y-82631009D01*
X124607618Y-82631009D02*
X124274285Y-82631009D01*
X125036190Y-83250057D02*
X125798094Y-83250057D01*
X126036190Y-82488152D02*
X126036190Y-83488152D01*
X126036190Y-82535771D02*
X126131428Y-82488152D01*
X126131428Y-82488152D02*
X126321904Y-82488152D01*
X126321904Y-82488152D02*
X126417142Y-82535771D01*
X126417142Y-82535771D02*
X126464761Y-82583390D01*
X126464761Y-82583390D02*
X126512380Y-82678628D01*
X126512380Y-82678628D02*
X126512380Y-82964342D01*
X126512380Y-82964342D02*
X126464761Y-83059580D01*
X126464761Y-83059580D02*
X126417142Y-83107200D01*
X126417142Y-83107200D02*
X126321904Y-83154819D01*
X126321904Y-83154819D02*
X126131428Y-83154819D01*
X126131428Y-83154819D02*
X126036190Y-83107200D01*
X126940952Y-83154819D02*
X126940952Y-82488152D01*
X126940952Y-82678628D02*
X126988571Y-82583390D01*
X126988571Y-82583390D02*
X127036190Y-82535771D01*
X127036190Y-82535771D02*
X127131428Y-82488152D01*
X127131428Y-82488152D02*
X127226666Y-82488152D01*
X127702857Y-83154819D02*
X127607619Y-83107200D01*
X127607619Y-83107200D02*
X127560000Y-83059580D01*
X127560000Y-83059580D02*
X127512381Y-82964342D01*
X127512381Y-82964342D02*
X127512381Y-82678628D01*
X127512381Y-82678628D02*
X127560000Y-82583390D01*
X127560000Y-82583390D02*
X127607619Y-82535771D01*
X127607619Y-82535771D02*
X127702857Y-82488152D01*
X127702857Y-82488152D02*
X127845714Y-82488152D01*
X127845714Y-82488152D02*
X127940952Y-82535771D01*
X127940952Y-82535771D02*
X127988571Y-82583390D01*
X127988571Y-82583390D02*
X128036190Y-82678628D01*
X128036190Y-82678628D02*
X128036190Y-82964342D01*
X128036190Y-82964342D02*
X127988571Y-83059580D01*
X127988571Y-83059580D02*
X127940952Y-83107200D01*
X127940952Y-83107200D02*
X127845714Y-83154819D01*
X127845714Y-83154819D02*
X127702857Y-83154819D01*
X128893333Y-82488152D02*
X128893333Y-83297676D01*
X128893333Y-83297676D02*
X128845714Y-83392914D01*
X128845714Y-83392914D02*
X128798095Y-83440533D01*
X128798095Y-83440533D02*
X128702857Y-83488152D01*
X128702857Y-83488152D02*
X128560000Y-83488152D01*
X128560000Y-83488152D02*
X128464762Y-83440533D01*
X128893333Y-83107200D02*
X128798095Y-83154819D01*
X128798095Y-83154819D02*
X128607619Y-83154819D01*
X128607619Y-83154819D02*
X128512381Y-83107200D01*
X128512381Y-83107200D02*
X128464762Y-83059580D01*
X128464762Y-83059580D02*
X128417143Y-82964342D01*
X128417143Y-82964342D02*
X128417143Y-82678628D01*
X128417143Y-82678628D02*
X128464762Y-82583390D01*
X128464762Y-82583390D02*
X128512381Y-82535771D01*
X128512381Y-82535771D02*
X128607619Y-82488152D01*
X128607619Y-82488152D02*
X128798095Y-82488152D01*
X128798095Y-82488152D02*
X128893333Y-82535771D01*
X129893333Y-83154819D02*
X129321905Y-83154819D01*
X129607619Y-83154819D02*
X129607619Y-82154819D01*
X129607619Y-82154819D02*
X129512381Y-82297676D01*
X129512381Y-82297676D02*
X129417143Y-82392914D01*
X129417143Y-82392914D02*
X129321905Y-82440533D01*
X94790476Y-39954819D02*
X94790476Y-38954819D01*
X94790476Y-38954819D02*
X95123809Y-39669104D01*
X95123809Y-39669104D02*
X95457142Y-38954819D01*
X95457142Y-38954819D02*
X95457142Y-39954819D01*
X96266666Y-39431009D02*
X96409523Y-39478628D01*
X96409523Y-39478628D02*
X96457142Y-39526247D01*
X96457142Y-39526247D02*
X96504761Y-39621485D01*
X96504761Y-39621485D02*
X96504761Y-39764342D01*
X96504761Y-39764342D02*
X96457142Y-39859580D01*
X96457142Y-39859580D02*
X96409523Y-39907200D01*
X96409523Y-39907200D02*
X96314285Y-39954819D01*
X96314285Y-39954819D02*
X95933333Y-39954819D01*
X95933333Y-39954819D02*
X95933333Y-38954819D01*
X95933333Y-38954819D02*
X96266666Y-38954819D01*
X96266666Y-38954819D02*
X96361904Y-39002438D01*
X96361904Y-39002438D02*
X96409523Y-39050057D01*
X96409523Y-39050057D02*
X96457142Y-39145295D01*
X96457142Y-39145295D02*
X96457142Y-39240533D01*
X96457142Y-39240533D02*
X96409523Y-39335771D01*
X96409523Y-39335771D02*
X96361904Y-39383390D01*
X96361904Y-39383390D02*
X96266666Y-39431009D01*
X96266666Y-39431009D02*
X95933333Y-39431009D01*
X96885714Y-39050057D02*
X96933333Y-39002438D01*
X96933333Y-39002438D02*
X97028571Y-38954819D01*
X97028571Y-38954819D02*
X97266666Y-38954819D01*
X97266666Y-38954819D02*
X97361904Y-39002438D01*
X97361904Y-39002438D02*
X97409523Y-39050057D01*
X97409523Y-39050057D02*
X97457142Y-39145295D01*
X97457142Y-39145295D02*
X97457142Y-39240533D01*
X97457142Y-39240533D02*
X97409523Y-39383390D01*
X97409523Y-39383390D02*
X96838095Y-39954819D01*
X96838095Y-39954819D02*
X97457142Y-39954819D01*
X96052381Y-58554819D02*
X96623809Y-58554819D01*
X96338095Y-59554819D02*
X96338095Y-58554819D01*
X96957143Y-59554819D02*
X96957143Y-58554819D01*
X96957143Y-58554819D02*
X97338095Y-58554819D01*
X97338095Y-58554819D02*
X97433333Y-58602438D01*
X97433333Y-58602438D02*
X97480952Y-58650057D01*
X97480952Y-58650057D02*
X97528571Y-58745295D01*
X97528571Y-58745295D02*
X97528571Y-58888152D01*
X97528571Y-58888152D02*
X97480952Y-58983390D01*
X97480952Y-58983390D02*
X97433333Y-59031009D01*
X97433333Y-59031009D02*
X97338095Y-59078628D01*
X97338095Y-59078628D02*
X96957143Y-59078628D01*
X97719048Y-59650057D02*
X98480952Y-59650057D01*
X99195238Y-58554819D02*
X98719048Y-58554819D01*
X98719048Y-58554819D02*
X98671429Y-59031009D01*
X98671429Y-59031009D02*
X98719048Y-58983390D01*
X98719048Y-58983390D02*
X98814286Y-58935771D01*
X98814286Y-58935771D02*
X99052381Y-58935771D01*
X99052381Y-58935771D02*
X99147619Y-58983390D01*
X99147619Y-58983390D02*
X99195238Y-59031009D01*
X99195238Y-59031009D02*
X99242857Y-59126247D01*
X99242857Y-59126247D02*
X99242857Y-59364342D01*
X99242857Y-59364342D02*
X99195238Y-59459580D01*
X99195238Y-59459580D02*
X99147619Y-59507200D01*
X99147619Y-59507200D02*
X99052381Y-59554819D01*
X99052381Y-59554819D02*
X98814286Y-59554819D01*
X98814286Y-59554819D02*
X98719048Y-59507200D01*
X98719048Y-59507200D02*
X98671429Y-59459580D01*
X99528572Y-58554819D02*
X99861905Y-59554819D01*
X99861905Y-59554819D02*
X100195238Y-58554819D01*
X100719048Y-58554819D02*
X100814286Y-58554819D01*
X100814286Y-58554819D02*
X100909524Y-58602438D01*
X100909524Y-58602438D02*
X100957143Y-58650057D01*
X100957143Y-58650057D02*
X101004762Y-58745295D01*
X101004762Y-58745295D02*
X101052381Y-58935771D01*
X101052381Y-58935771D02*
X101052381Y-59173866D01*
X101052381Y-59173866D02*
X101004762Y-59364342D01*
X101004762Y-59364342D02*
X100957143Y-59459580D01*
X100957143Y-59459580D02*
X100909524Y-59507200D01*
X100909524Y-59507200D02*
X100814286Y-59554819D01*
X100814286Y-59554819D02*
X100719048Y-59554819D01*
X100719048Y-59554819D02*
X100623810Y-59507200D01*
X100623810Y-59507200D02*
X100576191Y-59459580D01*
X100576191Y-59459580D02*
X100528572Y-59364342D01*
X100528572Y-59364342D02*
X100480953Y-59173866D01*
X100480953Y-59173866D02*
X100480953Y-58935771D01*
X100480953Y-58935771D02*
X100528572Y-58745295D01*
X100528572Y-58745295D02*
X100576191Y-58650057D01*
X100576191Y-58650057D02*
X100623810Y-58602438D01*
X100623810Y-58602438D02*
X100719048Y-58554819D01*
X134604762Y-44354819D02*
X134604762Y-43354819D01*
X134604762Y-43354819D02*
X134938095Y-44069104D01*
X134938095Y-44069104D02*
X135271428Y-43354819D01*
X135271428Y-43354819D02*
X135271428Y-44354819D01*
X135509524Y-44450057D02*
X136271428Y-44450057D01*
X136414286Y-43354819D02*
X137033333Y-43354819D01*
X137033333Y-43354819D02*
X136700000Y-43735771D01*
X136700000Y-43735771D02*
X136842857Y-43735771D01*
X136842857Y-43735771D02*
X136938095Y-43783390D01*
X136938095Y-43783390D02*
X136985714Y-43831009D01*
X136985714Y-43831009D02*
X137033333Y-43926247D01*
X137033333Y-43926247D02*
X137033333Y-44164342D01*
X137033333Y-44164342D02*
X136985714Y-44259580D01*
X136985714Y-44259580D02*
X136938095Y-44307200D01*
X136938095Y-44307200D02*
X136842857Y-44354819D01*
X136842857Y-44354819D02*
X136557143Y-44354819D01*
X136557143Y-44354819D02*
X136461905Y-44307200D01*
X136461905Y-44307200D02*
X136414286Y-44259580D01*
X137319048Y-43354819D02*
X137652381Y-44354819D01*
X137652381Y-44354819D02*
X137985714Y-43354819D01*
X138223810Y-43354819D02*
X138842857Y-43354819D01*
X138842857Y-43354819D02*
X138509524Y-43735771D01*
X138509524Y-43735771D02*
X138652381Y-43735771D01*
X138652381Y-43735771D02*
X138747619Y-43783390D01*
X138747619Y-43783390D02*
X138795238Y-43831009D01*
X138795238Y-43831009D02*
X138842857Y-43926247D01*
X138842857Y-43926247D02*
X138842857Y-44164342D01*
X138842857Y-44164342D02*
X138795238Y-44259580D01*
X138795238Y-44259580D02*
X138747619Y-44307200D01*
X138747619Y-44307200D02*
X138652381Y-44354819D01*
X138652381Y-44354819D02*
X138366667Y-44354819D01*
X138366667Y-44354819D02*
X138271429Y-44307200D01*
X138271429Y-44307200D02*
X138223810Y-44259580D01*
X146414285Y-77731009D02*
X146557142Y-77778628D01*
X146557142Y-77778628D02*
X146604761Y-77826247D01*
X146604761Y-77826247D02*
X146652380Y-77921485D01*
X146652380Y-77921485D02*
X146652380Y-78064342D01*
X146652380Y-78064342D02*
X146604761Y-78159580D01*
X146604761Y-78159580D02*
X146557142Y-78207200D01*
X146557142Y-78207200D02*
X146461904Y-78254819D01*
X146461904Y-78254819D02*
X146080952Y-78254819D01*
X146080952Y-78254819D02*
X146080952Y-77254819D01*
X146080952Y-77254819D02*
X146414285Y-77254819D01*
X146414285Y-77254819D02*
X146509523Y-77302438D01*
X146509523Y-77302438D02*
X146557142Y-77350057D01*
X146557142Y-77350057D02*
X146604761Y-77445295D01*
X146604761Y-77445295D02*
X146604761Y-77540533D01*
X146604761Y-77540533D02*
X146557142Y-77635771D01*
X146557142Y-77635771D02*
X146509523Y-77683390D01*
X146509523Y-77683390D02*
X146414285Y-77731009D01*
X146414285Y-77731009D02*
X146080952Y-77731009D01*
X146842857Y-78350057D02*
X147604761Y-78350057D01*
X148366666Y-77302438D02*
X148271428Y-77254819D01*
X148271428Y-77254819D02*
X148128571Y-77254819D01*
X148128571Y-77254819D02*
X147985714Y-77302438D01*
X147985714Y-77302438D02*
X147890476Y-77397676D01*
X147890476Y-77397676D02*
X147842857Y-77492914D01*
X147842857Y-77492914D02*
X147795238Y-77683390D01*
X147795238Y-77683390D02*
X147795238Y-77826247D01*
X147795238Y-77826247D02*
X147842857Y-78016723D01*
X147842857Y-78016723D02*
X147890476Y-78111961D01*
X147890476Y-78111961D02*
X147985714Y-78207200D01*
X147985714Y-78207200D02*
X148128571Y-78254819D01*
X148128571Y-78254819D02*
X148223809Y-78254819D01*
X148223809Y-78254819D02*
X148366666Y-78207200D01*
X148366666Y-78207200D02*
X148414285Y-78159580D01*
X148414285Y-78159580D02*
X148414285Y-77826247D01*
X148414285Y-77826247D02*
X148223809Y-77826247D01*
X149366666Y-78254819D02*
X148795238Y-78254819D01*
X149080952Y-78254819D02*
X149080952Y-77254819D01*
X149080952Y-77254819D02*
X148985714Y-77397676D01*
X148985714Y-77397676D02*
X148890476Y-77492914D01*
X148890476Y-77492914D02*
X148795238Y-77540533D01*
X107754819Y-86252380D02*
X108469104Y-86252380D01*
X108469104Y-86252380D02*
X108611961Y-86299999D01*
X108611961Y-86299999D02*
X108707200Y-86395237D01*
X108707200Y-86395237D02*
X108754819Y-86538094D01*
X108754819Y-86538094D02*
X108754819Y-86633332D01*
X108850057Y-86014285D02*
X108850057Y-85252380D01*
X108754819Y-85014284D02*
X107754819Y-85014284D01*
X107754819Y-84633332D02*
X107754819Y-84014285D01*
X107754819Y-84014285D02*
X108135771Y-84347618D01*
X108135771Y-84347618D02*
X108135771Y-84204761D01*
X108135771Y-84204761D02*
X108183390Y-84109523D01*
X108183390Y-84109523D02*
X108231009Y-84061904D01*
X108231009Y-84061904D02*
X108326247Y-84014285D01*
X108326247Y-84014285D02*
X108564342Y-84014285D01*
X108564342Y-84014285D02*
X108659580Y-84061904D01*
X108659580Y-84061904D02*
X108707200Y-84109523D01*
X108707200Y-84109523D02*
X108754819Y-84204761D01*
X108754819Y-84204761D02*
X108754819Y-84490475D01*
X108754819Y-84490475D02*
X108707200Y-84585713D01*
X108707200Y-84585713D02*
X108659580Y-84633332D01*
X147164819Y-64848095D02*
X147879104Y-64848095D01*
X147879104Y-64848095D02*
X148021961Y-64895714D01*
X148021961Y-64895714D02*
X148117200Y-64990952D01*
X148117200Y-64990952D02*
X148164819Y-65133809D01*
X148164819Y-65133809D02*
X148164819Y-65229047D01*
X148164819Y-64371904D02*
X147164819Y-64371904D01*
X147164819Y-64371904D02*
X147164819Y-63990952D01*
X147164819Y-63990952D02*
X147212438Y-63895714D01*
X147212438Y-63895714D02*
X147260057Y-63848095D01*
X147260057Y-63848095D02*
X147355295Y-63800476D01*
X147355295Y-63800476D02*
X147498152Y-63800476D01*
X147498152Y-63800476D02*
X147593390Y-63848095D01*
X147593390Y-63848095D02*
X147641009Y-63895714D01*
X147641009Y-63895714D02*
X147688628Y-63990952D01*
X147688628Y-63990952D02*
X147688628Y-64371904D01*
X148260057Y-63610000D02*
X148260057Y-62848095D01*
X147641009Y-62276666D02*
X147688628Y-62133809D01*
X147688628Y-62133809D02*
X147736247Y-62086190D01*
X147736247Y-62086190D02*
X147831485Y-62038571D01*
X147831485Y-62038571D02*
X147974342Y-62038571D01*
X147974342Y-62038571D02*
X148069580Y-62086190D01*
X148069580Y-62086190D02*
X148117200Y-62133809D01*
X148117200Y-62133809D02*
X148164819Y-62229047D01*
X148164819Y-62229047D02*
X148164819Y-62609999D01*
X148164819Y-62609999D02*
X147164819Y-62609999D01*
X147164819Y-62609999D02*
X147164819Y-62276666D01*
X147164819Y-62276666D02*
X147212438Y-62181428D01*
X147212438Y-62181428D02*
X147260057Y-62133809D01*
X147260057Y-62133809D02*
X147355295Y-62086190D01*
X147355295Y-62086190D02*
X147450533Y-62086190D01*
X147450533Y-62086190D02*
X147545771Y-62133809D01*
X147545771Y-62133809D02*
X147593390Y-62181428D01*
X147593390Y-62181428D02*
X147641009Y-62276666D01*
X147641009Y-62276666D02*
X147641009Y-62609999D01*
X147641009Y-61276666D02*
X147688628Y-61133809D01*
X147688628Y-61133809D02*
X147736247Y-61086190D01*
X147736247Y-61086190D02*
X147831485Y-61038571D01*
X147831485Y-61038571D02*
X147974342Y-61038571D01*
X147974342Y-61038571D02*
X148069580Y-61086190D01*
X148069580Y-61086190D02*
X148117200Y-61133809D01*
X148117200Y-61133809D02*
X148164819Y-61229047D01*
X148164819Y-61229047D02*
X148164819Y-61609999D01*
X148164819Y-61609999D02*
X147164819Y-61609999D01*
X147164819Y-61609999D02*
X147164819Y-61276666D01*
X147164819Y-61276666D02*
X147212438Y-61181428D01*
X147212438Y-61181428D02*
X147260057Y-61133809D01*
X147260057Y-61133809D02*
X147355295Y-61086190D01*
X147355295Y-61086190D02*
X147450533Y-61086190D01*
X147450533Y-61086190D02*
X147545771Y-61133809D01*
X147545771Y-61133809D02*
X147593390Y-61181428D01*
X147593390Y-61181428D02*
X147641009Y-61276666D01*
X147641009Y-61276666D02*
X147641009Y-61609999D01*
X148164819Y-60181428D02*
X147641009Y-60181428D01*
X147641009Y-60181428D02*
X147545771Y-60229047D01*
X147545771Y-60229047D02*
X147498152Y-60324285D01*
X147498152Y-60324285D02*
X147498152Y-60514761D01*
X147498152Y-60514761D02*
X147545771Y-60609999D01*
X148117200Y-60181428D02*
X148164819Y-60276666D01*
X148164819Y-60276666D02*
X148164819Y-60514761D01*
X148164819Y-60514761D02*
X148117200Y-60609999D01*
X148117200Y-60609999D02*
X148021961Y-60657618D01*
X148021961Y-60657618D02*
X147926723Y-60657618D01*
X147926723Y-60657618D02*
X147831485Y-60609999D01*
X147831485Y-60609999D02*
X147783866Y-60514761D01*
X147783866Y-60514761D02*
X147783866Y-60276666D01*
X147783866Y-60276666D02*
X147736247Y-60181428D01*
X147498152Y-59848094D02*
X147498152Y-59467142D01*
X147164819Y-59705237D02*
X148021961Y-59705237D01*
X148021961Y-59705237D02*
X148117200Y-59657618D01*
X148117200Y-59657618D02*
X148164819Y-59562380D01*
X148164819Y-59562380D02*
X148164819Y-59467142D01*
X147498152Y-59276665D02*
X147498152Y-58895713D01*
X147164819Y-59133808D02*
X148021961Y-59133808D01*
X148021961Y-59133808D02*
X148117200Y-59086189D01*
X148117200Y-59086189D02*
X148164819Y-58990951D01*
X148164819Y-58990951D02*
X148164819Y-58895713D01*
X148164819Y-58038570D02*
X148164819Y-58609998D01*
X148164819Y-58324284D02*
X147164819Y-58324284D01*
X147164819Y-58324284D02*
X147307676Y-58419522D01*
X147307676Y-58419522D02*
X147402914Y-58514760D01*
X147402914Y-58514760D02*
X147450533Y-58609998D01*
X128354819Y-76080952D02*
X129069104Y-76080952D01*
X129069104Y-76080952D02*
X129211961Y-76128571D01*
X129211961Y-76128571D02*
X129307200Y-76223809D01*
X129307200Y-76223809D02*
X129354819Y-76366666D01*
X129354819Y-76366666D02*
X129354819Y-76461904D01*
X129354819Y-75604761D02*
X128354819Y-75604761D01*
X128354819Y-75604761D02*
X128354819Y-75223809D01*
X128354819Y-75223809D02*
X128402438Y-75128571D01*
X128402438Y-75128571D02*
X128450057Y-75080952D01*
X128450057Y-75080952D02*
X128545295Y-75033333D01*
X128545295Y-75033333D02*
X128688152Y-75033333D01*
X128688152Y-75033333D02*
X128783390Y-75080952D01*
X128783390Y-75080952D02*
X128831009Y-75128571D01*
X128831009Y-75128571D02*
X128878628Y-75223809D01*
X128878628Y-75223809D02*
X128878628Y-75604761D01*
X129450057Y-74842857D02*
X129450057Y-74080952D01*
X128831009Y-73509523D02*
X128878628Y-73366666D01*
X128878628Y-73366666D02*
X128926247Y-73319047D01*
X128926247Y-73319047D02*
X129021485Y-73271428D01*
X129021485Y-73271428D02*
X129164342Y-73271428D01*
X129164342Y-73271428D02*
X129259580Y-73319047D01*
X129259580Y-73319047D02*
X129307200Y-73366666D01*
X129307200Y-73366666D02*
X129354819Y-73461904D01*
X129354819Y-73461904D02*
X129354819Y-73842856D01*
X129354819Y-73842856D02*
X128354819Y-73842856D01*
X128354819Y-73842856D02*
X128354819Y-73509523D01*
X128354819Y-73509523D02*
X128402438Y-73414285D01*
X128402438Y-73414285D02*
X128450057Y-73366666D01*
X128450057Y-73366666D02*
X128545295Y-73319047D01*
X128545295Y-73319047D02*
X128640533Y-73319047D01*
X128640533Y-73319047D02*
X128735771Y-73366666D01*
X128735771Y-73366666D02*
X128783390Y-73414285D01*
X128783390Y-73414285D02*
X128831009Y-73509523D01*
X128831009Y-73509523D02*
X128831009Y-73842856D01*
X128688152Y-72842856D02*
X129688152Y-72842856D01*
X128735771Y-72842856D02*
X128688152Y-72747618D01*
X128688152Y-72747618D02*
X128688152Y-72557142D01*
X128688152Y-72557142D02*
X128735771Y-72461904D01*
X128735771Y-72461904D02*
X128783390Y-72414285D01*
X128783390Y-72414285D02*
X128878628Y-72366666D01*
X128878628Y-72366666D02*
X129164342Y-72366666D01*
X129164342Y-72366666D02*
X129259580Y-72414285D01*
X129259580Y-72414285D02*
X129307200Y-72461904D01*
X129307200Y-72461904D02*
X129354819Y-72557142D01*
X129354819Y-72557142D02*
X129354819Y-72747618D01*
X129354819Y-72747618D02*
X129307200Y-72842856D01*
X129354819Y-71938094D02*
X128688152Y-71938094D01*
X128878628Y-71938094D02*
X128783390Y-71890475D01*
X128783390Y-71890475D02*
X128735771Y-71842856D01*
X128735771Y-71842856D02*
X128688152Y-71747618D01*
X128688152Y-71747618D02*
X128688152Y-71652380D01*
X129354819Y-71176189D02*
X129307200Y-71271427D01*
X129307200Y-71271427D02*
X129259580Y-71319046D01*
X129259580Y-71319046D02*
X129164342Y-71366665D01*
X129164342Y-71366665D02*
X128878628Y-71366665D01*
X128878628Y-71366665D02*
X128783390Y-71319046D01*
X128783390Y-71319046D02*
X128735771Y-71271427D01*
X128735771Y-71271427D02*
X128688152Y-71176189D01*
X128688152Y-71176189D02*
X128688152Y-71033332D01*
X128688152Y-71033332D02*
X128735771Y-70938094D01*
X128735771Y-70938094D02*
X128783390Y-70890475D01*
X128783390Y-70890475D02*
X128878628Y-70842856D01*
X128878628Y-70842856D02*
X129164342Y-70842856D01*
X129164342Y-70842856D02*
X129259580Y-70890475D01*
X129259580Y-70890475D02*
X129307200Y-70938094D01*
X129307200Y-70938094D02*
X129354819Y-71033332D01*
X129354819Y-71033332D02*
X129354819Y-71176189D01*
X128688152Y-69985713D02*
X129497676Y-69985713D01*
X129497676Y-69985713D02*
X129592914Y-70033332D01*
X129592914Y-70033332D02*
X129640533Y-70080951D01*
X129640533Y-70080951D02*
X129688152Y-70176189D01*
X129688152Y-70176189D02*
X129688152Y-70319046D01*
X129688152Y-70319046D02*
X129640533Y-70414284D01*
X129307200Y-69985713D02*
X129354819Y-70080951D01*
X129354819Y-70080951D02*
X129354819Y-70271427D01*
X129354819Y-70271427D02*
X129307200Y-70366665D01*
X129307200Y-70366665D02*
X129259580Y-70414284D01*
X129259580Y-70414284D02*
X129164342Y-70461903D01*
X129164342Y-70461903D02*
X128878628Y-70461903D01*
X128878628Y-70461903D02*
X128783390Y-70414284D01*
X128783390Y-70414284D02*
X128735771Y-70366665D01*
X128735771Y-70366665D02*
X128688152Y-70271427D01*
X128688152Y-70271427D02*
X128688152Y-70080951D01*
X128688152Y-70080951D02*
X128735771Y-69985713D01*
X129354819Y-68985713D02*
X129354819Y-69557141D01*
X129354819Y-69271427D02*
X128354819Y-69271427D01*
X128354819Y-69271427D02*
X128497676Y-69366665D01*
X128497676Y-69366665D02*
X128592914Y-69461903D01*
X128592914Y-69461903D02*
X128640533Y-69557141D01*
X108618333Y-60874819D02*
X108142143Y-60874819D01*
X108142143Y-60874819D02*
X108094524Y-61351009D01*
X108094524Y-61351009D02*
X108142143Y-61303390D01*
X108142143Y-61303390D02*
X108237381Y-61255771D01*
X108237381Y-61255771D02*
X108475476Y-61255771D01*
X108475476Y-61255771D02*
X108570714Y-61303390D01*
X108570714Y-61303390D02*
X108618333Y-61351009D01*
X108618333Y-61351009D02*
X108665952Y-61446247D01*
X108665952Y-61446247D02*
X108665952Y-61684342D01*
X108665952Y-61684342D02*
X108618333Y-61779580D01*
X108618333Y-61779580D02*
X108570714Y-61827200D01*
X108570714Y-61827200D02*
X108475476Y-61874819D01*
X108475476Y-61874819D02*
X108237381Y-61874819D01*
X108237381Y-61874819D02*
X108142143Y-61827200D01*
X108142143Y-61827200D02*
X108094524Y-61779580D01*
X108951667Y-60874819D02*
X109285000Y-61874819D01*
X109285000Y-61874819D02*
X109618333Y-60874819D01*
X110142143Y-60874819D02*
X110237381Y-60874819D01*
X110237381Y-60874819D02*
X110332619Y-60922438D01*
X110332619Y-60922438D02*
X110380238Y-60970057D01*
X110380238Y-60970057D02*
X110427857Y-61065295D01*
X110427857Y-61065295D02*
X110475476Y-61255771D01*
X110475476Y-61255771D02*
X110475476Y-61493866D01*
X110475476Y-61493866D02*
X110427857Y-61684342D01*
X110427857Y-61684342D02*
X110380238Y-61779580D01*
X110380238Y-61779580D02*
X110332619Y-61827200D01*
X110332619Y-61827200D02*
X110237381Y-61874819D01*
X110237381Y-61874819D02*
X110142143Y-61874819D01*
X110142143Y-61874819D02*
X110046905Y-61827200D01*
X110046905Y-61827200D02*
X109999286Y-61779580D01*
X109999286Y-61779580D02*
X109951667Y-61684342D01*
X109951667Y-61684342D02*
X109904048Y-61493866D01*
X109904048Y-61493866D02*
X109904048Y-61255771D01*
X109904048Y-61255771D02*
X109951667Y-61065295D01*
X109951667Y-61065295D02*
X109999286Y-60970057D01*
X109999286Y-60970057D02*
X110046905Y-60922438D01*
X110046905Y-60922438D02*
X110142143Y-60874819D01*
X128704762Y-100556819D02*
X128895238Y-100556819D01*
X128895238Y-100556819D02*
X128990476Y-100509200D01*
X128990476Y-100509200D02*
X129038095Y-100461580D01*
X129038095Y-100461580D02*
X129133333Y-100318723D01*
X129133333Y-100318723D02*
X129180952Y-100128247D01*
X129180952Y-100128247D02*
X129180952Y-99747295D01*
X129180952Y-99747295D02*
X129133333Y-99652057D01*
X129133333Y-99652057D02*
X129085714Y-99604438D01*
X129085714Y-99604438D02*
X128990476Y-99556819D01*
X128990476Y-99556819D02*
X128800000Y-99556819D01*
X128800000Y-99556819D02*
X128704762Y-99604438D01*
X128704762Y-99604438D02*
X128657143Y-99652057D01*
X128657143Y-99652057D02*
X128609524Y-99747295D01*
X128609524Y-99747295D02*
X128609524Y-99985390D01*
X128609524Y-99985390D02*
X128657143Y-100080628D01*
X128657143Y-100080628D02*
X128704762Y-100128247D01*
X128704762Y-100128247D02*
X128800000Y-100175866D01*
X128800000Y-100175866D02*
X128990476Y-100175866D01*
X128990476Y-100175866D02*
X129085714Y-100128247D01*
X129085714Y-100128247D02*
X129133333Y-100080628D01*
X129133333Y-100080628D02*
X129180952Y-99985390D01*
X129466667Y-99556819D02*
X129800000Y-100556819D01*
X129800000Y-100556819D02*
X130133333Y-99556819D01*
X130990476Y-100556819D02*
X130419048Y-100556819D01*
X130704762Y-100556819D02*
X130704762Y-99556819D01*
X130704762Y-99556819D02*
X130609524Y-99699676D01*
X130609524Y-99699676D02*
X130514286Y-99794914D01*
X130514286Y-99794914D02*
X130419048Y-99842533D01*
X141834761Y-85761580D02*
X141787142Y-85809200D01*
X141787142Y-85809200D02*
X141644285Y-85856819D01*
X141644285Y-85856819D02*
X141549047Y-85856819D01*
X141549047Y-85856819D02*
X141406190Y-85809200D01*
X141406190Y-85809200D02*
X141310952Y-85713961D01*
X141310952Y-85713961D02*
X141263333Y-85618723D01*
X141263333Y-85618723D02*
X141215714Y-85428247D01*
X141215714Y-85428247D02*
X141215714Y-85285390D01*
X141215714Y-85285390D02*
X141263333Y-85094914D01*
X141263333Y-85094914D02*
X141310952Y-84999676D01*
X141310952Y-84999676D02*
X141406190Y-84904438D01*
X141406190Y-84904438D02*
X141549047Y-84856819D01*
X141549047Y-84856819D02*
X141644285Y-84856819D01*
X141644285Y-84856819D02*
X141787142Y-84904438D01*
X141787142Y-84904438D02*
X141834761Y-84952057D01*
X142596666Y-85333009D02*
X142263333Y-85333009D01*
X142263333Y-85856819D02*
X142263333Y-84856819D01*
X142263333Y-84856819D02*
X142739523Y-84856819D01*
X143644285Y-84904438D02*
X143549047Y-84856819D01*
X143549047Y-84856819D02*
X143406190Y-84856819D01*
X143406190Y-84856819D02*
X143263333Y-84904438D01*
X143263333Y-84904438D02*
X143168095Y-84999676D01*
X143168095Y-84999676D02*
X143120476Y-85094914D01*
X143120476Y-85094914D02*
X143072857Y-85285390D01*
X143072857Y-85285390D02*
X143072857Y-85428247D01*
X143072857Y-85428247D02*
X143120476Y-85618723D01*
X143120476Y-85618723D02*
X143168095Y-85713961D01*
X143168095Y-85713961D02*
X143263333Y-85809200D01*
X143263333Y-85809200D02*
X143406190Y-85856819D01*
X143406190Y-85856819D02*
X143501428Y-85856819D01*
X143501428Y-85856819D02*
X143644285Y-85809200D01*
X143644285Y-85809200D02*
X143691904Y-85761580D01*
X143691904Y-85761580D02*
X143691904Y-85428247D01*
X143691904Y-85428247D02*
X143501428Y-85428247D01*
X144644285Y-85856819D02*
X144072857Y-85856819D01*
X144358571Y-85856819D02*
X144358571Y-84856819D01*
X144358571Y-84856819D02*
X144263333Y-84999676D01*
X144263333Y-84999676D02*
X144168095Y-85094914D01*
X144168095Y-85094914D02*
X144072857Y-85142533D01*
X135564819Y-74946191D02*
X135088628Y-75279524D01*
X135564819Y-75517619D02*
X134564819Y-75517619D01*
X134564819Y-75517619D02*
X134564819Y-75136667D01*
X134564819Y-75136667D02*
X134612438Y-75041429D01*
X134612438Y-75041429D02*
X134660057Y-74993810D01*
X134660057Y-74993810D02*
X134755295Y-74946191D01*
X134755295Y-74946191D02*
X134898152Y-74946191D01*
X134898152Y-74946191D02*
X134993390Y-74993810D01*
X134993390Y-74993810D02*
X135041009Y-75041429D01*
X135041009Y-75041429D02*
X135088628Y-75136667D01*
X135088628Y-75136667D02*
X135088628Y-75517619D01*
X135660057Y-74755715D02*
X135660057Y-73993810D01*
X135041009Y-73422381D02*
X135088628Y-73279524D01*
X135088628Y-73279524D02*
X135136247Y-73231905D01*
X135136247Y-73231905D02*
X135231485Y-73184286D01*
X135231485Y-73184286D02*
X135374342Y-73184286D01*
X135374342Y-73184286D02*
X135469580Y-73231905D01*
X135469580Y-73231905D02*
X135517200Y-73279524D01*
X135517200Y-73279524D02*
X135564819Y-73374762D01*
X135564819Y-73374762D02*
X135564819Y-73755714D01*
X135564819Y-73755714D02*
X134564819Y-73755714D01*
X134564819Y-73755714D02*
X134564819Y-73422381D01*
X134564819Y-73422381D02*
X134612438Y-73327143D01*
X134612438Y-73327143D02*
X134660057Y-73279524D01*
X134660057Y-73279524D02*
X134755295Y-73231905D01*
X134755295Y-73231905D02*
X134850533Y-73231905D01*
X134850533Y-73231905D02*
X134945771Y-73279524D01*
X134945771Y-73279524D02*
X134993390Y-73327143D01*
X134993390Y-73327143D02*
X135041009Y-73422381D01*
X135041009Y-73422381D02*
X135041009Y-73755714D01*
X134898152Y-72898571D02*
X134898152Y-72517619D01*
X135564819Y-72755714D02*
X134707676Y-72755714D01*
X134707676Y-72755714D02*
X134612438Y-72708095D01*
X134612438Y-72708095D02*
X134564819Y-72612857D01*
X134564819Y-72612857D02*
X134564819Y-72517619D01*
X135564819Y-71755714D02*
X135041009Y-71755714D01*
X135041009Y-71755714D02*
X134945771Y-71803333D01*
X134945771Y-71803333D02*
X134898152Y-71898571D01*
X134898152Y-71898571D02*
X134898152Y-72089047D01*
X134898152Y-72089047D02*
X134945771Y-72184285D01*
X135517200Y-71755714D02*
X135564819Y-71850952D01*
X135564819Y-71850952D02*
X135564819Y-72089047D01*
X135564819Y-72089047D02*
X135517200Y-72184285D01*
X135517200Y-72184285D02*
X135421961Y-72231904D01*
X135421961Y-72231904D02*
X135326723Y-72231904D01*
X135326723Y-72231904D02*
X135231485Y-72184285D01*
X135231485Y-72184285D02*
X135183866Y-72089047D01*
X135183866Y-72089047D02*
X135183866Y-71850952D01*
X135183866Y-71850952D02*
X135136247Y-71755714D01*
X135517200Y-71327142D02*
X135564819Y-71231904D01*
X135564819Y-71231904D02*
X135564819Y-71041428D01*
X135564819Y-71041428D02*
X135517200Y-70946190D01*
X135517200Y-70946190D02*
X135421961Y-70898571D01*
X135421961Y-70898571D02*
X135374342Y-70898571D01*
X135374342Y-70898571D02*
X135279104Y-70946190D01*
X135279104Y-70946190D02*
X135231485Y-71041428D01*
X135231485Y-71041428D02*
X135231485Y-71184285D01*
X135231485Y-71184285D02*
X135183866Y-71279523D01*
X135183866Y-71279523D02*
X135088628Y-71327142D01*
X135088628Y-71327142D02*
X135041009Y-71327142D01*
X135041009Y-71327142D02*
X134945771Y-71279523D01*
X134945771Y-71279523D02*
X134898152Y-71184285D01*
X134898152Y-71184285D02*
X134898152Y-71041428D01*
X134898152Y-71041428D02*
X134945771Y-70946190D01*
X134898152Y-70612856D02*
X134898152Y-70231904D01*
X134564819Y-70469999D02*
X135421961Y-70469999D01*
X135421961Y-70469999D02*
X135517200Y-70422380D01*
X135517200Y-70422380D02*
X135564819Y-70327142D01*
X135564819Y-70327142D02*
X135564819Y-70231904D01*
X135564819Y-69374761D02*
X135564819Y-69946189D01*
X135564819Y-69660475D02*
X134564819Y-69660475D01*
X134564819Y-69660475D02*
X134707676Y-69755713D01*
X134707676Y-69755713D02*
X134802914Y-69850951D01*
X134802914Y-69850951D02*
X134850533Y-69946189D01*
X101676190Y-65931009D02*
X101819047Y-65978628D01*
X101819047Y-65978628D02*
X101866666Y-66026247D01*
X101866666Y-66026247D02*
X101914285Y-66121485D01*
X101914285Y-66121485D02*
X101914285Y-66264342D01*
X101914285Y-66264342D02*
X101866666Y-66359580D01*
X101866666Y-66359580D02*
X101819047Y-66407200D01*
X101819047Y-66407200D02*
X101723809Y-66454819D01*
X101723809Y-66454819D02*
X101342857Y-66454819D01*
X101342857Y-66454819D02*
X101342857Y-65454819D01*
X101342857Y-65454819D02*
X101676190Y-65454819D01*
X101676190Y-65454819D02*
X101771428Y-65502438D01*
X101771428Y-65502438D02*
X101819047Y-65550057D01*
X101819047Y-65550057D02*
X101866666Y-65645295D01*
X101866666Y-65645295D02*
X101866666Y-65740533D01*
X101866666Y-65740533D02*
X101819047Y-65835771D01*
X101819047Y-65835771D02*
X101771428Y-65883390D01*
X101771428Y-65883390D02*
X101676190Y-65931009D01*
X101676190Y-65931009D02*
X101342857Y-65931009D01*
X102342857Y-66073866D02*
X103104762Y-66073866D01*
X104104761Y-66454819D02*
X103533333Y-66454819D01*
X103819047Y-66454819D02*
X103819047Y-65454819D01*
X103819047Y-65454819D02*
X103723809Y-65597676D01*
X103723809Y-65597676D02*
X103628571Y-65692914D01*
X103628571Y-65692914D02*
X103533333Y-65740533D01*
D12*
%TO.C,D7*%
G36*
X123322500Y-99202000D02*
G01*
X123319871Y-99504000D01*
X122862246Y-99504000D01*
X122863000Y-99197500D01*
X123322500Y-99202000D01*
G37*
G36*
X123330005Y-101900490D02*
G01*
X123327000Y-102202500D01*
X122870000Y-102202500D01*
X122871131Y-101895996D01*
X123330005Y-101900490D01*
G37*
D13*
X117754000Y-102126000D02*
X117750000Y-102000000D01*
X117756500Y-99400000D02*
X117750000Y-99285000D01*
X121234000Y-102126000D02*
X121234000Y-99274000D01*
X122946000Y-99274000D02*
X117754000Y-99274000D01*
X122946000Y-102126000D02*
X117754000Y-102126000D01*
D14*
%TO.C,U4*%
X132400000Y-99631500D02*
X132400000Y-98031500D01*
X132400000Y-103461500D02*
X132400000Y-102431500D01*
X141400000Y-99631500D02*
X141400000Y-98031500D01*
X141400000Y-103461500D02*
X132400000Y-103461500D01*
X141400000Y-103461500D02*
X141400000Y-102131500D01*
%TO.C,SW1*%
X93000000Y-96270000D02*
X107000000Y-96270000D01*
X93000000Y-98900000D02*
X93000000Y-96280000D01*
X95047000Y-99102500D02*
X98349000Y-99102500D01*
X95047000Y-100499500D02*
X95047000Y-99102500D01*
X98349000Y-99102500D02*
X98349000Y-100499500D01*
X98349000Y-100499500D02*
X95047000Y-100499500D01*
X98984000Y-97388000D02*
X92999500Y-97388000D01*
X98984000Y-99323500D02*
X98984000Y-100309000D01*
X98984000Y-99547000D02*
X98984000Y-97388000D01*
X101016000Y-97299000D02*
X101016000Y-99547000D01*
X101016000Y-98726500D02*
X98984000Y-98726500D01*
X101016000Y-99323000D02*
X101016000Y-100309000D01*
X101778000Y-99039000D02*
X105080000Y-99039000D01*
X101778000Y-100436000D02*
X101778000Y-99039000D01*
X105080000Y-99039000D02*
X105080000Y-99900000D01*
X104600000Y-100400000D02*
X101778000Y-100436000D01*
X107000000Y-96270000D02*
X107000000Y-99000000D01*
X107000000Y-97299000D02*
X101016000Y-97299000D01*
X101016000Y-99547000D02*
G75*
G02*
X98984000Y-99547000I-1016000J0D01*
G01*
X101016000Y-100309000D02*
G75*
G02*
X98984000Y-100309000I-1016000J315500D01*
G01*
D15*
%TO.C,U6*%
X135990000Y-68842500D02*
X135990000Y-66492500D01*
X140890000Y-66492500D02*
X140890000Y-68842500D01*
D10*
X136635000Y-71667500D02*
G75*
G02*
X136435000Y-71667500I-100000J0D01*
G01*
X136435000Y-71667500D02*
G75*
G02*
X136635000Y-71667500I100000J0D01*
G01*
D16*
%TO.C,R_I1*%
X95472500Y-85145276D02*
X95472500Y-85654724D01*
X94427500Y-85145276D02*
X94427500Y-85654724D01*
%TO.C,TP21*%
X123750000Y-41700000D02*
G75*
G02*
X121350000Y-41700000I-1200000J0D01*
G01*
X121350000Y-41700000D02*
G75*
G02*
X123750000Y-41700000I1200000J0D01*
G01*
%TO.C,R_I2*%
X97745276Y-81477500D02*
X98254724Y-81477500D01*
X97745276Y-82522500D02*
X98254724Y-82522500D01*
%TO.C,R_P2*%
X104832776Y-75977500D02*
X105342224Y-75977500D01*
X104832776Y-77022500D02*
X105342224Y-77022500D01*
%TO.C,U5*%
X121585000Y-89865000D02*
X119635000Y-89865000D01*
X121585000Y-89865000D02*
X123535000Y-89865000D01*
X121585000Y-94985000D02*
X119635000Y-94985000D01*
X121585000Y-94985000D02*
X123535000Y-94985000D01*
X124525000Y-95220000D02*
X124045000Y-95220000D01*
X124285000Y-94890000D01*
X124525000Y-95220000D01*
G36*
X124525000Y-95220000D02*
G01*
X124045000Y-95220000D01*
X124285000Y-94890000D01*
X124525000Y-95220000D01*
G37*
%TO.C,R22*%
X146887500Y-70974724D02*
X146887500Y-70465276D01*
X147932500Y-70974724D02*
X147932500Y-70465276D01*
%TO.C,R_B6*%
X142037500Y-82687224D02*
X142037500Y-82177776D01*
X143082500Y-82687224D02*
X143082500Y-82177776D01*
%TO.C,R_SH1*%
X102590000Y-86227064D02*
X102590000Y-84772936D01*
X104410000Y-86227064D02*
X104410000Y-84772936D01*
%TO.C,J_I2*%
X93500000Y-82200000D02*
X93500000Y-80800000D01*
X94200000Y-80100000D02*
X94800000Y-80100000D01*
X94800000Y-82900000D02*
X94200000Y-82900000D01*
X95500000Y-80800000D02*
X95500000Y-82200000D01*
X93500000Y-80800000D02*
G75*
G02*
X94200000Y-80100000I699999J1D01*
G01*
X94200000Y-82900000D02*
G75*
G02*
X93500000Y-82200000I0J700000D01*
G01*
X94800000Y-80100000D02*
G75*
G02*
X95500000Y-80800000I1J-699999D01*
G01*
X95500000Y-82200000D02*
G75*
G02*
X94800000Y-82900000I-700000J0D01*
G01*
%TO.C,LB1*%
X112890000Y-89480000D02*
X108910000Y-89480000D01*
X112890000Y-93720000D02*
X108910000Y-93720000D01*
%TO.C,B+1*%
X95200000Y-62000000D02*
G75*
G02*
X92800000Y-62000000I-1200000J0D01*
G01*
X92800000Y-62000000D02*
G75*
G02*
X95200000Y-62000000I1200000J0D01*
G01*
%TO.C,M_VM1*%
X140610000Y-42040000D02*
X140610000Y-40640000D01*
X141310000Y-39940000D02*
X141910000Y-39940000D01*
X141910000Y-42740000D02*
X141310000Y-42740000D01*
X142610000Y-40640000D02*
X142610000Y-42040000D01*
X140610000Y-40640000D02*
G75*
G02*
X141310000Y-39940000I700000J0D01*
G01*
X141310000Y-42740000D02*
G75*
G02*
X140610000Y-42040000I-1J699999D01*
G01*
X141910000Y-39940000D02*
G75*
G02*
X142610000Y-40640000I0J-700000D01*
G01*
X142610000Y-42040000D02*
G75*
G02*
X141910000Y-42740000I-699999J-1D01*
G01*
%TO.C,C_B2*%
X123301267Y-96665000D02*
X123008733Y-96665000D01*
X123301267Y-97685000D02*
X123008733Y-97685000D01*
%TO.C,TP_B1*%
X147300000Y-81600000D02*
G75*
G02*
X144900000Y-81600000I-1200000J0D01*
G01*
X144900000Y-81600000D02*
G75*
G02*
X147300000Y-81600000I1200000J0D01*
G01*
D15*
%TO.C,U14*%
X97400000Y-35590000D02*
X99400000Y-35590000D01*
X97400000Y-38010000D02*
X99400000Y-38010000D01*
D10*
X96575000Y-36050000D02*
G75*
G02*
X96375000Y-36050000I-100000J0D01*
G01*
X96375000Y-36050000D02*
G75*
G02*
X96575000Y-36050000I100000J0D01*
G01*
D16*
%TO.C,L3*%
X117500000Y-49200000D02*
X117500000Y-47800000D01*
X118200000Y-47100000D02*
X118800000Y-47100000D01*
X118800000Y-49900000D02*
X118200000Y-49900000D01*
X119500000Y-47800000D02*
X119500000Y-49200000D01*
X117500000Y-47800000D02*
G75*
G02*
X118200000Y-47100000I700000J0D01*
G01*
X118200000Y-49900000D02*
G75*
G02*
X117500000Y-49200000I-1J699999D01*
G01*
X118800000Y-47100000D02*
G75*
G02*
X119500000Y-47800000I0J-700000D01*
G01*
X119500000Y-49200000D02*
G75*
G02*
X118800000Y-49900000I-699999J-1D01*
G01*
%TO.C,JP_B2*%
X119755000Y-82475000D02*
X119755000Y-81875000D01*
X120455000Y-81175000D02*
X121855000Y-81175000D01*
X121855000Y-83175000D02*
X120455000Y-83175000D01*
X122555000Y-81875000D02*
X122555000Y-82475000D01*
X119755000Y-81875000D02*
G75*
G02*
X120455000Y-81175000I700000J0D01*
G01*
X120455000Y-83175000D02*
G75*
G02*
X119755000Y-82475000I0J700000D01*
G01*
X121855000Y-81175000D02*
G75*
G02*
X122555000Y-81875000I1J-699999D01*
G01*
X122555000Y-82475000D02*
G75*
G02*
X121855000Y-83175000I-699999J-1D01*
G01*
%TO.C,R_B4*%
X136917500Y-58325276D02*
X136917500Y-58834724D01*
X137962500Y-58325276D02*
X137962500Y-58834724D01*
%TO.C,C_B1*%
X115390000Y-92411252D02*
X115390000Y-90988748D01*
X117210000Y-92411252D02*
X117210000Y-90988748D01*
%TO.C,GND1*%
X144190000Y-92220000D02*
G75*
G02*
X141790000Y-92220000I-1200000J0D01*
G01*
X141790000Y-92220000D02*
G75*
G02*
X144190000Y-92220000I1200000J0D01*
G01*
%TO.C,C_I(in)1*%
X102146267Y-81490000D02*
X101853733Y-81490000D01*
X102146267Y-82510000D02*
X101853733Y-82510000D01*
%TO.C,J3*%
X92440000Y-68090000D02*
X92440000Y-75910000D01*
X92440000Y-74310000D02*
X93360000Y-74310000D01*
X92440000Y-75910000D02*
X93360000Y-75910000D01*
X93200000Y-70350000D02*
X94200000Y-70350000D01*
X93200000Y-71950000D02*
X93200000Y-70350000D01*
X93360000Y-74310000D02*
X93640000Y-74310000D01*
X93360000Y-75910000D02*
X93360000Y-74310000D01*
X94200000Y-70350000D02*
X94200000Y-71950000D01*
X94200000Y-71950000D02*
X93200000Y-71950000D01*
X95000000Y-72450000D02*
X95000000Y-68090000D01*
X96000000Y-68090000D02*
X96000000Y-72450000D01*
X96000000Y-72450000D02*
X95000000Y-72450000D01*
X96800000Y-70350000D02*
X96800000Y-68090000D01*
X96800000Y-70350000D02*
X96800000Y-71950000D01*
X96800000Y-71950000D02*
X97800000Y-71950000D01*
X97300000Y-70350000D02*
X97300000Y-68090000D01*
X97360000Y-74310000D02*
X97360000Y-75525000D01*
X97360000Y-74310000D02*
X97640000Y-74310000D01*
X97640000Y-74310000D02*
X97640000Y-75910000D01*
X97640000Y-75910000D02*
X98560000Y-75910000D01*
X97800000Y-70350000D02*
X96800000Y-70350000D01*
X97800000Y-71950000D02*
X97800000Y-70350000D01*
X98560000Y-68090000D02*
X92440000Y-68090000D01*
X98560000Y-74310000D02*
X97640000Y-74310000D01*
X98560000Y-75910000D02*
X98560000Y-68090000D01*
%TO.C,MA2*%
X96200000Y-31300000D02*
G75*
G02*
X93800000Y-31300000I-1200000J0D01*
G01*
X93800000Y-31300000D02*
G75*
G02*
X96200000Y-31300000I1200000J0D01*
G01*
%TO.C,Q2*%
X136507500Y-74510000D02*
X136507500Y-73860000D01*
X136507500Y-74510000D02*
X136507500Y-75160000D01*
X139627500Y-74510000D02*
X139627500Y-73860000D01*
X139627500Y-74510000D02*
X139627500Y-75160000D01*
X136557500Y-75672500D02*
X136227500Y-75912500D01*
X136227500Y-75432500D01*
X136557500Y-75672500D01*
G36*
X136557500Y-75672500D02*
G01*
X136227500Y-75912500D01*
X136227500Y-75432500D01*
X136557500Y-75672500D01*
G37*
%TO.C,R_Bslow2*%
X132535276Y-76267500D02*
X133044724Y-76267500D01*
X132535276Y-77312500D02*
X133044724Y-77312500D01*
%TO.C,R_Pfb1*%
X105365276Y-57087500D02*
X105874724Y-57087500D01*
X105365276Y-58132500D02*
X105874724Y-58132500D01*
%TO.C,R_C2*%
X146367500Y-94537776D02*
X146367500Y-95047224D01*
X147412500Y-94537776D02*
X147412500Y-95047224D01*
%TO.C,U_P2*%
X105800000Y-68280000D02*
X109560000Y-68280000D01*
X105800000Y-75100000D02*
X109560000Y-75100000D01*
X109560000Y-68280000D02*
X109560000Y-69540000D01*
X109560000Y-75100000D02*
X109560000Y-73840000D01*
X104520000Y-68380000D02*
X104280000Y-68050000D01*
X104760000Y-68050000D01*
X104520000Y-68380000D01*
G36*
X104520000Y-68380000D02*
G01*
X104280000Y-68050000D01*
X104760000Y-68050000D01*
X104520000Y-68380000D01*
G37*
%TO.C,R_B1*%
X120987776Y-86652500D02*
X121497224Y-86652500D01*
X120987776Y-87697500D02*
X121497224Y-87697500D01*
%TO.C,Vbus_9*%
X128900000Y-98000000D02*
X128900000Y-96600000D01*
X129600000Y-95900000D02*
X130200000Y-95900000D01*
X130200000Y-98700000D02*
X129600000Y-98700000D01*
X130900000Y-96600000D02*
X130900000Y-98000000D01*
X128900000Y-96600000D02*
G75*
G02*
X129600000Y-95900000I700000J0D01*
G01*
X129600000Y-98700000D02*
G75*
G02*
X128900000Y-98000000I-1J699999D01*
G01*
X130200000Y-95900000D02*
G75*
G02*
X130900000Y-96600000I0J-700000D01*
G01*
X130900000Y-98000000D02*
G75*
G02*
X130200000Y-98700000I-699999J-1D01*
G01*
%TO.C,JP_B_ena1*%
X130800000Y-63700000D02*
X130800000Y-63100000D01*
X131500000Y-62400000D02*
X132900000Y-62400000D01*
X132900000Y-64400000D02*
X131500000Y-64400000D01*
X133600000Y-63100000D02*
X133600000Y-63700000D01*
X130800000Y-63100000D02*
G75*
G02*
X131500000Y-62400000I699999J1D01*
G01*
X131500000Y-64400000D02*
G75*
G02*
X130800000Y-63700000I-1J699999D01*
G01*
X132900000Y-62400000D02*
G75*
G02*
X133600000Y-63100000I0J-700000D01*
G01*
X133600000Y-63700000D02*
G75*
G02*
X132900000Y-64400000I-700000J0D01*
G01*
%TO.C,R_C1*%
X146367500Y-90959724D02*
X146367500Y-90450276D01*
X147412500Y-90959724D02*
X147412500Y-90450276D01*
%TO.C,GND0*%
X119200000Y-97000000D02*
G75*
G02*
X116800000Y-97000000I-1200000J0D01*
G01*
X116800000Y-97000000D02*
G75*
G02*
X119200000Y-97000000I1200000J0D01*
G01*
%TO.C,U9*%
X132810000Y-90761500D02*
X132810000Y-88811500D01*
X132810000Y-90761500D02*
X132810000Y-92711500D01*
X137930000Y-90761500D02*
X137930000Y-88811500D01*
X137930000Y-90761500D02*
X137930000Y-92711500D01*
X132810000Y-93474000D02*
X132480000Y-93714000D01*
X132480000Y-93234000D01*
X132810000Y-93474000D01*
G36*
X132810000Y-93474000D02*
G01*
X132480000Y-93714000D01*
X132480000Y-93234000D01*
X132810000Y-93474000D01*
G37*
%TO.C,C_P5*%
X99990000Y-69216233D02*
X99990000Y-69508767D01*
X101010000Y-69216233D02*
X101010000Y-69508767D01*
%TO.C,PB1*%
X103200000Y-61390000D02*
G75*
G02*
X100800000Y-61390000I-1200000J0D01*
G01*
X100800000Y-61390000D02*
G75*
G02*
X103200000Y-61390000I1200000J0D01*
G01*
%TO.C,P4*%
X100000000Y-73700000D02*
X100000000Y-72300000D01*
X100700000Y-71600000D02*
X101300000Y-71600000D01*
X101300000Y-74400000D02*
X100700000Y-74400000D01*
X102000000Y-72300000D02*
X102000000Y-73700000D01*
X100000000Y-72300000D02*
G75*
G02*
X100700000Y-71600000I700000J0D01*
G01*
X100700000Y-74400000D02*
G75*
G02*
X100000000Y-73700000I-1J699999D01*
G01*
X101300000Y-71600000D02*
G75*
G02*
X102000000Y-72300000I0J-700000D01*
G01*
X102000000Y-73700000D02*
G75*
G02*
X101300000Y-74400000I-699999J-1D01*
G01*
%TO.C,C_B4*%
X109412500Y-83422500D02*
X110200000Y-83422500D01*
X109806250Y-83028750D02*
X109806250Y-83816250D01*
X110440000Y-82924437D02*
X110440000Y-84210000D01*
X110440000Y-82924437D02*
X111504437Y-81860000D01*
X110440000Y-87615563D02*
X110440000Y-86330000D01*
X110440000Y-87615563D02*
X111504437Y-88680000D01*
X111504437Y-81860000D02*
X117260000Y-81860000D01*
X111504437Y-88680000D02*
X117260000Y-88680000D01*
X117260000Y-81860000D02*
X117260000Y-84210000D01*
X117260000Y-88680000D02*
X117260000Y-86330000D01*
%TO.C,R_P1*%
X113344724Y-62447500D02*
X112835276Y-62447500D01*
X113344724Y-63492500D02*
X112835276Y-63492500D01*
%TO.C,J1*%
X99620000Y-27505000D02*
X140380000Y-27505000D01*
X99620000Y-30105000D02*
X99620000Y-27505000D01*
X99620000Y-32705000D02*
X99620000Y-31375000D01*
X100950000Y-32705000D02*
X99620000Y-32705000D01*
X102220000Y-30105000D02*
X99620000Y-30105000D01*
X102220000Y-32705000D02*
X102220000Y-30105000D01*
X102220000Y-32705000D02*
X140380000Y-32705000D01*
X140380000Y-32705000D02*
X140380000Y-27505000D01*
%TO.C,C_P4*%
X114990000Y-58853733D02*
X114990000Y-59146267D01*
X116010000Y-58853733D02*
X116010000Y-59146267D01*
%TO.C,C_B5*%
X141930000Y-66383733D02*
X141930000Y-66676267D01*
X142950000Y-66383733D02*
X142950000Y-66676267D01*
%TO.C,T_L1*%
X132250000Y-41500000D02*
G75*
G02*
X129850000Y-41500000I-1200000J0D01*
G01*
X129850000Y-41500000D02*
G75*
G02*
X132250000Y-41500000I1200000J0D01*
G01*
%TO.C,VDD1*%
X145900000Y-99400000D02*
G75*
G02*
X143500000Y-99400000I-1200000J0D01*
G01*
X143500000Y-99400000D02*
G75*
G02*
X145900000Y-99400000I1200000J0D01*
G01*
%TO.C,B_prog2*%
X134890000Y-80790000D02*
G75*
G02*
X132490000Y-80790000I-1200000J0D01*
G01*
X132490000Y-80790000D02*
G75*
G02*
X134890000Y-80790000I1200000J0D01*
G01*
%TO.C,T_3V3*%
X102700000Y-77000000D02*
G75*
G02*
X100300000Y-77000000I-1200000J0D01*
G01*
X100300000Y-77000000D02*
G75*
G02*
X102700000Y-77000000I1200000J0D01*
G01*
D15*
%TO.C,U16*%
X104400000Y-35590000D02*
X106400000Y-35590000D01*
X104400000Y-38010000D02*
X106400000Y-38010000D01*
D10*
X103575000Y-36050000D02*
G75*
G02*
X103375000Y-36050000I-100000J0D01*
G01*
X103375000Y-36050000D02*
G75*
G02*
X103575000Y-36050000I100000J0D01*
G01*
D16*
%TO.C,L_P3*%
X96310000Y-49965000D02*
X96310000Y-56935000D01*
X96310000Y-49965000D02*
X97860000Y-49965000D01*
X96310000Y-56935000D02*
X97860000Y-56935000D01*
X103430000Y-49965000D02*
X101880000Y-49965000D01*
X103430000Y-49965000D02*
X103430000Y-56935000D01*
X103430000Y-56935000D02*
X101880000Y-56935000D01*
%TO.C,P1*%
X109800000Y-54400000D02*
X109800000Y-53000000D01*
X110500000Y-52300000D02*
X111100000Y-52300000D01*
X111100000Y-55100000D02*
X110500000Y-55100000D01*
X111800000Y-53000000D02*
X111800000Y-54400000D01*
X109800000Y-53000000D02*
G75*
G02*
X110500000Y-52300000I699999J1D01*
G01*
X110500000Y-55100000D02*
G75*
G02*
X109800000Y-54400000I0J700000D01*
G01*
X111100000Y-52300000D02*
G75*
G02*
X111800000Y-53000000I1J-699999D01*
G01*
X111800000Y-54400000D02*
G75*
G02*
X111100000Y-55100000I-700000J0D01*
G01*
%TO.C,3V3*%
X107700000Y-77235000D02*
X110160000Y-77235000D01*
X110160000Y-75765000D02*
X107700000Y-75765000D01*
X110160000Y-77235000D02*
X110160000Y-75765000D01*
%TO.C,PA2*%
X98200000Y-43500000D02*
G75*
G02*
X95800000Y-43500000I-1200000J0D01*
G01*
X95800000Y-43500000D02*
G75*
G02*
X98200000Y-43500000I1200000J0D01*
G01*
%TO.C,J_L3*%
X125100000Y-42050000D02*
X125100000Y-41450000D01*
X125800000Y-40750000D02*
X127200000Y-40750000D01*
X127200000Y-42750000D02*
X125800000Y-42750000D01*
X127900000Y-41450000D02*
X127900000Y-42050000D01*
X125100000Y-41450000D02*
G75*
G02*
X125800000Y-40750000I699999J1D01*
G01*
X125800000Y-42750000D02*
G75*
G02*
X125100000Y-42050000I-1J699999D01*
G01*
X127200000Y-40750000D02*
G75*
G02*
X127900000Y-41450000I0J-700000D01*
G01*
X127900000Y-42050000D02*
G75*
G02*
X127200000Y-42750000I-700000J0D01*
G01*
%TO.C,Bin1*%
X113300000Y-100550000D02*
X113300000Y-99150000D01*
X114000000Y-98450000D02*
X114600000Y-98450000D01*
X114600000Y-101250000D02*
X114000000Y-101250000D01*
X115300000Y-99150000D02*
X115300000Y-100550000D01*
X113300000Y-99150000D02*
G75*
G02*
X114000000Y-98450000I699999J1D01*
G01*
X114000000Y-101250000D02*
G75*
G02*
X113300000Y-100550000I0J700000D01*
G01*
X114600000Y-98450000D02*
G75*
G02*
X115300000Y-99150000I1J-699999D01*
G01*
X115300000Y-100550000D02*
G75*
G02*
X114600000Y-101250000I-700000J0D01*
G01*
%TO.C,R_Pfb2*%
X108217500Y-58247776D02*
X108217500Y-58757224D01*
X109262500Y-58247776D02*
X109262500Y-58757224D01*
%TO.C,J_L2*%
X117500000Y-45700000D02*
X117500000Y-44300000D01*
X118200000Y-43600000D02*
X118800000Y-43600000D01*
X118800000Y-46400000D02*
X118200000Y-46400000D01*
X119500000Y-44300000D02*
X119500000Y-45700000D01*
X117500000Y-44300000D02*
G75*
G02*
X118200000Y-43600000I699999J1D01*
G01*
X118200000Y-46400000D02*
G75*
G02*
X117500000Y-45700000I0J700000D01*
G01*
X118800000Y-43600000D02*
G75*
G02*
X119500000Y-44300000I1J-699999D01*
G01*
X119500000Y-45700000D02*
G75*
G02*
X118800000Y-46400000I-700000J0D01*
G01*
%TO.C,P2*%
X107000000Y-52500000D02*
X107000000Y-51100000D01*
X107700000Y-50400000D02*
X108300000Y-50400000D01*
X108300000Y-53200000D02*
X107700000Y-53200000D01*
X109000000Y-51100000D02*
X109000000Y-52500000D01*
X107000000Y-51100000D02*
G75*
G02*
X107700000Y-50400000I700000J0D01*
G01*
X107700000Y-53200000D02*
G75*
G02*
X107000000Y-52500000I-1J699999D01*
G01*
X108300000Y-50400000D02*
G75*
G02*
X109000000Y-51100000I0J-700000D01*
G01*
X109000000Y-52500000D02*
G75*
G02*
X108300000Y-53200000I-699999J-1D01*
G01*
%TO.C,R_C3*%
X133624724Y-85239000D02*
X133115276Y-85239000D01*
X133624724Y-86284000D02*
X133115276Y-86284000D01*
%TO.C,R_B7*%
X137805276Y-77567500D02*
X138314724Y-77567500D01*
X137805276Y-78612500D02*
X138314724Y-78612500D01*
%TO.C,PA1*%
X104200000Y-43500000D02*
G75*
G02*
X101800000Y-43500000I-1200000J0D01*
G01*
X101800000Y-43500000D02*
G75*
G02*
X104200000Y-43500000I1200000J0D01*
G01*
%TO.C,B_D3*%
X143050000Y-73610000D02*
G75*
G02*
X140650000Y-73610000I-1200000J0D01*
G01*
X140650000Y-73610000D02*
G75*
G02*
X143050000Y-73610000I1200000J0D01*
G01*
%TO.C,C_L1*%
X121740000Y-49033767D02*
X121740000Y-48741233D01*
X122760000Y-49033767D02*
X122760000Y-48741233D01*
%TO.C,U2*%
X99437500Y-83195000D02*
X98637500Y-83195000D01*
X99437500Y-83195000D02*
X100237500Y-83195000D01*
X99437500Y-86315000D02*
X98637500Y-86315000D01*
X99437500Y-86315000D02*
X100237500Y-86315000D01*
X100977500Y-86570000D02*
X100497500Y-86570000D01*
X100737500Y-86240000D01*
X100977500Y-86570000D01*
G36*
X100977500Y-86570000D02*
G01*
X100497500Y-86570000D01*
X100737500Y-86240000D01*
X100977500Y-86570000D01*
G37*
%TO.C,C_P2*%
X110990000Y-58903733D02*
X110990000Y-59196267D01*
X112010000Y-58903733D02*
X112010000Y-59196267D01*
%TO.C,U_P1*%
X104535000Y-54010000D02*
X106535000Y-54010000D01*
X106535000Y-56230000D02*
X104535000Y-56230000D01*
X104135000Y-54280000D02*
X103855000Y-54280000D01*
X104135000Y-54000000D01*
X104135000Y-54280000D01*
G36*
X104135000Y-54280000D02*
G01*
X103855000Y-54280000D01*
X104135000Y-54000000D01*
X104135000Y-54280000D01*
G37*
%TO.C,R21*%
X143917500Y-70922224D02*
X143917500Y-70412776D01*
X144962500Y-70922224D02*
X144962500Y-70412776D01*
%TO.C,J_I1*%
X94600000Y-78800000D02*
X94600000Y-78200000D01*
X95300000Y-77500000D02*
X96700000Y-77500000D01*
X96700000Y-79500000D02*
X95300000Y-79500000D01*
X97400000Y-78200000D02*
X97400000Y-78800000D01*
X94600000Y-78200000D02*
G75*
G02*
X95300000Y-77500000I699999J1D01*
G01*
X95300000Y-79500000D02*
G75*
G02*
X94600000Y-78800000I-1J699999D01*
G01*
X96700000Y-77500000D02*
G75*
G02*
X97400000Y-78200000I0J-700000D01*
G01*
X97400000Y-78800000D02*
G75*
G02*
X96700000Y-79500000I-700000J0D01*
G01*
%TO.C,C_L2*%
X121740000Y-45103733D02*
X121740000Y-45396267D01*
X122760000Y-45103733D02*
X122760000Y-45396267D01*
D15*
%TO.C,U15*%
X138490000Y-35350000D02*
X136490000Y-35350000D01*
X138490000Y-37770000D02*
X136490000Y-37770000D01*
D10*
X139515000Y-37310000D02*
G75*
G02*
X139315000Y-37310000I-100000J0D01*
G01*
X139315000Y-37310000D02*
G75*
G02*
X139515000Y-37310000I100000J0D01*
G01*
D16*
%TO.C,P3*%
X98100000Y-46800000D02*
X98100000Y-46200000D01*
X98800000Y-45500000D02*
X100200000Y-45500000D01*
X100200000Y-47500000D02*
X98800000Y-47500000D01*
X100900000Y-46200000D02*
X100900000Y-46800000D01*
X98100000Y-46200000D02*
G75*
G02*
X98800000Y-45500000I700000J0D01*
G01*
X98800000Y-47500000D02*
G75*
G02*
X98100000Y-46800000I0J700000D01*
G01*
X100200000Y-45500000D02*
G75*
G02*
X100900000Y-46200000I1J-699999D01*
G01*
X100900000Y-46800000D02*
G75*
G02*
X100200000Y-47500000I-699999J-1D01*
G01*
%TO.C,C_P6*%
X108863733Y-66270000D02*
X109156267Y-66270000D01*
X108863733Y-67290000D02*
X109156267Y-67290000D01*
%TO.C,BS1*%
X128670000Y-90560000D02*
G75*
G02*
X126270000Y-90560000I-1200000J0D01*
G01*
X126270000Y-90560000D02*
G75*
G02*
X128670000Y-90560000I1200000J0D01*
G01*
%TO.C,PB2*%
X106700000Y-61540000D02*
G75*
G02*
X104300000Y-61540000I-1200000J0D01*
G01*
X104300000Y-61540000D02*
G75*
G02*
X106700000Y-61540000I1200000J0D01*
G01*
%TO.C,T_L2*%
X128650000Y-51300000D02*
G75*
G02*
X126250000Y-51300000I-1200000J0D01*
G01*
X126250000Y-51300000D02*
G75*
G02*
X128650000Y-51300000I1200000J0D01*
G01*
%TO.C,B_prog1*%
X127620000Y-80680000D02*
G75*
G02*
X125220000Y-80680000I-1200000J0D01*
G01*
X125220000Y-80680000D02*
G75*
G02*
X127620000Y-80680000I1200000J0D01*
G01*
%TO.C,C_L4*%
X132540000Y-47853733D02*
X132540000Y-48146267D01*
X133560000Y-47853733D02*
X133560000Y-48146267D01*
%TO.C,C_P1*%
X103990000Y-50646267D02*
X103990000Y-50353733D01*
X105010000Y-50646267D02*
X105010000Y-50353733D01*
%TO.C,D4*%
X139695000Y-53777500D02*
X139695000Y-56237500D01*
X139695000Y-56237500D02*
X141165000Y-56237500D01*
X141165000Y-56237500D02*
X141165000Y-53777500D01*
%TO.C,C_P3*%
X112990000Y-58853733D02*
X112990000Y-59146267D01*
X114010000Y-58853733D02*
X114010000Y-59146267D01*
%TO.C,C_C1*%
X130860000Y-91907767D02*
X130860000Y-91615233D01*
X131880000Y-91907767D02*
X131880000Y-91615233D01*
%TO.C,R_B2*%
X123632500Y-87429724D02*
X123632500Y-86920276D01*
X124677500Y-87429724D02*
X124677500Y-86920276D01*
%TO.C,MB2*%
X100600000Y-39700000D02*
G75*
G02*
X98200000Y-39700000I-1200000J0D01*
G01*
X98200000Y-39700000D02*
G75*
G02*
X100600000Y-39700000I1200000J0D01*
G01*
D15*
%TO.C,U17*%
X132140000Y-35450000D02*
X130140000Y-35450000D01*
X132140000Y-37870000D02*
X130140000Y-37870000D01*
D10*
X133165000Y-37410000D02*
G75*
G02*
X132965000Y-37410000I-100000J0D01*
G01*
X132965000Y-37410000D02*
G75*
G02*
X133165000Y-37410000I100000J0D01*
G01*
D16*
%TO.C,TP_5V0*%
X99700000Y-61500000D02*
G75*
G02*
X97300000Y-61500000I-1200000J0D01*
G01*
X97300000Y-61500000D02*
G75*
G02*
X99700000Y-61500000I1200000J0D01*
G01*
%TO.C,M_3V3*%
X135250000Y-42010000D02*
X135250000Y-40610000D01*
X135950000Y-39910000D02*
X136550000Y-39910000D01*
X136550000Y-42710000D02*
X135950000Y-42710000D01*
X137250000Y-40610000D02*
X137250000Y-42010000D01*
X135250000Y-40610000D02*
G75*
G02*
X135950000Y-39910000I699999J1D01*
G01*
X135950000Y-42710000D02*
G75*
G02*
X135250000Y-42010000I0J700000D01*
G01*
X136550000Y-39910000D02*
G75*
G02*
X137250000Y-40610000I1J-699999D01*
G01*
X137250000Y-42010000D02*
G75*
G02*
X136550000Y-42710000I-700000J0D01*
G01*
%TO.C,B_G1*%
X147200000Y-75500000D02*
G75*
G02*
X144800000Y-75500000I-1200000J0D01*
G01*
X144800000Y-75500000D02*
G75*
G02*
X147200000Y-75500000I1200000J0D01*
G01*
%TO.C,C_L3*%
X130640000Y-46346267D02*
X130640000Y-46053733D01*
X131660000Y-46346267D02*
X131660000Y-46053733D01*
%TO.C,J_I3*%
X105097500Y-86060000D02*
X105097500Y-84660000D01*
X105797500Y-83960000D02*
X106397500Y-83960000D01*
X106397500Y-86760000D02*
X105797500Y-86760000D01*
X107097500Y-84660000D02*
X107097500Y-86060000D01*
X105097500Y-84660000D02*
G75*
G02*
X105797500Y-83960000I699999J1D01*
G01*
X105797500Y-86760000D02*
G75*
G02*
X105097500Y-86060000I0J700000D01*
G01*
X106397500Y-83960000D02*
G75*
G02*
X107097500Y-84660000I1J-699999D01*
G01*
X107097500Y-86060000D02*
G75*
G02*
X106397500Y-86760000I-700000J0D01*
G01*
%TO.C,JP_BBatt1*%
X144710000Y-62310000D02*
X144710000Y-60910000D01*
X145410000Y-60210000D02*
X146010000Y-60210000D01*
X146010000Y-63010000D02*
X145410000Y-63010000D01*
X146710000Y-60910000D02*
X146710000Y-62310000D01*
X144710000Y-60910000D02*
G75*
G02*
X145410000Y-60210000I700000J0D01*
G01*
X145410000Y-63010000D02*
G75*
G02*
X144710000Y-62310000I-1J699999D01*
G01*
X146010000Y-60210000D02*
G75*
G02*
X146710000Y-60910000I0J-700000D01*
G01*
X146710000Y-62310000D02*
G75*
G02*
X146010000Y-63010000I-699999J-1D01*
G01*
%TO.C,JP_Bprog1*%
X130300000Y-73400000D02*
X130300000Y-72000000D01*
X131000000Y-71300000D02*
X131600000Y-71300000D01*
X131600000Y-74100000D02*
X131000000Y-74100000D01*
X132300000Y-72000000D02*
X132300000Y-73400000D01*
X130300000Y-72000000D02*
G75*
G02*
X131000000Y-71300000I699999J1D01*
G01*
X131000000Y-74100000D02*
G75*
G02*
X130300000Y-73400000I0J700000D01*
G01*
X131600000Y-71300000D02*
G75*
G02*
X132300000Y-72000000I1J-699999D01*
G01*
X132300000Y-73400000D02*
G75*
G02*
X131600000Y-74100000I-700000J0D01*
G01*
%TO.C,C_B3*%
X132930000Y-67521233D02*
X132930000Y-67813767D01*
X133950000Y-67521233D02*
X133950000Y-67813767D01*
%TO.C,5V0*%
X107750000Y-62185000D02*
X107750000Y-63655000D01*
X107750000Y-63655000D02*
X110210000Y-63655000D01*
X110210000Y-62185000D02*
X107750000Y-62185000D01*
%TO.C,9V1*%
X131000000Y-102100000D02*
G75*
G02*
X128600000Y-102100000I-1200000J0D01*
G01*
X128600000Y-102100000D02*
G75*
G02*
X131000000Y-102100000I1200000J0D01*
G01*
%TO.C,CFG1*%
X144130000Y-87400000D02*
G75*
G02*
X141730000Y-87400000I-1200000J0D01*
G01*
X141730000Y-87400000D02*
G75*
G02*
X144130000Y-87400000I1200000J0D01*
G01*
%TO.C,R_Bfast1*%
X133137500Y-73575276D02*
X133137500Y-74084724D01*
X134182500Y-73575276D02*
X134182500Y-74084724D01*
%TO.C,D8*%
X136695000Y-53777500D02*
X136695000Y-56237500D01*
X136695000Y-56237500D02*
X138165000Y-56237500D01*
X138165000Y-56237500D02*
X138165000Y-53777500D01*
%TO.C,B-1*%
X100700000Y-66000000D02*
G75*
G02*
X98300000Y-66000000I-1200000J0D01*
G01*
X98300000Y-66000000D02*
G75*
G02*
X100700000Y-66000000I1200000J0D01*
G01*
%TO.C,R_B3*%
X139917500Y-58325276D02*
X139917500Y-58834724D01*
X140962500Y-58325276D02*
X140962500Y-58834724D01*
%TD*%
%LPC*%
D17*
%TO.C,U7*%
X125950000Y-45875000D02*
X125350000Y-45875000D01*
X125350000Y-45125000D01*
X125950000Y-45125000D01*
X125950000Y-45875000D01*
G36*
X125950000Y-45875000D02*
G01*
X125350000Y-45875000D01*
X125350000Y-45125000D01*
X125950000Y-45125000D01*
X125950000Y-45875000D01*
G37*
X125950000Y-46275000D02*
X125350000Y-46275000D01*
X125350000Y-45925000D01*
X125950000Y-45925000D01*
X125950000Y-46275000D01*
G36*
X125950000Y-46275000D02*
G01*
X125350000Y-46275000D01*
X125350000Y-45925000D01*
X125950000Y-45925000D01*
X125950000Y-46275000D01*
G37*
X125950000Y-46675000D02*
X125350000Y-46675000D01*
X125350000Y-46325000D01*
X125950000Y-46325000D01*
X125950000Y-46675000D01*
G36*
X125950000Y-46675000D02*
G01*
X125350000Y-46675000D01*
X125350000Y-46325000D01*
X125950000Y-46325000D01*
X125950000Y-46675000D01*
G37*
X125950000Y-47075000D02*
X125350000Y-47075000D01*
X125350000Y-46725000D01*
X125950000Y-46725000D01*
X125950000Y-47075000D01*
G36*
X125950000Y-47075000D02*
G01*
X125350000Y-47075000D01*
X125350000Y-46725000D01*
X125950000Y-46725000D01*
X125950000Y-47075000D01*
G37*
X125950000Y-47875000D02*
X125350000Y-47875000D01*
X125350000Y-47125000D01*
X125950000Y-47125000D01*
X125950000Y-47875000D01*
G36*
X125950000Y-47875000D02*
G01*
X125350000Y-47875000D01*
X125350000Y-47125000D01*
X125950000Y-47125000D01*
X125950000Y-47875000D01*
G37*
X127650000Y-45875000D02*
X127050000Y-45875000D01*
X127050000Y-45125000D01*
X127650000Y-45125000D01*
X127650000Y-45875000D01*
G36*
X127650000Y-45875000D02*
G01*
X127050000Y-45875000D01*
X127050000Y-45125000D01*
X127650000Y-45125000D01*
X127650000Y-45875000D01*
G37*
X127650000Y-46275000D02*
X127050000Y-46275000D01*
X127050000Y-45925000D01*
X127650000Y-45925000D01*
X127650000Y-46275000D01*
G36*
X127650000Y-46275000D02*
G01*
X127050000Y-46275000D01*
X127050000Y-45925000D01*
X127650000Y-45925000D01*
X127650000Y-46275000D01*
G37*
X127650000Y-46675000D02*
X127050000Y-46675000D01*
X127050000Y-46325000D01*
X127650000Y-46325000D01*
X127650000Y-46675000D01*
G36*
X127650000Y-46675000D02*
G01*
X127050000Y-46675000D01*
X127050000Y-46325000D01*
X127650000Y-46325000D01*
X127650000Y-46675000D01*
G37*
X127650000Y-47075000D02*
X127050000Y-47075000D01*
X127050000Y-46725000D01*
X127650000Y-46725000D01*
X127650000Y-47075000D01*
G36*
X127650000Y-47075000D02*
G01*
X127050000Y-47075000D01*
X127050000Y-46725000D01*
X127650000Y-46725000D01*
X127650000Y-47075000D01*
G37*
X127650000Y-47875000D02*
X127050000Y-47875000D01*
X127050000Y-47125000D01*
X127650000Y-47125000D01*
X127650000Y-47875000D01*
G36*
X127650000Y-47875000D02*
G01*
X127050000Y-47875000D01*
X127050000Y-47125000D01*
X127650000Y-47125000D01*
X127650000Y-47875000D01*
G37*
X127025000Y-47825000D02*
X125975000Y-47825000D01*
X125975000Y-45350000D01*
X125984000Y-45350000D01*
X125993000Y-45349000D01*
X126002000Y-45348000D01*
X126011000Y-45346000D01*
X126020000Y-45344000D01*
X126029000Y-45341000D01*
X126038000Y-45338000D01*
X126046000Y-45335000D01*
X126054000Y-45331000D01*
X126062000Y-45327000D01*
X126070000Y-45322000D01*
X126078000Y-45317000D01*
X126085000Y-45311000D01*
X126092000Y-45305000D01*
X126099000Y-45299000D01*
X126105000Y-45292000D01*
X126111000Y-45285000D01*
X126117000Y-45278000D01*
X126122000Y-45270000D01*
X126127000Y-45263000D01*
X126131000Y-45254000D01*
X126135000Y-45246000D01*
X126138000Y-45238000D01*
X126141000Y-45229000D01*
X126144000Y-45220000D01*
X126146000Y-45211000D01*
X126148000Y-45202000D01*
X126149000Y-45193000D01*
X126150000Y-45184000D01*
X126150000Y-45175000D01*
X127025000Y-45175000D01*
X127025000Y-47825000D01*
G36*
X127025000Y-47825000D02*
G01*
X125975000Y-47825000D01*
X125975000Y-45350000D01*
X125984000Y-45350000D01*
X125993000Y-45349000D01*
X126002000Y-45348000D01*
X126011000Y-45346000D01*
X126020000Y-45344000D01*
X126029000Y-45341000D01*
X126038000Y-45338000D01*
X126046000Y-45335000D01*
X126054000Y-45331000D01*
X126062000Y-45327000D01*
X126070000Y-45322000D01*
X126078000Y-45317000D01*
X126085000Y-45311000D01*
X126092000Y-45305000D01*
X126099000Y-45299000D01*
X126105000Y-45292000D01*
X126111000Y-45285000D01*
X126117000Y-45278000D01*
X126122000Y-45270000D01*
X126127000Y-45263000D01*
X126131000Y-45254000D01*
X126135000Y-45246000D01*
X126138000Y-45238000D01*
X126141000Y-45229000D01*
X126144000Y-45220000D01*
X126146000Y-45211000D01*
X126148000Y-45202000D01*
X126149000Y-45193000D01*
X126150000Y-45184000D01*
X126150000Y-45175000D01*
X127025000Y-45175000D01*
X127025000Y-47825000D01*
G37*
%TO.C,J_I2*%
G36*
X95250000Y-81350000D02*
G01*
X93750000Y-81350000D01*
X93750000Y-81650000D01*
X95250000Y-81650000D01*
X95250000Y-81350000D01*
G37*
%TO.C,M_VM1*%
G36*
X140860000Y-41490000D02*
G01*
X142360000Y-41490000D01*
X142360000Y-41190000D01*
X140860000Y-41190000D01*
X140860000Y-41490000D01*
G37*
%TO.C,L3*%
G36*
X117750000Y-48650000D02*
G01*
X119250000Y-48650000D01*
X119250000Y-48350000D01*
X117750000Y-48350000D01*
X117750000Y-48650000D01*
G37*
%TO.C,JP_B2*%
G36*
X121305000Y-82925000D02*
G01*
X121005000Y-82925000D01*
X121005000Y-81425000D01*
X121305000Y-81425000D01*
X121305000Y-82925000D01*
G37*
%TO.C,Vbus_9*%
G36*
X129150000Y-97450000D02*
G01*
X130650000Y-97450000D01*
X130650000Y-97150000D01*
X129150000Y-97150000D01*
X129150000Y-97450000D01*
G37*
%TO.C,JP_B_ena1*%
G36*
X132050000Y-62650000D02*
G01*
X132350000Y-62650000D01*
X132350000Y-64150000D01*
X132050000Y-64150000D01*
X132050000Y-62650000D01*
G37*
%TO.C,P4*%
G36*
X100250000Y-73150000D02*
G01*
X101750000Y-73150000D01*
X101750000Y-72850000D01*
X100250000Y-72850000D01*
X100250000Y-73150000D01*
G37*
%TO.C,P1*%
G36*
X111550000Y-53550000D02*
G01*
X110050000Y-53550000D01*
X110050000Y-53850000D01*
X111550000Y-53850000D01*
X111550000Y-53550000D01*
G37*
%TO.C,J_L3*%
G36*
X126350000Y-41000000D02*
G01*
X126650000Y-41000000D01*
X126650000Y-42500000D01*
X126350000Y-42500000D01*
X126350000Y-41000000D01*
G37*
%TO.C,Bin1*%
G36*
X115050000Y-99700000D02*
G01*
X113550000Y-99700000D01*
X113550000Y-100000000D01*
X115050000Y-100000000D01*
X115050000Y-99700000D01*
G37*
%TO.C,J_L2*%
G36*
X119250000Y-44850000D02*
G01*
X117750000Y-44850000D01*
X117750000Y-45150000D01*
X119250000Y-45150000D01*
X119250000Y-44850000D01*
G37*
%TO.C,P2*%
G36*
X107250000Y-51950000D02*
G01*
X108750000Y-51950000D01*
X108750000Y-51650000D01*
X107250000Y-51650000D01*
X107250000Y-51950000D01*
G37*
%TO.C,J_I1*%
G36*
X95850000Y-77750000D02*
G01*
X96150000Y-77750000D01*
X96150000Y-79250000D01*
X95850000Y-79250000D01*
X95850000Y-77750000D01*
G37*
%TO.C,P3*%
G36*
X99650000Y-47250000D02*
G01*
X99350000Y-47250000D01*
X99350000Y-45750000D01*
X99650000Y-45750000D01*
X99650000Y-47250000D01*
G37*
%TO.C,M_3V3*%
G36*
X137000000Y-41160000D02*
G01*
X135500000Y-41160000D01*
X135500000Y-41460000D01*
X137000000Y-41460000D01*
X137000000Y-41160000D01*
G37*
%TO.C,J_I3*%
G36*
X106847500Y-85210000D02*
G01*
X105347500Y-85210000D01*
X105347500Y-85510000D01*
X106847500Y-85510000D01*
X106847500Y-85210000D01*
G37*
%TO.C,JP_BBatt1*%
G36*
X144960000Y-61760000D02*
G01*
X146460000Y-61760000D01*
X146460000Y-61460000D01*
X144960000Y-61460000D01*
X144960000Y-61760000D01*
G37*
%TO.C,JP_Bprog1*%
G36*
X132050000Y-72550000D02*
G01*
X130550000Y-72550000D01*
X130550000Y-72850000D01*
X132050000Y-72850000D01*
X132050000Y-72550000D01*
G37*
%TD*%
D18*
%TO.C,D7*%
X118150000Y-100700000D03*
X122550000Y-100700000D03*
%TD*%
D19*
%TO.C,U4*%
X141220000Y-96651500D03*
X132580000Y-96651500D03*
D20*
X141220000Y-100831500D03*
X132580000Y-100831500D03*
D21*
X133700000Y-96031500D03*
X134500000Y-96031500D03*
D22*
X135650000Y-96031500D03*
X136650000Y-96031500D03*
X137150000Y-96031500D03*
X138150000Y-96031500D03*
D21*
X140100000Y-96031500D03*
X139300000Y-96031500D03*
D22*
X138650000Y-96031500D03*
X137650000Y-96031500D03*
X136150000Y-96031500D03*
X135150000Y-96031500D03*
%TD*%
D23*
%TO.C,SW1*%
X104800000Y-91800000D03*
X100000000Y-91800000D03*
X95200000Y-91800000D03*
X93350000Y-101000000D03*
X106650000Y-101000000D03*
%TD*%
D24*
%TO.C,U6*%
X138440000Y-67667500D03*
D25*
X136535000Y-70142500D03*
X137805000Y-70142500D03*
X139075000Y-70142500D03*
X140345000Y-70142500D03*
X140345000Y-65192500D03*
X139075000Y-65192500D03*
X137805000Y-65192500D03*
X136535000Y-65192500D03*
%TD*%
D26*
%TO.C,R_I1*%
X94950000Y-86312500D03*
X94950000Y-84487500D03*
%TD*%
D27*
%TO.C,TP21*%
X122550000Y-41700000D03*
%TD*%
D28*
%TO.C,R_I2*%
X97087500Y-82000000D03*
X98912500Y-82000000D03*
%TD*%
%TO.C,R_P2*%
X104175000Y-76500000D03*
X106000000Y-76500000D03*
%TD*%
D29*
%TO.C,U5*%
X124060000Y-94330000D03*
X124060000Y-93060000D03*
X124060000Y-91790000D03*
X124060000Y-90520000D03*
X119110000Y-90520000D03*
X119110000Y-91790000D03*
X119110000Y-93060000D03*
X119110000Y-94330000D03*
D30*
X121585000Y-92425000D03*
%TD*%
D31*
%TO.C,R22*%
X147410000Y-71632500D03*
X147410000Y-69807500D03*
%TD*%
%TO.C,R_B6*%
X142560000Y-83345000D03*
X142560000Y-81520000D03*
%TD*%
D32*
%TO.C,R_SH1*%
X103500000Y-87050000D03*
X103500000Y-83950000D03*
%TD*%
D33*
%TO.C,J_I2*%
X94500000Y-80850000D03*
D34*
X94500000Y-82150000D03*
%TD*%
D35*
%TO.C,LB1*%
X112400000Y-91600000D03*
X109400000Y-91600000D03*
%TD*%
D27*
%TO.C,B+1*%
X94000000Y-62000000D03*
%TD*%
D36*
%TO.C,M_VM1*%
X141610000Y-41990000D03*
D37*
X141610000Y-40690000D03*
%TD*%
D38*
%TO.C,C_B2*%
X124017500Y-97175000D03*
X122292500Y-97175000D03*
%TD*%
D27*
%TO.C,TP_B1*%
X146100000Y-81600000D03*
%TD*%
D39*
%TO.C,U14*%
X97415000Y-36050000D03*
X97415000Y-36550000D03*
X97415000Y-37050000D03*
X97415000Y-37550000D03*
X99385000Y-37550000D03*
X99385000Y-37050000D03*
X99385000Y-36550000D03*
X99385000Y-36050000D03*
D40*
X98400000Y-36800000D03*
%TD*%
D36*
%TO.C,L3*%
X118500000Y-49150000D03*
D37*
X118500000Y-47850000D03*
%TD*%
D41*
%TO.C,JP_B2*%
X121805000Y-82175000D03*
D42*
X120505000Y-82175000D03*
%TD*%
D26*
%TO.C,R_B4*%
X137440000Y-57667500D03*
X137440000Y-59492500D03*
%TD*%
D43*
%TO.C,C_B1*%
X116300000Y-93262500D03*
X116300000Y-90137500D03*
%TD*%
D27*
%TO.C,GND1*%
X142990000Y-92220000D03*
%TD*%
D38*
%TO.C,C_I(in)1*%
X102862500Y-82000000D03*
X101137500Y-82000000D03*
%TD*%
D44*
%TO.C,J3*%
X96500000Y-74450000D03*
D45*
X94500000Y-74450000D03*
%TD*%
D27*
%TO.C,MA2*%
X95000000Y-31300000D03*
%TD*%
D46*
%TO.C,Q2*%
X137117500Y-75447500D03*
X139017500Y-75447500D03*
X138067500Y-73572500D03*
%TD*%
D28*
%TO.C,R_Bslow2*%
X131877500Y-76790000D03*
X133702500Y-76790000D03*
%TD*%
%TO.C,R_Pfb1*%
X104707500Y-57610000D03*
X106532500Y-57610000D03*
%TD*%
D26*
%TO.C,R_C2*%
X146890000Y-93880000D03*
X146890000Y-95705000D03*
%TD*%
D47*
%TO.C,U_P2*%
X104500000Y-69390000D03*
X104500000Y-71690000D03*
D48*
X110800000Y-71690000D03*
D47*
X104500000Y-73990000D03*
%TD*%
D28*
%TO.C,R_B1*%
X120330000Y-87175000D03*
X122155000Y-87175000D03*
%TD*%
D36*
%TO.C,Vbus_9*%
X129900000Y-97950000D03*
D37*
X129900000Y-96650000D03*
%TD*%
D49*
%TO.C,JP_B_ena1*%
X131550000Y-63400000D03*
D50*
X132850000Y-63400000D03*
%TD*%
D31*
%TO.C,R_C1*%
X146890000Y-91617500D03*
X146890000Y-89792500D03*
%TD*%
D27*
%TO.C,GND0*%
X118000000Y-97000000D03*
%TD*%
D51*
%TO.C,U9*%
X133370000Y-93399000D03*
X134370000Y-93399000D03*
X135370000Y-93399000D03*
X136370000Y-93399000D03*
X137370000Y-93399000D03*
X137370000Y-88124000D03*
X136370000Y-88124000D03*
X135370000Y-88124000D03*
X134370000Y-88124000D03*
X133370000Y-88124000D03*
D52*
X135370000Y-90761500D03*
%TD*%
D53*
%TO.C,C_P5*%
X100500000Y-68500000D03*
X100500000Y-70225000D03*
%TD*%
D27*
%TO.C,PB1*%
X102000000Y-61390000D03*
%TD*%
D36*
%TO.C,P4*%
X101000000Y-73650000D03*
D37*
X101000000Y-72350000D03*
%TD*%
D54*
%TO.C,C_B4*%
X111150000Y-85270000D03*
X116550000Y-85270000D03*
%TD*%
D55*
%TO.C,R_P1*%
X114002500Y-62970000D03*
X112177500Y-62970000D03*
%TD*%
D56*
%TO.C,J1*%
X100950000Y-31375000D03*
D57*
X100950000Y-28835000D03*
X103490000Y-31375000D03*
X103490000Y-28835000D03*
X106030000Y-31375000D03*
X106030000Y-28835000D03*
X108570000Y-31375000D03*
X108570000Y-28835000D03*
X111110000Y-31375000D03*
X111110000Y-28835000D03*
X113650000Y-31375000D03*
X113650000Y-28835000D03*
X116190000Y-31375000D03*
X116190000Y-28835000D03*
X118730000Y-31375000D03*
X118730000Y-28835000D03*
X121270000Y-31375000D03*
X121270000Y-28835000D03*
X123810000Y-31375000D03*
X123810000Y-28835000D03*
X126350000Y-31375000D03*
X126350000Y-28835000D03*
X128890000Y-31375000D03*
X128890000Y-28835000D03*
X131430000Y-31375000D03*
X131430000Y-28835000D03*
X133970000Y-31375000D03*
X133970000Y-28835000D03*
X136510000Y-31375000D03*
X136510000Y-28835000D03*
X139050000Y-31375000D03*
X139050000Y-28835000D03*
%TD*%
D53*
%TO.C,C_P4*%
X115500000Y-58137500D03*
X115500000Y-59862500D03*
%TD*%
%TO.C,C_B5*%
X142440000Y-65667500D03*
X142440000Y-67392500D03*
%TD*%
D27*
%TO.C,T_L1*%
X131050000Y-41500000D03*
%TD*%
%TO.C,VDD1*%
X144700000Y-99400000D03*
%TD*%
%TO.C,B_prog2*%
X133690000Y-80790000D03*
%TD*%
%TO.C,T_3V3*%
X101500000Y-77000000D03*
%TD*%
D39*
%TO.C,U16*%
X104415000Y-36050000D03*
X104415000Y-36550000D03*
X104415000Y-37050000D03*
X104415000Y-37550000D03*
X106385000Y-37550000D03*
X106385000Y-37050000D03*
X106385000Y-36550000D03*
X106385000Y-36050000D03*
D40*
X105400000Y-36800000D03*
%TD*%
D58*
%TO.C,H1*%
X120000000Y-76300000D03*
%TD*%
D59*
%TO.C,L_P3*%
X99870000Y-50425000D03*
X99870000Y-56475000D03*
%TD*%
D33*
%TO.C,P1*%
X110800000Y-53050000D03*
D34*
X110800000Y-54350000D03*
%TD*%
D60*
%TO.C,3V3*%
X109375000Y-76500000D03*
X107625000Y-76500000D03*
%TD*%
D27*
%TO.C,PA2*%
X97000000Y-43500000D03*
%TD*%
D49*
%TO.C,J_L3*%
X125850000Y-41750000D03*
D50*
X127150000Y-41750000D03*
%TD*%
D33*
%TO.C,Bin1*%
X114300000Y-99200000D03*
D34*
X114300000Y-100500000D03*
%TD*%
D26*
%TO.C,R_Pfb2*%
X108740000Y-57590000D03*
X108740000Y-59415000D03*
%TD*%
D33*
%TO.C,J_L2*%
X118500000Y-44350000D03*
D34*
X118500000Y-45650000D03*
%TD*%
D36*
%TO.C,P2*%
X108000000Y-52450000D03*
D37*
X108000000Y-51150000D03*
%TD*%
D55*
%TO.C,R_C3*%
X134282500Y-85761500D03*
X132457500Y-85761500D03*
%TD*%
D28*
%TO.C,R_B7*%
X137147500Y-78090000D03*
X138972500Y-78090000D03*
%TD*%
D27*
%TO.C,PA1*%
X103000000Y-43500000D03*
%TD*%
%TO.C,B_D3*%
X141850000Y-73610000D03*
%TD*%
D61*
%TO.C,C_L1*%
X122250000Y-49750000D03*
X122250000Y-48025000D03*
%TD*%
D62*
%TO.C,U2*%
X100575000Y-85730000D03*
X100575000Y-85080000D03*
X100575000Y-84430000D03*
X100575000Y-83780000D03*
X98300000Y-83780000D03*
X98300000Y-84430000D03*
X98300000Y-85080000D03*
X98300000Y-85730000D03*
%TD*%
D53*
%TO.C,C_P2*%
X111500000Y-58187500D03*
X111500000Y-59912500D03*
%TD*%
D63*
%TO.C,U_P1*%
X104910000Y-54570000D03*
D64*
X105060000Y-55120000D03*
D63*
X104910000Y-55670000D03*
D65*
X106510000Y-55870000D03*
X106510000Y-55370000D03*
X106510000Y-54870000D03*
X106510000Y-54370000D03*
%TD*%
D31*
%TO.C,R21*%
X144440000Y-71580000D03*
X144440000Y-69755000D03*
%TD*%
D49*
%TO.C,J_I1*%
X95350000Y-78500000D03*
D50*
X96650000Y-78500000D03*
%TD*%
D53*
%TO.C,C_L2*%
X122250000Y-44387500D03*
X122250000Y-46112500D03*
%TD*%
D66*
%TO.C,U15*%
X138475000Y-37310000D03*
X138475000Y-36810000D03*
X138475000Y-36310000D03*
X138475000Y-35810000D03*
X136505000Y-35810000D03*
X136505000Y-36310000D03*
X136505000Y-36810000D03*
X136505000Y-37310000D03*
D67*
X137490000Y-36560000D03*
%TD*%
D41*
%TO.C,P3*%
X100150000Y-46500000D03*
D42*
X98850000Y-46500000D03*
%TD*%
D68*
%TO.C,C_P6*%
X108147500Y-66780000D03*
X109872500Y-66780000D03*
%TD*%
D27*
%TO.C,BS1*%
X127470000Y-90560000D03*
%TD*%
%TO.C,PB2*%
X105500000Y-61540000D03*
%TD*%
%TO.C,T_L2*%
X127450000Y-51300000D03*
%TD*%
%TO.C,B_prog1*%
X126420000Y-80680000D03*
%TD*%
D53*
%TO.C,C_L4*%
X133050000Y-47137500D03*
X133050000Y-48862500D03*
%TD*%
D61*
%TO.C,C_P1*%
X104500000Y-51362500D03*
X104500000Y-49637500D03*
%TD*%
D69*
%TO.C,D4*%
X140430000Y-55452500D03*
X140430000Y-53702500D03*
%TD*%
D53*
%TO.C,C_P3*%
X113500000Y-58137500D03*
X113500000Y-59862500D03*
%TD*%
D61*
%TO.C,C_C1*%
X131370000Y-92624000D03*
X131370000Y-90899000D03*
%TD*%
D31*
%TO.C,R_B2*%
X124155000Y-88087500D03*
X124155000Y-86262500D03*
%TD*%
D27*
%TO.C,MB2*%
X99400000Y-39700000D03*
%TD*%
D66*
%TO.C,U17*%
X132125000Y-37410000D03*
X132125000Y-36910000D03*
X132125000Y-36410000D03*
X132125000Y-35910000D03*
X130155000Y-35910000D03*
X130155000Y-36410000D03*
X130155000Y-36910000D03*
X130155000Y-37410000D03*
D67*
X131140000Y-36660000D03*
%TD*%
D27*
%TO.C,TP_5V0*%
X98500000Y-61500000D03*
%TD*%
D33*
%TO.C,M_3V3*%
X136250000Y-40660000D03*
D34*
X136250000Y-41960000D03*
%TD*%
D27*
%TO.C,B_G1*%
X146000000Y-75500000D03*
%TD*%
D61*
%TO.C,C_L3*%
X131150000Y-47062500D03*
X131150000Y-45337500D03*
%TD*%
D33*
%TO.C,J_I3*%
X106097500Y-84710000D03*
D34*
X106097500Y-86010000D03*
%TD*%
D36*
%TO.C,JP_BBatt1*%
X145710000Y-62260000D03*
D37*
X145710000Y-60960000D03*
%TD*%
D33*
%TO.C,JP_Bprog1*%
X131300000Y-72050000D03*
D34*
X131300000Y-73350000D03*
%TD*%
D53*
%TO.C,C_B3*%
X133440000Y-66805000D03*
X133440000Y-68530000D03*
%TD*%
D70*
%TO.C,5V0*%
X108535000Y-62920000D03*
X110285000Y-62920000D03*
%TD*%
D27*
%TO.C,9V1*%
X129800000Y-102100000D03*
%TD*%
%TO.C,CFG1*%
X142930000Y-87400000D03*
%TD*%
D26*
%TO.C,R_Bfast1*%
X133660000Y-72917500D03*
X133660000Y-74742500D03*
%TD*%
D69*
%TO.C,D8*%
X137430000Y-55452500D03*
X137430000Y-53702500D03*
%TD*%
D27*
%TO.C,B-1*%
X99500000Y-66000000D03*
%TD*%
D26*
%TO.C,R_B3*%
X140440000Y-57667500D03*
X140440000Y-59492500D03*
%TD*%
%LPD*%
M02*
