%TF.GenerationSoftware,KiCad,Pcbnew,9.0.0*%
%TF.CreationDate,2025-03-28T03:41:13+02:00*%
%TF.ProjectId,Power_Board_3088F,506f7765-725f-4426-9f61-72645f333038,V0*%
%TF.SameCoordinates,Original*%
%TF.FileFunction,Soldermask,Top*%
%TF.FilePolarity,Negative*%
%FSLAX46Y46*%
G04 Gerber Fmt 4.6, Leading zero omitted, Abs format (unit mm)*
G04 Created by KiCad (PCBNEW 9.0.0) date 2025-03-28 03:41:13*
%MOMM*%
%LPD*%
G01*
G04 APERTURE LIST*
G04 Aperture macros list*
%AMRoundRect*
0 Rectangle with rounded corners*
0 $1 Rounding radius*
0 $2 $3 $4 $5 $6 $7 $8 $9 X,Y pos of 4 corners*
0 Add a 4 corners polygon primitive as box body*
4,1,4,$2,$3,$4,$5,$6,$7,$8,$9,$2,$3,0*
0 Add four circle primitives for the rounded corners*
1,1,$1+$1,$2,$3*
1,1,$1+$1,$4,$5*
1,1,$1+$1,$6,$7*
1,1,$1+$1,$8,$9*
0 Add four rect primitives between the rounded corners*
20,1,$1+$1,$2,$3,$4,$5,0*
20,1,$1+$1,$4,$5,$6,$7,0*
20,1,$1+$1,$6,$7,$8,$9,0*
20,1,$1+$1,$8,$9,$2,$3,0*%
%AMFreePoly0*
4,1,23,0.500000,-0.750000,0.000000,-0.750000,0.000000,-0.745722,-0.065263,-0.745722,-0.191342,-0.711940,-0.304381,-0.646677,-0.396677,-0.554381,-0.461940,-0.441342,-0.495722,-0.315263,-0.495722,-0.250000,-0.500000,-0.250000,-0.500000,0.250000,-0.495722,0.250000,-0.495722,0.315263,-0.461940,0.441342,-0.396677,0.554381,-0.304381,0.646677,-0.191342,0.711940,-0.065263,0.745722,0.000000,0.745722,
0.000000,0.750000,0.500000,0.750000,0.500000,-0.750000,0.500000,-0.750000,$1*%
%AMFreePoly1*
4,1,23,0.000000,0.745722,0.065263,0.745722,0.191342,0.711940,0.304381,0.646677,0.396677,0.554381,0.461940,0.441342,0.495722,0.315263,0.495722,0.250000,0.500000,0.250000,0.500000,-0.250000,0.495722,-0.250000,0.495722,-0.315263,0.461940,-0.441342,0.396677,-0.554381,0.304381,-0.646677,0.191342,-0.711940,0.065263,-0.745722,0.000000,-0.745722,0.000000,-0.750000,-0.500000,-0.750000,
-0.500000,0.750000,0.000000,0.750000,0.000000,0.745722,0.000000,0.745722,$1*%
G04 Aperture macros list end*
%ADD10C,0.010000*%
%ADD11R,2.000000X2.000000*%
%ADD12O,1.000000X2.100000*%
%ADD13O,1.000000X1.800000*%
%ADD14R,0.600000X1.240000*%
%ADD15R,0.300000X1.240000*%
%ADD16C,3.000000*%
%ADD17RoundRect,0.102000X1.651000X-1.100000X1.651000X1.100000X-1.651000X1.100000X-1.651000X-1.100000X0*%
%ADD18RoundRect,0.102000X0.300000X-0.985000X0.300000X0.985000X-0.300000X0.985000X-0.300000X-0.985000X0*%
%ADD19RoundRect,0.237500X-0.237500X0.250000X-0.237500X-0.250000X0.237500X-0.250000X0.237500X0.250000X0*%
%ADD20C,2.000000*%
%ADD21RoundRect,0.237500X-0.250000X-0.237500X0.250000X-0.237500X0.250000X0.237500X-0.250000X0.237500X0*%
%ADD22RoundRect,0.150000X0.825000X0.150000X-0.825000X0.150000X-0.825000X-0.150000X0.825000X-0.150000X0*%
%ADD23R,2.290000X3.000000*%
%ADD24RoundRect,0.237500X0.237500X-0.250000X0.237500X0.250000X-0.237500X0.250000X-0.237500X-0.250000X0*%
%ADD25RoundRect,0.250000X0.625000X-0.400000X0.625000X0.400000X-0.625000X0.400000X-0.625000X-0.400000X0*%
%ADD26FreePoly0,270.000000*%
%ADD27FreePoly1,270.000000*%
%ADD28RoundRect,0.110000X0.440000X1.590000X-0.440000X1.590000X-0.440000X-1.590000X0.440000X-1.590000X0*%
%ADD29FreePoly0,90.000000*%
%ADD30FreePoly1,90.000000*%
%ADD31RoundRect,0.237500X0.300000X0.237500X-0.300000X0.237500X-0.300000X-0.237500X0.300000X-0.237500X0*%
%ADD32RoundRect,0.060500X-0.411500X-0.181500X0.411500X-0.181500X0.411500X0.181500X-0.411500X0.181500X0*%
%ADD33RoundRect,0.102000X-0.450000X-0.800000X0.450000X-0.800000X0.450000X0.800000X-0.450000X0.800000X0*%
%ADD34FreePoly0,180.000000*%
%ADD35FreePoly1,180.000000*%
%ADD36RoundRect,0.250000X0.650000X-0.412500X0.650000X0.412500X-0.650000X0.412500X-0.650000X-0.412500X0*%
%ADD37RoundRect,0.250000X0.350000X0.625000X-0.350000X0.625000X-0.350000X-0.625000X0.350000X-0.625000X0*%
%ADD38O,1.200000X1.750000*%
%ADD39RoundRect,0.150000X0.150000X-0.587500X0.150000X0.587500X-0.150000X0.587500X-0.150000X-0.587500X0*%
%ADD40RoundRect,0.375000X-0.625000X-0.375000X0.625000X-0.375000X0.625000X0.375000X-0.625000X0.375000X0*%
%ADD41RoundRect,0.500000X-0.500000X-1.400000X0.500000X-1.400000X0.500000X1.400000X-0.500000X1.400000X0*%
%ADD42FreePoly0,0.000000*%
%ADD43FreePoly1,0.000000*%
%ADD44RoundRect,0.150000X0.150000X-0.687500X0.150000X0.687500X-0.150000X0.687500X-0.150000X-0.687500X0*%
%ADD45R,3.300000X2.100000*%
%ADD46RoundRect,0.237500X-0.237500X0.300000X-0.237500X-0.300000X0.237500X-0.300000X0.237500X0.300000X0*%
%ADD47RoundRect,0.250000X-1.500000X-0.550000X1.500000X-0.550000X1.500000X0.550000X-1.500000X0.550000X0*%
%ADD48RoundRect,0.237500X0.250000X0.237500X-0.250000X0.237500X-0.250000X-0.237500X0.250000X-0.237500X0*%
%ADD49R,1.700000X1.700000*%
%ADD50O,1.700000X1.700000*%
%ADD51RoundRect,0.250000X-1.500000X0.925000X-1.500000X-0.925000X1.500000X-0.925000X1.500000X0.925000X0*%
%ADD52RoundRect,0.237500X0.287500X0.237500X-0.287500X0.237500X-0.287500X-0.237500X0.287500X-0.237500X0*%
%ADD53RoundRect,0.237500X0.237500X-0.300000X0.237500X0.300000X-0.237500X0.300000X-0.237500X-0.300000X0*%
%ADD54RoundRect,0.125000X0.537500X0.125000X-0.537500X0.125000X-0.537500X-0.125000X0.537500X-0.125000X0*%
%ADD55RoundRect,0.087500X-0.487500X-0.087500X0.487500X-0.087500X0.487500X0.087500X-0.487500X0.087500X0*%
%ADD56RoundRect,0.050000X-0.675000X-0.050000X0.675000X-0.050000X0.675000X0.050000X-0.675000X0.050000X0*%
%ADD57RoundRect,0.062500X-0.162500X-0.062500X0.162500X-0.062500X0.162500X0.062500X-0.162500X0.062500X0*%
%ADD58RoundRect,0.060500X0.411500X0.181500X-0.411500X0.181500X-0.411500X-0.181500X0.411500X-0.181500X0*%
%ADD59RoundRect,0.102000X0.450000X0.800000X-0.450000X0.800000X-0.450000X-0.800000X0.450000X-0.800000X0*%
%ADD60RoundRect,0.237500X-0.300000X-0.237500X0.300000X-0.237500X0.300000X0.237500X-0.300000X0.237500X0*%
%ADD61RoundRect,0.237500X0.237500X-0.287500X0.237500X0.287500X-0.237500X0.287500X-0.237500X-0.287500X0*%
%ADD62RoundRect,0.237500X-0.287500X-0.237500X0.287500X-0.237500X0.287500X0.237500X-0.287500X0.237500X0*%
G04 APERTURE END LIST*
D10*
%TO.C,U7*%
X125950000Y-45875000D02*
X125350000Y-45875000D01*
X125350000Y-45125000D01*
X125950000Y-45125000D01*
X125950000Y-45875000D01*
G36*
X125950000Y-45875000D02*
G01*
X125350000Y-45875000D01*
X125350000Y-45125000D01*
X125950000Y-45125000D01*
X125950000Y-45875000D01*
G37*
X125950000Y-46275000D02*
X125350000Y-46275000D01*
X125350000Y-45925000D01*
X125950000Y-45925000D01*
X125950000Y-46275000D01*
G36*
X125950000Y-46275000D02*
G01*
X125350000Y-46275000D01*
X125350000Y-45925000D01*
X125950000Y-45925000D01*
X125950000Y-46275000D01*
G37*
X125950000Y-46675000D02*
X125350000Y-46675000D01*
X125350000Y-46325000D01*
X125950000Y-46325000D01*
X125950000Y-46675000D01*
G36*
X125950000Y-46675000D02*
G01*
X125350000Y-46675000D01*
X125350000Y-46325000D01*
X125950000Y-46325000D01*
X125950000Y-46675000D01*
G37*
X125950000Y-47075000D02*
X125350000Y-47075000D01*
X125350000Y-46725000D01*
X125950000Y-46725000D01*
X125950000Y-47075000D01*
G36*
X125950000Y-47075000D02*
G01*
X125350000Y-47075000D01*
X125350000Y-46725000D01*
X125950000Y-46725000D01*
X125950000Y-47075000D01*
G37*
X125950000Y-47875000D02*
X125350000Y-47875000D01*
X125350000Y-47125000D01*
X125950000Y-47125000D01*
X125950000Y-47875000D01*
G36*
X125950000Y-47875000D02*
G01*
X125350000Y-47875000D01*
X125350000Y-47125000D01*
X125950000Y-47125000D01*
X125950000Y-47875000D01*
G37*
X127650000Y-45875000D02*
X127050000Y-45875000D01*
X127050000Y-45125000D01*
X127650000Y-45125000D01*
X127650000Y-45875000D01*
G36*
X127650000Y-45875000D02*
G01*
X127050000Y-45875000D01*
X127050000Y-45125000D01*
X127650000Y-45125000D01*
X127650000Y-45875000D01*
G37*
X127650000Y-46275000D02*
X127050000Y-46275000D01*
X127050000Y-45925000D01*
X127650000Y-45925000D01*
X127650000Y-46275000D01*
G36*
X127650000Y-46275000D02*
G01*
X127050000Y-46275000D01*
X127050000Y-45925000D01*
X127650000Y-45925000D01*
X127650000Y-46275000D01*
G37*
X127650000Y-46675000D02*
X127050000Y-46675000D01*
X127050000Y-46325000D01*
X127650000Y-46325000D01*
X127650000Y-46675000D01*
G36*
X127650000Y-46675000D02*
G01*
X127050000Y-46675000D01*
X127050000Y-46325000D01*
X127650000Y-46325000D01*
X127650000Y-46675000D01*
G37*
X127650000Y-47075000D02*
X127050000Y-47075000D01*
X127050000Y-46725000D01*
X127650000Y-46725000D01*
X127650000Y-47075000D01*
G36*
X127650000Y-47075000D02*
G01*
X127050000Y-47075000D01*
X127050000Y-46725000D01*
X127650000Y-46725000D01*
X127650000Y-47075000D01*
G37*
X127650000Y-47875000D02*
X127050000Y-47875000D01*
X127050000Y-47125000D01*
X127650000Y-47125000D01*
X127650000Y-47875000D01*
G36*
X127650000Y-47875000D02*
G01*
X127050000Y-47875000D01*
X127050000Y-47125000D01*
X127650000Y-47125000D01*
X127650000Y-47875000D01*
G37*
X127025000Y-47825000D02*
X125975000Y-47825000D01*
X125975000Y-45350000D01*
X125984000Y-45350000D01*
X125993000Y-45349000D01*
X126002000Y-45348000D01*
X126011000Y-45346000D01*
X126020000Y-45344000D01*
X126029000Y-45341000D01*
X126038000Y-45338000D01*
X126046000Y-45335000D01*
X126054000Y-45331000D01*
X126062000Y-45327000D01*
X126070000Y-45322000D01*
X126078000Y-45317000D01*
X126085000Y-45311000D01*
X126092000Y-45305000D01*
X126099000Y-45299000D01*
X126105000Y-45292000D01*
X126111000Y-45285000D01*
X126117000Y-45278000D01*
X126122000Y-45270000D01*
X126127000Y-45263000D01*
X126131000Y-45254000D01*
X126135000Y-45246000D01*
X126138000Y-45238000D01*
X126141000Y-45229000D01*
X126144000Y-45220000D01*
X126146000Y-45211000D01*
X126148000Y-45202000D01*
X126149000Y-45193000D01*
X126150000Y-45184000D01*
X126150000Y-45175000D01*
X127025000Y-45175000D01*
X127025000Y-47825000D01*
G36*
X127025000Y-47825000D02*
G01*
X125975000Y-47825000D01*
X125975000Y-45350000D01*
X125984000Y-45350000D01*
X125993000Y-45349000D01*
X126002000Y-45348000D01*
X126011000Y-45346000D01*
X126020000Y-45344000D01*
X126029000Y-45341000D01*
X126038000Y-45338000D01*
X126046000Y-45335000D01*
X126054000Y-45331000D01*
X126062000Y-45327000D01*
X126070000Y-45322000D01*
X126078000Y-45317000D01*
X126085000Y-45311000D01*
X126092000Y-45305000D01*
X126099000Y-45299000D01*
X126105000Y-45292000D01*
X126111000Y-45285000D01*
X126117000Y-45278000D01*
X126122000Y-45270000D01*
X126127000Y-45263000D01*
X126131000Y-45254000D01*
X126135000Y-45246000D01*
X126138000Y-45238000D01*
X126141000Y-45229000D01*
X126144000Y-45220000D01*
X126146000Y-45211000D01*
X126148000Y-45202000D01*
X126149000Y-45193000D01*
X126150000Y-45184000D01*
X126150000Y-45175000D01*
X127025000Y-45175000D01*
X127025000Y-47825000D01*
G37*
%TO.C,J_I2*%
G36*
X95250000Y-81350000D02*
G01*
X93750000Y-81350000D01*
X93750000Y-81650000D01*
X95250000Y-81650000D01*
X95250000Y-81350000D01*
G37*
%TO.C,M_VM1*%
G36*
X140860000Y-41490000D02*
G01*
X142360000Y-41490000D01*
X142360000Y-41190000D01*
X140860000Y-41190000D01*
X140860000Y-41490000D01*
G37*
%TO.C,L3*%
G36*
X117750000Y-48650000D02*
G01*
X119250000Y-48650000D01*
X119250000Y-48350000D01*
X117750000Y-48350000D01*
X117750000Y-48650000D01*
G37*
%TO.C,JP_B2*%
G36*
X121305000Y-82925000D02*
G01*
X121005000Y-82925000D01*
X121005000Y-81425000D01*
X121305000Y-81425000D01*
X121305000Y-82925000D01*
G37*
%TO.C,Vbus_9*%
G36*
X129150000Y-97450000D02*
G01*
X130650000Y-97450000D01*
X130650000Y-97150000D01*
X129150000Y-97150000D01*
X129150000Y-97450000D01*
G37*
%TO.C,JP_B_ena1*%
G36*
X132050000Y-62650000D02*
G01*
X132350000Y-62650000D01*
X132350000Y-64150000D01*
X132050000Y-64150000D01*
X132050000Y-62650000D01*
G37*
%TO.C,P4*%
G36*
X100250000Y-73150000D02*
G01*
X101750000Y-73150000D01*
X101750000Y-72850000D01*
X100250000Y-72850000D01*
X100250000Y-73150000D01*
G37*
%TO.C,P1*%
G36*
X111550000Y-53550000D02*
G01*
X110050000Y-53550000D01*
X110050000Y-53850000D01*
X111550000Y-53850000D01*
X111550000Y-53550000D01*
G37*
%TO.C,J_L3*%
G36*
X126350000Y-41000000D02*
G01*
X126650000Y-41000000D01*
X126650000Y-42500000D01*
X126350000Y-42500000D01*
X126350000Y-41000000D01*
G37*
%TO.C,Bin1*%
G36*
X115050000Y-99700000D02*
G01*
X113550000Y-99700000D01*
X113550000Y-100000000D01*
X115050000Y-100000000D01*
X115050000Y-99700000D01*
G37*
%TO.C,J_L2*%
G36*
X119250000Y-44850000D02*
G01*
X117750000Y-44850000D01*
X117750000Y-45150000D01*
X119250000Y-45150000D01*
X119250000Y-44850000D01*
G37*
%TO.C,P2*%
G36*
X107250000Y-51950000D02*
G01*
X108750000Y-51950000D01*
X108750000Y-51650000D01*
X107250000Y-51650000D01*
X107250000Y-51950000D01*
G37*
%TO.C,J_I1*%
G36*
X95850000Y-77750000D02*
G01*
X96150000Y-77750000D01*
X96150000Y-79250000D01*
X95850000Y-79250000D01*
X95850000Y-77750000D01*
G37*
%TO.C,P3*%
G36*
X99650000Y-47250000D02*
G01*
X99350000Y-47250000D01*
X99350000Y-45750000D01*
X99650000Y-45750000D01*
X99650000Y-47250000D01*
G37*
%TO.C,M_3V3*%
G36*
X137000000Y-41160000D02*
G01*
X135500000Y-41160000D01*
X135500000Y-41460000D01*
X137000000Y-41460000D01*
X137000000Y-41160000D01*
G37*
%TO.C,J_I3*%
G36*
X106847500Y-85210000D02*
G01*
X105347500Y-85210000D01*
X105347500Y-85510000D01*
X106847500Y-85510000D01*
X106847500Y-85210000D01*
G37*
%TO.C,JP_BBatt1*%
G36*
X144960000Y-61760000D02*
G01*
X146460000Y-61760000D01*
X146460000Y-61460000D01*
X144960000Y-61460000D01*
X144960000Y-61760000D01*
G37*
%TO.C,JP_Bprog1*%
G36*
X132050000Y-72550000D02*
G01*
X130550000Y-72550000D01*
X130550000Y-72850000D01*
X132050000Y-72850000D01*
X132050000Y-72550000D01*
G37*
%TD*%
D11*
%TO.C,D7*%
X118150000Y-100700000D03*
X122550000Y-100700000D03*
%TD*%
D12*
%TO.C,U4*%
X141220000Y-96651500D03*
X132580000Y-96651500D03*
D13*
X141220000Y-100831500D03*
X132580000Y-100831500D03*
D14*
X133700000Y-96031500D03*
X134500000Y-96031500D03*
D15*
X135650000Y-96031500D03*
X136650000Y-96031500D03*
X137150000Y-96031500D03*
X138150000Y-96031500D03*
D14*
X140100000Y-96031500D03*
X139300000Y-96031500D03*
D15*
X138650000Y-96031500D03*
X137650000Y-96031500D03*
X136150000Y-96031500D03*
X135150000Y-96031500D03*
%TD*%
D16*
%TO.C,SW1*%
X104800000Y-91800000D03*
X100000000Y-91800000D03*
X95200000Y-91800000D03*
X93350000Y-101000000D03*
X106650000Y-101000000D03*
%TD*%
D17*
%TO.C,U6*%
X138440000Y-67667500D03*
D18*
X136535000Y-70142500D03*
X137805000Y-70142500D03*
X139075000Y-70142500D03*
X140345000Y-70142500D03*
X140345000Y-65192500D03*
X139075000Y-65192500D03*
X137805000Y-65192500D03*
X136535000Y-65192500D03*
%TD*%
D19*
%TO.C,R_I1*%
X94950000Y-86312500D03*
X94950000Y-84487500D03*
%TD*%
D20*
%TO.C,TP21*%
X122550000Y-41700000D03*
%TD*%
D21*
%TO.C,R_I2*%
X97087500Y-82000000D03*
X98912500Y-82000000D03*
%TD*%
%TO.C,R_P2*%
X104175000Y-76500000D03*
X106000000Y-76500000D03*
%TD*%
D22*
%TO.C,U5*%
X124060000Y-94330000D03*
X124060000Y-93060000D03*
X124060000Y-91790000D03*
X124060000Y-90520000D03*
X119110000Y-90520000D03*
X119110000Y-91790000D03*
X119110000Y-93060000D03*
X119110000Y-94330000D03*
D23*
X121585000Y-92425000D03*
%TD*%
D24*
%TO.C,R22*%
X147410000Y-71632500D03*
X147410000Y-69807500D03*
%TD*%
%TO.C,R_B6*%
X142560000Y-83345000D03*
X142560000Y-81520000D03*
%TD*%
D25*
%TO.C,R_SH1*%
X103500000Y-87050000D03*
X103500000Y-83950000D03*
%TD*%
D26*
%TO.C,J_I2*%
X94500000Y-80850000D03*
D27*
X94500000Y-82150000D03*
%TD*%
D28*
%TO.C,LB1*%
X112400000Y-91600000D03*
X109400000Y-91600000D03*
%TD*%
D20*
%TO.C,B+1*%
X94000000Y-62000000D03*
%TD*%
D29*
%TO.C,M_VM1*%
X141610000Y-41990000D03*
D30*
X141610000Y-40690000D03*
%TD*%
D31*
%TO.C,C_B2*%
X124017500Y-97175000D03*
X122292500Y-97175000D03*
%TD*%
D20*
%TO.C,TP_B1*%
X146100000Y-81600000D03*
%TD*%
D32*
%TO.C,U14*%
X97415000Y-36050000D03*
X97415000Y-36550000D03*
X97415000Y-37050000D03*
X97415000Y-37550000D03*
X99385000Y-37550000D03*
X99385000Y-37050000D03*
X99385000Y-36550000D03*
X99385000Y-36050000D03*
D33*
X98400000Y-36800000D03*
%TD*%
D29*
%TO.C,L3*%
X118500000Y-49150000D03*
D30*
X118500000Y-47850000D03*
%TD*%
D34*
%TO.C,JP_B2*%
X121805000Y-82175000D03*
D35*
X120505000Y-82175000D03*
%TD*%
D19*
%TO.C,R_B4*%
X137440000Y-57667500D03*
X137440000Y-59492500D03*
%TD*%
D36*
%TO.C,C_B1*%
X116300000Y-93262500D03*
X116300000Y-90137500D03*
%TD*%
D20*
%TO.C,GND1*%
X142990000Y-92220000D03*
%TD*%
D31*
%TO.C,C_I(in)1*%
X102862500Y-82000000D03*
X101137500Y-82000000D03*
%TD*%
D37*
%TO.C,J3*%
X96500000Y-74450000D03*
D38*
X94500000Y-74450000D03*
%TD*%
D20*
%TO.C,MA2*%
X95000000Y-31300000D03*
%TD*%
D39*
%TO.C,Q2*%
X137117500Y-75447500D03*
X139017500Y-75447500D03*
X138067500Y-73572500D03*
%TD*%
D21*
%TO.C,R_Bslow2*%
X131877500Y-76790000D03*
X133702500Y-76790000D03*
%TD*%
%TO.C,R_Pfb1*%
X104707500Y-57610000D03*
X106532500Y-57610000D03*
%TD*%
D19*
%TO.C,R_C2*%
X146890000Y-93880000D03*
X146890000Y-95705000D03*
%TD*%
D40*
%TO.C,U_P2*%
X104500000Y-69390000D03*
X104500000Y-71690000D03*
D41*
X110800000Y-71690000D03*
D40*
X104500000Y-73990000D03*
%TD*%
D21*
%TO.C,R_B1*%
X120330000Y-87175000D03*
X122155000Y-87175000D03*
%TD*%
D29*
%TO.C,Vbus_9*%
X129900000Y-97950000D03*
D30*
X129900000Y-96650000D03*
%TD*%
D42*
%TO.C,JP_B_ena1*%
X131550000Y-63400000D03*
D43*
X132850000Y-63400000D03*
%TD*%
D24*
%TO.C,R_C1*%
X146890000Y-91617500D03*
X146890000Y-89792500D03*
%TD*%
D20*
%TO.C,GND0*%
X118000000Y-97000000D03*
%TD*%
D44*
%TO.C,U9*%
X133370000Y-93399000D03*
X134370000Y-93399000D03*
X135370000Y-93399000D03*
X136370000Y-93399000D03*
X137370000Y-93399000D03*
X137370000Y-88124000D03*
X136370000Y-88124000D03*
X135370000Y-88124000D03*
X134370000Y-88124000D03*
X133370000Y-88124000D03*
D45*
X135370000Y-90761500D03*
%TD*%
D46*
%TO.C,C_P5*%
X100500000Y-68500000D03*
X100500000Y-70225000D03*
%TD*%
D20*
%TO.C,PB1*%
X102000000Y-61390000D03*
%TD*%
D29*
%TO.C,P4*%
X101000000Y-73650000D03*
D30*
X101000000Y-72350000D03*
%TD*%
D47*
%TO.C,C_B4*%
X111150000Y-85270000D03*
X116550000Y-85270000D03*
%TD*%
D48*
%TO.C,R_P1*%
X114002500Y-62970000D03*
X112177500Y-62970000D03*
%TD*%
D49*
%TO.C,J1*%
X100950000Y-31375000D03*
D50*
X100950000Y-28835000D03*
X103490000Y-31375000D03*
X103490000Y-28835000D03*
X106030000Y-31375000D03*
X106030000Y-28835000D03*
X108570000Y-31375000D03*
X108570000Y-28835000D03*
X111110000Y-31375000D03*
X111110000Y-28835000D03*
X113650000Y-31375000D03*
X113650000Y-28835000D03*
X116190000Y-31375000D03*
X116190000Y-28835000D03*
X118730000Y-31375000D03*
X118730000Y-28835000D03*
X121270000Y-31375000D03*
X121270000Y-28835000D03*
X123810000Y-31375000D03*
X123810000Y-28835000D03*
X126350000Y-31375000D03*
X126350000Y-28835000D03*
X128890000Y-31375000D03*
X128890000Y-28835000D03*
X131430000Y-31375000D03*
X131430000Y-28835000D03*
X133970000Y-31375000D03*
X133970000Y-28835000D03*
X136510000Y-31375000D03*
X136510000Y-28835000D03*
X139050000Y-31375000D03*
X139050000Y-28835000D03*
%TD*%
D46*
%TO.C,C_P4*%
X115500000Y-58137500D03*
X115500000Y-59862500D03*
%TD*%
%TO.C,C_B5*%
X142440000Y-65667500D03*
X142440000Y-67392500D03*
%TD*%
D20*
%TO.C,T_L1*%
X131050000Y-41500000D03*
%TD*%
%TO.C,VDD1*%
X144700000Y-99400000D03*
%TD*%
%TO.C,B_prog2*%
X133690000Y-80790000D03*
%TD*%
%TO.C,T_3V3*%
X101500000Y-77000000D03*
%TD*%
D32*
%TO.C,U16*%
X104415000Y-36050000D03*
X104415000Y-36550000D03*
X104415000Y-37050000D03*
X104415000Y-37550000D03*
X106385000Y-37550000D03*
X106385000Y-37050000D03*
X106385000Y-36550000D03*
X106385000Y-36050000D03*
D33*
X105400000Y-36800000D03*
%TD*%
D51*
%TO.C,L_P3*%
X99870000Y-50425000D03*
X99870000Y-56475000D03*
%TD*%
D26*
%TO.C,P1*%
X110800000Y-53050000D03*
D27*
X110800000Y-54350000D03*
%TD*%
D52*
%TO.C,3V3*%
X109375000Y-76500000D03*
X107625000Y-76500000D03*
%TD*%
D20*
%TO.C,PA2*%
X97000000Y-43500000D03*
%TD*%
D42*
%TO.C,J_L3*%
X125850000Y-41750000D03*
D43*
X127150000Y-41750000D03*
%TD*%
D26*
%TO.C,Bin1*%
X114300000Y-99200000D03*
D27*
X114300000Y-100500000D03*
%TD*%
D19*
%TO.C,R_Pfb2*%
X108740000Y-57590000D03*
X108740000Y-59415000D03*
%TD*%
D26*
%TO.C,J_L2*%
X118500000Y-44350000D03*
D27*
X118500000Y-45650000D03*
%TD*%
D29*
%TO.C,P2*%
X108000000Y-52450000D03*
D30*
X108000000Y-51150000D03*
%TD*%
D48*
%TO.C,R_C3*%
X134282500Y-85761500D03*
X132457500Y-85761500D03*
%TD*%
D21*
%TO.C,R_B7*%
X137147500Y-78090000D03*
X138972500Y-78090000D03*
%TD*%
D20*
%TO.C,PA1*%
X103000000Y-43500000D03*
%TD*%
%TO.C,B_D3*%
X141850000Y-73610000D03*
%TD*%
D53*
%TO.C,C_L1*%
X122250000Y-49750000D03*
X122250000Y-48025000D03*
%TD*%
D54*
%TO.C,U2*%
X100575000Y-85730000D03*
X100575000Y-85080000D03*
X100575000Y-84430000D03*
X100575000Y-83780000D03*
X98300000Y-83780000D03*
X98300000Y-84430000D03*
X98300000Y-85080000D03*
X98300000Y-85730000D03*
%TD*%
D46*
%TO.C,C_P2*%
X111500000Y-58187500D03*
X111500000Y-59912500D03*
%TD*%
D55*
%TO.C,U_P1*%
X104910000Y-54570000D03*
D56*
X105060000Y-55120000D03*
D55*
X104910000Y-55670000D03*
D57*
X106510000Y-55870000D03*
X106510000Y-55370000D03*
X106510000Y-54870000D03*
X106510000Y-54370000D03*
%TD*%
D24*
%TO.C,R21*%
X144440000Y-71580000D03*
X144440000Y-69755000D03*
%TD*%
D42*
%TO.C,J_I1*%
X95350000Y-78500000D03*
D43*
X96650000Y-78500000D03*
%TD*%
D46*
%TO.C,C_L2*%
X122250000Y-44387500D03*
X122250000Y-46112500D03*
%TD*%
D58*
%TO.C,U15*%
X138475000Y-37310000D03*
X138475000Y-36810000D03*
X138475000Y-36310000D03*
X138475000Y-35810000D03*
X136505000Y-35810000D03*
X136505000Y-36310000D03*
X136505000Y-36810000D03*
X136505000Y-37310000D03*
D59*
X137490000Y-36560000D03*
%TD*%
D34*
%TO.C,P3*%
X100150000Y-46500000D03*
D35*
X98850000Y-46500000D03*
%TD*%
D60*
%TO.C,C_P6*%
X108147500Y-66780000D03*
X109872500Y-66780000D03*
%TD*%
D20*
%TO.C,BS1*%
X127470000Y-90560000D03*
%TD*%
%TO.C,PB2*%
X105500000Y-61540000D03*
%TD*%
%TO.C,T_L2*%
X127450000Y-51300000D03*
%TD*%
%TO.C,B_prog1*%
X126420000Y-80680000D03*
%TD*%
D46*
%TO.C,C_L4*%
X133050000Y-47137500D03*
X133050000Y-48862500D03*
%TD*%
D53*
%TO.C,C_P1*%
X104500000Y-51362500D03*
X104500000Y-49637500D03*
%TD*%
D61*
%TO.C,D4*%
X140430000Y-55452500D03*
X140430000Y-53702500D03*
%TD*%
D46*
%TO.C,C_P3*%
X113500000Y-58137500D03*
X113500000Y-59862500D03*
%TD*%
D53*
%TO.C,C_C1*%
X131370000Y-92624000D03*
X131370000Y-90899000D03*
%TD*%
D24*
%TO.C,R_B2*%
X124155000Y-88087500D03*
X124155000Y-86262500D03*
%TD*%
D20*
%TO.C,MB2*%
X99400000Y-39700000D03*
%TD*%
D58*
%TO.C,U17*%
X132125000Y-37410000D03*
X132125000Y-36910000D03*
X132125000Y-36410000D03*
X132125000Y-35910000D03*
X130155000Y-35910000D03*
X130155000Y-36410000D03*
X130155000Y-36910000D03*
X130155000Y-37410000D03*
D59*
X131140000Y-36660000D03*
%TD*%
D20*
%TO.C,TP_5V0*%
X98500000Y-61500000D03*
%TD*%
D26*
%TO.C,M_3V3*%
X136250000Y-40660000D03*
D27*
X136250000Y-41960000D03*
%TD*%
D20*
%TO.C,B_G1*%
X146000000Y-75500000D03*
%TD*%
D53*
%TO.C,C_L3*%
X131150000Y-47062500D03*
X131150000Y-45337500D03*
%TD*%
D26*
%TO.C,J_I3*%
X106097500Y-84710000D03*
D27*
X106097500Y-86010000D03*
%TD*%
D29*
%TO.C,JP_BBatt1*%
X145710000Y-62260000D03*
D30*
X145710000Y-60960000D03*
%TD*%
D26*
%TO.C,JP_Bprog1*%
X131300000Y-72050000D03*
D27*
X131300000Y-73350000D03*
%TD*%
D46*
%TO.C,C_B3*%
X133440000Y-66805000D03*
X133440000Y-68530000D03*
%TD*%
D62*
%TO.C,5V0*%
X108535000Y-62920000D03*
X110285000Y-62920000D03*
%TD*%
D20*
%TO.C,9V1*%
X129800000Y-102100000D03*
%TD*%
%TO.C,CFG1*%
X142930000Y-87400000D03*
%TD*%
D19*
%TO.C,R_Bfast1*%
X133660000Y-72917500D03*
X133660000Y-74742500D03*
%TD*%
D61*
%TO.C,D8*%
X137430000Y-55452500D03*
X137430000Y-53702500D03*
%TD*%
D20*
%TO.C,B-1*%
X99500000Y-66000000D03*
%TD*%
D19*
%TO.C,R_B3*%
X140440000Y-57667500D03*
X140440000Y-59492500D03*
%TD*%
M02*
