M48
; DRILL file {KiCad 9.0.0} date 2025-03-28T03:41:13+0200
; FORMAT={-:-/ absolute / inch / decimal}
; #@! TF.CreationDate,2025-03-28T03:41:13+02:00
; #@! TF.GenerationSoftware,Kicad,Pcbnew,9.0.0
; #@! TF.FileFunction,Plated,1,2,PTH
FMAT,2
INCH
; #@! TA.AperFunction,Plated,PTH,ViaDrill
T1C0.0118
; #@! TA.AperFunction,Plated,PTH,ComponentDrill
T2C0.0236
; #@! TA.AperFunction,Plated,PTH,ComponentDrill
T3C0.0295
; #@! TA.AperFunction,Plated,PTH,ComponentDrill
T4C0.0394
; #@! TA.AperFunction,Plated,PTH,ComponentDrill
T5C0.0709
%
G90
G05
T1
X3.6195Y-1.8872
X3.622Y-3.4724
X3.622Y-3.5512
X3.6614Y-1.8307
X3.6614Y-1.9685
X3.6693Y-3.0236
X3.685Y-3.5276
X3.7205Y-1.9094
X3.7441Y-1.3917
X3.7598Y-1.7913
X3.7598Y-1.8701
X3.7756Y-1.3917
X3.7835Y-3.0315
X3.811Y-3.3496
X3.8228Y-1.3248
X3.8346Y-2.6063
X3.874Y-1.376
X3.9173Y-3.189
X3.9199Y-3.0486
X3.9252Y-1.372
X3.937Y-3.2283
X3.9709Y-1.4236
X4.0086Y-1.4232
X4.0147Y-3.293
X4.0295Y-1.5453
X4.0397Y-1.4689
X4.0653Y-1.4449
X4.0748Y-2.3622
X4.1024Y-1.3701
X4.1122Y-1.5177
X4.1378Y-2.6535
X4.1654Y-2.0217
X4.1969Y-2.6299
X4.2303Y-2.3248
X4.3071Y-3.063
X4.3504Y-1.5157
X4.3504Y-1.5472
X4.4094Y-1.8898
X4.4291Y-2.2913
X4.4882Y-1.5472
X4.4882Y-1.811
X4.4961Y-3.7067
X4.4961Y-3.7972
X4.5039Y-1.5177
X4.5075Y-1.9689
X4.5079Y-1.0236
X4.5079Y-1.8898
X4.5512Y-3.8189
X4.5768Y-3.6004
X4.6791Y-2.0984
X4.6929Y-1.4154
X4.7618Y-3.6138
X4.7638Y-3.6772
X4.8031Y-2.0984
X4.811Y-3.6102
X4.811Y-3.6772
X4.8661Y-1.72
X4.8661Y-1.7751
X4.8681Y-1.8386
X4.874Y-3.189
X4.8898Y-3.3465
X4.8969Y-1.782
X4.8976Y-1.8661
X4.9783Y-1.5
X4.9803Y-1.8307
X5.0079Y-1.5197
X5.0669Y-1.7047
X5.0787Y-1.4685
X5.1024Y-1.5197
X5.1142Y-1.872
X5.1319Y-1.7264
X5.1772Y-2.5748
X5.1772Y-3.7913
X5.185Y-2.7008
X5.2008Y-1.376
X5.2047Y-3.4724
X5.2598Y-3.9685
X5.2638Y-2.7756
X5.2639Y-3.0709
X5.2784Y-1.4122
X5.2795Y-1.4528
X5.2835Y-3.5748
X5.2913Y-2.5551
X5.3248Y-2.6594
X5.3254Y-3.5774
X5.3268Y-2.7126
X5.3268Y-3.8602
X5.3307Y-1.4291
X5.3642Y-1.5453
X5.3701Y-3.5748
X5.4488Y-3.0236
X5.4528Y-1.3681
X5.4803Y-2.8327
X5.4872Y-3.7091
X5.5236Y-3.9685
X5.5709Y-3.5787
X5.6378Y-2.4961
X5.6614Y-2.6535
X5.6772Y-3.5354
X5.687Y-2.8937
X5.6988Y-2.5571
X5.7421Y-3.5354
X5.8307Y-3.1693
T3
X3.7205Y-2.9311
X3.7992Y-2.9311
T4
X3.9744Y-1.1352
X3.9744Y-1.2352
X4.0744Y-1.1352
X4.0744Y-1.2352
X4.1744Y-1.1352
X4.1744Y-1.2352
X4.2744Y-1.1352
X4.2744Y-1.2352
X4.3744Y-1.1352
X4.3744Y-1.2352
X4.4744Y-1.1352
X4.4744Y-1.2352
X4.5744Y-1.1352
X4.5744Y-1.2352
X4.6744Y-1.1352
X4.6744Y-1.2352
X4.7744Y-1.1352
X4.7744Y-1.2352
X4.8744Y-1.1352
X4.8744Y-1.2352
X4.9744Y-1.1352
X4.9744Y-1.2352
X5.0744Y-1.1352
X5.0744Y-1.2352
X5.1744Y-1.1352
X5.1744Y-1.2352
X5.2744Y-1.1352
X5.2744Y-1.2352
X5.3744Y-1.1352
X5.3744Y-1.2352
X5.4744Y-1.1352
X5.4744Y-1.2352
T5
X3.6752Y-3.9764
X3.748Y-3.6142
X3.937Y-3.6142
X4.126Y-3.6142
X4.1988Y-3.9764
T2
G00X5.2197Y-3.7835
M15
G01X5.2197Y-3.8268
M16
G05
G00X5.2197Y-3.954
M15
G01X5.2197Y-3.9855
M16
G05
G00X5.5598Y-3.7835
M15
G01X5.5598Y-3.8268
M16
G05
G00X5.5598Y-3.954
M15
G01X5.5598Y-3.9855
M16
G05
M30
